<svg xmlns="http://www.w3.org/2000/svg" xmlns:xlink="http://www.w3.org/1999/xlink" viewBox="0 0 1080 1080"><defs><style>.cls-1,.cls-14{fill:url(#linear-gradient);}.cls-1{clip-rule:evenodd;}.cls-2{isolation:isolate;}.cls-3{fill:url(#New_Gradient_Swatch);}.cls-4{fill:url(#New_Gradient_Swatch-2);}.cls-5{fill:url(#New_Gradient_Swatch-3);}.cls-6{fill:url(#Áåçûìÿííûé_ãðàäèåíò_36);}.cls-7{fill:url(#Áåçûìÿííûé_ãðàäèåíò_36-2);}.cls-8{fill:url(#Áåçûìÿííûé_ãðàäèåíò_36-3);}.cls-9{fill:url(#Áåçûìÿííûé_ãðàäèåíò_12);}.cls-10{fill:url(#Áåçûìÿííûé_ãðàäèåíò_10);}.cls-11,.cls-59,.cls-65{fill:#fff;}.cls-12,.cls-13,.cls-14,.cls-17,.cls-18,.cls-19,.cls-20{fill-rule:evenodd;}.cls-12{fill:url(#linear-gradient-2);}.cls-13{fill:url(#linear-gradient-3);}.cls-15{clip-path:url(#clip-path);}.cls-16{fill:url(#linear-gradient-5);}.cls-17{fill:url(#linear-gradient-6);}.cls-18{fill:url(#linear-gradient-7);}.cls-19{fill:#102b6e;}.cls-20,.cls-21{fill:#dee1f1;}.cls-22,.cls-48,.cls-49,.cls-57,.cls-58{opacity:0.72;}.cls-22,.cls-45,.cls-46,.cls-47,.cls-48,.cls-49,.cls-57,.cls-58,.cls-69,.cls-72,.cls-73,.cls-76,.cls-77,.cls-80,.cls-81{mix-blend-mode:screen;}.cls-22{fill:url(#Áåçûìÿííûé_ãðàäèåíò_143);}.cls-23{fill:none;stroke:#00a0e8;stroke-miterlimit:22.93;stroke-width:0.19px;}.cls-24{fill:url(#linear-gradient-8);}.cls-25,.cls-29,.cls-36,.cls-52,.cls-56,.cls-61,.cls-66{opacity:0.51;}.cls-25{fill:url(#linear-gradient-9);}.cls-26{fill:url(#linear-gradient-10);}.cls-27{fill:url(#linear-gradient-11);}.cls-28{fill:url(#linear-gradient-12);}.cls-29{fill:url(#linear-gradient-13);}.cls-30{fill:url(#linear-gradient-14);}.cls-31{fill:url(#linear-gradient-15);}.cls-32{fill:url(#linear-gradient-16);}.cls-33{fill:url(#linear-gradient-17);}.cls-34{fill:url(#linear-gradient-18);}.cls-35{fill:url(#linear-gradient-19);}.cls-36{fill:url(#linear-gradient-20);}.cls-37,.cls-45,.cls-46,.cls-47,.cls-65,.cls-69,.cls-72,.cls-73,.cls-76,.cls-77,.cls-80,.cls-81{opacity:0.5;}.cls-37{mix-blend-mode:multiply;fill:url(#Áåçûìÿííûé_ãðàäèåíò_416);}.cls-38{fill:url(#linear-gradient-21);}.cls-39{fill:url(#linear-gradient-22);}.cls-40{fill:url(#linear-gradient-23);}.cls-41{fill:url(#linear-gradient-24);}.cls-42{fill:url(#linear-gradient-25);}.cls-43{fill:url(#linear-gradient-26);}.cls-44{fill:url(#linear-gradient-27);}.cls-45{fill:url(#Áåçûìÿííûé_ãðàäèåíò_54);}.cls-46{fill:url(#Áåçûìÿííûé_ãðàäèåíò_54-2);}.cls-47{fill:url(#Áåçûìÿííûé_ãðàäèåíò_54-3);}.cls-48{fill:url(#Áåçûìÿííûé_ãðàäèåíò_143-2);}.cls-49{fill:url(#Áåçûìÿííûé_ãðàäèåíò_134);}.cls-50{fill:url(#linear-gradient-28);}.cls-51{fill:url(#linear-gradient-29);}.cls-52{fill:url(#linear-gradient-30);}.cls-53{fill:url(#linear-gradient-31);}.cls-54{fill:url(#linear-gradient-32);}.cls-55{fill:url(#linear-gradient-33);}.cls-56{fill:url(#linear-gradient-34);}.cls-57{fill:url(#Áåçûìÿííûé_ãðàäèåíò_134-2);}.cls-58{fill:url(#Áåçûìÿííûé_ãðàäèåíò_143-3);}.cls-59{opacity:0.65;}.cls-60{fill:url(#linear-gradient-35);}.cls-61{fill:url(#linear-gradient-36);}.cls-62{fill:url(#linear-gradient-37);}.cls-63{fill:url(#linear-gradient-38);}.cls-64{fill:url(#linear-gradient-39);}.cls-66{fill:url(#linear-gradient-40);}.cls-67{fill:url(#linear-gradient-41);}.cls-68{fill:url(#Áåçûìÿííûé_ãðàäèåíò_3);}.cls-69{fill:url(#Áåçûìÿííûé_ãðàäèåíò_54-4);}.cls-70{fill:url(#linear-gradient-42);}.cls-71{fill:url(#linear-gradient-43);}.cls-72{fill:url(#Áåçûìÿííûé_ãðàäèåíò_54-5);}.cls-73{fill:url(#Áåçûìÿííûé_ãðàäèåíò_54-6);}.cls-74{fill:url(#linear-gradient-44);}.cls-75{fill:url(#linear-gradient-45);}.cls-76{fill:url(#Áåçûìÿííûé_ãðàäèåíò_54-7);}.cls-77{fill:url(#Áåçûìÿííûé_ãðàäèåíò_54-8);}.cls-78{fill:url(#linear-gradient-46);}.cls-79{fill:url(#linear-gradient-47);}.cls-80{fill:url(#Áåçûìÿííûé_ãðàäèåíò_54-9);}.cls-81{fill:url(#Áåçûìÿííûé_ãðàäèåíò_54-10);}</style><linearGradient id="linear-gradient" x1="748.3" y1="586.55" x2="171.9" y2="835.31" gradientUnits="userSpaceOnUse"><stop offset="0" stop-color="#7d287a"/><stop offset="0.25" stop-color="#612a78"/><stop offset="0.52" stop-color="#4a2b77"/><stop offset="0.78" stop-color="#3c2c76"/><stop offset="1" stop-color="#372c76"/></linearGradient><linearGradient id="New_Gradient_Swatch" x1="151.83" y1="901.43" x2="855.35" y2="254.12" gradientUnits="userSpaceOnUse"><stop offset="0" stop-color="#231b51"/><stop offset="0.32" stop-color="#2d2363"/><stop offset="0.68" stop-color="#342a71"/><stop offset="1" stop-color="#372c76"/></linearGradient><linearGradient id="New_Gradient_Swatch-2" x1="439.69" y1="1161.88" x2="1133.96" y2="523.08" xlink:href="#New_Gradient_Swatch"/><linearGradient id="New_Gradient_Swatch-3" x1="-96.01" y1="659.18" x2="608.77" y2="10.72" xlink:href="#New_Gradient_Swatch"/><linearGradient id="Áåçûìÿííûé_ãðàäèåíò_36" x1="145.35" y1="897.43" x2="848.88" y2="250.12" gradientUnits="userSpaceOnUse"><stop offset="0.02" stop-color="#d4cbe2"/><stop offset="1" stop-color="#f3e6ee"/></linearGradient><linearGradient id="Áåçûìÿííûé_ãðàäèåíò_36-2" x1="433.22" y1="1157.88" x2="1127.49" y2="519.08" xlink:href="#Áåçûìÿííûé_ãðàäèåíò_36"/><linearGradient id="Áåçûìÿííûé_ãðàäèåíò_36-3" x1="-102.48" y1="655.18" x2="602.3" y2="6.72" xlink:href="#Áåçûìÿííûé_ãðàäèåíò_36"/><linearGradient id="Áåçûìÿííûé_ãðàäèåíò_12" x1="304.31" y1="446.3" x2="304.31" y2="340.77" gradientTransform="translate(589.84 14.77) rotate(11.26)" gradientUnits="userSpaceOnUse"><stop offset="0" stop-color="#a242ea"/><stop offset="1" stop-color="#fe117e"/></linearGradient><linearGradient id="Áåçûìÿííûé_ãðàäèåíò_10" x1="297.38" y1="445.5" x2="297.38" y2="340.76" gradientTransform="translate(589.84 14.77) rotate(11.26)" gradientUnits="userSpaceOnUse"><stop offset="0" stop-color="#d93de3"/><stop offset="1" stop-color="#ff6dba"/></linearGradient><linearGradient id="linear-gradient-2" x1="669.98" y1="597.96" x2="83.87" y2="917.11" xlink:href="#linear-gradient"/><linearGradient id="linear-gradient-3" x1="817.44" y1="606.46" x2="133.03" y2="845.52" gradientUnits="userSpaceOnUse"><stop offset="0" stop-color="#f79420"/><stop offset="0.58" stop-color="#f15c56"/><stop offset="0.9" stop-color="#ee4270"/></linearGradient><clipPath id="clip-path"><path class="cls-1" d="M126.92,587H588.74c3.33,0,5.14,2.85,6,6l82.34,288.47c.91,3.2-2.73,6.06-6,6.06H193.76c-3.33,0-5.3-2.81-6-6.06L120.87,593.06c-.75-3.24,2.72-6,6-6"/></clipPath><linearGradient id="linear-gradient-5" x1="748.31" y1="586.57" x2="171.91" y2="835.34" xlink:href="#linear-gradient"/><linearGradient id="linear-gradient-6" x1="786.03" y1="833.76" x2="210.03" y2="1006.08" xlink:href="#linear-gradient"/><linearGradient id="linear-gradient-7" x1="887.59" y1="877.85" x2="620.63" y2="973.71" xlink:href="#linear-gradient-3"/><linearGradient id="Áåçûìÿííûé_ãðàäèåíò_143" x1="302.34" y1="682.59" x2="503.51" y2="857.34" gradientUnits="userSpaceOnUse"><stop offset="0" stop-color="#d5dff1"/><stop offset="1"/></linearGradient><linearGradient id="linear-gradient-8" x1="-1377.76" y1="735.78" x2="-1359.07" y2="586.93" gradientTransform="translate(1962.06)" gradientUnits="userSpaceOnUse"><stop offset="0" stop-color="#ffd587"/><stop offset="0.41" stop-color="#ea9f74"/><stop offset="0.8" stop-color="#d87164"/><stop offset="1" stop-color="#d15f5e"/></linearGradient><linearGradient id="linear-gradient-9" x1="-1390.68" y1="738.34" x2="-1390.68" y2="579.31" gradientTransform="translate(1962.06)" gradientUnits="userSpaceOnUse"><stop offset="0" stop-color="#c0445f" stop-opacity="0.1"/><stop offset="0.18" stop-color="#bf435e" stop-opacity="0.12"/><stop offset="0.34" stop-color="#bd415c" stop-opacity="0.2"/><stop offset="0.51" stop-color="#b83e57" stop-opacity="0.32"/><stop offset="0.67" stop-color="#b23951" stop-opacity="0.49"/><stop offset="0.83" stop-color="#aa344a" stop-opacity="0.72"/><stop offset="0.99" stop-color="#a02c40" stop-opacity="0.99"/><stop offset="1" stop-color="#a02c40"/></linearGradient><linearGradient id="linear-gradient-10" x1="-1260.19" y1="747.45" x2="-1370.22" y2="626.64" gradientTransform="translate(1962.06)" xlink:href="#linear-gradient"/><linearGradient id="linear-gradient-11" x1="-1186.06" y1="651.96" x2="-1312.26" y2="709.94" xlink:href="#linear-gradient-8"/><linearGradient id="linear-gradient-12" x1="-1280.15" y1="705.34" x2="-1284.88" y2="658.94" gradientTransform="translate(1962.06)" xlink:href="#linear-gradient"/><linearGradient id="linear-gradient-13" x1="-1296.26" y1="684.13" x2="-1224.69" y2="684.13" xlink:href="#linear-gradient-9"/><linearGradient id="linear-gradient-14" x1="-1230.85" y1="651.72" x2="-1312.83" y2="676.8" xlink:href="#linear-gradient-8"/><linearGradient id="linear-gradient-15" x1="-1202.08" y1="667.31" x2="-1288.91" y2="667.85" gradientTransform="translate(1962.06)" xlink:href="#linear-gradient"/><linearGradient id="linear-gradient-16" x1="-1288.45" y1="214.86" x2="-1141.62" y2="366.54" gradientTransform="matrix(-1, 0, 0, 1, -642.28, 0)" xlink:href="#linear-gradient"/><linearGradient id="linear-gradient-17" x1="-1259.61" y1="167.11" x2="-998.71" y2="437.72" gradientTransform="matrix(-1, 0, 0, 1, -642.28, 0)" xlink:href="#linear-gradient-8"/><linearGradient id="linear-gradient-18" x1="-1076.93" y1="935.71" x2="-1032.53" y2="582.2" gradientTransform="matrix(-0.98, 0.19, 0.19, 0.98, -741.52, -151.18)" xlink:href="#linear-gradient-8"/><linearGradient id="linear-gradient-19" x1="-1024.41" y1="624.93" x2="-967.78" y2="713.38" gradientTransform="matrix(-1, 0, 0, 1, -642.28, 0)" xlink:href="#linear-gradient-8"/><linearGradient id="linear-gradient-20" x1="-1057.95" y1="927.87" x2="-1057.95" y2="697.05" gradientTransform="matrix(-0.98, 0.19, 0.19, 0.98, -741.52, -151.18)" xlink:href="#linear-gradient-9"/><linearGradient id="Áåçûìÿííûé_ãðàäèåíò_416" x1="-1039.34" y1="922.93" x2="-1039.34" y2="855.8" gradientTransform="matrix(-0.98, 0.19, 0.19, 0.98, -741.52, -151.18)" gradientUnits="userSpaceOnUse"><stop offset="0" stop-color="#8fa1d2"/><stop offset="1" stop-color="#735ea8"/></linearGradient><linearGradient id="linear-gradient-21" x1="-1256.4" y1="541.53" x2="-934.82" y2="485.71" gradientTransform="matrix(-1, 0, 0, 1, -642.28, 0)" xlink:href="#linear-gradient"/><linearGradient id="linear-gradient-22" x1="-1320.11" y1="204.13" x2="-977.91" y2="514.78" gradientTransform="matrix(-1, 0, 0, 1, -642.28, 0)" xlink:href="#linear-gradient"/><linearGradient id="linear-gradient-23" x1="-1155.55" y1="66.78" x2="-894.65" y2="337.39" gradientTransform="matrix(-1, 0, 0, 1, -642.28, 0)" xlink:href="#linear-gradient-8"/><linearGradient id="linear-gradient-24" x1="-929.18" y1="373.25" x2="-929.18" y2="199.8" gradientTransform="matrix(-1, -0.01, -0.01, 1, -642.22, 12.34)" xlink:href="#linear-gradient"/><linearGradient id="linear-gradient-25" x1="-793.39" y1="250.15" x2="-1038.52" y2="370.28" gradientTransform="matrix(-1, 0, 0, 1, -642.28, 0)" xlink:href="#linear-gradient"/><linearGradient id="linear-gradient-26" x1="-1270.1" y1="209.29" x2="-1016.48" y2="388.89" gradientTransform="matrix(-1, 0, 0, 1, -642.28, 0)" gradientUnits="userSpaceOnUse"><stop offset="0" stop-color="#ffda95"/><stop offset="0.21" stop-color="#fece81"/><stop offset="0.63" stop-color="#fab04f"/><stop offset="1" stop-color="#f6921e"/></linearGradient><linearGradient id="linear-gradient-27" x1="-1321.95" y1="282.52" x2="-1068.34" y2="462.12" xlink:href="#linear-gradient-26"/><linearGradient id="Áåçûìÿííûé_ãðàäèåíò_54" x1="-1220.66" y1="651.65" x2="-990.65" y2="651.65" gradientTransform="matrix(-0.98, 0.19, 0.19, 0.98, -741.52, -151.18)" gradientUnits="userSpaceOnUse"><stop offset="0"/><stop offset="1" stop-color="#7592cb"/></linearGradient><linearGradient id="Áåçûìÿííûé_ãðàäèåíò_54-2" x1="-1206.45" y1="837.42" x2="-1037.9" y2="837.42" xlink:href="#Áåçûìÿííûé_ãðàäèåíò_54"/><linearGradient id="Áåçûìÿííûé_ãðàäèåíò_54-3" x1="-1244.48" y1="837.41" x2="-1244.48" y2="727.58" xlink:href="#Áåçûìÿííûé_ãðàäèåíò_54"/><linearGradient id="Áåçûìÿííûé_ãðàäèåíò_143-2" x1="-919.34" y1="372" x2="-919.34" y2="322.35" gradientTransform="matrix(-1, -0.01, -0.01, 1, -642.22, 12.34)" xlink:href="#Áåçûìÿííûé_ãðàäèåíò_143"/><linearGradient id="Áåçûìÿííûé_ãðàäèåíò_134" x1="-960.62" y1="238.64" x2="-863.34" y2="238.64" gradientTransform="matrix(-1, -0.01, -0.01, 1, -642.22, 12.34)" gradientUnits="userSpaceOnUse"><stop offset="0"/><stop offset="1" stop-color="#d5dff1"/></linearGradient><linearGradient id="linear-gradient-28" x1="-1325.46" y1="287.47" x2="-1071.84" y2="467.06" xlink:href="#linear-gradient-26"/><linearGradient id="linear-gradient-29" x1="-1080.73" y1="300.91" x2="-1038.69" y2="-33.75" gradientTransform="matrix(-0.96, -0.29, -0.29, 0.96, -528.61, 261.14)" xlink:href="#linear-gradient-8"/><linearGradient id="linear-gradient-30" x1="-986.31" y1="280.43" x2="-986.31" y2="73.43" gradientTransform="matrix(-0.96, -0.29, -0.29, 0.96, -528.61, 261.14)" xlink:href="#linear-gradient-9"/><linearGradient id="linear-gradient-31" x1="-1215.97" y1="763.36" x2="-940.51" y2="770.64" gradientTransform="matrix(-1, 0, 0, 1, -642.28, 0)" xlink:href="#linear-gradient"/><linearGradient id="linear-gradient-32" x1="-1105.08" y1="572.72" x2="-977.8" y2="637.98" gradientTransform="matrix(-1, 0, 0, 1, -642.28, 0)" gradientUnits="userSpaceOnUse"><stop offset="0" stop-color="#ffd587"/><stop offset="0.22" stop-color="#efac79"/><stop offset="0.44" stop-color="#e28a6d"/><stop offset="0.65" stop-color="#d97265"/><stop offset="0.84" stop-color="#d36460"/><stop offset="1" stop-color="#d15f5e"/></linearGradient><linearGradient id="linear-gradient-33" x1="-1058.61" y1="555.66" x2="-1029.48" y2="640.61" gradientTransform="matrix(-1, 0, 0, 1, -642.28, 0)" xlink:href="#linear-gradient"/><linearGradient id="linear-gradient-34" x1="-1148.59" y1="624.25" x2="-1111.38" y2="524.74" gradientTransform="matrix(-1, 0, 0, 1, -642.28, 0)" xlink:href="#linear-gradient-9"/><linearGradient id="Áåçûìÿííûé_ãðàäèåíò_134-2" x1="-1168.75" y1="136.71" x2="-1032.58" y2="136.71" gradientTransform="matrix(-0.96, -0.29, -0.29, 0.96, -528.61, 261.14)" xlink:href="#Áåçûìÿííûé_ãðàäèåíò_134"/><linearGradient id="Áåçûìÿííûé_ãðàäèåíò_143-3" x1="-1093.91" y1="294.1" x2="-1093.91" y2="278.38" gradientTransform="matrix(-0.96, -0.29, -0.29, 0.96, -528.61, 261.14)" xlink:href="#Áåçûìÿííûé_ãðàäèåíò_143"/><linearGradient id="linear-gradient-35" x1="877" y1="743.02" x2="1023.63" y2="584.36" gradientTransform="matrix(-0.98, -0.19, -0.19, 0.98, 1435.9, 184.78)" xlink:href="#linear-gradient-8"/><linearGradient id="linear-gradient-36" x1="850.29" y1="773.41" x2="1057.28" y2="549.44" gradientTransform="matrix(-0.98, -0.19, -0.19, 0.98, 1435.9, 184.78)" xlink:href="#linear-gradient-9"/><linearGradient id="linear-gradient-37" x1="1070.96" y1="623.18" x2="1070.96" y2="571.47" gradientTransform="matrix(-0.84, 0.55, 0.55, 0.84, 1019.63, -415.36)" xlink:href="#linear-gradient"/><linearGradient id="linear-gradient-38" x1="1029.7" y1="661.19" x2="1041.51" y2="567.18" gradientTransform="matrix(-0.84, 0.55, 0.55, 0.84, 1019.63, -415.36)" xlink:href="#linear-gradient-8"/><linearGradient id="linear-gradient-39" x1="1050.94" y1="660.04" x2="1050.94" y2="629.7" gradientTransform="matrix(-0.84, 0.55, 0.55, 0.84, 1019.63, -415.36)" xlink:href="#linear-gradient"/><linearGradient id="linear-gradient-40" x1="1026.06" y1="660.04" x2="1026.06" y2="576.88" gradientTransform="matrix(-0.84, 0.55, 0.55, 0.84, 1019.63, -415.36)" xlink:href="#linear-gradient-9"/><linearGradient id="linear-gradient-41" x1="293.76" y1="610.94" x2="317.85" y2="419.1" gradientTransform="translate(61.75 -91.4) rotate(6.38)" xlink:href="#linear-gradient"/><linearGradient id="Áåçûìÿííûé_ãðàäèåíò_3" x1="394.36" y1="342.15" x2="394.36" y2="286.83" gradientTransform="translate(3.93 200.94) rotate(-2.22)" gradientUnits="userSpaceOnUse"><stop offset="0" stop-color="#dd1a8f"/><stop offset="1" stop-color="#fe117e"/></linearGradient><linearGradient id="Áåçûìÿííûé_ãðàäèåíò_54-4" x1="446.21" y1="521.84" x2="394.43" y2="485.44" gradientTransform="matrix(1, 0, 0, 1, 0, 0)" xlink:href="#Áåçûìÿííûé_ãðàäèåíò_54"/><linearGradient id="linear-gradient-42" x1="665.06" y1="582.03" x2="931.22" y2="352.28" xlink:href="#linear-gradient"/><linearGradient id="linear-gradient-43" x1="1021.72" y1="411.49" x2="872.86" y2="564.66" gradientTransform="translate(14.01 -28.08) rotate(1.74)" xlink:href="#linear-gradient"/><linearGradient id="Áåçûìÿííûé_ãðàäèåíò_54-5" x1="862.18" y1="500.8" x2="988.35" y2="500.8" gradientTransform="translate(14.01 -28.08) rotate(1.74)" xlink:href="#Áåçûìÿííûé_ãðàäèåíò_54"/><linearGradient id="Áåçûìÿííûé_ãðàäèåíò_54-6" x1="878.58" y1="504.31" x2="956.17" y2="504.31" gradientTransform="translate(14.01 -28.08) rotate(1.74)" xlink:href="#Áåçûìÿííûé_ãðàäèåíò_54"/><linearGradient id="linear-gradient-44" x1="948.71" y1="347.21" x2="804.71" y2="614.18" gradientTransform="translate(14.01 -28.08) rotate(1.74)" xlink:href="#linear-gradient"/><linearGradient id="linear-gradient-45" x1="871.59" y1="383.3" x2="900.72" y2="403.12" gradientTransform="translate(14.01 -28.08) rotate(1.74)" xlink:href="#linear-gradient"/><linearGradient id="Áåçûìÿííûé_ãðàäèåíò_54-7" x1="917.34" y1="413.04" x2="949.79" y2="413.04" gradientTransform="translate(14.01 -28.08) rotate(1.74)" xlink:href="#Áåçûìÿííûé_ãðàäèåíò_54"/><linearGradient id="Áåçûìÿííûé_ãðàäèåíò_54-8" x1="888.79" y1="408.95" x2="945.64" y2="408.95" gradientTransform="translate(14.01 -28.08) rotate(1.74)" xlink:href="#Áåçûìÿííûé_ãðàäèåíò_54"/><linearGradient id="linear-gradient-46" x1="978.21" y1="363.13" x2="834.21" y2="630.1" gradientTransform="translate(14.01 -28.08) rotate(1.74)" xlink:href="#linear-gradient"/><linearGradient id="linear-gradient-47" x1="830.43" y1="572.6" x2="844.18" y2="577.45" gradientTransform="translate(14.01 -28.08) rotate(1.74)" gradientUnits="userSpaceOnUse"><stop offset="0.62" stop-color="#7d287a"/><stop offset="0.72" stop-color="#612a78"/><stop offset="0.82" stop-color="#4a2b77"/><stop offset="0.92" stop-color="#3c2c76"/><stop offset="1" stop-color="#372c76"/></linearGradient><linearGradient id="Áåçûìÿííûé_ãðàäèåíò_54-9" x1="863.9" y1="587.87" x2="892.97" y2="587.87" gradientTransform="translate(14.01 -28.08) rotate(1.74)" xlink:href="#Áåçûìÿííûé_ãðàäèåíò_54"/><linearGradient id="Áåçûìÿííûé_ãðàäèåíò_54-10" x1="832.88" y1="580.13" x2="889.85" y2="580.13" gradientTransform="translate(14.01 -28.08) rotate(1.74)" xlink:href="#Áåçûìÿííûé_ãðàäèåíò_54"/></defs><g class="cls-2"><g id="Layer_1" data-name="Layer 1"><path class="cls-3" d="M230.66,806.33c48.87,91.76,520.43,78.41,639.24,7.15S724.81,143.26,405.48,155.76C172.34,164.88,105.24,570.84,230.66,806.33Z"/><path class="cls-4" d="M926.78,764.05c-20.19-2.94-32.78-98.87-8.88-117.4s73,23.78,73,55.94S961.83,769.17,926.78,764.05Z"/><path class="cls-5" d="M144.81,426.71c14.69,5.41,7.15,57.44-13.45,61.77S88.18,463.6,92.54,448.72,123.55,418.88,144.81,426.71Z"/><path class="cls-6" d="M224.19,802.33c48.87,91.76,520.43,78.41,639.24,7.15S718.34,139.26,399,151.76C165.87,160.88,98.77,566.84,224.19,802.33Z"/><path class="cls-7" d="M920.31,760.05c-20.2-2.94-32.78-98.87-8.88-117.4s73,23.78,73,55.94S955.36,765.17,920.31,760.05Z"/><path class="cls-8" d="M138.34,422.71c14.69,5.41,7.15,57.44-13.46,61.77S81.71,459.6,86.07,444.72,117.08,414.88,138.34,422.71Z"/><path class="cls-9" d="M812.75,406.76c35.25,4.43,60.12,37,49.38,70.16-.16.51-.33,1-.49,1.53-8.34,26-35.75,47.62-82.39,26,0,0-25.94-26-20.4-52.9.08-.4.16-.8.25-1.2C764.1,426.54,794.65,404.49,812.75,406.76Z"/><path class="cls-10" d="M803.17,406.4h3.73c34.83.17,59.54,34.18,48.8,67.31-.16.51-.33,1-.49,1.53a51.55,51.55,0,0,1-62,34.16l-3.19-.82a51.51,51.51,0,0,1-37.58-60.21c.08-.4.16-.8.25-1.2A51.46,51.46,0,0,1,803.17,406.4Z"/><path class="cls-11" d="M796.35,441.86c.75-2.17.95-3.62.56-4.39a2.41,2.41,0,0,0-2.3-1.19,5.18,5.18,0,0,0-3.15,1,7,7,0,0,0-2.36,3.5c-.73,2-1.07,3-1.75,5-2.73-.21-4.09-.32-6.82-.55.56-1.79.85-2.67,1.45-4.42a16.16,16.16,0,0,1,6-8.25,16.49,16.49,0,0,1,9.55-2.91c3.54,0,5.66,1,6.63,3.1s.78,5.14-.52,9.19a30.46,30.46,0,0,1-3.26,7.11,37.92,37.92,0,0,1-4.44,5.73,58.59,58.59,0,0,1-5,4.69q-2.55,2.14-4.73,4.11a31.55,31.55,0,0,0-3.72,4,11.55,11.55,0,0,0-2.14,4.43,9.36,9.36,0,0,0-.24,1.27c5.18.68,8.06,1,14.05,1.56-.77,3.28-1.15,4.95-1.94,8.37-9.38-.6-13.82-.88-20.52-1.82.69-3.28,1-4.84,1.67-7.85a26.63,26.63,0,0,1,2.59-7.39,25.21,25.21,0,0,1,3.79-5.2,42.78,42.78,0,0,1,4.52-4.13q2.38-1.87,4.69-4a35.48,35.48,0,0,0,4.2-4.76A23.57,23.57,0,0,0,796.35,441.86Z"/><path class="cls-11" d="M800.35,465c9.22-14.24,13.66-21.18,22.88-34.8h8.09c-3.51,14-4.88,22.29-7.34,37.41l3.92.49c-.51,3.21-.75,4.8-1.22,7.9l-4-.49c-.62,3.95-.92,5.9-1.5,9.64-3.38-.3-5.1-.43-8.51-.68.68-3.91,1-5.9,1.74-9.9-6.48-.69-9.74-1-15.94-1.62C799.25,469.76,799.61,468.17,800.35,465Zm15.53,1.68c1.53-8.35,2.34-12.58,4.16-20.72-4.94,7.95-7.37,11.88-12.38,19.82Z"/><path class="cls-12" d="M107.64,570.09H578.87c11.55,0,18,9.87,21,21l88.23,321.45c3.06,11.15-9.45,21-21,21H179.9c-11.56,0-18.48-9.74-21-21L86.63,591.1c-2.54-11.28,9.45-21,21-21"/><path class="cls-13" d="M121.53,570.09H592.76c11.56,0,18,9.87,21,21L702,912.55c3.06,11.15-9.46,21-21,21H193.79c-11.55,0-18.48-9.74-21-21L100.52,591.1c-2.53-11.28,9.46-21,21-21"/><path class="cls-14" d="M126.92,587H588.74c3.33,0,5.14,2.85,6,6l82.34,288.47c.91,3.2-2.73,6.06-6,6.06H193.76c-3.33,0-5.3-2.81-6-6.06L120.87,593.06c-.75-3.24,2.72-6,6-6"/><g class="cls-15"><rect class="cls-16" x="120.12" y="587.01" width="557.92" height="300.58"/></g><path class="cls-17" d="M171.93,908.18H805v16.74a16.79,16.79,0,0,1-16.74,16.74H188.66a16.79,16.79,0,0,1-16.73-16.74Z"/><path class="cls-18" d="M528.54,908.18H998.31v16.74a16.79,16.79,0,0,1-16.73,16.74H545.28a16.79,16.79,0,0,1-16.74-16.74Z"/><path class="cls-19" d="M717.84,921.24h144a3.19,3.19,0,1,1,0,6.37h-144a3.19,3.19,0,1,1,0-6.37"/><path class="cls-20" d="M187.1,914.45c3.8,0,6.88,3.85,6.88,8.61s-3.08,8.61-6.88,8.61-6.88-3.85-6.88-8.61,3.08-8.61,6.88-8.61"/><rect class="cls-21" x="312.52" y="920.27" width="86.42" height="9.39"/><rect class="cls-21" x="407.4" y="920.27" width="22.07" height="9.39"/><rect class="cls-21" x="437.22" y="920.27" width="22.07" height="9.39"/><rect class="cls-21" x="218.58" y="920.22" width="4.39" height="21.43"/><rect class="cls-21" x="227.68" y="920.22" width="4.39" height="21.43"/><rect class="cls-21" x="236.77" y="920.22" width="4.39" height="21.43"/><rect class="cls-21" x="245.86" y="920.22" width="4.39" height="21.43"/><rect class="cls-21" x="254.96" y="920.22" width="4.39" height="21.43"/><rect class="cls-21" x="264.05" y="920.22" width="4.39" height="21.43"/><rect class="cls-21" x="273.14" y="920.22" width="4.39" height="21.43"/><rect class="cls-21" x="273.14" y="920.22" width="4.39" height="21.43"/><rect class="cls-21" x="282.24" y="920.22" width="4.39" height="21.43"/><rect class="cls-21" x="282.24" y="920.22" width="4.39" height="21.43"/><rect class="cls-21" x="291.33" y="920.22" width="4.39" height="21.43"/><path class="cls-21" d="M153.2,599.66H492.85c13.91,0,19.36,21.76,2.11,21.76H153.2a10.93,10.93,0,0,1-10.88-10.88h0a10.93,10.93,0,0,1,10.88-10.88m339.65.78H153.2a10.11,10.11,0,0,0-10.1,10.1h0a10.11,10.11,0,0,0,10.1,10.1H495C511.17,620.64,505.75,600.44,492.85,600.44Z"/><path class="cls-22" d="M330.49,728.5a173.71,173.71,0,0,0,6.58,59.58c9.31,30.74,49.84,84.94,102.58,89S543.91,830,539.59,793.46,330.49,728.5,330.49,728.5Z"/><path class="cls-23" d="M491.93,600.05H462.64l4.86,21h29.32C508.91,621,510.3,600.05,491.93,600.05Z"/><path class="cls-24" d="M670,662.76s0,33.38-13.42,54.22c-7.63,11.87-21,18.68-36.36,20.71a88.54,88.54,0,0,1-37.13-3.51c-28.93-8.9-47.92-54-58.13-98.3s14.33-57.74,17.8-56.49c6.41,2.33,22.43,23.17,40.84,42C593,631,603,640,612.63,645.83,641.26,663.09,670,662.76,670,662.76Z"/><path class="cls-25" d="M620.25,737.69a88.54,88.54,0,0,1-37.13-3.51c-28.93-8.9-47.92-54-58.13-98.3s14.33-57.74,17.8-56.49c6.41,2.33,22.43,23.17,40.84,42,0,0-14.87,31.8-8.5,74.9S620.25,737.69,620.25,737.69Z"/><path class="cls-26" d="M642.76,658.6C626,663.83,624,720.77,640,728s38.34-42.59,30-65.27C670,662.76,655.11,654.74,642.76,658.6Z"/><path class="cls-27" d="M644.25,665.22s-11.93,11.83-6.82,31S668.1,728.44,700.05,728s52.4-23.47,56.87-37.49c0,0-5.75-11.8-37.06-19-21.29-4.93-49.84-8.73-49.84-8.73S655.19,660.57,644.25,665.22Z"/><path class="cls-28" d="M638.69,699.93a139.44,139.44,0,0,0,61.36,3.2c33.23-6,23.1-29.71,23.1-29.71s-16.28-8.18-31.19-11.17-47.24,0-47.24,0S627.05,677.56,638.69,699.93Z"/><path class="cls-29" d="M665.8,674.41s14.76,16.05,33.93,20.73,37.64-18.24,37.64-18.24-9.82-3.5-12.92-4.27S665.8,674.41,665.8,674.41Z"/><path class="cls-30" d="M646.72,663.66c-4.8-14.79,61.73-14.59,70.58-8.9,3.93,2.54,10.63,11.3,7.87,16.65s-24.61,8.62-33.76,7.71S649.87,673.37,646.72,663.66Z"/><path class="cls-31" d="M697.64,679.2s-.68-14.56,6.88-20.36S719,656.07,719,656.07s9.91,7.38,6.2,15.34S702.57,681.26,697.64,679.2Z"/><path class="cls-32" d="M555.46,232.81s35.22,25.25,49.47,81.67-67.73-13.25-67.73-13.25Z"/><path class="cls-33" d="M586.47,291.73S559.65,224,535,213.27s-61.4,10.37-61.4,10.37Z"/><path class="cls-34" d="M281.28,521.09c64.56,68.34,312.29,33.41,346.93-13.63,13.8-18.73,20.59-41.23,21.47-65.28v-.07c3.64-103-101.26-234.77-231.19-224.6-88,6.92-146.31,92.06-161.7,173.9C247.12,442.57,254.21,492.44,281.28,521.09Z"/><path class="cls-35" d="M336.58,549.28c32.79,7.44,80.86,11.21,112.33,9.37,58.43-3.42,100.16-12.4,123.16-23.17h0c15.14-7.1,22.17-14.91,20.65-22.43-.92-4.58-12.63-8-30.88-10.26-53.62-6.56-163.59-3.16-222.24,9.19-5.06,1.08-9.74,2.2-13.94,3.41-.93.25-1.77.52-2.62.79a2.62,2.62,0,0,0-.48.13c-10.07,3.1-17.15,6.59-20.14,10.51a7.59,7.59,0,0,0-1.51,3C299.16,537.57,314.36,544.26,336.58,549.28Z"/><path class="cls-36" d="M281.28,521.09c64.56,68.34,312.29,33.41,346.93-13.63,13.8-18.73,20.59-41.23,21.47-65.28v-.07s-14.8,33.49-65,42.55-198,10.13-229.13-10.27S330.06,352.1,330.06,352.1l-73.28,39.31C247.12,442.57,254.21,492.44,281.28,521.09Z"/><path class="cls-37" d="M336.58,549.28c24.56-12.41,96.51-45,156.21-35.16,73.23,12,79.28,21.36,79.28,21.36h0c15.14-7.1,22.17-14.91,20.65-22.43-.92-4.58-12.63-8-30.88-10.26-53.62-6.56-163.59-3.16-222.24,9.19-6.13,1.47-11.67,2.86-16.56,4.2a2.62,2.62,0,0,0-.48.13c-10.07,3.1-17.15,6.59-20.14,10.51a7.59,7.59,0,0,0-1.51,3C299.16,537.57,314.36,544.26,336.58,549.28Z"/><path class="cls-38" d="M325.68,515.37c14.57,12.42,81.45,20,119.21,17.82,67.68-4,108.18-17,117-30.42C503.66,495.65,378.89,500.27,325.68,515.37Z"/><path class="cls-21" d="M650.55,446.77c-8.79,31.46-222.78,55.07-280.8,4.36S353,217.69,467.45,227.48C576.6,236.81,666.48,389.76,650.55,446.77Z"/><path class="cls-39" d="M649.65,442.11c-8.79,31.46-222.77,55.07-280.8,4.36S352.06,213,466.55,222.82C575.7,232.15,665.58,385.1,649.65,442.11Z"/><path class="cls-40" d="M351.4,254.05s11.09,105.82-54.35,142.89c0,0-32.05,3.29-50.57-16.25,0,0,28.85,27.4,59.57-.83s23.76-106.48.66-132.07-56.64-19-56.64-19l13.47-12S313,206.93,351.4,254.05Z"/><path class="cls-41" d="M263.54,216.74s36.32-3.17,61.48,39.09c26.72,44.87,6.74,122.11-26,133.7s-65.24-113.72-65.24-113.72L253,226.12S256.82,219.16,263.54,216.74Z"/><path class="cls-42" d="M216.09,323.11c4.55,24.19,14.28,44,27.38,56.54l.11.07,3.66,3.27h0c10.61,8.69,23.18,12.82,36.81,11.16,44.22-5.41,50.49-69.38,45.47-105.68-5.84-41.92-41.56-67.25-70.09-63.72C225.51,229,207.16,275.76,216.09,323.11Z"/><path class="cls-43" d="M465.56,350.79c1.54,2.11-28.1-17-75.3,1.32C385.6,353.92,435.26,309.3,465.56,350.79Z"/><path class="cls-44" d="M614.4,351c1.54,2.1-14-12.91-55.49-2.87C554.05,349.29,587.16,314,614.4,351Z"/><path class="cls-45" d="M590.13,310.73c-4.87,7.36-45.41-13.72-90-9.21s-93.45,48.29-130,42.84c-29-4.33,9.27-108.68,83.17-118S595,303.44,590.13,310.73Z"/><path class="cls-46" d="M603.32,451.55s-46.44-12.31-103.79-5.92S432.94,458.12,434,463.51s42.77,16.47,95.4,10.87S603.32,451.55,603.32,451.55Z"/><path class="cls-47" d="M648.05,433.74s5.88-40.41-30.6-97.61c0,0-7.84-9-11.42-5.74S638.93,375.1,648.05,433.74Z"/><path class="cls-48" d="M322.1,339.52s-4.89,39.23-33.75,47.58S236.12,374.48,228.89,345c0,0,8.92,25.46,46.5,19.14S322.1,339.52,322.1,339.52Z"/><path class="cls-49" d="M317.16,265.33c-.37,7.31-53.23-8.14-70.07-6S223,282.1,220.31,281.6s4.71-48.74,36-52.16S317.42,260.25,317.16,265.33Z"/><path class="cls-50" d="M565.74,391.43s-52.59,1.86-82.41-5.65c0,0,7.05,49.28,41.2,49.28S565.74,391.43,565.74,391.43Z"/><path class="cls-51" d="M330.49,728.5c-.55,18.6,24.17,109.86,92.13,129.1,66.6,18.84,128.77-40.91,132.5-131.69,2.38-57.95.75-110.49-18.64-148.64l0,0v-.07c-11-21.58-27.63-38.5-52.46-49.22-19.6-8.46-39.7-2.56-58.65,12C376,577.84,332.08,674.2,330.49,728.5Z"/><path class="cls-52" d="M403,615.18s-22.39,49.37-32.61,83.68c-12.12,40.71-.7,122.38-.7,122.38L329.94,740.4s-1.55-29.45,9-56,16.43-38.31,16.43-38.31Z"/><path class="cls-21" d="M556,737.44s-.56-54.45-48.24-68.65c-57.13-17-114.44,34.67-123.77,78.53S375.8,835.21,429.26,853C429.26,853,531,880.81,556,737.44Z"/><path class="cls-53" d="M553.62,743.37s-.56-54.45-48.23-68.65c-57.13-17-114.44,34.67-123.77,78.53s-8.19,87.89,45.28,105.65C426.9,858.9,528.65,886.74,553.62,743.37Z"/><path class="cls-54" d="M360.18,662.14c2.48.73,5.74-.55,9.48-3.31,16.71-12.37,43-54.65,50.48-80.25,2.88-9.93,2.95-17.36-1.49-19.57-7.23-3.59-30.39,17.53-48.7,51.47C359.34,630.25,349.6,659,360.18,662.14Z"/><path class="cls-55" d="M369.66,658.83c16.71-12.37,43-54.65,50.48-80.25-10.39,7.46-25.05,24.58-37.5,47.68C377.21,636.31,372.05,648.69,369.66,658.83Z"/><path class="cls-56" d="M426,539.54s62,47.12,89.71,52.07c26.87,4.83,21.75-13.67,21.44-14.73l0,0v-.08c-11-21.58-27.63-38.5-52.46-49.22C465.09,519.09,445,525,426,539.54Z"/><path class="cls-57" d="M548.9,737c-11.27,11.56-32.83-14-67.43-20.08s-57.85,6.24-66-1.48,37-48.71,89-35.41C545.92,690.64,552.74,733.06,548.9,737Z"/><path class="cls-58" d="M474.43,850.29a61.14,61.14,0,0,1-41.72,3.94c-23.47-6.09-27.83-19.63-27.83-19.63s11.62-1.44,27,6.66S462.92,851.64,474.43,850.29Z"/><path class="cls-59" d="M458.75,593.76c4,1.32-.64,42.92-4.29,43.26s-5.56-9.34-4.92-23.24S454.87,592.5,458.75,593.76Z"/><path class="cls-60" d="M405.22,570.3c3.16,1.32,5.73,11.18,2.44,23.34h0a50.94,50.94,0,0,1-7.43,15.81c-1.54,2.22-3.16,4.4-4.81,6.56h0a48.36,48.36,0,0,0-6.61,8.38c-7.11,11.43-9,26,19.64,23,36.63-3.82,46.61-8.59,58.18,2.42S460,691.75,449.49,699c-3.83,2.63-26.69,13.11-51.65,13.77-43.29,1.16-97.27-12-100.6-37.85C292,634.16,381.24,565.19,405.22,570.3Z"/><path class="cls-61" d="M449.49,699c-3.83,2.63-26.69,13.11-51.65,13.77-43.29,1.16-97.27-12-100.6-37.85-1.79-13.92,7.46-31.13,21.36-47.56-7,17.18-9.46,37.71,8.92,50.59C364,703.43,438.1,665.32,438.82,665a91.41,91.41,0,0,1,31.48-6.09C470.9,672.72,457.78,693.26,449.49,699Z"/><path class="cls-62" d="M454.86,636.92S433,651.25,433.12,677.7c.13,22.22,21.59,21.11,21.59,21.11S480.24,679.51,454.86,636.92Z"/><path class="cls-63" d="M459.45,703.62a2.52,2.52,0,0,1,.62-.12l1.74-.38a.4.4,0,0,0,.33,0c3.17-.67,9-1.83,16-3.07,3.38-.63,7.1-1.2,10.92-1.77,15.64-2.35,36.44-2.58,37.71-2.6.05,0,.07,0,.07,0s19.68-31.32,10.08-49.39c-6.66-12.51-25.23-25.18-40.84-29.86-6.91-2.08-13.26-2.59-17.74-.88-14.6,5.63-24.5,20.92-24.5,20.92s-18.93,11.68-15.36,35.16S459.45,703.62,459.45,703.62Z"/><path class="cls-64" d="M459.45,703.62a2.52,2.52,0,0,1,.62-.12c.52-.1,1.12-.26,1.74-.38a.4.4,0,0,0,.33,0c3.31-.47,7.92-.92,13.07-1.25,18.67-1.36,44.83-1.71,44.83-1.71l6.83-4.47s0,0-.07,0a56.6,56.6,0,0,0-36.61-5.19A77.37,77.37,0,0,0,459.45,703.62Z"/><path class="cls-65" d="M481.35,619.6c2.68,2.09-.65,21.81-4.68,21.86s-7.44-10.25-3.45-16.55S479.87,618.44,481.35,619.6Z"/><path class="cls-66" d="M475.21,701.83c18.67-1.36,44.83-1.71,44.83-1.71l6.83-4.47s19.68-31.32,10.08-49.39c-6.66-12.51-25.23-25.18-40.84-29.86,1.49,6.91,9,44.53,2.62,61.4a37.05,37.05,0,0,1-8.54,12.65,69.77,69.77,0,0,1-12,9.56C477.15,700.68,476.14,701.28,475.21,701.83Z"/><path class="cls-65" d="M415.22,648.6c-5.62.26-22,2.88-31.25-.23s.31,7.4,10.69,8S439.68,647.51,415.22,648.6Z"/><path class="cls-67" d="M231.24,372s-3.54-23.77,11.61-31.78c0,0,22.8-1.21,28.49,20.84,0,0-45,144-8.22,167.08,34.22,21.46,124.4-22.62,124.4-22.62l7.29,5.93s-76.51,47.85-124.91,33S231.24,372,231.24,372Z"/><path class="cls-68" d="M365,507.64c-7.69,15.75,19.89,23,40,19.76,22.56-3.68,59.06-23.11,50.61-44.51S383,470.73,365,507.64Z"/><path class="cls-69" d="M367.08,509.56c.34,3.8,78.75-17,76.77-31.29S364.51,480.24,367.08,509.56Z"/><path class="cls-59" d="M237.66,359.57c-5.3-1.76-7.73,72.35-3.43,73.37S245.87,362.3,237.66,359.57Z"/><path class="cls-70" d="M838,329.9c-79.13,0-143.51,64.38-143.51,143.51A144.19,144.19,0,0,0,760.66,594.3l-9,14.2,49.26,5.13q-12.72-21.24-25.45-42.48l-10.59,16.62a136.41,136.41,0,0,1-62.6-114.36c0-74.86,60.9-135.76,135.76-135.76a135.13,135.13,0,0,1,49.37,9.25l2.82-7.21A142.73,142.73,0,0,0,838,329.9Z"/><path class="cls-71" d="M944.88,382.65c-5.2-1.11-21.73,32.72-29.18,48.62l0,.05c-.11.24-.23.48-.34.71l-.06.15-.2.42,0-.07-.07.16v0l-.07.15-.07.15-.24.52,0-.05-.08.16h0c-.11.26-.23.51-.34.75-1.44,3.09-2.29,5-2.29,5s26.63,19.48,29.62,25.7-15.31,65.56-26.22,82.64-42,9.84-42,9.84-2.7,6.39-5.9,14.88h0c-1,2.57-2,5.33-3,8.16-.18.5-.35,1-.53,1.51l.53-1.5c-.22.61-.43,1.22-.64,1.83l.11-.33c0,.11-.07.22-.11.34s-.11.3-.16.46l-.26.75.21-.6c-.16.45-.31.9-.46,1.35l.12-.35-.39,1.17L863,585c-.2.58-.39,1.15-.57,1.73.12-.39.25-.78.38-1.17-.13.4-.26.8-.4,1.2l-.06.19a.88.88,0,0,1-.05.15l0,0-.57,1.76.06-.17c-.15.46-.29.92-.43,1.37.06-.2.12-.4.19-.61-.15.46-.29.92-.43,1.37.07-.2.13-.4.19-.6-.09.3-.19.6-.28.9l0,.18q-.63,2.06-1.17,4l0,.08c-.37,1.34-.71,2.64-1,3.9v0c-.13.57-.26,1.12-.38,1.67a1.89,1.89,0,0,0,.05-.23c-.09.44-.19.87-.27,1.3l.12-.58c-.09.4-.17.8-.24,1.19,0-.19.07-.37.11-.56-.06.29-.12.57-.17.85v0c-1.16,6.11-1.07,10.52,1.35,11.12,9,2.23,56.69,9.78,72.38-3.5s54.62-141.38,56.7-165.17S944.88,382.65,944.88,382.65Zm-29.31,48.89-.12.27Zm.35-.73.11-.25Zm.5-1.07.1-.2Zm.59-1.24.12-.25Zm.49-1c.07-.14.14-.28.2-.42C917.64,427.18,917.57,427.32,917.5,427.46Zm.53-1.11.23-.48Zm.54-1.13c.08-.16.16-.32.23-.48C918.73,424.9,918.65,425.06,918.57,425.22Zm.61-1.26c.06-.13.12-.26.19-.39C919.3,423.7,919.24,423.83,919.18,424Zm.76-1.58.13-.26C920,422.21,920,422.3,919.94,422.38Zm.59-1.21.2-.41Zm.62-1.27.21-.43Zm.63-1.29.21-.42Zm.66-1.32.19-.4Zm-62.05,176c-.18.61-.35,1.22-.52,1.83C860,594.49,860.21,593.88,860.39,593.27Zm.56-1.89c-.18.6-.36,1.19-.53,1.78C860.59,592.57,860.77,592,861,591.38Zm-1.72,6.13c-.15.58-.3,1.16-.43,1.73C858.93,598.67,859.08,598.09,859.23,597.51Zm.49-1.86c-.12.44-.24.89-.35,1.33C859.48,596.54,859.6,596.09,859.72,595.65ZM858,603.11q-.15.78-.27,1.53Q857.82,603.89,858,603.11Z"/><path class="cls-72" d="M944.88,382.65c-5.58-1.19-24.16,37.77-30.64,51.76,2.06-4.45,5.34-11.41,9-18.81h0c4.86-9.74,10.45-20.22,14.93-26.69,17.94,14.93,36.18,33.05,40.92,52.1,3.72,15-12,68.23-22.28,98.88-8.92,26.62-18.17,60.56-50.33,66.15-16.1,2.8-32.58,1.07-48.82-1.41,1-6.6,3.86-15.68,6.82-24.12-5.31,15.12-10.15,32.33-5.18,33.56,9,2.23,56.69,9.78,72.38-3.5s54.62-141.38,56.7-165.17S944.88,382.65,944.88,382.65Z"/><path class="cls-73" d="M941.33,518.59c5.71-16.9,19-49.7,6.27-66.51A125.82,125.82,0,0,0,930,433.2c.45-.5,0,0,.45-.5,7.66,6.19,13.49,11.57,19.62,19.66,12.76,16.81-.26,50-6,66.91-6.67,19.79-12.95,38.82-32.75,48.8-11.86,6-23.58,7.17-36.5,5.73,0-.23,0-.45,0-.67,11.51.85,23-.18,33.56-5.51C928.12,557.64,934.66,538.38,941.33,518.59Z"/><path class="cls-74" d="M923.48,357.8l25.17,16.9a7.16,7.16,0,0,1,3,7.57c-2.83,12.25-11.55,45-28.23,66.82a7.11,7.11,0,0,1-6.71,2.62l-29.79-4.44a7.2,7.2,0,0,1-5.59-9.87L912.8,361A7.21,7.21,0,0,1,923.48,357.8Z"/><path class="cls-75" d="M881.34,437.4,912.8,361a7.14,7.14,0,0,1,5-4.22l-35.23,86.79c-.11.28-.16.56-.25.84A7.14,7.14,0,0,1,881.34,437.4Z"/><path class="cls-76" d="M918.47,450.52c17.61-22.52,27.72-56.67,31.07-69.45a7.57,7.57,0,0,0-1.53-6.8l.64.43a7.16,7.16,0,0,1,3,7.57c-2.83,12.25-11.55,45-28.23,66.82a7.06,7.06,0,0,1-6.21,2.63A7.45,7.45,0,0,0,918.47,450.52Z"/><path class="cls-77" d="M910,423.9a168.08,168.08,0,0,0-20.3-6.82l15.78-38.29c8.78,8.12,19.27,14.23,33.38,18.22,2.79.79,5.53,1.47,8.26,2.07-3.57,11.64-9,26.18-16.46,39.06A66.57,66.57,0,0,0,910,423.9Z"/><path class="cls-78" d="M860.58,530.51l25.78,15.94a7.16,7.16,0,0,1,3.3,7.46c-2.37,12.34-9.86,45.41-25.7,67.82a7.1,7.1,0,0,1-6.61,2.87l-29.93-3.31a7.21,7.21,0,0,1-6-9.65L850,534.14A7.21,7.21,0,0,1,860.58,530.51Z"/><path class="cls-79" d="M850,534.14a7.18,7.18,0,0,1,5.44-4.55l-32.34,88.15a9.53,9.53,0,0,0-.29,1.14,7.17,7.17,0,0,1-1.39-7.24Z"/><path class="cls-80" d="M864.52,615.17c13.86-24.11,20.71-54.49,23-66.69a8.46,8.46,0,0,0,.05-.87,7,7,0,0,1,2,6.3c-2.37,12.34-9.86,45.41-25.7,67.82a7,7,0,0,1-5.45,2.85,7,7,0,0,0,1.11-1.25C861.35,620.73,863,618,864.52,615.17Z"/><path class="cls-81" d="M837.26,592.87a41.92,41.92,0,0,0-8.81-.21l15.45-41.88a123.73,123.73,0,0,0,42.25,18.6,204.53,204.53,0,0,1-12.64,35.68A125.88,125.88,0,0,0,837.26,592.87Z"/></g></g></svg>