<svg xmlns="http://www.w3.org/2000/svg" width="122.839" height="126.933" viewBox="0 0 122.839 126.933"><defs><style>.a{fill:#12e3ff;}.b{fill:#ff4370;}</style></defs><g transform="translate(-2 -1)"><path class="a" d="M76.348,75.254A13.308,13.308,0,1,1,63.041,61.946,13.308,13.308,0,0,1,76.348,75.254ZM79.419,21H38.473V45.568H79.419Zm28.662,26.615v53.23a6.142,6.142,0,0,1-6.142,6.142h-77.8A6.142,6.142,0,0,1,18,100.845v-73.7A6.142,6.142,0,0,1,24.142,21H34.378V47.615a2.047,2.047,0,0,0,2.047,2.047H81.467a2.047,2.047,0,0,0,2.047-2.047V22.208l23.974,23.954A2.047,2.047,0,0,1,108.082,47.615ZM80.443,75.254a17.4,17.4,0,1,0-17.4,17.4A17.4,17.4,0,0,0,80.443,75.254Z" transform="translate(16.757 20.946)"/><path class="b" d="M98.224,1H8.142A6.142,6.142,0,0,0,2,7.142V72.656A6.142,6.142,0,0,0,8.142,78.8H98.224a6.142,6.142,0,0,0,6.142-6.142V7.142A6.142,6.142,0,0,0,98.224,1Zm2.047,71.656A2.047,2.047,0,0,1,98.224,74.7H8.142a2.047,2.047,0,0,1-2.047-2.047V7.142A2.047,2.047,0,0,1,8.142,5.095H98.224a2.047,2.047,0,0,1,2.047,2.047ZM34.757,13.284H16.331a2.047,2.047,0,0,0-2.047,2.047V48.088a2.047,2.047,0,0,0,2.047,2.047H34.757A2.047,2.047,0,0,0,36.8,48.088V15.331A2.047,2.047,0,0,0,34.757,13.284ZM32.71,46.041H18.378V17.378H32.71ZM36.8,56.277a2.047,2.047,0,0,1-2.047,2.047H16.331a2.047,2.047,0,1,1,0-4.095H34.757A2.047,2.047,0,0,1,36.8,56.277Zm0,8.189a2.047,2.047,0,0,1-2.047,2.047H16.331a2.047,2.047,0,0,1,0-4.095H34.757A2.047,2.047,0,0,1,36.8,64.467Zm53.23-51.183H71.609a2.047,2.047,0,0,0-2.047,2.047V48.088a2.047,2.047,0,0,0,2.047,2.047H90.034a2.047,2.047,0,0,0,2.047-2.047V15.331A2.047,2.047,0,0,0,90.034,13.284ZM87.987,46.041H73.656V17.378H87.987Zm4.095,10.237a2.047,2.047,0,0,1-2.047,2.047H71.609a2.047,2.047,0,0,1,0-4.095H90.034A2.047,2.047,0,0,1,92.082,56.277Zm0,8.189a2.047,2.047,0,0,1-2.047,2.047H71.609a2.047,2.047,0,0,1,0-4.095H90.034A2.047,2.047,0,0,1,92.082,64.467ZM62.4,13.284H43.97a2.047,2.047,0,0,0-2.047,2.047V48.088a2.047,2.047,0,0,0,2.047,2.047H62.4a2.047,2.047,0,0,0,2.047-2.047V15.331A2.047,2.047,0,0,0,62.4,13.284ZM60.348,46.041H46.017V17.378H60.348Zm4.095,10.237A2.047,2.047,0,0,1,62.4,58.325H43.97a2.047,2.047,0,1,1,0-4.095H62.4A2.047,2.047,0,0,1,64.443,56.277Zm0,8.189A2.047,2.047,0,0,1,62.4,66.514H43.97a2.047,2.047,0,1,1,0-4.095H62.4A2.047,2.047,0,0,1,64.443,64.467Z" transform="translate(0 0)"/></g></svg>