<svg xmlns="http://www.w3.org/2000/svg" width="134.69" height="126" viewBox="0 0 134.69 126"><defs><style>.a{fill:#12e3ff;}.b{fill:#ff4370;}</style></defs><g transform="translate(-1 -3)"><path class="a" d="M88.517,53.414H99.379V88.172H88.517ZM59.19,88.172H74.4V40.379H59.19Zm55.4-58.655V99.034a6.517,6.517,0,0,1-6.517,6.517H25.517A6.517,6.517,0,0,1,19,99.034V29.517A6.517,6.517,0,0,1,25.517,23h82.552A6.517,6.517,0,0,1,114.586,29.517Zm-6.517,60.828a2.172,2.172,0,0,0-2.172-2.172h-2.172V51.241a2.172,2.172,0,0,0-2.172-2.172H86.345a2.172,2.172,0,0,0-2.172,2.172V88.172H78.741V38.207a2.172,2.172,0,0,0-2.172-2.172H57.017a2.172,2.172,0,0,0-2.172,2.172V88.172H49.414v-23.9A2.172,2.172,0,0,0,47.241,62.1H32.034a2.172,2.172,0,0,0-2.172,2.172v23.9H27.69a2.172,2.172,0,1,0,0,4.345H105.9A2.172,2.172,0,0,0,108.069,90.345ZM34.207,88.172H45.069V66.448H34.207Z" transform="translate(21.103 23.448)"/><path class="b" d="M105.906,23.182l-2.8,2.824V9.669A6.691,6.691,0,0,0,96.434,3H7.669A6.691,6.691,0,0,0,1,9.669V78.882a6.691,6.691,0,0,0,6.669,6.669H96.434a6.691,6.691,0,0,0,6.669-6.669V32.132l5.887-5.866a2.181,2.181,0,0,0-3.085-3.085Zm-7.147,55.7a2.324,2.324,0,0,1-2.324,2.324H7.669a2.324,2.324,0,0,1-2.324-2.324V9.669A2.324,2.324,0,0,1,7.669,7.345H96.434a2.324,2.324,0,0,1,2.324,2.324V30.351L86.007,43.1,76.622,30.068a2.172,2.172,0,0,0-3.367-.217L51.226,53.791l-7.147-10.71a2.172,2.172,0,0,0-3.346-.348L27.069,56.376a8.8,8.8,0,1,0,3.107,3.107L41.928,47.73l7.234,10.862a2.172,2.172,0,0,0,3.411.282l22.072-24.2,9.32,13.034a2.172,2.172,0,0,0,3.3.282L98.759,36.477ZM27.069,63.828a4.345,4.345,0,1,1-4.345-4.345A4.345,4.345,0,0,1,27.069,63.828ZM20.552,33.414H50.966A6.517,6.517,0,0,0,57.483,26.9V22.552a6.517,6.517,0,0,0-6.517-6.517H20.552a6.517,6.517,0,0,0-6.517,6.517V26.9A6.517,6.517,0,0,0,20.552,33.414ZM18.379,22.552a2.172,2.172,0,0,1,2.172-2.172H50.966a2.172,2.172,0,0,1,2.172,2.172V26.9a2.172,2.172,0,0,1-2.172,2.172H20.552A2.172,2.172,0,0,1,18.379,26.9Zm71.69,47.793A2.172,2.172,0,0,1,87.9,72.517H61.828a2.172,2.172,0,1,1,0-4.345H87.9A2.172,2.172,0,0,1,90.069,70.345ZM74.862,59.483H87.9a2.172,2.172,0,0,1,0,4.345H74.862a2.172,2.172,0,1,1,0-4.345Z" transform="translate(0)"/></g></svg>