<svg xmlns="http://www.w3.org/2000/svg" width="126" height="126" viewBox="0 0 126 126"><defs><style>.a{fill:#12e3ff;}.b{fill:#ff4370;}</style></defs><g transform="translate(-1 -1)"><path class="a" d="M96.032,23H31V83.968H96.032ZM70.7,66.273a2.032,2.032,0,0,1-2.874,0,6.1,6.1,0,0,0-8.625,0A2.032,2.032,0,1,1,56.33,63.4a10.178,10.178,0,0,1,14.372,0,2.032,2.032,0,0,1,0,2.874Zm7.184-7.186a2.032,2.032,0,0,1-2.874,0,16.278,16.278,0,0,0-22.993,0,2.032,2.032,0,1,1-2.874-2.874,20.345,20.345,0,0,1,28.74,0A2.032,2.032,0,0,1,77.886,59.087ZM82.2,51.9a26.446,26.446,0,0,0-37.361,0,2.032,2.032,0,1,1-2.874-2.874,30.516,30.516,0,0,1,43.108,0A2.032,2.032,0,1,1,82.2,51.9Z" transform="translate(30.968 22.71)"/><path class="a" d="M96.032,29.258V19.1a6.1,6.1,0,0,0-6.1-6.1H37.1A6.1,6.1,0,0,0,31,19.1V29.258Z" transform="translate(30.968 12.387)"/><path class="a" d="M31,55V65.161a6.1,6.1,0,0,0,6.1,6.1H89.935a6.1,6.1,0,0,0,6.1-6.1V55Zm36.581,8.129H59.452a2.032,2.032,0,0,1,0-4.065h8.129a2.032,2.032,0,0,1,0,4.065Z" transform="translate(30.968 55.742)"/><g transform="translate(1 1)"><path class="b" d="M96.516,1H7.1A6.1,6.1,0,0,0,1,7.1V64a6.1,6.1,0,0,0,6.1,6.1H96.516a6.1,6.1,0,0,0,6.1-6.1V7.1A6.1,6.1,0,0,0,96.516,1Zm2.032,63a2.032,2.032,0,0,1-2.032,2.032H7.1A2.032,2.032,0,0,1,5.065,64V7.1A2.032,2.032,0,0,1,7.1,5.065H96.516A2.032,2.032,0,0,1,98.548,7.1Z" transform="translate(-1 -1)"/><path class="b" d="M18.194,26H8.032a2.032,2.032,0,0,0,0,4.065H18.194a2.032,2.032,0,0,0,0-4.065Z" transform="translate(4.161 24.806)"/><path class="b" d="M29.194,26H19.032a2.032,2.032,0,0,0,0,4.065H29.194a2.032,2.032,0,0,0,0-4.065Z" transform="translate(15.516 24.806)"/><path class="b" d="M40.194,26H30.032a2.032,2.032,0,0,0,0,4.065H40.194a2.032,2.032,0,0,0,0-4.065Z" transform="translate(26.871 24.806)"/><path class="b" d="M51.194,26H41.032a2.032,2.032,0,0,0,0,4.065H51.194a2.032,2.032,0,0,0,0-4.065Z" transform="translate(38.226 24.806)"/><path class="b" d="M16.161,14H12.1A6.1,6.1,0,0,0,6,20.1v4.065a6.1,6.1,0,0,0,6.1,6.1h4.065a6.1,6.1,0,0,0,6.1-6.1V20.1A6.1,6.1,0,0,0,16.161,14Zm2.032,10.161a2.032,2.032,0,0,1-2.032,2.032H12.1a2.032,2.032,0,0,1-2.032-2.032V20.1A2.032,2.032,0,0,1,12.1,18.065h4.065A2.032,2.032,0,0,1,18.194,20.1Z" transform="translate(4.161 12.419)"/><path class="b" d="M39.656,23.72a2.032,2.032,0,0,0,2.874,0,5.081,5.081,0,0,0,0-7.186,2.032,2.032,0,1,0-2.874,2.874,1.016,1.016,0,0,1,0,1.439A2.032,2.032,0,0,0,39.656,23.72Z" transform="translate(38.289 14.421)"/><path class="b" d="M42.6,29.663a2.032,2.032,0,0,0,2.874,0,10.669,10.669,0,0,0,0-15.067A2.032,2.032,0,1,0,42.6,17.469a6.6,6.6,0,0,1,0,9.32A2.032,2.032,0,0,0,42.6,29.663Z" transform="translate(41.323 12.419)"/></g></g></svg>