<svg xmlns="http://www.w3.org/2000/svg" xmlns:xlink="http://www.w3.org/1999/xlink" viewBox="0 0 786.14 816.45"><defs><style>.cls-1{isolation:isolate;}.cls-2{opacity:0.25;fill:url(#radial-gradient);}.cls-3,.cls-38,.cls-39,.cls-40,.cls-47,.cls-54,.cls-55,.cls-59{opacity:0.5;}.cls-3,.cls-47,.cls-54,.cls-55,.cls-59{mix-blend-mode:multiply;}.cls-3{fill:url(#radial-gradient-2);}.cls-4{fill:url(#linear-gradient);}.cls-5{fill:url(#Áåçûìÿííûé_ãðàäèåíò_14);}.cls-10,.cls-14,.cls-15,.cls-16,.cls-22,.cls-27,.cls-43,.cls-44,.cls-52,.cls-6,.cls-61,.cls-7{opacity:0.51;}.cls-6{fill:url(#linear-gradient-2);}.cls-7{fill:url(#linear-gradient-3);}.cls-8{fill:url(#linear-gradient-4);}.cls-9{fill:url(#linear-gradient-5);}.cls-10{fill:url(#linear-gradient-6);}.cls-11{fill:url(#linear-gradient-7);}.cls-12{fill:url(#linear-gradient-8);}.cls-13{fill:url(#linear-gradient-9);}.cls-14{fill:url(#linear-gradient-10);}.cls-15{fill:url(#linear-gradient-11);}.cls-16{fill:url(#linear-gradient-12);}.cls-17{fill:url(#linear-gradient-13);}.cls-18{fill:#dee1f1;}.cls-19{fill:url(#linear-gradient-14);}.cls-20{fill:url(#linear-gradient-15);}.cls-21{fill:url(#linear-gradient-16);}.cls-22{fill:url(#linear-gradient-17);}.cls-23{fill:url(#linear-gradient-18);}.cls-24{fill:url(#linear-gradient-19);}.cls-25{fill:url(#linear-gradient-20);}.cls-26{fill:url(#linear-gradient-21);}.cls-27{fill:url(#linear-gradient-22);}.cls-28{fill:url(#linear-gradient-23);}.cls-29{fill:url(#linear-gradient-24);}.cls-30{fill:url(#linear-gradient-25);}.cls-31{fill:url(#linear-gradient-26);}.cls-32{fill:url(#linear-gradient-27);}.cls-33{fill:url(#linear-gradient-28);}.cls-34{fill:url(#linear-gradient-29);}.cls-35{fill:url(#linear-gradient-30);}.cls-36{fill:url(#linear-gradient-31);}.cls-37{fill:url(#linear-gradient-32);}.cls-38,.cls-39,.cls-40,.cls-41,.cls-42,.cls-50,.cls-51{mix-blend-mode:screen;}.cls-38{fill:url(#Áåçûìÿííûé_ãðàäèåíò_54);}.cls-39{fill:url(#Áåçûìÿííûé_ãðàäèåíò_54-2);}.cls-40{fill:url(#Áåçûìÿííûé_ãðàäèåíò_54-3);}.cls-41,.cls-42,.cls-50,.cls-51{opacity:0.72;}.cls-41{fill:url(#Áåçûìÿííûé_ãðàäèåíò_143);}.cls-42{fill:url(#Áåçûìÿííûé_ãðàäèåíò_134);}.cls-43{fill:url(#linear-gradient-33);}.cls-44{fill:url(#linear-gradient-34);}.cls-45{fill:url(#linear-gradient-35);}.cls-46{fill:url(#linear-gradient-36);}.cls-47{fill:url(#Áåçûìÿííûé_ãðàäèåíò_416);}.cls-48{fill:url(#linear-gradient-37);}.cls-49{fill:#fff;opacity:0.65;}.cls-50{fill:url(#Áåçûìÿííûé_ãðàäèåíò_134-2);}.cls-51{fill:url(#Áåçûìÿííûé_ãðàäèåíò_143-2);}.cls-52{fill:url(#linear-gradient-38);}.cls-53{fill:#231b51;opacity:0.67;}.cls-54{fill:url(#Áåçûìÿííûé_ãðàäèåíò_416-2);}.cls-55{fill:url(#Áåçûìÿííûé_ãðàäèåíò_416-3);}.cls-56{fill:url(#linear-gradient-39);}.cls-57{fill:url(#linear-gradient-40);}.cls-58{fill:url(#linear-gradient-41);}.cls-59{fill:url(#Áåçûìÿííûé_ãðàäèåíò_416-4);}.cls-60{fill:url(#linear-gradient-42);}.cls-61{fill:url(#linear-gradient-43);}</style><radialGradient id="radial-gradient" cx="315.75" cy="321.87" r="685.35" gradientUnits="userSpaceOnUse"><stop offset="0" stop-color="#ffd587"/><stop offset="0.41" stop-color="#ea9f74"/><stop offset="0.8" stop-color="#d87164"/><stop offset="1" stop-color="#d15f5e"/></radialGradient><radialGradient id="radial-gradient-2" cx="529.16" cy="1876.67" r="166.27" gradientTransform="translate(-134.93 361.9) scale(1 0.22)" gradientUnits="userSpaceOnUse"><stop offset="0" stop-color="#372d78"/><stop offset="0.39" stop-color="#5e4787"/><stop offset="1" stop-color="#fff"/></radialGradient><linearGradient id="linear-gradient" x1="456.49" y1="886.37" x2="474.86" y2="740.05" xlink:href="#radial-gradient"/><linearGradient id="Áåçûìÿííûé_ãðàäèåíò_14" x1="230.43" y1="835.35" x2="264.91" y2="662.08" gradientUnits="userSpaceOnUse"><stop offset="0" stop-color="#8357a3"/><stop offset="1" stop-color="#ec227e"/></linearGradient><linearGradient id="linear-gradient-2" x1="428.89" y1="767.66" x2="516.17" y2="767.66" gradientUnits="userSpaceOnUse"><stop offset="0" stop-color="#c0445f" stop-opacity="0.1"/><stop offset="0.18" stop-color="#bf435e" stop-opacity="0.12"/><stop offset="0.34" stop-color="#bd415c" stop-opacity="0.2"/><stop offset="0.51" stop-color="#b83e57" stop-opacity="0.32"/><stop offset="0.67" stop-color="#b23951" stop-opacity="0.49"/><stop offset="0.83" stop-color="#aa344a" stop-opacity="0.72"/><stop offset="0.99" stop-color="#a02c40" stop-opacity="0.99"/><stop offset="1" stop-color="#a02c40"/></linearGradient><linearGradient id="linear-gradient-3" x1="471.26" y1="881.97" x2="471.26" y2="734.79" xlink:href="#linear-gradient-2"/><linearGradient id="linear-gradient-4" x1="400.87" y1="681.37" x2="423.26" y2="503.05" xlink:href="#radial-gradient"/><linearGradient id="linear-gradient-5" x1="354.7" y1="674.53" x2="349.64" y2="624.82" gradientUnits="userSpaceOnUse"><stop offset="0" stop-color="#7d287a"/><stop offset="0.25" stop-color="#612a78"/><stop offset="0.52" stop-color="#4a2b77"/><stop offset="0.78" stop-color="#3c2c76"/><stop offset="1" stop-color="#372c76"/></linearGradient><linearGradient id="linear-gradient-6" x1="413.36" y1="675.05" x2="413.36" y2="511.02" xlink:href="#linear-gradient-2"/><linearGradient id="linear-gradient-7" x1="394.23" y1="316.03" x2="394.23" y2="211.52" xlink:href="#linear-gradient-5"/><linearGradient id="linear-gradient-8" x1="305.36" y1="122.52" x2="617.23" y2="406.48" xlink:href="#radial-gradient"/><linearGradient id="linear-gradient-9" x1="306.33" y1="143.69" x2="693.43" y2="534.43" xlink:href="#radial-gradient"/><linearGradient id="linear-gradient-10" x1="410.96" y1="467.23" x2="686.55" y2="467.23" xlink:href="#linear-gradient-2"/><linearGradient id="linear-gradient-11" x1="531.08" y1="501.45" x2="531.08" y2="282.23" xlink:href="#linear-gradient-2"/><linearGradient id="linear-gradient-12" x1="554.17" y1="556.12" x2="549.31" y2="471.99" xlink:href="#linear-gradient-2"/><linearGradient id="linear-gradient-13" x1="437.91" y1="454.53" x2="660.44" y2="454.53" xlink:href="#linear-gradient-5"/><linearGradient id="linear-gradient-14" x1="480.35" y1="436.8" x2="480.35" y2="182.62" xlink:href="#linear-gradient-5"/><linearGradient id="linear-gradient-15" x1="516.11" y1="798.12" x2="556.03" y2="480.28" xlink:href="#radial-gradient"/><linearGradient id="linear-gradient-16" x1="412.92" y1="4.4" x2="724.78" y2="288.35" xlink:href="#radial-gradient"/><linearGradient id="linear-gradient-17" x1="609.93" y1="742.91" x2="609.93" y2="582.11" xlink:href="#linear-gradient-2"/><linearGradient id="linear-gradient-18" x1="680.3" y1="330.3" x2="680.3" y2="165.56" xlink:href="#linear-gradient-5"/><linearGradient id="linear-gradient-19" x1="692.73" y1="334.39" x2="692.73" y2="172.91" xlink:href="#linear-gradient-5"/><linearGradient id="linear-gradient-20" x1="425.22" y1="697.51" x2="581.08" y2="697.51" xlink:href="#linear-gradient-5"/><linearGradient id="linear-gradient-21" x1="425.22" y1="703.01" x2="581.08" y2="703.01" xlink:href="#linear-gradient-5"/><linearGradient id="linear-gradient-22" x1="613.76" y1="667.02" x2="613.76" y2="574.8" xlink:href="#linear-gradient-2"/><linearGradient id="linear-gradient-23" x1="623.11" y1="666.2" x2="595.6" y2="537.57" xlink:href="#linear-gradient-5"/><linearGradient id="linear-gradient-24" x1="658.84" y1="749.74" x2="688.96" y2="509.92" xlink:href="#radial-gradient"/><linearGradient id="linear-gradient-25" x1="584.54" y1="899.93" x2="608.14" y2="712.03" xlink:href="#radial-gradient"/><linearGradient id="linear-gradient-26" x1="708.44" y1="751.19" x2="708.44" y2="705.03" xlink:href="#linear-gradient-5"/><linearGradient id="linear-gradient-27" x1="298.52" y1="716.77" x2="308.39" y2="638.12" xlink:href="#radial-gradient"/><linearGradient id="linear-gradient-28" x1="156.66" y1="884.92" x2="319.27" y2="627.66" gradientUnits="userSpaceOnUse"><stop offset="0" stop-color="#602a7a"/><stop offset="0.03" stop-color="#6e317f"/><stop offset="0.1" stop-color="#90428a"/><stop offset="0.19" stop-color="#ae5194"/><stop offset="0.28" stop-color="#c65d9c"/><stop offset="0.39" stop-color="#d966a2"/><stop offset="0.51" stop-color="#e66ca7"/><stop offset="0.67" stop-color="#ee70a9"/><stop offset="1" stop-color="#f071aa"/></linearGradient><linearGradient id="linear-gradient-29" x1="186.85" y1="504.1" x2="184.67" y2="482.69" xlink:href="#linear-gradient-5"/><linearGradient id="linear-gradient-30" x1="252.71" y1="269.13" x2="605.84" y2="419.6" gradientUnits="userSpaceOnUse"><stop offset="0" stop-color="#ffda95"/><stop offset="0.21" stop-color="#fece81"/><stop offset="0.63" stop-color="#fab04f"/><stop offset="1" stop-color="#f6921e"/></linearGradient><linearGradient id="linear-gradient-31" x1="285.56" y1="192.05" x2="638.68" y2="342.52" xlink:href="#linear-gradient-30"/><linearGradient id="linear-gradient-32" x1="253.1" y1="268.23" x2="606.22" y2="418.7" xlink:href="#linear-gradient-30"/><linearGradient id="Áåçûìÿííûé_ãðàäèåíò_54" x1="376.55" y1="239.12" x2="594.99" y2="239.12" gradientUnits="userSpaceOnUse"><stop offset="0"/><stop offset="1" stop-color="#7592cb"/></linearGradient><linearGradient id="Áåçûìÿííûé_ãðàäèåíò_54-2" x1="390.04" y1="415.55" x2="550.12" y2="415.55" xlink:href="#Áåçûìÿííûé_ãðàäèåíò_54"/><linearGradient id="Áåçûìÿííûé_ãðàäèåíò_54-3" x1="353.92" y1="415.55" x2="353.92" y2="311.23" xlink:href="#Áåçûìÿííûé_ãðàäèåíò_54"/><linearGradient id="Áåçûìÿííûé_ãðàäèåíò_143" x1="689.64" y1="329.11" x2="689.64" y2="281.95" gradientUnits="userSpaceOnUse"><stop offset="0" stop-color="#d5dff1"/><stop offset="1"/></linearGradient><linearGradient id="Áåçûìÿííûé_ãðàäèåíò_134" x1="650.44" y1="202.45" x2="742.84" y2="202.45" gradientUnits="userSpaceOnUse"><stop offset="0"/><stop offset="1" stop-color="#d5dff1"/></linearGradient><linearGradient id="linear-gradient-33" x1="533.83" y1="572.72" x2="544.75" y2="493.85" xlink:href="#linear-gradient-2"/><linearGradient id="linear-gradient-34" x1="679.99" y1="755.15" x2="679.99" y2="501.5" xlink:href="#linear-gradient-2"/><linearGradient id="linear-gradient-35" x1="398.51" y1="867.35" x2="415.07" y2="735.51" gradientTransform="matrix(-0.99, 0.1, 0.1, 0.99, 1046.16, -56.85)" xlink:href="#radial-gradient"/><linearGradient id="linear-gradient-36" x1="427.61" y1="869.18" x2="427.61" y2="749.76" gradientTransform="matrix(-0.99, 0.1, 0.1, 0.99, 1046.16, -56.85)" xlink:href="#linear-gradient-5"/><linearGradient id="Áåçûìÿííûé_ãðàäèåíò_416" x1="430.04" y1="832.22" x2="430.04" y2="786.04" gradientTransform="matrix(-0.99, 0.1, 0.1, 0.99, 1046.16, -56.85)" gradientUnits="userSpaceOnUse"><stop offset="0" stop-color="#8fa1d2"/><stop offset="1" stop-color="#735ea8"/></linearGradient><linearGradient id="linear-gradient-37" x1="433.14" y1="830.04" x2="442.94" y2="752.05" gradientTransform="matrix(-0.99, 0.1, 0.1, 0.99, 1046.16, -56.85)" xlink:href="#radial-gradient"/><linearGradient id="Áåçûìÿííûé_ãðàäèåíò_134-2" x1="433.33" y1="642.74" x2="562.65" y2="642.74" xlink:href="#Áåçûìÿííûé_ãðàäèåíò_134"/><linearGradient id="Áåçûìÿííûé_ãðàäèåíò_143-2" x1="503.86" y1="791.69" x2="503.86" y2="776.75" xlink:href="#Áåçûìÿííûé_ãðàäèåíò_143"/><linearGradient id="linear-gradient-38" x1="616.96" y1="905.36" x2="616.96" y2="715.33" xlink:href="#linear-gradient-2"/><linearGradient id="Áåçûìÿííûé_ãðàäèåíò_416-2" x1="279.79" y1="673.97" x2="283.05" y2="648.05" gradientTransform="matrix(1, 0, 0, 1, 0, 0)" xlink:href="#Áåçûìÿííûé_ãðàäèåíò_416"/><linearGradient id="Áåçûìÿííûé_ãðàäèåíò_416-3" x1="329.12" y1="771.85" x2="375.08" y2="771.85" gradientTransform="matrix(0.85, 0.53, -0.53, 0.85, 372.01, -114.39)" xlink:href="#Áåçûìÿííûé_ãðàäèåíò_416"/><linearGradient id="linear-gradient-39" x1="327.11" y1="768.6" x2="373.07" y2="768.6" gradientTransform="matrix(0.85, 0.53, -0.53, 0.85, 372.01, -114.39)" gradientUnits="userSpaceOnUse"><stop offset="0" stop-color="#372c76"/><stop offset="0.03" stop-color="#422b77"/><stop offset="0.12" stop-color="#582a78"/><stop offset="0.22" stop-color="#682979"/><stop offset="0.34" stop-color="#74287a"/><stop offset="0.52" stop-color="#7b287a"/><stop offset="1" stop-color="#7d287a"/></linearGradient><linearGradient id="linear-gradient-40" x1="305.26" y1="663.95" x2="311.59" y2="613.51" xlink:href="#radial-gradient"/><linearGradient id="linear-gradient-41" x1="326.72" y1="646.72" x2="324.46" y2="624.48" xlink:href="#linear-gradient-5"/><linearGradient id="Áåçûìÿííûé_ãðàäèåíò_416-4" x1="260.34" y1="738.68" x2="264.14" y2="708.42" gradientTransform="matrix(1, 0, 0, 1, 0, 0)" xlink:href="#Áåçûìÿííûé_ãðàäèåíò_416"/><linearGradient id="linear-gradient-42" x1="252" y1="727.25" x2="281.71" y2="727.25" xlink:href="#linear-gradient-5"/><linearGradient id="linear-gradient-43" x1="236.89" y1="838.78" x2="258.25" y2="668.72" xlink:href="#linear-gradient-2"/></defs><g class="cls-1"><g id="Add_Our_Email" data-name="Add Our Email"><path class="cls-2" d="M170.76,505.91C139.28,610.38,279.8,814.45,490,811.55c234.37-3.24,420.61-204,430.62-372.89S762.15,151,624.41,181.17,436.65,304.22,371.58,363.77C333.52,398.61,212.29,368.09,170.76,505.91Z" transform="translate(-134.93 -164.76)"/><ellipse class="cls-3" cx="394.23" cy="779.46" rx="166.25" ry="37"/><path class="cls-4" d="M515.26,791.64c-1.44,17.81-29.67,74.83-51.78,90.33,0,0,0,0,0,.06-4.27,3-8.3,4.4-11.87,3.7-15.89-3.06-23.55-79.21-24.29-122.09-.27-16.56.5-28.12,2.22-28.59C444,731.22,516.94,770.43,515.26,791.64Z" transform="translate(-134.93 -164.76)"/><path class="cls-5" d="M363.78,681.75l-.21.2c-52.79,60.93-97.48,160.5-97.48,160.5L134.93,798.73,163.76,784Z" transform="translate(-134.93 -164.76)"/><path class="cls-6" d="M515.26,797.45s-19.53,10.61-50-4.67c-23.83-11.94-39.75-50.84-35.72-57.73S526.28,769.82,515.26,797.45Z" transform="translate(-134.93 -164.76)"/><path class="cls-7" d="M515.26,791.64c-1.44,17.81-29.67,74.83-51.78,90.33,16.6-19.09,17.17-58,6.59-75.82-8-13.5-31.69-33.57-42.78-42.51-.27-16.56.5-28.12,2.22-28.59C444,731.22,516.94,770.43,515.26,791.64Z" transform="translate(-134.93 -164.76)"/><path class="cls-8" d="M453.7,629.33S369.86,676.91,350.13,675s-10.95-46.75-10.95-46.75c2.62-3.09,5.54-6.28,8.67-9.57l0,0C379.4,585.37,433.2,543,464.12,522.77l0,0c13-8.51,22-13.08,23.49-11.36C499.1,524.11,453.7,629.33,453.7,629.33Z" transform="translate(-134.93 -164.76)"/><path class="cls-9" d="M339.18,628.25s11-9.22,24.54,3.16-.43,42.09-13.58,43.58S329.08,647.51,339.18,628.25Z" transform="translate(-134.93 -164.76)"/><path class="cls-10" d="M453.7,629.33S369.86,676.91,350.13,675s-10.95-46.75-10.95-46.75c2.62-3.09,5.54-6.28,8.67-9.57l0,0s20.5,12.1,58.27,6.32,58-102.19,58-102.19l0,0c13-8.51,22-13.08,23.49-11.36C499.1,524.11,453.7,629.33,453.7,629.33Z" transform="translate(-134.93 -164.76)"/><path class="cls-11" d="M395.34,211.52s-28.3,29.87-31.44,85S424.68,272,424.68,272Z" transform="translate(-134.93 -164.76)"/><path class="cls-12" d="M377,272S389.85,204,411,189.6s59.12-1.37,59.12-1.37Z" transform="translate(-134.93 -164.76)"/><path class="cls-13" d="M702.88,431.06c-47.92,75.34-285.24,87.31-326,49.67-16.23-15-26.61-34.75-31.75-57v-.06c-21.92-95.37,52.22-237.15,175.21-251,83.34-9.37,153,59.55,182.07,133.11C720.62,351.69,723,399.48,702.88,431.06Z" transform="translate(-134.93 -164.76)"/><path class="cls-14" d="M656.37,467.29c-29.24,12.84-73.39,25-103.07,28.93-55.11,7.33-95.63,6.45-119,.54h0c-15.39-3.9-23.35-9.91-23.28-17.21,0-4.43,10.35-9.71,27-15.12,48.82-15.76,152-32.36,208.91-31.38,4.91.1,9.48.3,13.61.67.91.07,1.75.17,2.59.27a2.48,2.48,0,0,1,.47,0c10,1.08,17.17,3.06,20.67,6.18a7.29,7.29,0,0,1,2,2.52C689.17,449.65,676.19,458.62,656.37,467.29Z" transform="translate(-134.93 -164.76)"/><path class="cls-15" d="M702.88,431.06c-47.92,75.34-285.24,87.31-326,49.67-16.23-15-26.61-34.75-31.75-57v-.06s19.81,28.57,68.23,28,186.43-26.14,211.83-50.77S627,282.23,627,282.23l75.41,23.49C720.62,351.69,723,399.48,702.88,431.06Z" transform="translate(-134.93 -164.76)"/><path class="cls-16" d="M656.37,467.29c-25.14-7.16-98.09-24.63-152-4.71-66.14,24.4-70.1,34.18-70.1,34.18h0c-15.39-3.9-23.35-9.91-23.28-17.21,0-4.43,10.35-9.71,27-15.12,48.82-15.76,152-32.36,208.91-31.38,6,.27,11.4.57,16.2.94a2.48,2.48,0,0,1,.47,0c10,1.08,17.17,3.06,20.67,6.18a7.29,7.29,0,0,1,2,2.52C689.17,449.65,676.19,458.62,656.37,467.29Z" transform="translate(-134.93 -164.76)"/><path class="cls-17" d="M660.44,433.71c-11.35,14.2-72.36,33.32-108,38.05-63.83,8.45-104,3.58-114.56-7.34C490.92,447.32,608.1,429.19,660.44,433.71Z" transform="translate(-134.93 -164.76)"/><path class="cls-18" d="M345.14,428.14C359,455.9,562.8,439.45,607.79,381.73S581.47,161,476.46,190.72C376.35,219,320,377.84,345.14,428.14Z" transform="translate(-134.93 -164.76)"/><path class="cls-19" d="M345.14,423.63C359,451.39,562.8,434.94,607.79,377.22s-26.32-220.73-131.33-191C376.35,214.54,320,373.34,345.14,423.63Z" transform="translate(-134.93 -164.76)"/><path class="cls-20" d="M634.12,704.9c-14.35,65.4-51.78,93.46-118.86,92.55-65.73-.91-106.12-72.15-84.91-155.79,13.54-53.4,29.26-100.78,57.26-130.25l0,0,0-.07c15.83-16.67,35.59-27.55,61.1-30.58,20.13-2.38,36.83,8.44,50.13,26.82C633.55,555.43,645.14,654.5,634.12,704.9Z" transform="translate(-134.93 -164.76)"/><path class="cls-21" d="M618,200.64s-11,100.44,50.94,136c0,0,30.42,3.27,48.1-15.19,0,0-27.53,25.88-56.58-1.08s-22.05-101.24,0-125.43,53.89-17.83,53.89-17.83L701.6,165.62S654.7,156.07,618,200.64Z" transform="translate(-134.93 -164.76)"/><path class="cls-22" d="M598.86,582.11s7,51,7,85c0,40.34-24.78,75.79-24.78,75.79l50.31-27s9.39-26.38,7-53.37-4.58-39.33-4.58-39.33Z" transform="translate(-134.93 -164.76)"/><path class="cls-23" d="M701.6,165.62s-34.48-3.18-58.58,36.83c-25.59,42.49-7,116,24.1,127.11s62.5-107.7,62.5-107.7l-18.06-47.28S708,168,701.6,165.62Z" transform="translate(-134.93 -164.76)"/><path class="cls-24" d="M746.16,266.87c-4.44,23-13.78,41.71-26.28,53.57l-.1.07-3.5,3.09h0c-10.11,8.2-22.08,12.06-35,10.42-42-5.35-47.61-66.14-42.67-100.58,5.74-39.79,39.78-63.68,66.87-60.19C737.66,177.42,754.86,221.94,746.16,266.87Z" transform="translate(-134.93 -164.76)"/><path class="cls-25" d="M427,652.47s15.28-49.42,62.52-49.42c56.62,0,94.78,62.58,91.38,105S564.5,790.3,511,792C511,792,410.85,789.74,427,652.47Z" transform="translate(-134.93 -164.76)"/><path class="cls-26" d="M427,658s15.28-49.41,62.52-49.41c56.62,0,94.78,62.58,91.38,105S564.5,795.8,511,797.47C511,797.47,410.85,795.23,427,658Z" transform="translate(-134.93 -164.76)"/><path class="cls-27" d="M625.62,637c-2.45,0-5.07-2-7.73-5.58C606,615.62,593.56,570,593.7,544.68c.06-9.81,2-16.6,6.65-17.41,7.56-1.31,22.92,24.2,30.38,60.05C635,608.19,636.1,637,625.62,637Z" transform="translate(-134.93 -164.76)"/><path class="cls-28" d="M617.89,631.41C606,615.62,593.56,570,593.7,544.68c7.42,9.61,16.13,29.17,21.2,53.56C617.12,608.86,618.46,621.53,617.89,631.41Z" transform="translate(-134.93 -164.76)"/><path class="cls-29" d="M737.69,731.22c-7.66,24.63-36.53,27.18-45,21.23-7.36-5.17-27.69-29-47.12-72.71,0,0,0-.07-.06-.11q-4.29-9.61-8.47-20.56c-21.68-56.89-38-161.67-15.56-157.61a.24.24,0,0,1,.1,0C686.68,513.39,745.32,706.62,737.69,731.22Z" transform="translate(-134.93 -164.76)"/><path class="cls-30" d="M632.21,904.55c-4.44,2.15-10.62-.1-17.65-5.28-7.66-5.68-16.36-14.82-25-25.47l-.06-.07-.11-.1c-24.06-29.64-47.51-70.74-46.34-79.94,4.14-31.86,47.42-59.52,73.13-71.71,10-4.78,17.4-7.16,18.68-6.56C639.46,717.64,655.12,893.42,632.21,904.55Z" transform="translate(-134.93 -164.76)"/><path class="cls-31" d="M678.54,737.17s.36-22.68,20.41-30.65,39.39,18.77,39.39,18.77.19,25.47-27,25.89S678.54,737.17,678.54,737.17Z" transform="translate(-134.93 -164.76)"/><path class="cls-32" d="M360.32,656.53s-16.55,26.1-34.38,38.83-52.85,18.21-52.85,18.21-24.83-11.46-24.83-28.52c0,0,26.74-13.57,36.93-35,0,0,34.75-12.38,49.85-8.34S360.32,656.53,360.32,656.53Z" transform="translate(-134.93 -164.76)"/><path class="cls-33" d="M363.78,681.75l-.21.2c-4.06,4.41-69.83,75.65-100.67,151.59l-128-34.81s17.44-37.1,51.89-81.06c.06-.06.1-.1.1-.13l0,0c19.76-25.21,45.1-52.66,75.95-76.66C262.9,640.85,314.11,648.65,363.78,681.75Z" transform="translate(-134.93 -164.76)"/><polygon class="cls-34" points="175.52 483.62 203.9 502.36 167.87 486.85 175.52 483.62"/><path class="cls-35" d="M369.27,358.06c4.81,15.68,37.21,11.42,45.8-13.15s-.63-55.77-17.18-57S359.75,327,369.27,358.06Z" transform="translate(-134.93 -164.76)"/><path class="cls-36" d="M500.4,305.38c-1.06,2.24,23.15-20.91,70.46-12.31C575.53,293.92,521.2,261.23,500.4,305.38Z" transform="translate(-134.93 -164.76)"/><path class="cls-37" d="M452.86,391.26s45.42-11.88,65.37-48C518.23,343.3,510.59,392.11,452.86,391.26Z" transform="translate(-134.93 -164.76)"/><path class="cls-38" d="M377,290.42c5.86,6,39.87-21,82.29-24.78s95.84,28.23,129,16.58c26.28-9.26-28.18-99.69-98.78-95.09S371.21,284.48,377,290.42Z" transform="translate(-134.93 -164.76)"/><path class="cls-39" d="M390,424.11s41.1-19.83,95.73-24.18,64.35-.33,64.35,4.89-36.93,23.05-87,27.29S390,424.11,390,424.11Z" transform="translate(-134.93 -164.76)"/><path class="cls-40" d="M345.13,415.55s-12.75-36.63,11-96.54c0,0,5.7-9.77,9.62-7.4S343.09,359.21,345.13,415.55Z" transform="translate(-134.93 -164.76)"/><path class="cls-41" d="M645.39,282s4.46,37.29,31.84,45.35,49.66-11.74,56.67-39.72c0,0-8.6,24.13-44.26,17.95S645.39,282,645.39,282Z" transform="translate(-134.93 -164.76)"/><path class="cls-42" d="M650.44,211.52c.32,6.94,50.59-7.48,66.58-5.36s22.78,21.73,25.33,21.26-4.24-46.31-34-49.7S650.22,206.69,650.44,211.52Z" transform="translate(-134.93 -164.76)"/><path class="cls-43" d="M598.9,507.55s-69.22,26.07-95.77,23.08c-25.77-2.89-16.09-18.34-15.52-19.22l0,0,0-.07c15.83-16.67,35.59-27.55,61.1-30.58C568.9,478.35,585.6,489.17,598.9,507.55Z" transform="translate(-134.93 -164.76)"/><path class="cls-44" d="M737.69,731.22c-7.66,24.63-36.53,27.18-45,21.23-7.36-5.17-27.69-29-47.12-72.71,1.92,3.69,16.17,30.27,28.94,30.27,13.74,0,40.22-38.21,13.44-118.25-25.91-77.59-64-89.59-66.37-90.26C686.68,513.39,745.32,706.62,737.69,731.22Z" transform="translate(-134.93 -164.76)"/><path class="cls-45" d="M702.77,718.11c11.39-3.07,29.33,6,35.57,15.25s21.84,48,12.92,98c0,0-17,22.5-36.07,17.56-14.5-3.76-18-46.9-21.87-77.58S684,723.16,702.77,718.11Z" transform="translate(-134.93 -164.76)"/><path class="cls-46" d="M718,850.28s7-100.4-33.83-116.6c0,0-.2,16.3,8,54S708.6,848,718,850.28Z" transform="translate(-134.93 -164.76)"/><path class="cls-47" d="M715.19,795.25s-8.48,15.58-15.05,18.65A17.28,17.28,0,0,1,688,815l20.61-47.35S715,785,715.19,795.25Z" transform="translate(-134.93 -164.76)"/><path class="cls-48" d="M708.6,767.66s-8.31-26.77-25.49-31.76c0,0-13.8,16.68-3.92,75.07,0,0,9.71,10.41,20.63-2.11C699.82,808.86,707.9,787.79,708.6,767.66Z" transform="translate(-134.93 -164.76)"/><path class="cls-49" d="M698.18,759c5.61-.57-.39,25.12-3.37,24.83S693.51,759.46,698.18,759Z" transform="translate(-134.93 -164.76)"/><path class="cls-50" d="M433.54,654c7.13,13.58,33.68-3.82,66.83,0s51,21.35,60.52,16.55-20.46-54.36-71.4-56.35C448.83,612.59,431.12,649.35,433.54,654Z" transform="translate(-134.93 -164.76)"/><path class="cls-51" d="M470.08,776.75A58.09,58.09,0,0,0,507,791.64c23,.82,30.66-10.32,30.66-10.32s-10.19-4.46-26.43-1.27S480.19,781.1,470.08,776.75Z" transform="translate(-134.93 -164.76)"/><path class="cls-52" d="M632.21,904.55c-4.44,2.15-10.62-.1-17.65-5.28l-25-25.47c2.42,2.22,30.35,26.45,35.62-24.13,5.55-52.89-11.42-124.33-11.42-124.33l2.42-3.36c10-4.78,17.4-7.16,18.68-6.56C639.46,717.64,655.12,893.42,632.21,904.55Z" transform="translate(-134.93 -164.76)"/><path class="cls-49" d="M633.82,593c-9.85,5.8,10.48,46.78,15.25,47.81S640.54,589.08,633.82,593Z" transform="translate(-134.93 -164.76)"/><path class="cls-49" d="M652,647.62c-2.07.22.21,9.8,1.76,11.09s4.77,1.54,5.68.64S654.35,647.36,652,647.62Z" transform="translate(-134.93 -164.76)"/><path class="cls-49" d="M554.43,548c-4,.1-11,39.23-7.82,40.54s7.59-7,10.78-19.83S558.3,547.93,554.43,548Z" transform="translate(-134.93 -164.76)"/><path class="cls-49" d="M377.83,596.67c.89,2.88,20.64-6,20.7-14.56S376.56,592.54,377.83,596.67Z" transform="translate(-134.93 -164.76)"/><path class="cls-49" d="M570.4,792.05c-8.75,1.94,3.91,23.34,5.91,24.14s3.62-8.2,2.09-14.64C577,795.81,573.47,791.36,570.4,792.05Z" transform="translate(-134.93 -164.76)"/><path class="cls-49" d="M450.29,808.89c-4.87-1.11-3.61,12.68-2.79,13.57s3.78-3.27,4.54-6.88C452.73,812.37,452,809.28,450.29,808.89Z" transform="translate(-134.93 -164.76)"/><path class="cls-49" d="M578.35,818.72c-1.66,1.33,2.26,8,3.69,6.56s1.07-4.86.16-6A3.33,3.33,0,0,0,578.35,818.72Z" transform="translate(-134.93 -164.76)"/><path class="cls-53" d="M271.67,635.78s4.61,59.8-6.43,95c0,0-87.19,32.73-127.85,66.66l132.52-65.39S279,672.34,271.67,635.78Z" transform="translate(-134.93 -164.76)"/><path class="cls-54" d="M243.58,656.91s10,17,39.06,16.81S320,659,320,659l-17.22-7.42-45.2-6.76S244.48,656.11,243.58,656.91Z" transform="translate(-134.93 -164.76)"/><path class="cls-55" d="M240,727.52c.13,10.43,16,26,31.52,21.64,19.42-5.41,21-33.23,9.68-37.95s-14.36,2.27-20.32,2.63S239.83,714.78,240,727.52Z" transform="translate(-134.93 -164.76)"/><path class="cls-56" d="M240,723.7c.13,10.44,16,26,31.52,21.65,19.42-5.42,21-33.24,9.68-38s-14.36,2.27-20.32,2.62S239.83,711,240,723.7Z" transform="translate(-134.93 -164.76)"/><path class="cls-57" d="M350,634.12s-17.84-18.73-32.8-19.88-52.94,15.24-64.45,36.68c0,0,1.72,5.13,14.77,8.2s43-10.74,43-10.74l49.87,8.44S360.32,645.69,350,634.12Z" transform="translate(-134.93 -164.76)"/><path class="cls-58" d="M310.45,648.38s24.07-7.29,26.78-25.2l3.83,2.91S337.62,644.69,310.45,648.38Z" transform="translate(-134.93 -164.76)"/><path class="cls-49" d="M268,640.85c.25,3.75,26.74-8.52,26.74-13S267.58,634.51,268,640.85Z" transform="translate(-134.93 -164.76)"/><path class="cls-59" d="M265.45,739.28a21.46,21.46,0,0,1-4.91-.87c-5.74-1.58-9.44-5.24-13.24-9.31-4.77-5.07-6.08-9.14-2.05-12.47,6.19-5.17,21.31-6.15,26.42-7,3.59-.54,5.81,1.11,7.62,5.51a49.33,49.33,0,0,1,2.09,6.92C283.6,731.65,274.22,739.92,265.45,739.28Z" transform="translate(-134.93 -164.76)"/><path class="cls-60" d="M265.45,739.28a21.46,21.46,0,0,1-4.91-.87,56.54,56.54,0,0,1-4.06-4c-4.81-5.11-6.12-9.14-2.09-12.5,5.68-4.71,18.82-5.95,24.9-6.72a49.33,49.33,0,0,1,2.09,6.92C283.6,731.65,274.22,739.92,265.45,739.28Z" transform="translate(-134.93 -164.76)"/><path class="cls-61" d="M363.57,682c-52.79,60.93-97.48,160.5-97.48,160.5L134.93,798.73s17.44-37.1,51.89-81.06c-2,3.2-32.1,50.71-39.15,64.29l16.09,2,107.1,13.5S325.67,717.78,363.57,682Z" transform="translate(-134.93 -164.76)"/></g></g></svg>