<svg xmlns="http://www.w3.org/2000/svg" xmlns:xlink="http://www.w3.org/1999/xlink" viewBox="0 0 771.5 886.95"><defs><style>.cls-1{isolation:isolate;}.cls-2{opacity:0.25;}.cls-3{fill:url(#radial-gradient);}.cls-20,.cls-4,.cls-42,.cls-43,.cls-47,.cls-52{opacity:0.5;}.cls-20,.cls-4,.cls-47,.cls-52{mix-blend-mode:multiply;}.cls-4{fill:url(#radial-gradient-2);}.cls-5{fill:url(#Áåçûìÿííûé_ãðàäèåíò_14);}.cls-6{fill:url(#linear-gradient);}.cls-13,.cls-7{fill:#fff;}.cls-8{fill:url(#linear-gradient-2);}.cls-9{fill:url(#linear-gradient-3);}.cls-10{fill:url(#linear-gradient-4);}.cls-11{fill:url(#linear-gradient-5);}.cls-12,.cls-14,.cls-17,.cls-31,.cls-33,.cls-44,.cls-45,.cls-49{opacity:0.51;}.cls-12{fill:url(#linear-gradient-6);}.cls-13{opacity:0.65;}.cls-14{fill:url(#linear-gradient-7);}.cls-15{fill:url(#linear-gradient-8);}.cls-16{fill:url(#linear-gradient-9);}.cls-17{fill:url(#linear-gradient-10);}.cls-18{fill:url(#linear-gradient-11);}.cls-19{fill:url(#linear-gradient-12);}.cls-20{fill:url(#Áåçûìÿííûé_ãðàäèåíò_416);}.cls-21{fill:url(#linear-gradient-13);}.cls-22{fill:url(#linear-gradient-14);}.cls-23{fill:url(#linear-gradient-15);}.cls-24{fill:url(#linear-gradient-16);}.cls-25{fill:url(#linear-gradient-17);}.cls-26{fill:url(#linear-gradient-18);}.cls-27{fill:url(#linear-gradient-19);}.cls-28{fill:url(#linear-gradient-20);}.cls-29{fill:#dee1f1;}.cls-30{fill:url(#linear-gradient-21);}.cls-31{fill:url(#linear-gradient-22);}.cls-32{fill:url(#linear-gradient-23);}.cls-33{fill:url(#linear-gradient-24);}.cls-34{fill:url(#linear-gradient-25);}.cls-35{fill:url(#linear-gradient-26);}.cls-36{fill:url(#linear-gradient-27);}.cls-37{fill:url(#linear-gradient-28);}.cls-38{fill:url(#linear-gradient-29);}.cls-39{fill:url(#linear-gradient-30);}.cls-40{fill:url(#linear-gradient-31);}.cls-41{fill:url(#linear-gradient-32);}.cls-42,.cls-43,.cls-48,.cls-54,.cls-55,.cls-56,.cls-57{mix-blend-mode:screen;}.cls-42{fill:url(#Áåçûìÿííûé_ãðàäèåíò_54);}.cls-43{fill:url(#Áåçûìÿííûé_ãðàäèåíò_54-2);}.cls-44{fill:url(#linear-gradient-33);}.cls-45{fill:url(#linear-gradient-34);}.cls-46{fill:url(#linear-gradient-35);}.cls-47{fill:url(#Áåçûìÿííûé_ãðàäèåíò_416-2);}.cls-48,.cls-55,.cls-56,.cls-57{opacity:0.72;}.cls-48{fill:url(#Áåçûìÿííûé_ãðàäèåíò_143);}.cls-49{fill:url(#linear-gradient-36);}.cls-50{fill:url(#linear-gradient-37);}.cls-51{fill:url(#linear-gradient-38);}.cls-52{fill:url(#Áåçûìÿííûé_ãðàäèåíò_416-3);}.cls-53{fill:url(#linear-gradient-39);}.cls-54{opacity:0.2;fill:url(#Áåçûìÿííûé_ãðàäèåíò_126);}.cls-55{fill:url(#Áåçûìÿííûé_ãðàäèåíò_134);}.cls-56{fill:url(#Áåçûìÿííûé_ãðàäèåíò_134-2);}.cls-57{fill:url(#Áåçûìÿííûé_ãðàäèåíò_143-2);}.cls-58{fill:url(#linear-gradient-40);}</style><radialGradient id="radial-gradient" cx="258.19" cy="355.56" r="915.07" gradientUnits="userSpaceOnUse"><stop offset="0" stop-color="#ffd587"/><stop offset="0.41" stop-color="#ea9f74"/><stop offset="0.8" stop-color="#d87164"/><stop offset="1" stop-color="#d15f5e"/></radialGradient><radialGradient id="radial-gradient-2" cx="546.22" cy="1892.14" r="164.59" gradientTransform="translate(-169.52 429.33) scale(1 0.22)" gradientUnits="userSpaceOnUse"><stop offset="0" stop-color="#372d78"/><stop offset="0.39" stop-color="#5e4787"/><stop offset="1" stop-color="#fff"/></radialGradient><linearGradient id="Áåçûìÿííûé_ãðàäèåíò_14" x1="703.46" y1="175.8" x2="715.81" y2="1.74" gradientUnits="userSpaceOnUse"><stop offset="0" stop-color="#8357a3"/><stop offset="1" stop-color="#ec227e"/></linearGradient><linearGradient id="linear-gradient" x1="842.22" y1="270.95" x2="854.67" y2="95.55" gradientUnits="userSpaceOnUse"><stop offset="0" stop-color="#602a7a"/><stop offset="1" stop-color="#f071aa"/></linearGradient><linearGradient id="linear-gradient-2" x1="452.58" y1="889.49" x2="470.26" y2="748.77" xlink:href="#radial-gradient"/><linearGradient id="linear-gradient-3" x1="683.64" y1="880.29" x2="562.29" y2="769.46" xlink:href="#radial-gradient"/><linearGradient id="linear-gradient-4" x1="419.35" y1="770.45" x2="514.86" y2="770.45" gradientUnits="userSpaceOnUse"><stop offset="0" stop-color="#7d287a"/><stop offset="0.25" stop-color="#612a78"/><stop offset="0.52" stop-color="#4a2b77"/><stop offset="0.78" stop-color="#3c2c76"/><stop offset="1" stop-color="#372c76"/></linearGradient><linearGradient id="linear-gradient-5" x1="548.23" y1="766.48" x2="643.94" y2="766.48" xlink:href="#linear-gradient-4"/><linearGradient id="linear-gradient-6" x1="467.24" y1="891.3" x2="467.24" y2="743.19" gradientUnits="userSpaceOnUse"><stop offset="0" stop-color="#c0445f" stop-opacity="0.1"/><stop offset="0.18" stop-color="#bf435e" stop-opacity="0.12"/><stop offset="0.34" stop-color="#bd415c" stop-opacity="0.2"/><stop offset="0.51" stop-color="#b83e57" stop-opacity="0.32"/><stop offset="0.67" stop-color="#b23951" stop-opacity="0.49"/><stop offset="0.83" stop-color="#aa344a" stop-opacity="0.72"/><stop offset="0.99" stop-color="#a02c40" stop-opacity="0.99"/><stop offset="1" stop-color="#a02c40"/></linearGradient><linearGradient id="linear-gradient-7" x1="596.36" y1="905.08" x2="596.36" y2="733" xlink:href="#linear-gradient-6"/><linearGradient id="linear-gradient-8" x1="368.66" y1="761.29" x2="399.12" y2="518.68" xlink:href="#radial-gradient"/><linearGradient id="linear-gradient-9" x1="319.6" y1="739.68" x2="382.02" y2="739.68" xlink:href="#linear-gradient-4"/><linearGradient id="linear-gradient-10" x1="381.1" y1="756.68" x2="381.1" y2="552.83" xlink:href="#linear-gradient-6"/><linearGradient id="linear-gradient-11" x1="341.54" y1="863.93" x2="358.14" y2="731.78" xlink:href="#radial-gradient"/><linearGradient id="linear-gradient-12" x1="350.83" y1="804.14" x2="384.33" y2="804.14" xlink:href="#linear-gradient-4"/><linearGradient id="Áåçûìÿííûé_ãðàäèåíò_416" x1="366.11" y1="826.65" x2="366.11" y2="780.94" gradientUnits="userSpaceOnUse"><stop offset="0" stop-color="#8fa1d2"/><stop offset="1" stop-color="#735ea8"/></linearGradient><linearGradient id="linear-gradient-13" x1="369.17" y1="824.5" x2="378.87" y2="747.29" xlink:href="#radial-gradient"/><linearGradient id="linear-gradient-14" x1="327.62" y1="158.59" x2="453.83" y2="357.6" xlink:href="#radial-gradient"/><linearGradient id="linear-gradient-15" x1="360.22" y1="225.13" x2="396.63" y2="225.13" xlink:href="#linear-gradient-4"/><linearGradient id="linear-gradient-16" x1="551.06" y1="16.9" x2="677.26" y2="215.91" xlink:href="#radial-gradient"/><linearGradient id="linear-gradient-17" x1="668.31" y1="219.62" x2="706.13" y2="219.62" xlink:href="#linear-gradient-4"/><linearGradient id="linear-gradient-18" x1="706.13" y1="328.22" x2="706.13" y2="190.74" xlink:href="#linear-gradient-4"/><linearGradient id="linear-gradient-19" x1="-101.91" y1="328.22" x2="-101.91" y2="190.74" gradientTransform="matrix(-1, 0, 0, 1, 257.46, 0)" xlink:href="#linear-gradient-4"/><linearGradient id="linear-gradient-20" x1="442.96" y1="92.55" x2="587.77" y2="577.95" xlink:href="#radial-gradient"/><linearGradient id="linear-gradient-21" x1="369.63" y1="298.98" x2="694.72" y2="298.98" xlink:href="#linear-gradient-4"/><linearGradient id="linear-gradient-22" x1="533.39" y1="516.72" x2="533.39" y2="305.6" xlink:href="#linear-gradient-6"/><linearGradient id="linear-gradient-23" x1="391.1" y1="489.28" x2="666.21" y2="489.28" xlink:href="#radial-gradient"/><linearGradient id="linear-gradient-24" x1="528.25" y1="501.53" x2="528.25" y2="461.88" xlink:href="#linear-gradient-6"/><linearGradient id="linear-gradient-25" x1="450.65" y1="556.23" x2="597.08" y2="398.48" xlink:href="#linear-gradient-4"/><linearGradient id="linear-gradient-26" x1="515.32" y1="793.71" x2="553.97" y2="486.01" xlink:href="#radial-gradient"/><linearGradient id="linear-gradient-27" x1="647.72" y1="650.95" x2="596.76" y2="500.47" xlink:href="#linear-gradient-4"/><linearGradient id="linear-gradient-28" x1="776.72" y1="357.53" x2="614.11" y2="583.24" xlink:href="#radial-gradient"/><linearGradient id="linear-gradient-29" x1="737.54" y1="430.83" x2="777.14" y2="430.83" xlink:href="#linear-gradient-4"/><linearGradient id="linear-gradient-30" x1="610.08" y1="190.87" x2="606.44" y2="357.11" gradientUnits="userSpaceOnUse"><stop offset="0" stop-color="#ffda95"/><stop offset="0.21" stop-color="#fece81"/><stop offset="0.63" stop-color="#fab04f"/><stop offset="1" stop-color="#f6921e"/></linearGradient><linearGradient id="linear-gradient-31" x1="456.96" y1="187.51" x2="453.32" y2="353.76" xlink:href="#linear-gradient-30"/><linearGradient id="linear-gradient-32" x1="539.81" y1="189.33" x2="536.17" y2="355.58" xlink:href="#linear-gradient-30"/><linearGradient id="Áåçûìÿííûé_ãðàäèåíò_54" x1="411.84" y1="233.37" x2="665.38" y2="233.37" gradientUnits="userSpaceOnUse"><stop offset="0"/><stop offset="1" stop-color="#7592cb"/></linearGradient><linearGradient id="Áåçûìÿííûé_ãðàäèåíò_54-2" x1="447.68" y1="400.25" x2="627.86" y2="400.25" xlink:href="#Áåçûìÿííûé_ãðàäèåíò_54"/><linearGradient id="linear-gradient-33" x1="709.23" y1="315.25" x2="709.23" y2="309.53" xlink:href="#linear-gradient-6"/><linearGradient id="linear-gradient-34" x1="531.03" y1="794.24" x2="531.03" y2="546.68" xlink:href="#linear-gradient-6"/><linearGradient id="linear-gradient-35" x1="427.77" y1="691.71" x2="629.54" y2="691.71" xlink:href="#linear-gradient-4"/><linearGradient id="Áåçûìÿííûé_ãðàäèåíò_416-2" x1="526.76" y1="544.05" x2="526.76" y2="483.7" xlink:href="#Áåçûìÿííûé_ãðàäèåíò_416"/><linearGradient id="Áåçûìÿííûé_ãðàäèåíò_143" x1="533.39" y1="783.37" x2="533.39" y2="749.6" gradientUnits="userSpaceOnUse"><stop offset="0" stop-color="#d5dff1"/><stop offset="1"/></linearGradient><linearGradient id="linear-gradient-36" x1="689.32" y1="578.68" x2="689.32" y2="401.77" xlink:href="#linear-gradient-6"/><linearGradient id="linear-gradient-37" x1="788.59" y1="271.93" x2="767.56" y2="528.38" xlink:href="#radial-gradient"/><linearGradient id="linear-gradient-38" x1="773.65" y1="290.79" x2="760.7" y2="459.87" xlink:href="#linear-gradient-4"/><linearGradient id="Áåçûìÿííûé_ãðàäèåíò_416-3" x1="765.55" y1="387.25" x2="765.55" y2="332.18" xlink:href="#Áåçûìÿííûé_ãðàäèåíò_416"/><linearGradient id="linear-gradient-39" x1="724.18" y1="302.89" x2="780" y2="429.1" xlink:href="#radial-gradient"/><linearGradient id="Áåçûìÿííûé_ãðàäèåíò_126" x1="377.83" y1="356.65" x2="377.83" y2="264.75" gradientTransform="translate(34.8 -10.04) rotate(3.92)" gradientUnits="userSpaceOnUse"><stop offset="0"/><stop offset="1" stop-color="#5ac8e7"/></linearGradient><linearGradient id="Áåçûìÿííûé_ãðàäèåíò_134" x1="449.75" y1="647.57" x2="619.3" y2="647.57" gradientUnits="userSpaceOnUse"><stop offset="0"/><stop offset="1" stop-color="#d5dff1"/></linearGradient><linearGradient id="Áåçûìÿííûé_ãðàäèåíò_134-2" x1="684.28" y1="225.13" x2="720.05" y2="225.13" xlink:href="#Áåçûìÿííûé_ãðàäèåíò_134"/><linearGradient id="Áåçûìÿííûé_ãðàäèåíò_143-2" x1="341.15" y1="219.61" x2="380.57" y2="219.61" xlink:href="#Áåçûìÿííûé_ãðàäèåíò_143"/><linearGradient id="linear-gradient-40" x1="766.41" y1="387.25" x2="805.49" y2="387.25" xlink:href="#linear-gradient-4"/></defs><g class="cls-1"><g id="Welcome"><g class="cls-2"><path class="cls-3" d="M882.3,734.34c-10.63,21.07-23,38.65-36.93,51.28a96.49,96.49,0,0,1-12.66,9.85,79.06,79.06,0,0,1-12.7,6.71c-63.31,26.17-128.13-33.37-200.55-26.34-60.7,5.91-104.39,39.64-143.11,67.95-13.68,10-26.76,19.38-39.78,26.56-3.66,2-7.35,3.9-11,5.55-3.94,1.76-8.12,3.41-12.59,4.93a0,0,0,0,1,0,0l0,0C356.8,900.07,262.05,899.36,220.06,858c-44-43.37-97.36-183.91,23.56-364.94C378,291.82,745.06,264,843.15,330.54,944.66,399.33,940.58,618.73,882.3,734.34Z" transform="translate(-169.52 -97.33)"/></g><ellipse class="cls-4" cx="376.7" cy="850.33" rx="164.58" ry="36.62"/><polygon class="cls-5" points="759.73 4.86 771.5 9.9 759.73 141.62 749.65 146.13 694.18 151.68 689.98 174.84 649.62 141.62 759.73 4.86"/><path class="cls-6" d="M779.14,102.19s-.4,95,6.81,141l73.55,29-11.77-20.61,71.44-8.1s7.56-106.82,10.08-141.27C929.25,102.19,873,91.26,779.14,102.19Z" transform="translate(-169.52 -97.33)"/><path class="cls-7" d="M833.12,144.67q-.42,8.34-.71,16.53T832,177.64c.7.06,1.41.09,2.12.09h2.13c.9,0,1.81,0,2.76,0s1.88-.06,2.84-.12c0-1.24.08-2.45.08-3.64v-3.69q0-6.39-.12-12.76t-.43-12.8h10.36q-.75,10.16-1.16,20.15t-.4,20.15c0,3.31.05,6.61.13,9.89s.2,6.6.34,9.94H841c.14-3.34.26-6.66.38-10l.33-9.94-4.78-.23c-1.58-.07-3.16-.1-4.73-.1h-.34V199c0,1.91,0,3.83.09,5.77h-9.65q.21-6.06.28-12c0-3.94.06-7.91.06-11.89q0-18.1-.76-36.26Z" transform="translate(-169.52 -97.33)"/><path class="cls-7" d="M873.37,204.55c-1.12-.06-2.24-.1-3.36-.13s-2.25,0-3.37,0c-1.85,0-3.71,0-5.56.11s-3.7.17-5.56.31l.09-9.05c.64.08,1.29.14,1.93.19s1.29.09,1.94.15q.25-6.54.48-13t.24-12.95c0-2.89-.05-5.75-.13-8.57s-.17-5.66-.25-8.53c-.73,0-1.48,0-2.23,0s-1.53.07-2.32.12l.08-8.8q3.25.21,6.49.32t6.52.1h2.36c.79,0,1.59,0,2.4-.08l-.25,8.38c-.65,0-1.28,0-1.92,0s-1.27,0-1.91,0c-.4,5.06-.68,10.07-.84,15.06s-.26,10-.26,15q0,6.61.26,13.18c.89,0,1.81,0,2.75-.05s1.89-.06,2.85-.12Z" transform="translate(-169.52 -97.33)"/><path class="cls-7" d="M887,201.6a4.65,4.65,0,0,1-.4,1.9,5.2,5.2,0,0,1-1,1.53,5,5,0,0,1-3.48,1.41,4.47,4.47,0,0,1-1.87-.38,5,5,0,0,1-1.54-1,4.54,4.54,0,0,1-1-1.53,4.64,4.64,0,0,1-.38-1.9,4.47,4.47,0,0,1,.38-1.87,5,5,0,0,1,2.59-2.59,4.63,4.63,0,0,1,1.87-.38,5,5,0,0,1,1.92.38,4.67,4.67,0,0,1,1.56,1.05,5.68,5.68,0,0,1,1,1.54A4.48,4.48,0,0,1,887,201.6Zm.75-57.52q-1.17,11.67-1.85,23.54t-.8,23.37l-5.6.17q-.28-11.58-.78-23.5t-1.11-23.49Z" transform="translate(-169.52 -97.33)"/><path class="cls-8" d="M513.88,805.41c-4.79,28-26.08,92.71-45.17,85.89-4.13-1.46-8.45-6.68-12.74-14.37-13-23.35-25.88-69.29-32.24-100.36-3.46-16.93-5-29.47-3.62-31.5,8.51-12.61,89.38,42,94.2,48.14C515.21,794.37,515,798.89,513.88,805.41Z" transform="translate(-169.52 -97.33)"/><path class="cls-9" d="M642,767.59c-.3,2.6-.66,5.29-1,8.08-5.72,42.55-17.53,105-30.24,127.74-3,5.46-6.12,8.62-9.18,8.69a7.15,7.15,0,0,1-2.46-.37c-2.86-.83-5.89-3.16-9-6.62v0c-19.26-21.63-41-87.29-41.78-106.89-.1-2.42.13-4.15.73-5,11-14.91,90.52-65.77,94.94-59.72C645.11,735.12,644.25,748.66,642,767.59Z" transform="translate(-169.52 -97.33)"/><path class="cls-10" d="M420.1,745.08c-9,11.7,64,64.64,94.76,50.81C514.86,795.89,432,729.54,420.1,745.08Z" transform="translate(-169.52 -97.33)"/><path class="cls-11" d="M548.28,798.18c-2.43,6,81.81-7.72,95.66-64.68C643.94,733.5,571.11,742,548.28,798.18Z" transform="translate(-169.52 -97.33)"/><path class="cls-12" d="M452,794.24c-4.09,5,1,70.59,16.7,97.06-4.13-1.46-8.45-6.68-12.74-14.37-2.56-11.47-6.36-28.5-10-45.5-4.59-21.89-16.3-44.35-22.29-54.86-3.46-16.93-5-29.47-3.62-31.5,8.51-12.61,89.38,42,94.2,48.14.9,1.16.7,5.68-.43,12.2C513.88,805.41,456.1,789.21,452,794.24Z" transform="translate(-169.52 -97.33)"/><path class="cls-13" d="M594.49,818c-3.44,1.06-4.24,28.5,1.5,30S602.44,815.56,594.49,818Z" transform="translate(-169.52 -97.33)"/><path class="cls-14" d="M642,767.59s-46.07,13.64-56.71,35.5-6.66,73.71,4.82,102c-19.26-21.63-41-87.29-41.78-106.89-.1-2.42.13-4.15.73-5,11-14.91,90.52-65.77,94.94-59.72C645.11,735.12,644.25,748.66,642,767.59Z" transform="translate(-169.52 -97.33)"/><path class="cls-15" d="M442.86,552.83c-.1,24.32-3.49,59.48-14.54,87.89-18.26,47-45.7,106.25-46.53,108.11l0,0c-16.76,10.21-36.82,9.68-49.6,7.82a86.56,86.56,0,0,1-12.8-2.76S325,700,354.64,639a468.78,468.78,0,0,1,50.17-80.24,2,2,0,0,0,.23-.3c.16-.26.4-.53.6-.8l.33-.43a1.74,1.74,0,0,0,.3-.4l.43-.53s.07-.07.07-.1l.06-.07c16.6-21,30.08-33.83,32.9-32.26C441.43,524.79,442.93,536.3,442.86,552.83Z" transform="translate(-169.52 -97.33)"/><path class="cls-16" d="M319.6,751.81s21.59-35.62,43.86-31,18.28,28,18.28,28S353.26,769.47,319.6,751.81Z" transform="translate(-169.52 -97.33)"/><path class="cls-17" d="M442.86,552.83c-.1,24.32-3.49,59.48-14.54,87.89-18.26,47-45.7,106.25-46.53,108.11l0,0-49.6,7.82a86.56,86.56,0,0,1-12.8-2.76S325,700,354.64,639a468.78,468.78,0,0,1,50.17-80.24c-9.35,12.34-48.47,66.07-59,111.71-12,51.92,36.32,31.93,56.08,0s40.35-117.63,40.35-117.63Z" transform="translate(-169.52 -97.33)"/><path class="cls-13" d="M388.88,635.83c-3.93-1.47,16.39-47.48,22.69-47.9S392.24,637.09,388.88,635.83Z" transform="translate(-169.52 -97.33)"/><path class="cls-13" d="M386.82,640.74c-3.1-1.64-6,7-3.19,8.22S390.33,642.6,386.82,640.74Z" transform="translate(-169.52 -97.33)"/><path class="cls-18" d="M356.27,731.56c-11.53-1.89-28.28,8.9-33.5,18.59S314.82,815.61,328,861.7c0,0,18.6,5,32.54,0s23.63-45.71,24.4-76.31S375.25,734.65,356.27,731.56Z" transform="translate(-169.52 -97.33)"/><path class="cls-19" d="M354.55,863.25s-17-98.17,21.61-118.22c0,0,11.48,19.45,7.22,57.41S372.59,859.76,354.55,863.25Z" transform="translate(-169.52 -97.33)"/><path class="cls-20" d="M351.77,808.77s9.92,14.5,16.7,16.86a17,17,0,0,0,12.07-.13l-25.05-44.56S351,798.64,351.77,808.77Z" transform="translate(-169.52 -97.33)"/><path class="cls-21" d="M355.49,780.94s5.5-27.2,21.93-33.84c0,0,15.26,15.06,11.38,73.54,0,0-8.52,11.23-20.52,0C368.28,820.64,358.21,800.69,355.49,780.94Z" transform="translate(-169.52 -97.33)"/><path class="cls-13" d="M364.89,771.35c-5.58,0,2.9,24.7,5.81,24.11S369.53,771.35,364.89,771.35Z" transform="translate(-169.52 -97.33)"/><path class="cls-22" d="M428.32,207.16s-25.24-21.78-56.13-25.56c0,0-9.46,4.62-20.38,38.66s9.24,101.27,9.24,101.27Z" transform="translate(-169.52 -97.33)"/><path class="cls-23" d="M360.22,198.57s4.95-11.51,12-17c0,0,25.41,23.46,24.41,79.49l-7.33,7.58Z" transform="translate(-169.52 -97.33)"/><path class="cls-24" d="M637.18,207.16s25.24-21.78,56.13-25.56c0,0,9.46,4.62,20.38,38.66s-9.24,101.27-9.24,101.27Z" transform="translate(-169.52 -97.33)"/><path class="cls-25" d="M693.31,181.6s-25,26.79-25,70l9.67,6.1,28.15-58.28S696.79,181.09,693.31,181.6Z" transform="translate(-169.52 -97.33)"/><path class="cls-26" d="M677.06,254.72s-6.65-36.88,17.62-64c0,0,27.42,12.92,38.76,60.82s-18.18,76.66-18.18,76.66Z" transform="translate(-169.52 -97.33)"/><path class="cls-27" d="M388.44,254.72s6.65-36.88-17.62-64c0,0-27.41,12.92-38.76,60.82s18.19,76.66,18.19,76.66Z" transform="translate(-169.52 -97.33)"/><path class="cls-28" d="M710.75,458.52c-56.32,79-321,73.12-355.48,9.25-22.48-41.71-20-104.42,1.63-162.14,28.41-75.74,89.92-142.94,171.49-142.94,96,0,169.75,95.64,192,183C731.6,389.9,729.67,432,710.75,458.52Z" transform="translate(-169.52 -97.33)"/><path class="cls-29" d="M375,385.27c12.6,53.79,245.26,59.65,302.41,10.9s-25.15-221.9-151.21-214.34C410.94,188.75,354.38,297.18,375,385.27Z" transform="translate(-169.52 -97.33)"/><path class="cls-30" d="M373.82,378.74c12.6,53.79,245.26,59.64,302.41,10.9S651.08,167.74,525,175.3C409.73,182.22,353.17,290.64,373.82,378.74Z" transform="translate(-169.52 -97.33)"/><path class="cls-31" d="M710.75,458.52c-56.32,79-321,73.12-355.48,9.25-22.48-41.71-20-104.42,1.63-162.14,0,0,0,0,0,0-.94,3.39-23.12,84.3-.47,119.89,23.15,36.39,114.77,31.34,213.1,27.14s130.86-18.49,147.36-46.23c13-21.83-.06-70-6.22-89.49l9.65,28.78C731.6,389.9,729.67,432,710.75,458.52Z" transform="translate(-169.52 -97.33)"/><path class="cls-32" d="M528.69,516.67c-55-.07-94.68-6.25-116.87-15.14h0c-14.57-5.82-21.62-12.77-20.59-19.92.63-4.36,11.44-8.18,28.44-11.31,50-9.05,153.39-11.78,209.11-3.33,4.79.73,9.25,1.53,13.27,2.43l2.5.6.46.1c9.61,2.36,16.43,5.25,19.46,8.78a7.27,7.27,0,0,1,1.56,2.73C671.19,499.44,578.38,516.7,528.69,516.67Z" transform="translate(-169.52 -97.33)"/><path class="cls-33" d="M665.37,477.22a6.5,6.5,0,0,1-.93,1.66c-5.39,7.62-27.24,17.43-27.24,17.43s-84-34.36-152.09-19.09-73.29,24.31-73.29,24.31h0c-14.57-5.82-21.62-12.77-20.59-19.92.63-4.36,11.44-8.18,28.44-11.31,50-9.05,153.39-11.78,209.11-3.33,5.82,1,11.11,2.06,15.77,3l.46.1C658.19,473,666,475.49,665.37,477.22Z" transform="translate(-169.52 -97.33)"/><path class="cls-34" d="M642,469.4c-13,12.44-75.38,23.19-110.94,23.15-63.74-.1-102.46-10.14-111.44-22.25C473.9,460.48,591.26,458.09,642,469.4Z" transform="translate(-169.52 -97.33)"/><path class="cls-35" d="M638,718.62c-7.69,45.38-48.3,75.62-106.55,75.62-50.7,0-93.64-18.9-105-60.51s-6.95-118.49,8.19-166.4a155.28,155.28,0,0,1,8.15-20.59l0-.06a141.13,141.13,0,0,1,9.58-16.87.11.11,0,0,0,0-.07c18.5-27.84,45.58-46,76.18-46,31.87,0,56.25,13.11,72.85,32.5a106.45,106.45,0,0,1,18.1,30.44,303,303,0,0,1,12.51,40.09,2.78,2.78,0,0,0,.06.4C642.65,630.64,644.88,678.11,638,718.62Z" transform="translate(-169.52 -97.33)"/><path class="cls-36" d="M598.25,512.59s5,53.9,36.61,86.68C634.86,599.27,626.1,549,598.25,512.59Z" transform="translate(-169.52 -97.33)"/><path class="cls-37" d="M777.14,446.75c-49.59,98.33-137.08,131.93-137.08,131.93-24-15.57-45-66.4-36.73-76.31l0,0a4.19,4.19,0,0,1,1.49-1.16c106.72-51.06,138.65-104,138.65-104,14.41,1,22.66,9.45,27.35,19.09C777.74,430.25,777.14,446.75,777.14,446.75Z" transform="translate(-169.52 -97.33)"/><path class="cls-38" d="M743.53,397.16c-8.89,2.37-8,61.35,3.36,67.23s30.25-17.65,30.25-17.65S775,388.76,743.53,397.16Z" transform="translate(-169.52 -97.33)"/><path class="cls-39" d="M575,291.69c8.4,14.81,64.09,1.65,67.23-7.14,4.2-11.77-11.35-48.74-40.76-45.38S571,284.51,575,291.69Z" transform="translate(-169.52 -97.33)"/><path class="cls-40" d="M488,291.69c-8.4,14.81-64.09,1.65-67.23-7.14-4.2-11.77,11.35-48.74,40.76-45.38S492.09,284.51,488,291.69Z" transform="translate(-169.52 -97.33)"/><path class="cls-41" d="M472.5,319s15.88,16.38,60.88,16.38,68.12-18.91,68.12-18.91-19.84,26.9-68.12,26.9S472.5,319,472.5,319Z" transform="translate(-169.52 -97.33)"/><path class="cls-42" d="M412,242.74c-2.9,17.42,35.86,16.67,88.66,14.92C564.1,255.56,627.86,310.18,665,271c6.12-6.46-54.63-91.29-128-89.39S414.51,227.61,412,242.74Z" transform="translate(-169.52 -97.33)"/><path class="cls-43" d="M448,394.48c-3.35,12.62,23.07,25.26,88,22.07,78.54-3.84,95.21-20.29,91.35-24.85C625,389,601.5,403.78,537,389.64,494.4,380.3,451.49,381.19,448,394.48Z" transform="translate(-169.52 -97.33)"/><path class="cls-44" d="M710.18,315.25l-1.89-5.72C708.65,310.62,709.35,312.59,710.18,315.25Z" transform="translate(-169.52 -97.33)"/><path class="cls-45" d="M638,718.62c-7.69,45.38-48.3,75.62-106.55,75.62-50.7,0-93.64-18.9-105-60.51s-6.95-118.49,8.19-166.4a155.28,155.28,0,0,1,8.15-20.59l0-.06s-30.67,101.69-6.15,166.46,138.75,63.4,177.4,20.35c36.79-41,19.79-137.15,18.06-146.36C642.65,630.64,644.88,678.11,638,718.62Z" transform="translate(-169.52 -97.33)"/><path class="cls-46" d="M428.67,691.7c8.67-60.89,57.52-102.17,111.77-97.05,58.49,5.52,89.93,61.35,89.09,109.25s-35.86,85.3-98.61,85.3S420.57,748.65,428.67,691.7Z" transform="translate(-169.52 -97.33)"/><path class="cls-47" d="M601.5,516.2c-12.4,19.46-80.7,30.79-120.18,27.19C447,540.25,452.17,531,452.44,529.81a.11.11,0,0,0,0-.07c18.5-27.84,45.58-46,76.18-46C560.52,483.7,584.9,496.81,601.5,516.2Z" transform="translate(-169.52 -97.33)"/><path class="cls-13" d="M577.23,549.94c-3.17,1-3.33,26.65,0,30.77s8.66,2.85,10.44-3.17S582,548.35,577.23,549.94Z" transform="translate(-169.52 -97.33)"/><path class="cls-13" d="M583.09,587.53c-2.64.63-3,7-1.73,9.2s5.83,1.75,6.57-1S585.76,586.9,583.09,587.53Z" transform="translate(-169.52 -97.33)"/><path class="cls-48" d="M463.57,758.76s14,24.41,66.22,24.61,73.43-30.88,73.43-30.88-24.08,15.69-58.53,6.27S476.19,744,463.57,758.76Z" transform="translate(-169.52 -97.33)"/><path class="cls-13" d="M573.31,173.83c-5.58,1.3,41.22,26,43.11,23.11S588.74,170.24,573.31,173.83Z" transform="translate(-169.52 -97.33)"/><path class="cls-13" d="M663,192.33c-4.66,2.52-4.29,7.55,5.37,6.29s14.91-8.82,13.86-10.29S668.19,189.51,663,192.33Z" transform="translate(-169.52 -97.33)"/><path class="cls-49" d="M777.14,446.75c-49.59,98.33-137.08,131.93-137.08,131.93-24-15.57-45-66.4-36.73-76.31l0,0a12.12,12.12,0,0,1,1.49-1.16s15.62,57.33,61.35,41.43c54.27-18.87,76.47-113.18,76.47-113.18V401.77l28.18,14.47C777.74,430.25,777.14,446.75,777.14,446.75Z" transform="translate(-169.52 -97.33)"/><path class="cls-50" d="M740.36,413.81s-.42,31.09,17.22,36.13,39.71-27.92,47.91-41.59,20.59-75.22,8.82-89.93-34.46-10.92-49.58,9.67C764.73,328.09,741.2,387.33,740.36,413.81Z" transform="translate(-169.52 -97.33)"/><path class="cls-51" d="M741.31,404.58s20.48-15.56,25.1-39.52,29.43-55.52,29.43-55.52-13-1.2-31.11,18.55S741.31,404.58,741.31,404.58Z" transform="translate(-169.52 -97.33)"/><path class="cls-52" d="M761.5,332.18l15.64,5.9s-6.92,11.68-9.75,22.82S754,387.25,754,387.25Z" transform="translate(-169.52 -97.33)"/><path class="cls-53" d="M741.31,398.68s-5.37-11.77-6.1-34.46,4.64-40.55,7.16-43.7,11.35-2.73,15.55,2.32,7.23,30,7.23,30S759.49,393.22,741.31,398.68Z" transform="translate(-169.52 -97.33)"/><path class="cls-13" d="M747.94,337.49c-2.54-.29-1.68,22.05,1.47,21.11S751.51,337.91,747.94,337.49Z" transform="translate(-169.52 -97.33)"/><path class="cls-54" d="M376.71,361s-2.72-18.3.5-42.88S387,277.69,391,279.92s3.32,26.29,5.64,50c1.81,18.45,5.36,35.78,5.36,35.78S385,382,376.71,361Z" transform="translate(-169.52 -97.33)"/><path class="cls-55" d="M450,658.1c10.31,16.45,52.74,7.69,100.55,12.36s56,20.22,66,17.06-5.85-75.12-77.28-80S447.4,654,450,658.1Z" transform="translate(-169.52 -97.33)"/><path class="cls-56" d="M715.59,212.43s-8.89-11-21-8.09-12.92,41.11-5.67,42,10.32-21.11,15.88-24.58,15.26-2.12,15.26-2.12Z" transform="translate(-169.52 -97.33)"/><path class="cls-57" d="M341.15,225.69s4.67-5.3,15.18-3.58,16.56,23.27,21.93,21.11,1.44-37.1-12.77-47.36C365.49,195.86,347.18,211.49,341.15,225.69Z" transform="translate(-169.52 -97.33)"/><path class="cls-58" d="M766.41,365.06s10.51,34.66,35.82,48.53l3.26-5.24s-25.77-13.59-38.1-47.45Z" transform="translate(-169.52 -97.33)"/></g></g></svg>