<svg xmlns="http://www.w3.org/2000/svg" xmlns:xlink="http://www.w3.org/1999/xlink" viewBox="0 0 868.04 816.32"><defs><style>.cls-1{isolation:isolate;}.cls-2{fill:url(#linear-gradient);}.cls-3{fill:url(#linear-gradient-2);}.cls-4{fill:url(#Áåçûìÿííûé_ãðàäèåíò_36);}.cls-5{fill:url(#Áåçûìÿííûé_ãðàäèåíò_36-2);}.cls-6{opacity:0.25;}.cls-28,.cls-34,.cls-36,.cls-6{mix-blend-mode:multiply;}.cls-7,.cls-8{fill:url(#linear-gradient-3);}.cls-8{opacity:0.8;}.cls-9{fill:url(#linear-gradient-5);}.cls-10{fill:url(#linear-gradient-6);}.cls-11{fill:url(#linear-gradient-7);}.cls-12,.cls-13,.cls-22{fill:#fff;}.cls-13,.cls-17{opacity:0.3;}.cls-14{fill:url(#linear-gradient-8);}.cls-15{fill:url(#linear-gradient-9);}.cls-16{fill:#f1f1f2;}.cls-18{fill:#1a2e35;}.cls-19{fill:url(#linear-gradient-10);}.cls-20{fill:url(#linear-gradient-11);}.cls-21,.cls-25,.cls-31,.cls-35,.cls-39,.cls-42,.cls-43{opacity:0.51;}.cls-21{fill:url(#linear-gradient-12);}.cls-22{opacity:0.65;}.cls-23{fill:url(#linear-gradient-13);}.cls-24{fill:url(#linear-gradient-14);}.cls-25{fill:url(#linear-gradient-15);}.cls-26{fill:url(#linear-gradient-16);}.cls-27{fill:url(#linear-gradient-17);}.cls-28,.cls-34,.cls-36{opacity:0.5;}.cls-28{fill:url(#Áåçûìÿííûé_ãðàäèåíò_416);}.cls-29{fill:url(#linear-gradient-18);}.cls-30{fill:url(#linear-gradient-19);}.cls-31{fill:url(#linear-gradient-20);}.cls-32{fill:url(#linear-gradient-21);}.cls-33{fill:url(#linear-gradient-22);}.cls-34{fill:url(#Áåçûìÿííûé_ãðàäèåíò_416-2);}.cls-35{fill:url(#linear-gradient-23);}.cls-36{fill:url(#radial-gradient);}.cls-37{fill:url(#linear-gradient-24);}.cls-38{fill:url(#linear-gradient-25);}.cls-39{fill:url(#linear-gradient-26);}.cls-40{fill:url(#linear-gradient-27);}.cls-41{fill:url(#linear-gradient-28);}.cls-42{fill:url(#linear-gradient-29);}.cls-43{fill:url(#linear-gradient-30);}.cls-44{fill:url(#linear-gradient-31);}.cls-45{fill:url(#linear-gradient-32);}.cls-46,.cls-49{opacity:0.72;mix-blend-mode:screen;}.cls-46{fill:url(#Áåçûìÿííûé_ãðàäèåíò_134);}.cls-47{fill:url(#linear-gradient-33);}.cls-48{fill:url(#linear-gradient-34);}.cls-49{fill:url(#Áåçûìÿííûé_ãðàäèåíò_134-2);}</style><linearGradient id="linear-gradient" x1="996.69" y1="864.33" x2="292.87" y2="279.43" gradientUnits="userSpaceOnUse"><stop offset="0" stop-color="#7d287a"/><stop offset="0.25" stop-color="#612a78"/><stop offset="0.52" stop-color="#4a2b77"/><stop offset="0.78" stop-color="#3c2c76"/><stop offset="1" stop-color="#372c76"/></linearGradient><linearGradient id="linear-gradient-2" x1="739.37" y1="1173.98" x2="35.54" y2="589.08" xlink:href="#linear-gradient"/><linearGradient id="Áåçûìÿííûé_ãðàäèåíò_36" x1="992.69" y1="858.33" x2="288.87" y2="273.43" gradientUnits="userSpaceOnUse"><stop offset="0.02" stop-color="#d4cbe2"/><stop offset="1" stop-color="#f3e6ee"/></linearGradient><linearGradient id="Áåçûìÿííûé_ãðàäèåíò_36-2" x1="735.37" y1="1167.98" x2="31.54" y2="583.08" xlink:href="#Áåçûìÿííûé_ãðàäèåíò_36"/><linearGradient id="linear-gradient-3" x1="210.68" y1="436.24" x2="552.31" y2="436.24" xlink:href="#linear-gradient"/><linearGradient id="linear-gradient-5" x1="322.11" y1="-25.79" x2="400.18" y2="25.58" xlink:href="#linear-gradient"/><linearGradient id="linear-gradient-6" x1="312.39" y1="-11.02" x2="390.46" y2="40.36" xlink:href="#linear-gradient"/><linearGradient id="linear-gradient-7" x1="175.61" y1="168.86" x2="588.19" y2="623.51" gradientUnits="userSpaceOnUse"><stop offset="0" stop-color="#f071aa"/><stop offset="0.21" stop-color="#c15ba0"/><stop offset="0.42" stop-color="#9a4899"/><stop offset="0.61" stop-color="#7d3a93"/><stop offset="0.78" stop-color="#6c328f"/><stop offset="0.9" stop-color="#662f8e"/></linearGradient><linearGradient id="linear-gradient-8" x1="283.27" y1="229.07" x2="464.07" y2="380.76" gradientUnits="userSpaceOnUse"><stop offset="0" stop-color="#f79420"/><stop offset="0.4" stop-color="#f2684b"/><stop offset="0.72" stop-color="#ef4c66"/><stop offset="0.9" stop-color="#ee4270"/></linearGradient><linearGradient id="linear-gradient-9" x1="310.07" y1="197.12" x2="490.88" y2="348.81" gradientTransform="translate(309.39 -200.73) rotate(45.74)" xlink:href="#linear-gradient-8"/><linearGradient id="linear-gradient-10" x1="925.65" y1="876.84" x2="804.3" y2="766" gradientTransform="matrix(-1, 0, 0, 1, 1485.06, 0)" gradientUnits="userSpaceOnUse"><stop offset="0" stop-color="#ffd587"/><stop offset="0.41" stop-color="#ea9f74"/><stop offset="0.8" stop-color="#d87164"/><stop offset="1" stop-color="#d15f5e"/></linearGradient><linearGradient id="linear-gradient-11" x1="790.24" y1="763.03" x2="885.95" y2="763.03" gradientTransform="matrix(-1, 0, 0, 1, 1485.06, 0)" xlink:href="#linear-gradient"/><linearGradient id="linear-gradient-12" x1="838.37" y1="901.62" x2="838.37" y2="729.54" gradientTransform="matrix(-1, 0, 0, 1, 1485.06, 0)" gradientUnits="userSpaceOnUse"><stop offset="0" stop-color="#c0445f" stop-opacity="0.1"/><stop offset="0.18" stop-color="#bf435e" stop-opacity="0.12"/><stop offset="0.34" stop-color="#bd415c" stop-opacity="0.2"/><stop offset="0.51" stop-color="#b83e57" stop-opacity="0.32"/><stop offset="0.67" stop-color="#b23951" stop-opacity="0.49"/><stop offset="0.83" stop-color="#aa344a" stop-opacity="0.72"/><stop offset="0.99" stop-color="#a02c40" stop-opacity="0.99"/><stop offset="1" stop-color="#a02c40"/></linearGradient><linearGradient id="linear-gradient-13" x1="694.59" y1="886.03" x2="712.27" y2="745.32" xlink:href="#linear-gradient-10"/><linearGradient id="linear-gradient-14" x1="661.36" y1="767" x2="756.87" y2="767" gradientTransform="matrix(-1, 0, 0, 1, 1485.06, 0)" xlink:href="#linear-gradient"/><linearGradient id="linear-gradient-15" x1="709.25" y1="887.85" x2="709.25" y2="739.74" xlink:href="#linear-gradient-12"/><linearGradient id="linear-gradient-16" x1="2923.6" y1="861.02" x2="2940.2" y2="728.87" gradientTransform="matrix(-1, 0, 0, 1, 3825.38, 0)" xlink:href="#linear-gradient-10"/><linearGradient id="linear-gradient-17" x1="2932.89" y1="801.22" x2="2966.39" y2="801.22" gradientTransform="matrix(-1, 0, 0, 1, 3825.38, 0)" xlink:href="#linear-gradient"/><linearGradient id="Áåçûìÿííûé_ãðàäèåíò_416" x1="2948.16" y1="823.74" x2="2948.16" y2="778.03" gradientTransform="matrix(-1, 0, 0, 1, 3825.38, 0)" gradientUnits="userSpaceOnUse"><stop offset="0" stop-color="#8fa1d2"/><stop offset="1" stop-color="#735ea8"/></linearGradient><linearGradient id="linear-gradient-18" x1="2951.23" y1="821.58" x2="2960.93" y2="744.37" gradientTransform="matrix(-1, 0, 0, 1, 3825.38, 0)" xlink:href="#linear-gradient-10"/><linearGradient id="linear-gradient-19" x1="610.36" y1="767.41" x2="642.02" y2="515.34" xlink:href="#linear-gradient-10"/><linearGradient id="linear-gradient-20" x1="982.93" y1="688.64" x2="779.6" y2="619.61" gradientUnits="userSpaceOnUse"><stop offset="0" stop-color="#c0445f" stop-opacity="0.1"/><stop offset="0.18" stop-color="#bf435e" stop-opacity="0.12"/><stop offset="0.34" stop-color="#bd415c" stop-opacity="0.2"/><stop offset="0.51" stop-color="#b83e57" stop-opacity="0.32"/><stop offset="0.67" stop-color="#b23951" stop-opacity="0.49"/><stop offset="0.83" stop-color="#aa344a" stop-opacity="0.72"/><stop offset="0.99" stop-color="#a02c40" stop-opacity="0.99"/><stop offset="1" stop-color="#a02c40"/></linearGradient><linearGradient id="linear-gradient-21" x1="757.33" y1="790.26" x2="795.98" y2="482.55" xlink:href="#linear-gradient-10"/><linearGradient id="linear-gradient-22" x1="889.73" y1="647.49" x2="838.77" y2="497.02" gradientTransform="matrix(-1, 0, 0, 1, 1485.06, 0)" xlink:href="#linear-gradient"/><linearGradient id="Áåçûìÿííûé_ãðàäèåíò_416-2" x1="768.98" y1="540.97" x2="768.98" y2="480.25" gradientTransform="matrix(-1, 0, 0, 1, 1485.06, 0)" xlink:href="#Áåçûìÿííûé_ãðàäèåíò_416"/><linearGradient id="linear-gradient-23" x1="574.05" y1="556.78" x2="872.57" y2="779.25" gradientUnits="userSpaceOnUse"><stop offset="0" stop-color="#c0445f" stop-opacity="0.1"/><stop offset="0.25" stop-color="#bf445e" stop-opacity="0.12"/><stop offset="0.42" stop-color="#bd425c" stop-opacity="0.17"/><stop offset="0.56" stop-color="#ba4059" stop-opacity="0.27"/><stop offset="0.69" stop-color="#b53c55" stop-opacity="0.4"/><stop offset="0.8" stop-color="#af374f" stop-opacity="0.58"/><stop offset="0.91" stop-color="#a83247" stop-opacity="0.79"/><stop offset="1" stop-color="#a02c40"/></linearGradient><radialGradient id="radial-gradient" cx="716.08" cy="1847.54" r="164.59" gradientTransform="translate(-102.75 368.62) scale(1 0.22)" gradientUnits="userSpaceOnUse"><stop offset="0" stop-color="#372d78"/><stop offset="0.39" stop-color="#5e4787"/><stop offset="1" stop-color="#fff"/></radialGradient><linearGradient id="linear-gradient-24" x1="1019.75" y1="373.55" x2="859.14" y2="596.48" xlink:href="#linear-gradient-10"/><linearGradient id="linear-gradient-25" x1="470.48" y1="409.88" x2="495.68" y2="466.85" xlink:href="#linear-gradient"/><linearGradient id="linear-gradient-26" x1="460.38" y1="402.47" x2="620.56" y2="570.74" xlink:href="#linear-gradient-23"/><linearGradient id="linear-gradient-27" x1="419.03" y1="298.71" x2="515.32" y2="516.41" gradientTransform="matrix(1, 0, 0, 1, 0, 0)" xlink:href="#linear-gradient-10"/><linearGradient id="linear-gradient-28" x1="684.97" y1="89.1" x2="829.78" y2="574.49" xlink:href="#linear-gradient-10"/><linearGradient id="linear-gradient-29" x1="528.4" y1="141.78" x2="859.68" y2="555.57" xlink:href="#linear-gradient-23"/><linearGradient id="linear-gradient-30" x1="951.24" y1="311.8" x2="951.24" y2="306.07" xlink:href="#linear-gradient-12"/><linearGradient id="linear-gradient-31" x1="489.35" y1="149.82" x2="592.06" y2="301.41" gradientTransform="matrix(1, 0, 0, 1, 0, 0)" xlink:href="#linear-gradient-10"/><linearGradient id="linear-gradient-32" x1="507.9" y1="253.91" x2="558.74" y2="253.91" xlink:href="#linear-gradient"/><linearGradient id="Áåçûìÿííûé_ãðàäèåíò_134" x1="537.64" y1="292.24" x2="513.37" y2="178.58" gradientUnits="userSpaceOnUse"><stop offset="0"/><stop offset="1" stop-color="#d5dff1"/></linearGradient><linearGradient id="linear-gradient-33" x1="832.88" y1="143.68" x2="877.29" y2="316.27" gradientTransform="matrix(1, 0, 0, 1, 0, 0)" xlink:href="#linear-gradient-10"/><linearGradient id="linear-gradient-34" x1="930.38" y1="176.71" x2="856.25" y2="284.38" xlink:href="#linear-gradient"/><linearGradient id="Áåçûìÿííûé_ãðàäèåíò_134-2" x1="914.87" y1="183.72" x2="859.32" y2="260.3" xlink:href="#Áåçûìÿííûé_ãðàäèåíò_134"/></defs><g class="cls-1"><g id="Layer_1" data-name="Layer 1"><path class="cls-2" d="M238.87,803.77c47.74,54.91,447.64,40.08,597.28-10.93s164.68-488.59,93.45-553.9-523.09-86.17-708.35-15.29S175.33,730.72,238.87,803.77Z" transform="translate(-102.75 -158.04)"/><path class="cls-3" d="M108,678.71c-6.67-20.1,15.63-41.48,36.06-37.77s43.55,70.65,12.46,72.27S112.36,692,108,678.71Z" transform="translate(-102.75 -158.04)"/><path class="cls-4" d="M234.87,797.77c47.74,54.91,447.64,40.08,597.28-10.93s164.68-488.59,93.45-553.9-523.09-86.17-708.35-15.29S171.33,724.72,234.87,797.77Z" transform="translate(-102.75 -158.04)"/><path class="cls-5" d="M104,672.71c-6.67-20.1,15.63-41.48,36.06-37.77s43.55,70.65,12.46,72.27S108.36,686,104,672.71Z" transform="translate(-102.75 -158.04)"/><g class="cls-6"><path class="cls-7" d="M536.26,698.45H253.76A18,18,0,0,1,236,681.55L210.71,190.94a15.89,15.89,0,0,1,16-16.9h282.5A18,18,0,0,1,527,190.94l25.28,490.61A15.89,15.89,0,0,1,536.26,698.45Z" transform="translate(-102.75 -158.04)"/><path class="cls-8" d="M536.26,698.45H253.76A18,18,0,0,1,236,681.55L210.71,190.94a15.89,15.89,0,0,1,16-16.9h282.5A18,18,0,0,1,527,190.94l25.28,490.61A15.89,15.89,0,0,1,536.26,698.45Z" transform="translate(-102.75 -158.04)"/></g><rect class="cls-9" x="347.36" width="31.25" height="2.21" rx="1.11"/><rect class="cls-10" x="325.09" width="11.44" height="2.21" rx="1.11"/><path class="cls-11" d="M548.41,667.33H278.23a17.21,17.21,0,0,1-17-16.16L237.05,182a15.2,15.2,0,0,1,15.33-16.16H522.56a17.21,17.21,0,0,1,17,16.16l24.18,469.22A15.2,15.2,0,0,1,548.41,667.33Z" transform="translate(-102.75 -158.04)"/><path class="cls-12" d="M548.41,656.53H278.23a6.47,6.47,0,0,1-6.22-5.92L247.83,181.4a4.4,4.4,0,0,1,4.55-4.81H522.56a6.47,6.47,0,0,1,6.22,5.92L553,651.72a4.52,4.52,0,0,1-1.2,3.45A4.47,4.47,0,0,1,548.41,656.53Zm-296-479.39a3.86,3.86,0,0,0-4,4.23l24.18,469.21a5.9,5.9,0,0,0,5.67,5.4H548.41a4,4,0,0,0,3-1.19,4,4,0,0,0,1-3L528.22,182.54a5.88,5.88,0,0,0-5.66-5.4Z" transform="translate(-102.75 -158.04)"/><ellipse class="cls-13" cx="393.82" cy="289.04" rx="79.71" ry="83.93" transform="translate(-190.79 211.3) rotate(-45.74)"/><path class="cls-12" d="M460,289a63.49,63.49,0,0,1-6.38,31.52c-10.1,20.63-31.23,34.66-56.39,34.66s-47.74-14-60-34.66A68.33,68.33,0,0,1,327.65,289c-1.89-36.55,26.21-66.17,62.76-66.17S458.11,252.49,460,289Z" transform="translate(-102.75 -158.04)"/><path class="cls-14" d="M453.62,320.56c-10.1,20.63-31.23,34.66-56.39,34.66s-47.74-14-60-34.66a100,100,0,0,1,57.27-17.62A108.76,108.76,0,0,1,453.62,320.56Z" transform="translate(-102.75 -158.04)"/><ellipse class="cls-15" cx="392.66" cy="266.4" rx="28.73" ry="30.25" transform="translate(-174.93 203.63) rotate(-45.74)"/><path class="cls-16" d="M509.69,484.81H298.14a7.29,7.29,0,0,1-7.2-6.84l-1.6-31.08a6.43,6.43,0,0,1,6.49-6.84H507.38a7.27,7.27,0,0,1,7.19,6.84l1.6,31.08A6.43,6.43,0,0,1,509.69,484.81Z" transform="translate(-102.75 -158.04)"/><path class="cls-17" d="M444.9,423H356.55a7.27,7.27,0,0,1-7.19-6.84l-.34-6.6a6.43,6.43,0,0,1,6.48-6.84h88.36a7.3,7.3,0,0,1,7.19,6.84l.34,6.6A6.43,6.43,0,0,1,444.9,423Z" transform="translate(-102.75 -158.04)"/><path class="cls-17" d="M477.76,633.81H345.42a12.42,12.42,0,0,1-12.25-11.65l-.78-15.26a11,11,0,0,1,11.05-11.65H475.77A12.41,12.41,0,0,1,488,606.9l.79,15.26A11,11,0,0,1,477.76,633.81Z" transform="translate(-102.75 -158.04)"/><path class="cls-16" d="M513.55,559.74H302a7.28,7.28,0,0,1-7.19-6.84l-1.61-31.09a6.43,6.43,0,0,1,6.49-6.84H511.24a7.27,7.27,0,0,1,7.19,6.84L520,552.9A6.44,6.44,0,0,1,513.55,559.74Z" transform="translate(-102.75 -158.04)"/><path class="cls-18" d="M325,462.43a7.12,7.12,0,0,1-7.18,7.57,8.07,8.07,0,0,1-8-7.57,7.12,7.12,0,0,1,7.19-7.57A8.07,8.07,0,0,1,325,462.43Z" transform="translate(-102.75 -158.04)"/><path class="cls-18" d="M348.31,462.43a7.12,7.12,0,0,1-7.19,7.57,8.07,8.07,0,0,1-8-7.57,7.12,7.12,0,0,1,7.18-7.57A8.07,8.07,0,0,1,348.31,462.43Z" transform="translate(-102.75 -158.04)"/><path class="cls-18" d="M371.57,462.43a7.12,7.12,0,0,1-7.18,7.57,8.06,8.06,0,0,1-8-7.57,7.12,7.12,0,0,1,7.18-7.57A8.06,8.06,0,0,1,371.57,462.43Z" transform="translate(-102.75 -158.04)"/><path class="cls-18" d="M394.84,462.43a7.12,7.12,0,0,1-7.18,7.57,8.06,8.06,0,0,1-8-7.57,7.12,7.12,0,0,1,7.18-7.57A8.06,8.06,0,0,1,394.84,462.43Z" transform="translate(-102.75 -158.04)"/><path class="cls-18" d="M328.9,537.35a7.12,7.12,0,0,1-7.18,7.58,8.06,8.06,0,0,1-8-7.58,7.12,7.12,0,0,1,7.18-7.57A8.07,8.07,0,0,1,328.9,537.35Z" transform="translate(-102.75 -158.04)"/><path class="cls-18" d="M352.17,537.35a7.13,7.13,0,0,1-7.18,7.58,8.07,8.07,0,0,1-8-7.58,7.12,7.12,0,0,1,7.19-7.57A8.07,8.07,0,0,1,352.17,537.35Z" transform="translate(-102.75 -158.04)"/><path class="cls-18" d="M375.43,537.35a7.12,7.12,0,0,1-7.18,7.58,8.07,8.07,0,0,1-8-7.58,7.12,7.12,0,0,1,7.18-7.57A8.06,8.06,0,0,1,375.43,537.35Z" transform="translate(-102.75 -158.04)"/><path class="cls-18" d="M398.7,537.35a7.12,7.12,0,0,1-7.18,7.58,8.06,8.06,0,0,1-8-7.58,7.12,7.12,0,0,1,7.18-7.57A8.06,8.06,0,0,1,398.7,537.35Z" transform="translate(-102.75 -158.04)"/><path class="cls-18" d="M422,537.35a7.13,7.13,0,0,1-7.18,7.58,8.06,8.06,0,0,1-8-7.58,7.11,7.11,0,0,1,7.18-7.57A8.07,8.07,0,0,1,422,537.35Z" transform="translate(-102.75 -158.04)"/><path class="cls-18" d="M445.24,537.35a7.13,7.13,0,0,1-7.19,7.58,8.07,8.07,0,0,1-8-7.58,7.12,7.12,0,0,1,7.18-7.57A8.07,8.07,0,0,1,445.24,537.35Z" transform="translate(-102.75 -158.04)"/><path class="cls-19" d="M601.1,764.14c.3,2.59.66,5.29,1,8.08,5.72,42.55,17.53,105,30.24,127.74,3,5.46,6.12,8.62,9.18,8.68a7.1,7.1,0,0,0,2.46-.36c2.86-.84,5.89-3.16,9-6.62v0c19.26-21.62,41-87.28,41.78-106.88.1-2.43-.13-4.16-.73-5-11-14.9-90.51-65.76-94.94-59.71C597.94,731.67,598.8,745.21,601.1,764.14Z" transform="translate(-102.75 -158.04)"/><path class="cls-20" d="M694.77,794.73c2.43,6-81.81-7.72-95.66-64.68C599.11,730.05,671.94,738.57,694.77,794.73Z" transform="translate(-102.75 -158.04)"/><path class="cls-21" d="M601.1,764.14s46.07,13.64,56.72,35.49,6.65,73.72-4.83,102c19.26-21.62,41-87.28,41.78-106.88.1-2.43-.13-4.16-.73-5-11-14.9-90.51-65.76-94.94-59.71C597.94,731.67,598.8,745.21,601.1,764.14Z" transform="translate(-102.75 -158.04)"/><path class="cls-22" d="M617,800.68c8.51,3.18,23.89,79.63,15.1,78.06S607.3,797.05,617,800.68Z" transform="translate(-102.75 -158.04)"/><path class="cls-23" d="M729.17,802c4.79,28,26.08,92.71,45.18,85.89,4.12-1.46,8.44-6.68,12.74-14.37,13-23.35,25.88-69.29,32.23-100.36,3.46-16.93,5-29.47,3.63-31.5-8.52-12.61-89.39,42-94.21,48.13C727.84,790.92,728,795.44,729.17,802Z" transform="translate(-102.75 -158.04)"/><path class="cls-24" d="M823,741.63c8.95,11.7-64,64.64-94.75,50.81C728.2,792.44,811.06,726.08,823,741.63Z" transform="translate(-102.75 -158.04)"/><path class="cls-25" d="M791,790.78c4.1,5.06-1,70.59-16.69,97.07,4.12-1.46,8.44-6.68,12.74-14.37C789.65,862,793.44,845,797,828c4.59-21.88,16.3-44.34,22.29-54.85,3.46-16.93,5-29.47,3.63-31.5-8.52-12.61-89.39,42-94.21,48.13-.9,1.17-.7,5.69.43,12.21C729.17,802,787,785.76,791,790.78Z" transform="translate(-102.75 -158.04)"/><path class="cls-26" d="M887.06,728.64c11.52-1.88,28.27,8.91,33.5,18.6s7.94,65.45-5.23,111.54c0,0-18.59,5-32.53,0s-23.63-45.7-24.4-76.3S868.08,731.74,887.06,728.64Z" transform="translate(-102.75 -158.04)"/><path class="cls-27" d="M888.78,860.33s17-98.16-21.62-118.22c0,0-11.48,19.46-7.22,57.41S870.74,856.85,888.78,860.33Z" transform="translate(-102.75 -158.04)"/><path class="cls-28" d="M891.56,805.86s-9.93,14.49-16.7,16.86a17,17,0,0,1-12.07-.13l25-44.56S892.37,795.73,891.56,805.86Z" transform="translate(-102.75 -158.04)"/><path class="cls-29" d="M887.83,778s-5.5-27.2-21.92-33.84c0,0-15.26,15-11.39,73.54,0,0,8.52,11.23,20.53,0C875.05,817.73,885.12,797.78,887.83,778Z" transform="translate(-102.75 -158.04)"/><path class="cls-22" d="M878.44,768.44c5.58,0-2.91,24.69-5.81,24.11S873.79,768.44,878.44,768.44Z" transform="translate(-102.75 -158.04)"/><path class="cls-30" d="M800.19,549.38c.1,24.31,3.5,59.47,14.54,87.88,18.26,47,48.41,110,48.41,110,31.76,36.6,58.76,4.26,58.76,4.26s-3.88-54.9-33.49-116a469.28,469.28,0,0,0-50.16-80.23,1.5,1.5,0,0,1-.23-.3c-.17-.27-.4-.53-.6-.8l-.34-.43a2,2,0,0,1-.3-.4c-.16-.2-.29-.37-.43-.53s-.06-.07-.06-.1l-.07-.07c-16.6-21.06-30.07-33.83-32.9-32.27C801.62,521.33,800.13,532.84,800.19,549.38Z" transform="translate(-102.75 -158.04)"/><path class="cls-31" d="M821.37,535.07c-9.34-10.2-16.14-15.73-18-14.67-1.7.93-3.19,12.44-3.13,29,.1,24.31,3.5,59.47,14.54,87.88,18.26,47,48.41,110,48.41,110,10.23,11.8,20,16.43,28.48,17.29C863.57,753.7,830.79,586.32,821.37,535.07Z" transform="translate(-102.75 -158.04)"/><path class="cls-22" d="M866.26,626.51c3.94-1.47-16.38-47.48-22.69-47.9S862.9,627.77,866.26,626.51Z" transform="translate(-102.75 -158.04)"/><path class="cls-22" d="M868.16,631.44c3.11-1.64,6,7,3.2,8.22S864.65,633.3,868.16,631.44Z" transform="translate(-102.75 -158.04)"/><path class="cls-32" d="M605,715.17c7.69,45.38,48.31,75.61,106.55,75.61,50.7,0,93.65-18.89,105-60.51s7-118.49-8.18-166.39a156.1,156.1,0,0,0-8.15-20.59l0-.07a140.4,140.4,0,0,0-9.58-16.86.13.13,0,0,1,0-.07c-18.5-27.84-45.57-46-76.18-46-31.87,0-56.25,13.11-72.85,32.5a106.55,106.55,0,0,0-18.1,30.44A301.86,301.86,0,0,0,611,583.27a2.83,2.83,0,0,1-.07.4C600.4,627.18,598.17,674.65,605,715.17Z" transform="translate(-102.75 -158.04)"/><path class="cls-33" d="M644.8,509.14s-5,53.89-36.61,86.67C608.19,595.81,617,545.57,644.8,509.14Z" transform="translate(-102.75 -158.04)"/><path class="cls-34" d="M641.55,512.75c12.41,19.46,53.48,31.17,93,27.57,34.36-3.14,51.83-20.05,56.11-14a.13.13,0,0,1,0-.07c-18.5-27.84-45.57-46-76.18-46C682.53,480.25,658.15,493.36,641.55,512.75Z" transform="translate(-102.75 -158.04)"/><path class="cls-35" d="M711.57,790.78c50.7,0,93.65-18.89,105-60.51,11.05-40.49,7.17-114.48-7-162.56-.11.94-18.88,162.51-93.46,175.94-45,8.11-85.79-11.81-111.13-29,0,.16,0,.32.07.48C612.71,760.55,653.33,790.78,711.57,790.78Z" transform="translate(-102.75 -158.04)"/><ellipse class="cls-36" cx="613.33" cy="779.7" rx="164.58" ry="36.62"/><path class="cls-37" d="M459.81,454.24c49.6,98.34,139.69,138.31,139.69,138.31,24-15.56,45-66.39,36.72-76.31l0,0a4.13,4.13,0,0,0-1.5-1.16c-88-42.09-120-82.55-128.56-95.47a8.4,8.4,0,0,0-8.07-3.71c-12.71,1.61-25.26,5.82-29.36,14.25C461.81,444.12,459.81,454.24,459.81,454.24Z" transform="translate(-102.75 -158.04)"/><path class="cls-38" d="M502.59,426.11c2-5.08,2.05-7.47,1.57-8.59a8.36,8.36,0,0,0-6.1-1.65c-12.71,1.61-25.26,5.82-29.36,14.25-6.89,14-8.89,24.12-8.89,24.12C478.29,463,498.5,436.49,502.59,426.11Z" transform="translate(-102.75 -158.04)"/><path class="cls-39" d="M459.81,454.24c49.6,98.34,139.69,138.31,139.69,138.31,24-15.56,45-66.39,36.72-76.31C554.78,526.86,488.53,448.07,471.69,426a15.76,15.76,0,0,0-3,4.14C461.81,444.12,459.81,454.24,459.81,454.24Z" transform="translate(-102.75 -158.04)"/><path class="cls-40" d="M443.44,438.05s-24.09-42.54-14.11-61.69,21.57-14.56,22.92-23.73-4.94-23.38,3.33-26.66c7.94-3.14,42.66,49.18,45.95,88.23a16.38,16.38,0,0,1-1.64,8.74c-5.15,10.33-20.47,36.71-40.08,31.3C459.81,454.24,449.28,447.77,443.44,438.05Z" transform="translate(-102.75 -158.04)"/><path class="cls-22" d="M435.6,374.47c-3.09,4.37-4.25,25.83,2,41.33S442.88,364.16,435.6,374.47Z" transform="translate(-102.75 -158.04)"/><path class="cls-41" d="M532.31,455.07c56.31,79,321,73.12,355.47,9.25,22.49-41.72,20-104.42-1.63-162.14-28.41-75.74-89.92-142.94-171.48-142.94-96,0-169.76,95.64-192,183C511.45,386.44,513.38,428.52,532.31,455.07Z" transform="translate(-102.75 -158.04)"/><path class="cls-42" d="M532.31,455.07c56.31,79,321,73.12,355.47,9.25,22.49-41.72,20-104.42-1.63-162.14-13.78-36.73-35.34-71.46-63.2-97.48,0,.08,29.85,112.94-50.21,157.93s-230.17-26-230.17-26a197,197,0,0,0-7.92-30.49,276.52,276.52,0,0,0-12,36.08C511.45,386.44,513.38,428.52,532.31,455.07Z" transform="translate(-102.75 -158.04)"/><path class="cls-43" d="M532.87,311.8l1.9-5.73C534.4,307.17,533.7,309.13,532.87,311.8Z" transform="translate(-102.75 -158.04)"/><path class="cls-44" d="M605.87,203.71s-25.24-21.78-56.13-25.56c0,0-9.45,4.62-20.38,38.66-2.46,7.67-6.51,48.43-7.23,79.24,1.36,30.66,11.72,39.06,20.44,40.59C597.61,340.36,605.87,203.71,605.87,203.71Z" transform="translate(-102.75 -158.04)"/><path class="cls-45" d="M544.47,319.46c7.46-37.14,24.87-111.51,5.27-141.31,0,0-44.91,42.07-41.67,97.63,1.19,20.38,6.64,34.24,13.07,43.63C529.67,331.87,541.5,334.27,544.47,319.46Z" transform="translate(-102.75 -158.04)"/><path class="cls-46" d="M531.26,205.39s-17.35,21.79-18.07,58.79,14-25.08,21.58-39.91S540.17,195.31,531.26,205.39Z" transform="translate(-102.75 -158.04)"/><path class="cls-22" d="M580.1,188.88c4.66,2.52,4.29,7.55-5.37,6.29s-14.9-8.83-13.85-10.3S574.86,186.05,580.1,188.88Z" transform="translate(-102.75 -158.04)"/><path class="cls-47" d="M823,204.7s22.74-22.78,38.92-26.55c0,0,52.75,132,33,151.53C878.72,345.75,819.09,219.37,823,204.7Z" transform="translate(-102.75 -158.04)"/><path class="cls-48" d="M861.87,178.15s64.44,63.24,36.91,142.52C898.78,320.67,851.08,205.92,861.87,178.15Z" transform="translate(-102.75 -158.04)"/><path class="cls-49" d="M871.24,191.84c3,5.06,26.49,46.68,28.72,62.78s-42.88-72.28-25.69-57.72" transform="translate(-102.75 -158.04)"/><path class="cls-22" d="M622.67,195.37c12.08-10.43,54.78-38.3,110.43-27.19S590.72,223,622.67,195.37Z" transform="translate(-102.75 -158.04)"/></g></g></svg>