<svg xmlns="http://www.w3.org/2000/svg" xmlns:xlink="http://www.w3.org/1999/xlink" viewBox="0 0 829.15 910.59"><defs><style>.cls-1{isolation:isolate;}.cls-2{opacity:0.25;}.cls-3{fill:url(#radial-gradient);}.cls-4{fill:url(#linear-gradient);}.cls-5{fill:url(#linear-gradient-2);}.cls-25,.cls-43,.cls-47,.cls-48,.cls-6{opacity:0.51;}.cls-6{fill:url(#linear-gradient-3);}.cls-7{fill:url(#linear-gradient-4);}.cls-8{fill:url(#linear-gradient-5);}.cls-9{fill:url(#linear-gradient-6);}.cls-10{fill:url(#linear-gradient-7);}.cls-11{fill:url(#linear-gradient-8);}.cls-12{fill:url(#linear-gradient-9);}.cls-13,.cls-19,.cls-35,.cls-36{opacity:0.5;}.cls-13,.cls-19,.cls-49{mix-blend-mode:multiply;}.cls-13{fill:url(#Áåçûìÿííûé_ãðàäèåíò_416);}.cls-14{fill:url(#linear-gradient-10);}.cls-15{fill:url(#linear-gradient-11);}.cls-16{fill:url(#linear-gradient-12);}.cls-17{fill:url(#linear-gradient-13);}.cls-18{fill:url(#linear-gradient-14);}.cls-19{fill:url(#Áåçûìÿííûé_ãðàäèåíò_416-2);}.cls-20{fill:url(#linear-gradient-15);}.cls-21{fill:url(#linear-gradient-16);}.cls-22{fill:url(#linear-gradient-17);}.cls-23{fill:url(#Áåçûìÿííûé_ãðàäèåíò_65);}.cls-24{fill:url(#Áåçûìÿííûé_ãðàäèåíò_14);}.cls-25{fill:url(#linear-gradient-18);}.cls-26{fill:url(#linear-gradient-19);}.cls-27{fill:url(#linear-gradient-20);}.cls-28{fill:url(#linear-gradient-21);}.cls-29{fill:#fff;opacity:0.65;}.cls-30{fill:url(#linear-gradient-22);}.cls-31{fill:url(#linear-gradient-23);}.cls-32{fill:url(#linear-gradient-24);}.cls-33{fill:url(#linear-gradient-25);}.cls-34{fill:url(#linear-gradient-26);}.cls-35,.cls-36,.cls-37,.cls-38,.cls-39,.cls-46{mix-blend-mode:screen;}.cls-35{fill:url(#Áåçûìÿííûé_ãðàäèåíò_54);}.cls-36{fill:url(#Áåçûìÿííûé_ãðàäèåíò_54-2);}.cls-37{opacity:0.2;fill:url(#Áåçûìÿííûé_ãðàäèåíò_126);}.cls-38,.cls-39,.cls-46{opacity:0.72;}.cls-38{fill:url(#Áåçûìÿííûé_ãðàäèåíò_134);}.cls-39{fill:url(#Áåçûìÿííûé_ãðàäèåíò_143);}.cls-40{fill:url(#linear-gradient-27);}.cls-41{fill:url(#linear-gradient-28);}.cls-42{fill:url(#linear-gradient-29);}.cls-43{fill:url(#linear-gradient-30);}.cls-44{fill:url(#linear-gradient-31);}.cls-45{fill:url(#linear-gradient-32);}.cls-46{fill:url(#Áåçûìÿííûé_ãðàäèåíò_143-2);}.cls-47{fill:url(#linear-gradient-33);}.cls-48{fill:url(#linear-gradient-34);}.cls-49{opacity:0.3;fill:url(#Áåçûìÿííûé_ãðàäèåíò_416-3);}.cls-50{fill:url(#Áåçûìÿííûé_ãðàäèåíò_14-2);}.cls-51{fill:url(#linear-gradient-35);}.cls-52{fill:url(#linear-gradient-36);}.cls-53{fill:url(#linear-gradient-37);}.cls-54{fill:url(#linear-gradient-38);}.cls-55{fill:url(#linear-gradient-39);}.cls-56{fill:url(#linear-gradient-40);}</style><radialGradient id="radial-gradient" cx="316.83" cy="2.72" r="1113.58" gradientUnits="userSpaceOnUse"><stop offset="0" stop-color="#ffd587"/><stop offset="0.41" stop-color="#ea9f74"/><stop offset="0.8" stop-color="#d87164"/><stop offset="1" stop-color="#d15f5e"/></radialGradient><linearGradient id="linear-gradient" x1="411.6" y1="985.94" x2="425.59" y2="874.56" xlink:href="#radial-gradient"/><linearGradient id="linear-gradient-2" x1="476.55" y1="971.06" x2="476.55" y2="877.45" gradientUnits="userSpaceOnUse"><stop offset="0" stop-color="#7d287a"/><stop offset="0.25" stop-color="#612a78"/><stop offset="0.52" stop-color="#4a2b77"/><stop offset="0.78" stop-color="#3c2c76"/><stop offset="1" stop-color="#372c76"/></linearGradient><linearGradient id="linear-gradient-3" x1="414.69" y1="978.96" x2="414.69" y2="881.35" gradientUnits="userSpaceOnUse"><stop offset="0" stop-color="#c0445f" stop-opacity="0.1"/><stop offset="0.18" stop-color="#bf435e" stop-opacity="0.12"/><stop offset="0.34" stop-color="#bd415c" stop-opacity="0.2"/><stop offset="0.51" stop-color="#b83e57" stop-opacity="0.32"/><stop offset="0.67" stop-color="#b23951" stop-opacity="0.49"/><stop offset="0.83" stop-color="#aa344a" stop-opacity="0.72"/><stop offset="0.99" stop-color="#a02c40" stop-opacity="0.99"/><stop offset="1" stop-color="#a02c40"/></linearGradient><linearGradient id="linear-gradient-4" x1="414.67" y1="849.44" x2="437.44" y2="668.15" xlink:href="#radial-gradient"/><linearGradient id="linear-gradient-5" x1="540.3" y1="974.24" x2="578.72" y2="668.32" xlink:href="#radial-gradient"/><linearGradient id="linear-gradient-6" x1="624" y1="797.83" x2="636.85" y2="695.48" xlink:href="#linear-gradient-2"/><linearGradient id="linear-gradient-7" x1="747.03" y1="791.66" x2="572.29" y2="739.89" xlink:href="#linear-gradient-2"/><linearGradient id="linear-gradient-8" x1="456.07" y1="867.16" x2="633.56" y2="867.16" gradientTransform="translate(0 -16.59) scale(1 1.03)" xlink:href="#linear-gradient-2"/><linearGradient id="linear-gradient-9" x1="673.78" y1="983.7" x2="689.63" y2="857.5" xlink:href="#radial-gradient"/><linearGradient id="Áåçûìÿííûé_ãðàäèåíò_416" x1="658.91" y1="949.91" x2="658.91" y2="853.76" gradientUnits="userSpaceOnUse"><stop offset="0" stop-color="#8fa1d2"/><stop offset="1" stop-color="#735ea8"/></linearGradient><linearGradient id="linear-gradient-10" x1="664.08" y1="849.61" x2="684.17" y2="689.64" xlink:href="#radial-gradient"/><linearGradient id="linear-gradient-11" x1="577.64" y1="811.49" x2="582.53" y2="772.55" xlink:href="#radial-gradient"/><linearGradient id="linear-gradient-12" x1="378.3" y1="809.24" x2="384.14" y2="762.73" xlink:href="#radial-gradient"/><linearGradient id="linear-gradient-13" x1="394.29" y1="784.48" x2="394.29" y2="762.87" xlink:href="#linear-gradient-2"/><linearGradient id="linear-gradient-14" x1="471.21" y1="916.99" x2="507.26" y2="763.86" gradientUnits="userSpaceOnUse"><stop offset="0" stop-color="#602a7a"/><stop offset="1" stop-color="#f071aa"/></linearGradient><linearGradient id="Áåçûìÿííûé_ãðàäèåíò_416-2" x1="481.41" y1="909.35" x2="481.41" y2="820.37" xlink:href="#Áåçûìÿííûé_ãðàäèåíò_416"/><linearGradient id="linear-gradient-15" x1="383.44" y1="877.51" x2="383.44" y2="791.51" xlink:href="#linear-gradient-2"/><linearGradient id="linear-gradient-16" x1="628.71" y1="846.12" x2="628.71" y2="797.43" xlink:href="#linear-gradient-2"/><linearGradient id="linear-gradient-17" x1="364.92" y1="878.83" x2="375.55" y2="794.2" xlink:href="#radial-gradient"/><linearGradient id="Áåçûìÿííûé_ãðàäèåíò_65" x1="478.42" y1="795.6" x2="482.57" y2="762.57" gradientUnits="userSpaceOnUse"><stop offset="0" stop-color="#ac55a0"/><stop offset="1" stop-color="#f071aa"/></linearGradient><linearGradient id="Áåçûìÿííûé_ãðàäèåíò_14" x1="322.46" y1="960.3" x2="339.03" y2="726.83" gradientUnits="userSpaceOnUse"><stop offset="0" stop-color="#8357a3"/><stop offset="1" stop-color="#ec227e"/></linearGradient><linearGradient id="linear-gradient-18" x1="534.32" y1="799.59" x2="537.56" y2="690.37" xlink:href="#linear-gradient-3"/><linearGradient id="linear-gradient-19" x1="711.91" y1="493.67" x2="711.91" y2="339.25" xlink:href="#radial-gradient"/><linearGradient id="linear-gradient-20" x1="723.13" y1="545.64" x2="723.13" y2="340.84" xlink:href="#linear-gradient-2"/><linearGradient id="linear-gradient-21" x1="743.99" y1="216.38" x2="743.99" y2="639.63" xlink:href="#linear-gradient-2"/><linearGradient id="linear-gradient-22" x1="756.21" y1="499.69" x2="756.21" y2="345.27" gradientTransform="matrix(-1, 0, 0, 1, 1146.42, 0)" xlink:href="#radial-gradient"/><linearGradient id="linear-gradient-23" x1="378.99" y1="545.64" x2="378.99" y2="340.84" xlink:href="#linear-gradient-2"/><linearGradient id="linear-gradient-24" x1="358.24" y1="216.38" x2="358.24" y2="639.63" xlink:href="#linear-gradient-2"/><linearGradient id="linear-gradient-25" x1="672.59" y1="198.62" x2="483.29" y2="774.62" xlink:href="#radial-gradient"/><linearGradient id="linear-gradient-26" x1="763.33" y1="293.87" x2="323.24" y2="800.29" xlink:href="#linear-gradient-2"/><linearGradient id="Áåçûìÿííûé_ãðàäèåíò_54" x1="422.54" y1="420.98" x2="696.02" y2="420.98" gradientUnits="userSpaceOnUse"><stop offset="0"/><stop offset="1" stop-color="#7592cb"/></linearGradient><linearGradient id="Áåçûìÿííûé_ãðàäèåíò_54-2" x1="458.5" y1="639.68" x2="657.34" y2="639.68" xlink:href="#Áåçûìÿííûé_ãðàäèåíò_54"/><linearGradient id="Áåçûìÿííûé_ãðàäèåíò_126" x1="399.3" y1="585.79" x2="399.3" y2="484.36" gradientTransform="translate(34.8 -10.04) rotate(3.92)" gradientUnits="userSpaceOnUse"><stop offset="0"/><stop offset="1" stop-color="#5ac8e7"/></linearGradient><linearGradient id="Áåçûìÿííûé_ãðàäèåíò_134" x1="721.36" y1="387.22" x2="760.84" y2="387.22" gradientUnits="userSpaceOnUse"><stop offset="0"/><stop offset="1" stop-color="#d5dff1"/></linearGradient><linearGradient id="Áåçûìÿííûé_ãðàäèåíò_143" x1="339.21" y1="384.47" x2="382.71" y2="384.47" gradientUnits="userSpaceOnUse"><stop offset="0" stop-color="#d5dff1"/><stop offset="1"/></linearGradient><linearGradient id="linear-gradient-27" x1="721.78" y1="318.05" x2="571.31" y2="677.24" gradientUnits="userSpaceOnUse"><stop offset="0" stop-color="#ffda95"/><stop offset="0.21" stop-color="#fece81"/><stop offset="0.63" stop-color="#fab04f"/><stop offset="1" stop-color="#f6921e"/></linearGradient><linearGradient id="linear-gradient-28" x1="566.66" y1="253.06" x2="416.19" y2="612.26" xlink:href="#linear-gradient-27"/><linearGradient id="linear-gradient-29" x1="671.25" y1="296.88" x2="520.78" y2="656.07" xlink:href="#linear-gradient-27"/><linearGradient id="linear-gradient-30" x1="669.65" y1="846.28" x2="669.65" y2="726.79" xlink:href="#linear-gradient-3"/><linearGradient id="linear-gradient-31" x1="589.86" y1="881.91" x2="600.98" y2="793.39" xlink:href="#radial-gradient"/><linearGradient id="linear-gradient-32" x1="609.86" y1="880.83" x2="609.86" y2="852.26" xlink:href="#linear-gradient-2"/><linearGradient id="Áåçûìÿííûé_ãðàäèåíò_143-2" x1="543.18" y1="969.79" x2="543.18" y2="944.5" xlink:href="#Áåçûìÿííûé_ãðàäèåíò_143"/><linearGradient id="linear-gradient-33" x1="702.89" y1="984.16" x2="702.89" y2="946.82" xlink:href="#linear-gradient-3"/><linearGradient id="linear-gradient-34" x1="586.43" y1="880.83" x2="586.43" y2="802.52" xlink:href="#linear-gradient-3"/><linearGradient id="Áåçûìÿííûé_ãðàäèåíò_416-3" x1="484.95" y1="779.12" x2="484.95" y2="762.47" xlink:href="#Áåçûìÿííûé_ãðàäèåíò_416"/><linearGradient id="Áåçûìÿííûé_ãðàäèåíò_14-2" x1="470.24" y1="777.14" x2="472.03" y2="751.89" xlink:href="#Áåçûìÿííûé_ãðàäèåíò_14"/><linearGradient id="linear-gradient-35" x1="812.52" y1="343.38" x2="980.05" y2="343.38" xlink:href="#linear-gradient-2"/><linearGradient id="linear-gradient-36" x1="889.28" y1="168.65" x2="889.28" y2="529.46" xlink:href="#radial-gradient"/><linearGradient id="linear-gradient-37" x1="294.7" y1="188.63" x2="472.85" y2="188.63" xlink:href="#linear-gradient-2"/><linearGradient id="linear-gradient-38" x1="450.76" y1="354.44" x2="373.09" y2="152.19" xlink:href="#linear-gradient-14"/><linearGradient id="linear-gradient-39" x1="153.45" y1="501.26" x2="295.54" y2="501.26" xlink:href="#radial-gradient"/><linearGradient id="linear-gradient-40" x1="144.71" y1="347.74" x2="288.71" y2="579.11" xlink:href="#linear-gradient-2"/></defs><g class="cls-1"><g id="forgot_your_password" data-name="forgot your password"><g class="cls-2"><path class="cls-3" d="M306.66,882.88c37.1,61.31,347.83,44.75,464.11-12.21s107.06-461,51.71-533.93S440.14,142.86,296.19,222,257.29,801.29,306.66,882.88Z" transform="translate(-150.9 -73.56)"/><path class="cls-3" d="M698,197c.31-29.94,86-67.42,124.84-57.29s44.8,143.83-14.26,148.26S697.66,234.26,698,197Z" transform="translate(-150.9 -73.56)"/><path class="cls-3" d="M184.33,850.6C177,818.91,219.49,778,241.9,783.88s47.76,111.35,13.66,113.91S189.18,871.58,184.33,850.6Z" transform="translate(-150.9 -73.56)"/></g><path class="cls-4" d="M505.49,971.07c-4.65,1.75-162.88,17.81-181.6,0C305.57,953.64,430.66,876.13,449,877.51c4.5.32,8.05,4.76,14.76,14.52C484.58,921.93,505.49,971.07,505.49,971.07Z" transform="translate(-150.9 -73.56)"/><path class="cls-5" d="M449,877.51c-8.16,1,20.42,83,56.46,93.55C505.48,971.06,470.52,874.75,449,877.51Z" transform="translate(-150.9 -73.56)"/><path class="cls-6" d="M505.49,971.07c-4.65,1.75-162,16.84-181.6,0,0,0,46.42,7.73,88.75-6.9s43.16-51.62,43.16-51.62l2.57-31.2C479.17,911.26,505.49,971.07,505.49,971.07Z" transform="translate(-150.9 -73.56)"/><path class="cls-7" d="M338.56,834.86s-7.69-36.64,25.7-75.71C407.54,708.51,497.85,671,513,678s-34.29,86.5-34.29,86.5-62.53,15.79-95.48,54.14S338.56,834.86,338.56,834.86Z" transform="translate(-150.9 -73.56)"/><path class="cls-8" d="M658.82,883.61c-4.28,35.53-20.71,63.52-48.54,78.72C591.6,972.5,567.81,977,539.1,974.06c-42.51-4.27-68.46-36.1-79.87-79.48,0-.05-.05-.09-.05-.14-5.1-19.39-7.31-41.1-6.85-63.66,1.61-73.21,40.35-130.89,67-148.85C563.53,652.24,626,669.39,633,721.55,638.57,763.55,666,824.17,658.82,883.61Z" transform="translate(-150.9 -73.56)"/><path class="cls-9" d="M619.46,693.35c-7.43-3-11.77,66,18.74,106.26,0,0,13.91-8.88,7.92-42.72S629.49,697.4,619.46,693.35Z" transform="translate(-150.9 -73.56)"/><path class="cls-10" d="M614.06,718.54s27.64,39.21,18.7,73C632.76,791.54,615.2,765.18,614.06,718.54Z" transform="translate(-150.9 -73.56)"/><path class="cls-11" d="M610.28,962.33C591.6,972.5,567.81,977,539.1,974.06c-42.51-4.27-68.46-36.1-79.87-79.48,0-.05-.05-.09-.05-.14-11.87-47.89,9.67-111.7,74.4-111.7s96.52,66.51,99.69,113.12C634.54,914.46,632.4,951.38,610.28,962.33Z" transform="translate(-150.9 -73.56)"/><path class="cls-12" d="M740.48,948c.79,18-9,31.15-26.68,34.79-9.07,1.88-29.08,1.79-48.54-.28-.74,0-1.15-.09-1.15-.09-23.51-2.53-46-7.82-47.11-15.87a98.49,98.49,0,0,1-1-16.66c.55-46.84,27.7-99.56,45-96,10.68,2.2,26.23,12.56,40.72,26.54,11.92,11.41,23.1,25.31,30.32,39C737.49,929.76,740.21,939.47,740.48,948Z" transform="translate(-150.9 -73.56)"/><path class="cls-13" d="M701.79,880.48s-33.08-9.4-59.16,12.13c-18.48,15.25-23.75,47.27-26.6,57.3.55-46.84,27.7-99.56,45-96C671.75,856.14,687.3,866.5,701.79,880.48Z" transform="translate(-150.9 -73.56)"/><path class="cls-14" d="M732,809.19c-3,16.57-38.51,40.91-98.5,36.58,0,0-28.62-23-25.81-48.35,0,0,2.57-1,6.16-2.81,7-3.5,29.38-12.09,31.61-19.65,4.22-14.35-10.94-34.27-20.11-55.12-8.48-19.28-2-36.16,2.44-37.08s33.4,9.11,62.07,35.8c2.94,2.71,5.7,5.47,8.23,8.19l0,0C730,760.61,734.83,793.87,732,809.19Z" transform="translate(-150.9 -73.56)"/><path class="cls-15" d="M612.93,797s-25.72-18.28-44-26.13c0,0-18,3.47-21.19,13.07s36,28.34,36,28.34Z" transform="translate(-150.9 -73.56)"/><path class="cls-16" d="M355.32,800.51s15.5-29.8,27.84-33.65,20-2.32,22.06,0,2.27,13.91-2.59,23S378,809.2,378,809.2Z" transform="translate(-150.9 -73.56)"/><path class="cls-17" d="M381,767.8s2.26,9.36,10.1,13.72,13.62,2.62,13.62,2.62,7-14.92-.68-19.64C397.3,760.4,382.63,765,381,767.8Z" transform="translate(-150.9 -73.56)"/><path class="cls-18" d="M592,908.16c-20.79,8.14-55.44-27.74-77.29-40.72-22-13-60.27-17.07-77.71-9.52s-43.76,39.2-67.59,35.1c-4.32-.73-5.84-11.78-4.88-27,1.89-31.47,14.17-80.61,33.36-92.75,28.48-18,143.55-13.35,170.83,12.19,14.59,13.66,24.39,46.15,28.11,74.26C600.11,884.28,598.78,905.49,592,908.16Z" transform="translate(-150.9 -73.56)"/><path class="cls-19" d="M592,908.16c-20.79,8.14-55.44-27.74-77.29-40.72-22-13-60.27-17.07-77.71-9.52s-43.76,39.2-67.59,35.1c-4.32-.73-5.84-11.78-4.88-27l6.4-11.09,43.43-26.45s.37,15.69,4.46,17.76,19.14-1.2,47.49-1.48,50.42,14.22,63.76,5.8,23-28.85,23-28.85l12.47-1.38,31.28,39.39C600.11,884.28,598.78,905.49,592,908.16Z" transform="translate(-150.9 -73.56)"/><path class="cls-20" d="M352.76,791.55s27.4-1.8,59.44,21.74c0,0,8.94,32.83-9.52,53.25a106.91,106.91,0,0,1-33.63,10.9C349.22,880.46,352.76,791.55,352.76,791.55Z" transform="translate(-150.9 -73.56)"/><path class="cls-21" d="M607.72,797.43s24.64,0,38.15,20.92c11.35,17.58-6.13,27.77-6.13,27.77S609.67,844.07,607.72,797.43Z" transform="translate(-150.9 -73.56)"/><path class="cls-22" d="M352.76,791.55c-12.65-.8-22.29,59.49-9.65,77.8s44,3.49,49.66-3.05S407.26,831,404,819.22,383.75,793.51,352.76,791.55Z" transform="translate(-150.9 -73.56)"/><path class="cls-23" d="M402.7,770.84s-2.33,14.95,46.19,21,93.45,2.45,110.43-12.79C559.32,779.1,480.59,747.74,402.7,770.84Z" transform="translate(-150.9 -73.56)"/><path class="cls-24" d="M296,956.89c-35.56,0-90-2.69-104.93-18.41a14,14,0,0,1-4.18-11.39c1.83-18.16,30.08-28.07,60-38.56,29.49-10.34,60-21,64.35-39.33,2.82-11.77-1.42-26.18-5.52-40.1-5.35-18.16-10.88-36.94-1.82-51.82,6.81-11.2,21.06-18.77,43.56-23.13C433.21,717.53,474,762.53,474.37,763l-3.45,3c-.38-.44-39.57-43.47-122.57-27.36-21.16,4.1-34.41,11-40.51,21-8,13.15-3,30.14,2.3,48.13,4.27,14.5,8.69,29.51,5.58,42.47-5,20.73-36.64,31.85-67.29,42.6-27.25,9.55-55.41,19.43-57,34.68a9.44,9.44,0,0,0,2.94,7.76c20.86,21.88,132.09,16.31,133.2,16.26l.24,4.59C326.33,956.24,313.43,956.89,296,956.89Z" transform="translate(-150.9 -73.56)"/><path class="cls-25" d="M459.22,692.2s26.43,42.82,77.86,40.9S616,686.28,616,686.28l-149.64,2.79Z" transform="translate(-150.9 -73.56)"/><path class="cls-26" d="M667.9,367.45s27.86-24,61.94-28.2c0,0,10.44,5.1,22.5,42.66s-10.2,111.76-10.2,111.76Z" transform="translate(-150.9 -73.56)"/><path class="cls-27" d="M729.84,339.25s-27.58,29.56-27.58,77.21l10.66,6.72L744,358.87S733.68,338.68,729.84,339.25Z" transform="translate(-150.9 -73.56)"/><path class="cls-28" d="M711.91,419.94s-7.33-40.7,19.44-70.61c0,0,30.26,14.26,42.78,67.13s-20.07,84.6-20.07,84.6Z" transform="translate(-150.9 -73.56)"/><path class="cls-29" d="M696.35,351.09c-5.15,2.78-4.74,8.33,5.92,6.94s16.45-9.74,15.29-11.36S702.12,348,696.35,351.09Z" transform="translate(-150.9 -73.56)"/><path class="cls-30" d="M434.22,373.48s-27.86-24-61.94-28.21c0,0-10.44,5.1-22.5,42.66S360,499.69,360,499.69Z" transform="translate(-150.9 -73.56)"/><path class="cls-31" d="M372.28,345.27s27.58,29.56,27.58,77.21L389.2,429.2l-31.07-64.31S368.44,344.71,372.28,345.27Z" transform="translate(-150.9 -73.56)"/><path class="cls-32" d="M390.21,426s7.33-40.69-19.45-70.6c0,0-30.25,14.26-42.77,67.12s23.57,88,23.57,88Z" transform="translate(-150.9 -73.56)"/><path class="cls-29" d="M405.77,357.11c5.15,2.78,4.74,8.33-5.92,6.94s-16.45-9.74-15.29-11.36S400,354,405.77,357.11Z" transform="translate(-150.9 -73.56)"/><path class="cls-33" d="M356,630.85c42.66,98.42,362,67.73,400.16-13.12,41.74-88.43-54.22-307-207.25-296.78C419.59,329.57,301.12,504.32,356,630.85Z" transform="translate(-150.9 -73.56)"/><path class="cls-34" d="M373.58,606.72c40.81,80.73,319.56,67.4,360.28-6.82,34.58-63-47.09-254.92-187.13-248.08S334.42,529.24,373.58,606.72Z" transform="translate(-150.9 -73.56)"/><path class="cls-29" d="M594,339.24c-2.92,3.47,30.95,18.18,35.47,16.12S603.7,327.62,594,339.24Z" transform="translate(-150.9 -73.56)"/><path class="cls-35" d="M422.74,432.67c-3.21,19.22,33.22,17,91.49,15.11,70-2.32,140.38,58,181.32,14.7,6.75-7.13-60.29-100.74-141.21-98.65S425.52,416,422.74,432.67Z" transform="translate(-150.9 -73.56)"/><path class="cls-36" d="M458.81,633.32c-3.69,13.93,25.46,27.87,97.15,24.36,86.67-4.25,105.07-22.4,100.81-27.43-2.55-3-28.52,13.33-99.7-2.27C510.07,617.67,462.71,618.66,458.81,633.32Z" transform="translate(-150.9 -73.56)"/><path class="cls-37" d="M381.36,590s-3-20.2.54-47.33,10.84-44.64,15.18-42.18,3.66,29,6.23,55.2c2,20.36,5.91,39.48,5.91,39.48S390.48,613.09,381.36,590Z" transform="translate(-150.9 -73.56)"/><path class="cls-38" d="M755.92,373.2s-9.81-12.16-23.19-8.93-14.26,45.36-6.26,46.41,11.39-23.3,17.52-27.13,16.85-2.34,16.85-2.34Z" transform="translate(-150.9 -73.56)"/><path class="cls-39" d="M339.21,391.17s5.16-5.85,16.75-3.95,18.27,25.68,24.21,23.3,1.58-40.94-14.1-52.27C366.07,358.25,345.87,375.5,339.21,391.17Z" transform="translate(-150.9 -73.56)"/><path class="cls-40" d="M606.09,530.84c7.29,15.46,70.91,17.45,81.16-7,9.2-21.92-19.35-80-57.35-74.69C601.15,453.19,593.79,504.74,606.09,530.84Z" transform="translate(-150.9 -73.56)"/><path class="cls-41" d="M497.61,530.84c-7.29,15.46-70.91,17.45-81.16-7-9.2-21.92,17.77-77.68,57.35-74.69C502.74,451.39,509.91,504.74,497.61,530.84Z" transform="translate(-150.9 -73.56)"/><path class="cls-42" d="M531,579.82s21.51-20.71,37.54-19.45,4.64,22,4.64,22A94.67,94.67,0,0,1,531,579.82Z" transform="translate(-150.9 -73.56)"/><path class="cls-43" d="M732,809.19c-3,16.57-38.51,40.91-98.5,36.58,0,0-28.62-23-25.81-48.35,0,0-2.92,2,.67.17l11.89,2s37.52,9.7,78.05,2.75,12.08-58.65-.16-75.58C730,760.61,734.83,793.87,732,809.19Z" transform="translate(-150.9 -73.56)"/><path class="cls-44" d="M638.48,852.35a3.22,3.22,0,0,0-.55.23c-.37.14-.87.32-1.56.6a.44.44,0,0,1-.28.14c-2.85,1.1-8,3.17-14.22,5.84-3,1.24-6.21,2.71-9.52,4.23-13.53,6.21-30.05,16.75-31.06,17.39,0,0,0,.05,0,.05s-31.66-14.54-33.41-33.72c-1.19-13.3,6.9-32.86,16.8-44.59,4.37-5.2,9.11-8.88,13.52-9.84,14.4-3.09,30.09,3.86,30.09,3.86s20.94-.55,30.23,19.79S638.48,852.35,638.48,852.35Z" transform="translate(-150.9 -73.56)"/><path class="cls-45" d="M638.48,852.35a3.22,3.22,0,0,0-.55.23c-.46.18-1,.37-1.56.6a.44.44,0,0,1-.28.14c-2.85,1.33-6.72,3.36-11,5.75-15.41,8.56-36.21,21.76-36.21,21.76h-7.68s0-.05,0-.05a53.28,53.28,0,0,1,26.18-22.95A72.94,72.94,0,0,1,638.48,852.35Z" transform="translate(-150.9 -73.56)"/><path class="cls-46" d="M493.2,944.5s16.57,22.5,50.56,24.9,49.4-7.13,49.4-7.13-5.52-10.57-20-13-31.09,10-47.07,7.84S493.2,944.5,493.2,944.5Z" transform="translate(-150.9 -73.56)"/><path class="cls-47" d="M740.48,948c.79,18-9,31.15-26.68,34.79-9.07,1.88-29.08,1.79-48.54-.28,5.93.46,33.45,2.21,39.61-5.06,7-8.14,7.41-21.72,15.28-27.56S735.52,948.39,738,948A11.65,11.65,0,0,1,740.48,948Z" transform="translate(-150.9 -73.56)"/><path class="cls-29" d="M696,937.51c-1.17,3.4,10.54,13.09,17.22,10.6s1.46-12.2-1.74-14.23S696.9,934.75,696,937.51Z" transform="translate(-150.9 -73.56)"/><path class="cls-29" d="M348,944.5c-.39,3.12,17.93-4.36,21.2-10.24s4.36-12.69,3.27-13.1S348.56,939.71,348,944.5Z" transform="translate(-150.9 -73.56)"/><path class="cls-29" d="M577.92,797.43c-1,3,11.76,16.85,15,14.82s.58-11.91-5.81-14.82S578.49,795.75,577.92,797.43Z" transform="translate(-150.9 -73.56)"/><path class="cls-29" d="M664.61,759.19c-3.7.92-3.19,6.57-6.39,11.65s-9.19,8.86-8.52,10,15.79.9,18.4-6.81S666.71,758.67,664.61,759.19Z" transform="translate(-150.9 -73.56)"/><path class="cls-29" d="M660.66,753.41c-1.2-.25-5.11-7.91-4.19-10.41s5.15.38,5.92,2.88S662.59,753.82,660.66,753.41Z" transform="translate(-150.9 -73.56)"/><path class="cls-29" d="M352.51,796.27c.34,5.49,20.67,6.6,22.7,3.69s-1.75-5.44-8.46-6.57S352.43,794.92,352.51,796.27Z" transform="translate(-150.9 -73.56)"/><path class="cls-48" d="M625.14,859.07c-15.41,8.56-36.21,21.76-36.21,21.76h-7.68s-31.66-14.54-33.41-33.72c-1.19-13.3,6.9-32.86,16.8-44.59,2.39,6.21,15.82,39.75,29.58,49.74a35.18,35.18,0,0,0,13.25,5.57,66.34,66.34,0,0,0,14.4,1.33C623,859.16,624.13,859.11,625.14,859.07Z" transform="translate(-150.9 -73.56)"/><path class="cls-49" d="M456.37,772.24s2,6.28,21.44,6.86,35.72-12.93,35.72-12.93l-37.46-3.7Z" transform="translate(-150.9 -73.56)"/><path class="cls-29" d="M414.36,722.73c-.27,2.78,27.13-4.19,24.23-13C436.74,704.12,414.84,717.79,414.36,722.73Z" transform="translate(-150.9 -73.56)"/><path class="cls-50" d="M456.37,772.24l-1.74-18.63s12.2-2.29,17.43-1.71,15.7,21.89,15.7,21.89S470.32,782.41,456.37,772.24Z" transform="translate(-150.9 -73.56)"/><path class="cls-51" d="M975,322.3a78.09,78.09,0,0,1-13.67,24.07,61.37,61.37,0,0,1-42.56,21.91A79.61,79.61,0,0,1,892.66,366l-13.88,33.3c-.88,2-3.18,3-6.88,2.79s-8.7-1.43-15-3.73q-6-2.19-10-3.95a33,33,0,0,1-6.09-3.31,7.84,7.84,0,0,1-2.74-3.18,5.59,5.59,0,0,1-.12-3.59l13.39-41.5a41.7,41.7,0,0,1,3.85-8.81,12.25,12.25,0,0,1,4.66-4.58,10.45,10.45,0,0,1,5.85-1.09,28.74,28.74,0,0,1,7.17,1.74l2.54.93a45.17,45.17,0,0,0,17.66,3.14,35.4,35.4,0,0,0,14.37-3.57,31.56,31.56,0,0,0,10.81-9,51.75,51.75,0,0,0,10.4-29.42,33.9,33.9,0,0,0-3-14.69A34.92,34.92,0,0,0,916,265.12,55.77,55.77,0,0,0,899.4,256a74.49,74.49,0,0,0-16.91-4.26A93.68,93.68,0,0,0,869,251c-3.88.13-7.14.37-9.79.69a13.44,13.44,0,0,1-5.79-.18,4.17,4.17,0,0,1-2.06-1.64,6.06,6.06,0,0,1-.77-3.51,31.38,31.38,0,0,1,1-6.3,89.38,89.38,0,0,1,3.09-9.83,53.87,53.87,0,0,1,3.78-8.61,8.59,8.59,0,0,1,4-3.62q2.43-1.07,8.36-1.53a86.84,86.84,0,0,1,13.7.13,148.37,148.37,0,0,1,17,2.41,123.7,123.7,0,0,1,18.6,5.26q21.34,7.85,34.47,19.05t19.31,24.28a62.76,62.76,0,0,1,6.19,27A79.87,79.87,0,0,1,975,322.3Zm-107.86,129a54.9,54.9,0,0,1-5.56,11.5,16.91,16.91,0,0,1-7,6.26,18.44,18.44,0,0,1-9.54,1.32,63.62,63.62,0,0,1-24.74-9.09,18.39,18.39,0,0,1-6.33-7.14,16.8,16.8,0,0,1-1.31-9.32,54.58,54.58,0,0,1,3.21-12.37,56.61,56.61,0,0,1,5.65-11.77,17.5,17.5,0,0,1,7.1-6.43,18,18,0,0,1,9.47-1.44,53,53,0,0,1,13,3.3,52,52,0,0,1,11.75,5.79,18,18,0,0,1,6.4,7.26,17.61,17.61,0,0,1,1.24,9.49A56.89,56.89,0,0,1,867.18,451.29Z" transform="translate(-150.9 -73.56)"/><path class="cls-52" d="M965.76,318.89A80.83,80.83,0,0,1,952.28,343a63.53,63.53,0,0,1-18.7,15.54A59.85,59.85,0,0,1,911,365.41a73.69,73.69,0,0,1-25.15-2L872,396.77q-1.32,3.06-6.67,2.87c-3.56-.13-8.36-1.3-14.37-3.5q-5.73-2.11-9.54-3.8a30.2,30.2,0,0,1-5.81-3.21,7.41,7.41,0,0,1-2.6-3.12,5.76,5.76,0,0,1-.07-3.57L846.44,341a43.52,43.52,0,0,1,3.83-8.82,12.44,12.44,0,0,1,4.55-4.62,9.91,9.91,0,0,1,5.65-1.17,26.42,26.42,0,0,1,6.88,1.64l2.43.89a41.55,41.55,0,0,0,17,2.89A33.65,33.65,0,0,0,900.62,328a31.87,31.87,0,0,0,10.54-9.11,51.39,51.39,0,0,0,7.15-13.31,50.57,50.57,0,0,0,3.26-16.11,34.19,34.19,0,0,0-2.71-14.58,33.28,33.28,0,0,0-9.12-12.1,51.36,51.36,0,0,0-15.9-8.89,67.82,67.82,0,0,0-16.22-4,85.7,85.7,0,0,0-13-.49c-3.74.18-6.88.46-9.44.82a12.52,12.52,0,0,1-5.56-.1,3.89,3.89,0,0,1-2-1.6,6.12,6.12,0,0,1-.69-3.49,31.94,31.94,0,0,1,1-6.28,93.48,93.48,0,0,1,3.12-9.83,56.28,56.28,0,0,1,3.75-8.61,8.88,8.88,0,0,1,3.9-3.66,27.81,27.81,0,0,1,8.07-1.64A83.39,83.39,0,0,1,880,215a135.93,135.93,0,0,1,16.31,2.17,111.38,111.38,0,0,1,17.83,5q20.45,7.5,32.94,18.48t18.26,23.9A63.18,63.18,0,0,1,971,291.33,82.59,82.59,0,0,1,965.76,318.89ZM860.15,448.71a56.5,56.5,0,0,1-5.51,11.52,17.17,17.17,0,0,1-6.85,6.33,17.54,17.54,0,0,1-9.2,1.43,48.14,48.14,0,0,1-12.2-3,49.08,49.08,0,0,1-11.5-5.7,17.51,17.51,0,0,1-6-7,17.15,17.15,0,0,1-1.13-9.26A57.22,57.22,0,0,1,811,430.66a59.86,59.86,0,0,1,5.61-11.79,17.81,17.81,0,0,1,6.92-6.49,17.05,17.05,0,0,1,9.14-1.56,49.09,49.09,0,0,1,12.46,3.1,47.91,47.91,0,0,1,11.24,5.61,17,17,0,0,1,6.06,7.13,18,18,0,0,1,1.07,9.43A59.92,59.92,0,0,1,860.15,448.71Z" transform="translate(-150.9 -73.56)"/><path class="cls-53" d="M438.17,107.34a73.26,73.26,0,0,1,9.26,24.35,59.22,59.22,0,0,1-.38,23.13,58.63,58.63,0,0,1-9.26,20.88,74.89,74.89,0,0,1-17.37,17.57l15.83,30c.95,1.86.25,4.09-2.11,6.66s-6.25,5.46-11.69,8.63q-5.18,3-8.84,4.86a30.7,30.7,0,0,1-6.05,2.42,7.41,7.41,0,0,1-3.95.09,5.26,5.26,0,0,1-2.67-2.07l-22.07-34.6a38.84,38.84,0,0,1-4.08-8.08,11.49,11.49,0,0,1-.53-6.12,9.79,9.79,0,0,1,2.72-4.91,26.87,26.87,0,0,1,5.56-4.15l2.2-1.28a42.52,42.52,0,0,0,12.87-10.93,33.41,33.41,0,0,0,6-12.56,29.64,29.64,0,0,0-.06-13.25,48.66,48.66,0,0,0-15.1-25.2A31.91,31.91,0,0,0,376,116.21a32.9,32.9,0,0,0-14.7-.38,52.58,52.58,0,0,0-16.63,6.58,69.76,69.76,0,0,0-13.23,9.7,88.8,88.8,0,0,0-8.59,9.39q-3.35,4.35-5.37,7.52a12.54,12.54,0,0,1-3.6,4.09,4,4,0,0,1-2.43.51,5.69,5.69,0,0,1-3-1.55,28.89,28.89,0,0,1-4-4.49,85.28,85.28,0,0,1-5.28-8.15,49.93,49.93,0,0,1-4-7.89,8.17,8.17,0,0,1-.23-5.08,27.14,27.14,0,0,1,3.9-7,82.85,82.85,0,0,1,8.32-9.86,138.38,138.38,0,0,1,11.93-10.87,114.93,114.93,0,0,1,15-10.33q18.48-10.78,34.49-13.59t29.2.57a59,59,0,0,1,23.32,11.73A74.81,74.81,0,0,1,438.17,107.34ZM467,262.94a51.37,51.37,0,0,1,5,10.93,16,16,0,0,1,.32,8.86,17.39,17.39,0,0,1-4.76,7.7,49.54,49.54,0,0,1-10,7.3,50.24,50.24,0,0,1-11.48,5.2,17.5,17.5,0,0,1-9,.31,15.91,15.91,0,0,1-7.54-4.64,51.14,51.14,0,0,1-7.06-9.75,54,54,0,0,1-5.14-11.17,16.52,16.52,0,0,1-.41-9,17,17,0,0,1,4.65-7.73,59.71,59.71,0,0,1,21.43-12.5,17.06,17.06,0,0,1,9.09-.28,16.59,16.59,0,0,1,7.64,4.79A53.75,53.75,0,0,1,467,262.94Z" transform="translate(-150.9 -73.56)"/><path class="cls-54" d="M430.14,112a76.07,76.07,0,0,1,9.41,24.26,59.51,59.51,0,0,1,.06,22.88A56.39,56.39,0,0,1,431,179.64a69.39,69.39,0,0,1-16.51,17.07l15.89,30c.95,1.87.31,4-1.92,6.56s-6,5.28-11.17,8.32q-4.95,2.9-8.47,4.65a28.39,28.39,0,0,1-5.82,2.28,6.84,6.84,0,0,1-3.82,0,5.36,5.36,0,0,1-2.63-2.09l-22-34.63a41.7,41.7,0,0,1-4.1-8.07,11.84,11.84,0,0,1-.62-6.07,9.34,9.34,0,0,1,2.54-4.8,24.5,24.5,0,0,1,5.32-4l2.1-1.23a39.09,39.09,0,0,0,12.26-10.57,31.68,31.68,0,0,0,5.61-12.32,30.13,30.13,0,0,0-.29-13.11A48.36,48.36,0,0,0,392,138.46a47.61,47.61,0,0,0-9.73-12,32,32,0,0,0-12.19-6.77,31.42,31.42,0,0,0-14.25-.65,48.39,48.39,0,0,0-16,6.2,64.51,64.51,0,0,0-12.64,9.36,81.31,81.31,0,0,0-8.14,9.13q-3.16,4.25-5.07,7.34a11.71,11.71,0,0,1-3.41,4,3.67,3.67,0,0,1-2.34.47,5.76,5.76,0,0,1-2.94-1.6,29.89,29.89,0,0,1-3.94-4.51,89.39,89.39,0,0,1-5.26-8.16,52.83,52.83,0,0,1-4-7.88,8.28,8.28,0,0,1-.32-5,26.26,26.26,0,0,1,3.65-6.84,78,78,0,0,1,7.88-9.6,128.31,128.31,0,0,1,11.36-10.53,106.82,106.82,0,0,1,14.3-10q17.72-10.32,33.16-12.8t28.29,1.09a59.32,59.32,0,0,1,22.8,12A77.9,77.9,0,0,1,430.14,112ZM461,266.48A53.74,53.74,0,0,1,466,277.4a16.2,16.2,0,0,1,.48,8.76A16.57,16.57,0,0,1,462,293.7a45.8,45.8,0,0,1-9.5,7,46.39,46.39,0,0,1-11,4.93,16.55,16.55,0,0,1-8.68.14,16.15,16.15,0,0,1-7.4-4.73,54,54,0,0,1-7-9.78,56.12,56.12,0,0,1-5.18-11.14,16.71,16.71,0,0,1-.56-8.91,16,16,0,0,1,4.35-7.56,46.16,46.16,0,0,1,9.72-7.18,44.93,44.93,0,0,1,10.81-4.79,16,16,0,0,1,8.8-.11,16.76,16.76,0,0,1,7.48,4.87A56,56,0,0,1,461,266.48Z" transform="translate(-150.9 -73.56)"/><path class="cls-55" d="M269.59,435.93a59,59,0,0,1,7.18,19.78,46.63,46.63,0,0,1-8.3,35.43,60.37,60.37,0,0,1-14.25,14l12.43,24.45q1.11,2.28-1.78,5.36t-9.55,6.83c-2.81,1.58-5.21,2.86-7.2,3.82a24.27,24.27,0,0,1-4.92,1.88,5.79,5.79,0,0,1-3.18,0,4.19,4.19,0,0,1-2.14-1.7l-17.41-28.21a31.66,31.66,0,0,1-3.2-6.57,9.25,9.25,0,0,1-.35-5,7.93,7.93,0,0,1,2.25-3.93,21.92,21.92,0,0,1,4.55-3.28l1.79-1A34.57,34.57,0,0,0,236,489.15a26.8,26.8,0,0,0,5-10.08,24.13,24.13,0,0,0,.12-10.7,37.59,37.59,0,0,0-4.12-10.74,37.11,37.11,0,0,0-7.78-9.79,25.87,25.87,0,0,0-10-5.49,26.42,26.42,0,0,0-11.87-.48A42,42,0,0,0,193.9,447a55.58,55.58,0,0,0-10.8,7.68,69.74,69.74,0,0,0-7,7.48c-1.84,2.31-3.31,4.31-4.43,6a10.08,10.08,0,0,1-3,3.26,3.17,3.17,0,0,1-2,.39,4.66,4.66,0,0,1-2.41-1.29,23.73,23.73,0,0,1-3.16-3.67,70,70,0,0,1-4.16-6.65,41.14,41.14,0,0,1-3.12-6.42,6.64,6.64,0,0,1-.12-4.1,21.82,21.82,0,0,1,3.24-5.6,66.56,66.56,0,0,1,6.83-7.86,114.11,114.11,0,0,1,9.77-8.64,94.33,94.33,0,0,1,12.21-8.16q15.07-8.49,28-10.56a55.83,55.83,0,0,1,23.57.81,47.54,47.54,0,0,1,18.7,9.75A60.5,60.5,0,0,1,269.59,435.93ZM291,562a41.79,41.79,0,0,1,3.92,8.89,13,13,0,0,1,.16,7.16,14.06,14.06,0,0,1-3.95,6.16,40,40,0,0,1-8.12,5.78A40.46,40.46,0,0,1,273.7,594a14,14,0,0,1-7.25.14,12.85,12.85,0,0,1-6-3.84,41.51,41.51,0,0,1-5.58-7.95,43.61,43.61,0,0,1-4-9.08,13.35,13.35,0,0,1-.22-7.28,13.63,13.63,0,0,1,3.84-6.19,40.57,40.57,0,0,1,8.31-5.89,40,40,0,0,1,9.15-3.95,13.73,13.73,0,0,1,7.35-.11,13.33,13.33,0,0,1,6.11,4A43.14,43.14,0,0,1,291,562Z" transform="translate(-150.9 -73.56)"/><path class="cls-56" d="M263.05,439.62a61.56,61.56,0,0,1,7.31,19.7,48.11,48.11,0,0,1-.23,18.48A45.28,45.28,0,0,1,263,494.24a55.92,55.92,0,0,1-13.53,13.59l12.47,24.42q1.11,2.28-1.63,5.28t-9.12,6.58q-4,2.28-6.9,3.65a22.32,22.32,0,0,1-4.72,1.78,5.58,5.58,0,0,1-3.09,0,4.33,4.33,0,0,1-2.1-1.72L217,519.54a33.75,33.75,0,0,1-3.22-6.56,9.46,9.46,0,0,1-.42-4.91,7.53,7.53,0,0,1,2.1-3.85,19.9,19.9,0,0,1,4.35-3.17l1.71-1a31.61,31.61,0,0,0,10-8.39,25.78,25.78,0,0,0,4.68-9.88,24.32,24.32,0,0,0-.08-10.6,39,39,0,0,0-4.18-10.7,38.3,38.3,0,0,0-7.71-9.83,26,26,0,0,0-9.77-5.62,25.33,25.33,0,0,0-11.5-.69,39,39,0,0,0-13,4.82,51.58,51.58,0,0,0-10.32,7.4,67,67,0,0,0-6.69,7.28c-1.74,2.26-3.13,4.21-4.18,5.87a9.59,9.59,0,0,1-2.8,3.17,3,3,0,0,1-1.9.35,4.65,4.65,0,0,1-2.35-1.32,23.85,23.85,0,0,1-3.13-3.7,72.34,72.34,0,0,1-4.15-6.65,41.87,41.87,0,0,1-3.13-6.41,6.7,6.7,0,0,1-.2-4.06,21.26,21.26,0,0,1,3-5.49,64.07,64.07,0,0,1,6.48-7.66,104.66,104.66,0,0,1,9.3-8.37,86.27,86.27,0,0,1,11.68-7.86q14.41-8.13,26.93-9.94A53.33,53.33,0,0,1,231.39,413a47.85,47.85,0,0,1,18.27,10A62.73,62.73,0,0,1,263.05,439.62Zm23,125.12a43.86,43.86,0,0,1,3.95,8.88,13.07,13.07,0,0,1,.28,7.08,13.32,13.32,0,0,1-3.71,6,36.65,36.65,0,0,1-7.75,5.58,38,38,0,0,1-9,3.85,13.46,13.46,0,0,1-7,0,13.06,13.06,0,0,1-5.91-3.91,43.1,43.1,0,0,1-5.55-8,45.15,45.15,0,0,1-4.05-9.06A13.49,13.49,0,0,1,247,568a12.92,12.92,0,0,1,3.61-6,44.52,44.52,0,0,1,16.72-9.43,13,13,0,0,1,7.12,0,13.62,13.62,0,0,1,6,4A45.18,45.18,0,0,1,286.08,564.74Z" transform="translate(-150.9 -73.56)"/></g></g></svg>