<svg xmlns="http://www.w3.org/2000/svg" xmlns:xlink="http://www.w3.org/1999/xlink" viewBox="0 0 346.92 333.94"><defs><style>.cls-1,.cls-21{fill:none;}.cls-2{isolation:isolate;}.cls-3{opacity:0.2;}.cls-4{fill:url(#linear-gradient);}.cls-5{fill:url(#linear-gradient-2);}.cls-6{fill:url(#linear-gradient-3);}.cls-7{fill:url(#linear-gradient-4);}.cls-8{fill:url(#Áåçûìÿííûé_ãðàäèåíò_28);}.cls-9{fill:url(#linear-gradient-5);}.cls-10{fill:#fff;}.cls-10,.cls-25,.cls-26{opacity:0.5;}.cls-11{fill:url(#linear-gradient-6);}.cls-12{fill:url(#Áåçûìÿííûé_ãðàäèåíò_28-2);}.cls-13{fill:url(#linear-gradient-7);}.cls-14{fill:url(#linear-gradient-8);}.cls-15{fill:url(#linear-gradient-9);}.cls-16,.cls-17{opacity:0.72;}.cls-16,.cls-17,.cls-25,.cls-26{mix-blend-mode:screen;}.cls-16{fill:url(#Áåçûìÿííûé_ãðàäèåíò_5);}.cls-17{fill:url(#Áåçûìÿííûé_ãðàäèåíò_4);}.cls-18{clip-path:url(#clip-path);}.cls-19{fill:url(#linear-gradient-11);}.cls-20{clip-path:url(#clip-path-2);}.cls-21{stroke:#fff;stroke-linecap:round;stroke-linejoin:round;stroke-width:2.64px;}.cls-22{fill:url(#linear-gradient-12);}.cls-23{fill:#1d0c43;opacity:0.1;}.cls-24{fill:url(#linear-gradient-13);}.cls-25{fill:url(#Áåçûìÿííûé_ãðàäèåíò_54);}.cls-26{fill:url(#Áåçûìÿííûé_ãðàäèåíò_54-2);}</style><linearGradient id="linear-gradient" x1="1048.21" y1="214.6" x2="1434.91" y2="724.26" gradientUnits="userSpaceOnUse"><stop offset="0" stop-color="#e56ba6"/><stop offset="0.99" stop-color="#713592"/></linearGradient><linearGradient id="linear-gradient-2" x1="893.54" y1="331.95" x2="1280.24" y2="841.62" xlink:href="#linear-gradient"/><linearGradient id="linear-gradient-3" x1="1208.54" y1="92.95" x2="1595.24" y2="602.62" xlink:href="#linear-gradient"/><linearGradient id="linear-gradient-4" x1="1322.38" y1="411.41" x2="1322.38" y2="313.54" gradientUnits="userSpaceOnUse"><stop offset="0" stop-color="#ffd587"/><stop offset="0.41" stop-color="#ea9f74"/><stop offset="0.8" stop-color="#d87164"/><stop offset="1" stop-color="#d15f5e"/></linearGradient><linearGradient id="Áåçûìÿííûé_ãðàäèåíò_28" x1="1329.49" y1="366.74" x2="1329.49" y2="313.53" gradientUnits="userSpaceOnUse"><stop offset="0" stop-color="#be9dea"/><stop offset="1" stop-color="#9e8cef"/></linearGradient><linearGradient id="linear-gradient-5" x1="1342.71" y1="416.09" x2="1342.71" y2="319.93" gradientUnits="userSpaceOnUse"><stop offset="0" stop-color="#7d287a"/><stop offset="0.25" stop-color="#612a78"/><stop offset="0.52" stop-color="#4a2b77"/><stop offset="0.78" stop-color="#3c2c76"/><stop offset="1" stop-color="#372c76"/></linearGradient><linearGradient id="linear-gradient-6" x1="453.4" y1="415.23" x2="453.4" y2="317.36" gradientTransform="matrix(-1, 0, 0, 1, 1571.89, 0)" xlink:href="#linear-gradient-4"/><linearGradient id="Áåçûìÿííûé_ãðàäèåíò_28-2" x1="460.51" y1="370.56" x2="460.51" y2="317.35" gradientTransform="matrix(-1, 0, 0, 1, 1571.89, 0)" xlink:href="#Áåçûìÿííûé_ãðàäèåíò_28"/><linearGradient id="linear-gradient-7" x1="473.67" y1="422.08" x2="473.67" y2="323.75" gradientTransform="matrix(-1, 0, 0, 1, 1571.89, 0)" xlink:href="#linear-gradient-5"/><linearGradient id="linear-gradient-8" x1="1222.34" y1="257.68" x2="1222.34" y2="558.52" xlink:href="#linear-gradient-4"/><linearGradient id="linear-gradient-9" x1="1221.28" y1="262.93" x2="1221.28" y2="487.84" xlink:href="#linear-gradient-5"/><linearGradient id="Áåçûìÿííûé_ãðàäèåíò_5" x1="1328.37" y1="343.94" x2="1353.39" y2="343.94" gradientUnits="userSpaceOnUse"><stop offset="0"/><stop offset="1" stop-color="#d4e2ff"/></linearGradient><linearGradient id="Áåçûìÿííûé_ãðàäèåíò_4" x1="1086.16" y1="342.2" x2="1113.74" y2="342.2" gradientUnits="userSpaceOnUse"><stop offset="0" stop-color="#d4e2ff"/><stop offset="1"/></linearGradient><clipPath id="clip-path" transform="translate(-1031.46 -273.1)"><path class="cls-1" d="M1096.78,498.36c27,62.37,229.44,42.92,253.62-8.32,26.45-56.05-34.37-194.56-131.35-188.1C1137.11,307.41,1062,418.17,1096.78,498.36Z"/></clipPath><linearGradient id="linear-gradient-11" x1="1221.28" y1="267.79" x2="1221.28" y2="416.65" gradientUnits="userSpaceOnUse"><stop offset="0" stop-color="#ffda95"/><stop offset="0.21" stop-color="#fece81"/><stop offset="0.63" stop-color="#fab04f"/><stop offset="1" stop-color="#f6921e"/></linearGradient><clipPath id="clip-path-2" transform="translate(-1031.46 -273.1)"><path class="cls-1" d="M1277.08,309.06h0a107.33,107.33,0,0,0-111.6,0h0a103.09,103.09,0,0,0-23.36,19.47v43.06A50.93,50.93,0,0,0,1193,422.46h56.59a50.93,50.93,0,0,0,50.87-50.87V328.53A103.31,103.31,0,0,0,1277.08,309.06Z"/></clipPath><linearGradient id="linear-gradient-12" x1="1221.28" y1="269" x2="1221.28" y2="459.36" gradientUnits="userSpaceOnUse"><stop offset="0" stop-color="#f79420"/><stop offset="0.4" stop-color="#f2684b"/><stop offset="0.72" stop-color="#ef4c66"/><stop offset="0.9" stop-color="#ee4270"/></linearGradient><linearGradient id="linear-gradient-13" x1="1191.24" y1="460.53" x2="1253.43" y2="460.53" xlink:href="#linear-gradient-11"/><linearGradient id="Áåçûìÿííûé_ãðàäèåíò_54" x1="1159.87" y1="479.96" x2="1330.84" y2="540.9" gradientUnits="userSpaceOnUse"><stop offset="0"/><stop offset="1" stop-color="#7592cb"/></linearGradient><linearGradient id="Áåçûìÿííûé_ãðàäèåíò_54-2" x1="1149.48" y1="435.37" x2="1068.04" y2="481.75" xlink:href="#Áåçûìÿííûé_ãðàäèåíò_54"/></defs><g class="cls-2"><g id="Layer_1" data-name="Layer 1"><g class="cls-3"><path class="cls-4" d="M1316.07,556c-55.08,62.21-101.81,66.05-137.67,19.47-49.47-64.26-140.29-32.51-146.74-113.16s144.74-205.4,245-187.52S1418,440.9,1316.07,556Z" transform="translate(-1031.46 -273.1)"/><path class="cls-5" d="M1087.27,538.24c-25.29-16.71-54,4.83-55.33,22.66s55.39,22.76,64.22,15.72S1094.24,542.86,1087.27,538.24Z" transform="translate(-1031.46 -273.1)"/><path class="cls-6" d="M1378.36,296c-2-21-26.12-27.09-36.36-20.06s11.82,39.88,19.47,41.59S1378.91,301.73,1378.36,296Z" transform="translate(-1031.46 -273.1)"/></g><path class="cls-7" d="M1294.49,331.42s17.65-15.23,39.26-17.88c0,0,6.61,3.24,14.25,27s-6.46,70.83-6.46,70.83Z" transform="translate(-1031.46 -273.1)"/><path class="cls-8" d="M1333.75,313.54s-17.49,18.74-17.49,48.94l6.76,4.26L1342.71,326S1336.18,313.18,1333.75,313.54Z" transform="translate(-1031.46 -273.1)"/><path class="cls-9" d="M1322.38,364.68s-4.65-25.79,12.32-44.75c0,0,19.18,9,27.12,42.55s-12.72,53.61-12.72,53.61Z" transform="translate(-1031.46 -273.1)"/><path class="cls-10" d="M1312.52,321.05c-3.27,1.76-3,5.28,3.75,4.4s10.43-6.18,9.69-7.21S1316.18,319.07,1312.52,321.05Z" transform="translate(-1031.46 -273.1)"/><path class="cls-11" d="M1146.38,335.24s-17.65-15.24-39.26-17.88c0,0-6.61,3.23-14.25,27s6.46,70.83,6.46,70.83Z" transform="translate(-1031.46 -273.1)"/><path class="cls-12" d="M1107.12,317.36s17.49,18.74,17.49,48.93l-6.76,4.27-19.7-40.76S1104.69,317,1107.12,317.36Z" transform="translate(-1031.46 -273.1)"/><path class="cls-13" d="M1118.49,368.5s4.65-25.79-12.33-44.75c0,0-19.17,9-27.11,42.54S1094,422.08,1094,422.08Z" transform="translate(-1031.46 -273.1)"/><path class="cls-10" d="M1128.35,324.86c3.27,1.77,3,5.28-3.75,4.4s-10.43-6.17-9.69-7.2S1124.69,322.89,1128.35,324.86Z" transform="translate(-1031.46 -273.1)"/><path class="cls-14" d="M1096.78,498.36c27,62.37,229.44,42.92,253.62-8.32,26.45-56.05-34.37-194.56-131.35-188.1C1137.11,307.41,1062,418.17,1096.78,498.36Z" transform="translate(-1031.46 -273.1)"/><path class="cls-15" d="M1108,489.55c25.86,51.17,202.53,42.72,228.34-4.32,21.92-39.94-29.84-161.57-118.6-157.23S1083.13,440.45,1108,489.55Z" transform="translate(-1031.46 -273.1)"/><path class="cls-16" d="M1350.27,335.06s-6.22-7.71-14.69-5.66-9,28.75-4,29.41,7.22-14.77,11.1-17.19,10.68-1.48,10.68-1.48Z" transform="translate(-1031.46 -273.1)"/><path class="cls-17" d="M1086.16,346.45s3.27-3.71,10.62-2.51,11.58,16.28,15.34,14.77,1-25.94-8.93-33.13C1103.19,325.58,1090.38,336.52,1086.16,346.45Z" transform="translate(-1031.46 -273.1)"/><g class="cls-18"><path class="cls-15" d="M1193,428h56.59A56.59,56.59,0,0,0,1306,371.59V335.3q-2.62-3.49-5.55-6.77v43.06a50.93,50.93,0,0,1-50.87,50.87H1193a50.93,50.93,0,0,1-50.86-50.87V328.53q-2.92,3.27-5.55,6.77v36.29A56.59,56.59,0,0,0,1193,428Z" transform="translate(-1031.46 -273.1)"/><path class="cls-19" d="M1277.08,309.06h0a107.33,107.33,0,0,0-111.6,0h0a103.09,103.09,0,0,0-23.36,19.47v43.06A50.93,50.93,0,0,0,1193,422.46h56.59a50.93,50.93,0,0,0,50.87-50.87V328.53A103.31,103.31,0,0,0,1277.08,309.06Z" transform="translate(-1031.46 -273.1)"/><g class="cls-20"><path class="cls-21" d="M1299.5,384.92a27.31,27.31,0,0,0-5.7-16.71,13.21,13.21,0,0,0,.48-3.47,12.86,12.86,0,0,0-16.81-12.25,19.82,19.82,0,0,0-29.58-23.89,16,16,0,0,0-26.61-7.74,16,16,0,0,0-26.61,7.74,19.82,19.82,0,0,0-29.58,23.89,12.86,12.86,0,0,0-16.33,15.72,27.31,27.31,0,0,0-5.7,16.71c0,15.18,12.3,55.22,27.48,55.22.23,0,.46,0,.7,0v0h102.27v-.07C1288,439.29,1299.5,399.59,1299.5,384.92Z" transform="translate(-1031.46 -273.1)"/><path class="cls-22" d="M1176.78,434.6v-.15l-5.69.11-.55,0h0c-9.42,0-21.94-34.08-21.94-49.67a21.68,21.68,0,0,1,4.56-13.33l1.69-2.2-.75-2.68a7.5,7.5,0,0,1-.28-2,7.34,7.34,0,0,1,7.33-7.32,7.19,7.19,0,0,1,2.24.36l11.41,3.66-4.58-11.07a14.27,14.27,0,0,1,21.29-17.21l3.93,2.72s5.73-13.94,14.76-13.94a10.41,10.41,0,0,1,7.23,2.92l3.85,3.7,3.84-3.7a10.44,10.44,0,0,1,17.38,5.05l1.91,7.84,6.63-4.59a14.27,14.27,0,0,1,21.3,17.21l-4.59,11.08,11.42-3.68a7.43,7.43,0,0,1,2.24-.35,7.3,7.3,0,0,1,7,9.3l-.74,2.67,1.69,2.2a21.67,21.67,0,0,1,4.55,13.33c0,6.11-2.51,19-7.18,30.74-5.06,12.8-10.45,18.7-13.56,18.87l-1.24.07Z" transform="translate(-1031.46 -273.1)"/><line class="cls-21" x1="189.81" y1="47.76" x2="189.81" y2="77.8"/><line class="cls-21" x1="163.2" y1="55.5" x2="163.2" y2="105.17"/><line class="cls-21" x1="133.62" y1="79.39" x2="140.99" y2="88.56"/><line class="cls-21" x1="216.43" y1="55.5" x2="216.43" y2="64.27"/><path class="cls-21" d="M1179.14,365a4.19,4.19,0,1,1-4.19-4.18A4.2,4.2,0,0,1,1179.14,365Z" transform="translate(-1031.46 -273.1)"/><circle class="cls-21" cx="163.2" cy="109.35" r="4.18"/><circle class="cls-21" cx="189.81" cy="81.98" r="4.18"/><line class="cls-21" x1="189.81" y1="154.91" x2="189.81" y2="124.87"/><circle class="cls-21" cx="189.81" cy="120.69" r="4.18"/><line class="cls-21" x1="163.2" y1="168.56" x2="163.2" y2="138.53"/><path class="cls-21" d="M1190.48,407.44a4.19,4.19,0,1,1,4.19,4.19A4.19,4.19,0,0,1,1190.48,407.44Z" transform="translate(-1031.46 -273.1)"/><line class="cls-21" x1="119.43" y1="145.91" x2="140.67" y2="124.67"/><path class="cls-21" d="M1172.14,391.85a4.18,4.18,0,1,1,0,5.92A4.18,4.18,0,0,1,1172.14,391.85Z" transform="translate(-1031.46 -273.1)"/><line class="cls-21" x1="246" y1="79.39" x2="232.13" y2="90.63"/><circle class="cls-21" cx="227.95" cy="93.4" r="4.18"/><circle class="cls-21" cx="219.58" cy="127.53" r="4.18"/><circle class="cls-21" cx="216.43" cy="68.46" r="4.18"/><line class="cls-21" x1="262.33" y1="95.11" x2="223.76" y2="124.61"/></g><path class="cls-23" d="M1282.41,312.56v59a32.87,32.87,0,0,1-32.84,32.84H1193a32.87,32.87,0,0,1-32.83-32.84v-59a102.72,102.72,0,0,0-18,16v43.06A50.93,50.93,0,0,0,1193,422.46h56.59a50.93,50.93,0,0,0,50.87-50.87V328.53A103.44,103.44,0,0,0,1282.41,312.56Z" transform="translate(-1031.46 -273.1)"/></g><path class="cls-10" d="M1247.63,313.53c-1.85,2.21,19.62,11.53,22.48,10.22S1253.8,306.17,1247.63,313.53Z" transform="translate(-1031.46 -273.1)"/><path class="cls-24" d="M1191.24,455.26s7.66,2.07,29.35,2.07,32.84-3.28,32.84-3.28-9.56,13-32.84,13S1191.24,455.26,1191.24,455.26Z" transform="translate(-1031.46 -273.1)"/><path class="cls-25" d="M1168.76,513.32c12.08,13.5,115.41-.81,134-10.79S1147.47,489.53,1168.76,513.32Z" transform="translate(-1031.46 -273.1)"/><path class="cls-26" d="M1112.94,412.73c2.37-8.49-20.85,65.8,6.16,78.74S1107.81,431.07,1112.94,412.73Z" transform="translate(-1031.46 -273.1)"/></g></g></svg>