<svg xmlns="http://www.w3.org/2000/svg" xmlns:xlink="http://www.w3.org/1999/xlink" viewBox="0 0 300.52 327.89"><defs><style>.cls-1{isolation:isolate;}.cls-2{opacity:0.2;}.cls-3{fill:url(#linear-gradient);}.cls-4{fill:url(#linear-gradient-2);}.cls-5{fill:url(#linear-gradient-3);}.cls-11,.cls-29,.cls-30,.cls-39,.cls-6{opacity:0.5;}.cls-11,.cls-39,.cls-6,.cls-7{mix-blend-mode:multiply;}.cls-6{fill:url(#Áåçûìÿííûé_ãðàäèåíò_40);}.cls-7{fill:url(#Degradado_sin_nombre_3);}.cls-8{fill:url(#linear-gradient-4);}.cls-9{fill:url(#linear-gradient-5);}.cls-10{fill:url(#linear-gradient-6);}.cls-11{fill:url(#Áåçûìÿííûé_ãðàäèåíò_40-2);}.cls-12{fill:url(#linear-gradient-7);}.cls-13,.cls-26{fill:#262262;}.cls-14{fill:url(#linear-gradient-8);}.cls-15{opacity:0.8;}.cls-16{fill:#f1f1f2;}.cls-17{fill:url(#linear-gradient-9);}.cls-18{fill:url(#linear-gradient-10);}.cls-19{fill:url(#Áåçûìÿííûé_ãðàäèåíò_93);}.cls-20{fill:#fff;}.cls-21{fill:url(#linear-gradient-11);}.cls-22{fill:url(#linear-gradient-12);}.cls-23{fill:url(#linear-gradient-13);}.cls-24{fill:url(#Áåçûìÿííûé_ãðàäèåíò_14);}.cls-25{fill:url(#linear-gradient-14);}.cls-26,.cls-27,.cls-28,.cls-29,.cls-30,.cls-31,.cls-33,.cls-34,.cls-35,.cls-36,.cls-41{fill-rule:evenodd;}.cls-27{fill:url(#linear-gradient-15);}.cls-28{fill:url(#linear-gradient-16);}.cls-29,.cls-30,.cls-35{mix-blend-mode:soft-light;}.cls-29{fill:url(#Áåçûìÿííûé_ãðàäèåíò_21);}.cls-30{fill:url(#Áåçûìÿííûé_ãðàäèåíò_21-2);}.cls-31{fill:#f79420;}.cls-32{fill:url(#Áåçûìÿííûé_ãðàäèåíò_14-2);}.cls-33{fill:url(#linear-gradient-17);}.cls-34{fill:url(#linear-gradient-18);}.cls-35{fill:#fbf9fa;}.cls-36{fill:url(#linear-gradient-19);}.cls-37{fill:url(#linear-gradient-20);}.cls-38{fill:url(#linear-gradient-21);}.cls-39{fill:#a02755;}.cls-40{fill:#eda677;}.cls-41{fill:#fbf9b8;}</style><linearGradient id="linear-gradient" x1="553.22" y1="268.07" x2="746.4" y2="569.32" gradientUnits="userSpaceOnUse"><stop offset="0" stop-color="#e56ba6"/><stop offset="0.99" stop-color="#713592"/></linearGradient><linearGradient id="linear-gradient-2" x1="579.19" y1="567.2" x2="632.21" y2="649.89" gradientTransform="translate(70.2 -154.02) rotate(10.51)" xlink:href="#linear-gradient"/><linearGradient id="linear-gradient-3" x1="267.85" y1="96.33" x2="87.88" y2="178.93" gradientUnits="userSpaceOnUse"><stop offset="0" stop-color="#f6935b"/><stop offset="0.01" stop-color="#f4915c"/><stop offset="0.23" stop-color="#c16e6e"/><stop offset="0.43" stop-color="#9a537c"/><stop offset="0.62" stop-color="#7d3f86"/><stop offset="0.78" stop-color="#6c338c"/><stop offset="0.9" stop-color="#662f8e"/></linearGradient><linearGradient id="Áåçûìÿííûé_ãðàäèåíò_40" x1="200.87" y1="123.47" x2="88.27" y2="163.47" gradientUnits="userSpaceOnUse"><stop offset="0" stop-color="#dce3f7"/><stop offset="1" stop-color="#755cbb"/></linearGradient><linearGradient id="Degradado_sin_nombre_3" x1="1100.66" y1="477.3" x2="1100.66" y2="428.22" gradientTransform="matrix(-1, -0.05, -0.05, 1, 1217.29, -226.06)" gradientUnits="userSpaceOnUse"><stop offset="0" stop-color="#9a5f8b" stop-opacity="0"/><stop offset="0.13" stop-color="#9a5f8b" stop-opacity="0.04"/><stop offset="0.3" stop-color="#9a5f8b" stop-opacity="0.14"/><stop offset="0.49" stop-color="#9a5f8b" stop-opacity="0.31"/><stop offset="0.7" stop-color="#9a5f8b" stop-opacity="0.55"/><stop offset="0.91" stop-color="#9a5f8b" stop-opacity="0.86"/><stop offset="1" stop-color="#9a5f8b"/></linearGradient><linearGradient id="linear-gradient-4" x1="284.25" y1="119.44" x2="-2.48" y2="257.88" gradientUnits="userSpaceOnUse"><stop offset="0.14" stop-color="#f6935b"/><stop offset="0.15" stop-color="#f4915c"/><stop offset="0.33" stop-color="#c16e6e"/><stop offset="0.5" stop-color="#9a537c"/><stop offset="0.66" stop-color="#7d3f86"/><stop offset="0.8" stop-color="#6c338c"/><stop offset="0.9" stop-color="#662f8e"/></linearGradient><linearGradient id="linear-gradient-5" x1="304.86" y1="162.14" x2="18.13" y2="300.58" xlink:href="#linear-gradient-4"/><linearGradient id="linear-gradient-6" x1="303.67" y1="178.7" x2="47.1" y2="270.99" gradientUnits="userSpaceOnUse"><stop offset="0" stop-color="#f79420"/><stop offset="0.4" stop-color="#f2684b"/><stop offset="0.72" stop-color="#ef4c66"/><stop offset="0.9" stop-color="#ee4270"/></linearGradient><linearGradient id="Áåçûìÿííûé_ãðàäèåíò_40-2" x1="132.42" y1="202.92" x2="245.49" y2="202.92" xlink:href="#Áåçûìÿííûé_ãðàäèåíò_40"/><linearGradient id="linear-gradient-7" x1="289" y1="137.89" x2="32.42" y2="230.19" xlink:href="#linear-gradient-6"/><linearGradient id="linear-gradient-8" x1="665.02" y1="418.46" x2="740.09" y2="354.78" gradientUnits="userSpaceOnUse"><stop offset="0" stop-color="#602a7a"/><stop offset="1" stop-color="#f071aa"/></linearGradient><linearGradient id="linear-gradient-9" x1="774.94" y1="366.78" x2="684.19" y2="418.77" gradientUnits="userSpaceOnUse"><stop offset="0" stop-color="#7d287a"/><stop offset="0.25" stop-color="#612a78"/><stop offset="0.52" stop-color="#4a2b77"/><stop offset="0.78" stop-color="#3c2c76"/><stop offset="1" stop-color="#372c76"/></linearGradient><linearGradient id="linear-gradient-10" x1="684.08" y1="292.68" x2="684.08" y2="241.91" gradientTransform="matrix(0.95, 0.33, -0.33, 0.95, 122.63, -181.75)" gradientUnits="userSpaceOnUse"><stop offset="0" stop-color="#602a7a"/><stop offset="0.03" stop-color="#6e317f"/><stop offset="0.1" stop-color="#90428a"/><stop offset="0.19" stop-color="#ae5194"/><stop offset="0.28" stop-color="#c65d9c"/><stop offset="0.39" stop-color="#d966a2"/><stop offset="0.51" stop-color="#e66ca7"/><stop offset="0.67" stop-color="#ee70a9"/><stop offset="1" stop-color="#f071aa"/></linearGradient><linearGradient id="Áåçûìÿííûé_ãðàäèåíò_93" x1="683.87" y1="295.56" x2="683.87" y2="292.67" gradientTransform="matrix(0.95, 0.33, -0.33, 0.95, 122.63, -181.75)" gradientUnits="userSpaceOnUse"><stop offset="0" stop-color="#1c257b"/><stop offset="1" stop-color="#482c83"/></linearGradient><linearGradient id="linear-gradient-11" x1="774.97" y1="249.83" x2="774.97" y2="206.7" gradientTransform="translate(-215.75 442.27) rotate(-24.78)" xlink:href="#linear-gradient-6"/><linearGradient id="linear-gradient-12" x1="757.74" y1="241.39" x2="791.69" y2="258.56" gradientTransform="translate(-215.75 442.27) rotate(-24.78)" xlink:href="#linear-gradient-9"/><linearGradient id="linear-gradient-13" x1="241.94" y1="138.88" x2="228.09" y2="135.34" xlink:href="#linear-gradient-8"/><linearGradient id="Áåçûìÿííûé_ãðàäèåíò_14" x1="153.82" y1="64.43" x2="161.89" y2="64.43" gradientUnits="userSpaceOnUse"><stop offset="0" stop-color="#8357a3"/><stop offset="1" stop-color="#ec227e"/></linearGradient><linearGradient id="linear-gradient-14" x1="301.82" y1="72.36" x2="206.3" y2="96.82" xlink:href="#linear-gradient-9"/><linearGradient id="linear-gradient-15" x1="691.59" y1="337.93" x2="611.76" y2="397.46" gradientUnits="userSpaceOnUse"><stop offset="0" stop-color="#ffd587"/><stop offset="0.41" stop-color="#ea9f74"/><stop offset="0.8" stop-color="#d87164"/><stop offset="1" stop-color="#d15f5e"/></linearGradient><linearGradient id="linear-gradient-16" x1="194.98" y1="82.52" x2="68.99" y2="125.9" xlink:href="#linear-gradient-9"/><linearGradient id="Áåçûìÿííûé_ãðàäèåíò_21" x1="791.58" y1="260.72" x2="843.66" y2="260.72" gradientTransform="translate(-739.65 88.19) rotate(-15.53)" gradientUnits="userSpaceOnUse"><stop offset="0" stop-color="#f3e6ee"/><stop offset="0.98" stop-color="#e5dfed"/></linearGradient><linearGradient id="Áåçûìÿííûé_ãðàäèåíò_21-2" x1="852.12" y1="260.44" x2="871.23" y2="260.44" xlink:href="#Áåçûìÿííûé_ãðàäèåíò_21"/><linearGradient id="Áåçûìÿííûé_ãðàäèåíò_14-2" x1="139.05" y1="139.9" x2="165.81" y2="121.21" xlink:href="#Áåçûìÿííûé_ãðàäèåíò_14"/><linearGradient id="linear-gradient-17" x1="807" y1="422.84" x2="807" y2="374.81" gradientTransform="translate(405.69 -534.31) rotate(41.41)" gradientUnits="userSpaceOnUse"><stop offset="0" stop-color="#f79420"/><stop offset="0.58" stop-color="#f15c56"/><stop offset="0.9" stop-color="#ee4270"/></linearGradient><linearGradient id="linear-gradient-18" x1="800.32" y1="422.44" x2="800.32" y2="375.34" gradientTransform="translate(405.69 -534.31) rotate(41.41)" gradientUnits="userSpaceOnUse"><stop offset="0" stop-color="#f79420"/><stop offset="1" stop-color="#fdd085"/></linearGradient><linearGradient id="linear-gradient-19" x1="799.78" y1="420.23" x2="799.78" y2="377.42" xlink:href="#linear-gradient-17"/><linearGradient id="linear-gradient-20" x1="1073.77" y1="456.54" x2="1073.77" y2="431.18" gradientTransform="matrix(-0.58, -0.51, 0.76, -0.88, 1030.68, 1230.19)" xlink:href="#linear-gradient-17"/><linearGradient id="linear-gradient-21" x1="1075.01" y1="456.54" x2="1075.01" y2="431.18" gradientTransform="matrix(-0.58, -0.51, 0.76, -0.88, 1030.68, 1230.19)" xlink:href="#linear-gradient-18"/></defs><g class="cls-1"><g id="Layer_1" data-name="Layer 1"><g class="cls-2"><path class="cls-3" d="M504.47,427.41C501.24,357.24,600,269.18,685,283.78c89.81,15.41,168.55,210.43,83.45,276.11S507.74,498.58,504.47,427.41Z" transform="translate(-504.39 -262.26)"/><path class="cls-4" d="M538.33,522.44c16.68,15.74,79.73,50.17,69.13,62.81s-75.5-1.14-90.21-18.64S509.87,495.57,538.33,522.44Z" transform="translate(-504.39 -262.26)"/></g><polygon class="cls-5" points="136.47 178.77 54.18 140.81 152.38 124.73 246.61 159.66 136.47 178.77"/><polygon class="cls-6" points="152.38 124.73 54.18 140.81 136.47 178.77 149.4 176.53 152.56 124.8 152.38 124.73"/><polyline class="cls-7" points="135.75 180.12 54.36 142.55 54.55 155 134.94 195.87 135.75 180.12"/><polygon class="cls-8" points="130.26 283.63 135.75 177.59 53.81 140.86 58.11 245.38 130.26 283.63"/><polygon class="cls-9" points="246.61 159.66 230.09 264.44 130.26 283.63 135.75 177.59 246.61 159.66"/><polygon class="cls-10" points="195.9 167.52 190.46 272.6 172.18 276.38 177.78 170.8 195.9 167.52"/><polygon class="cls-11" points="245.49 161.33 243.06 175.69 132.42 244.51 135.75 180.12 245.49 161.33"/><polygon class="cls-12" points="95.87 265.05 101.28 162.32 83.36 154.17 77.98 255.48 95.87 265.05"/><path class="cls-13" d="M760,373.78l-4.38,9s-40,17.87-67.53,40.12l-22.14-26.85-1.32-12.87Z" transform="translate(-504.39 -262.26)"/><path class="cls-14" d="M664.59,383.18S699.17,351.4,732,335.8l28,38s-45.66,18.71-71.24,38.61Z" transform="translate(-504.39 -262.26)"/><g class="cls-15"><path class="cls-16" d="M703.83,384.75a5.28,5.28,0,0,1-3.65,8.78l-2.06-3.31c9.11-.63.25-6.69-4.14-7-6.15-2.19-6.43-11.58.92-11.88l2,3.37c-2.62-1-5.42,1.47-3.46,3.95C696.3,381.63,701.6,380.5,703.83,384.75Z" transform="translate(-504.39 -262.26)"/><path class="cls-16" d="M713.59,384.82c-.9-1.13-1.78-2.27-2.71-3.39-.82.49-1.6.92-2.38,1.47.75,1.27,1.49,2.49,2.26,3.72l-3.22,2.14c-3.13-6.79-6.37-13.37-10-19.91l3.88-2.57c4.85,5.65,9.82,11,15.2,16.16Zm-11.9-14.1c1.82,3.37,3.63,6.66,5.55,10,.62-.36,1.36-.91,2-1.31C706.73,376.43,704.25,373.61,701.69,370.72Z" transform="translate(-504.39 -262.26)"/><path class="cls-16" d="M724.18,377.41a80.32,80.32,0,0,0-6.61,4.67,203,203,0,0,0-12.66-18.38,25.76,25.76,0,0,0,2.9-2.08c3.14,5.54,7.16,11,10.65,16.32a37.87,37.87,0,0,0,3.89-3.19Z" transform="translate(-504.39 -262.26)"/><path class="cls-16" d="M725.68,366.31a28.28,28.28,0,0,0-2.61,1.75l3.08,4.58a37.77,37.77,0,0,0,3.89-3.18l1.83,2.66a79.78,79.78,0,0,0-6.62,4.67,200.91,200.91,0,0,0-12.65-18.38,46.06,46.06,0,0,0,6.39-4.48l2,2.92a21.6,21.6,0,0,0-3.79,2.19c1.28,2.24,2.69,4.35,4.12,6.5.88-.55,1.74-1.14,2.58-1.78Z" transform="translate(-504.39 -262.26)"/></g><path class="cls-17" d="M688.05,422.9l.67-10.51s39.4-29.58,71.24-38.61l-4.38,9S717.29,399.39,688.05,422.9Z" transform="translate(-504.39 -262.26)"/><path class="cls-18" d="M662.92,262.26c-7,18-10.61,29.42-13.16,47.72l47.42,16.38c8.86-14.26,14-26.13,19.14-45.65C697.3,272.27,684.53,267.76,662.92,262.26Z" transform="translate(-504.39 -262.26)"/><path class="cls-19" d="M649.76,310c0,4.89,40.36,16.22,43.75,18l3.67-1.6Z" transform="translate(-504.39 -262.26)"/><path class="cls-20" d="M691.74,285.79c-6.52,6.58-12.85,13.87-19,21.23a16.35,16.35,0,0,0-3.33-1.76,178.51,178.51,0,0,0,19-21.2Zm-8.84,2.47c-2.37,9.05-12.72,5.5-9-3.1C676.19,276.06,686.65,279.77,682.9,288.26Zm-3-1c3.42-12.67-6.44.9-3.12,4.32C678.53,291.47,679,289.32,679.88,287.22Zm7.55,19c-2.35,9-12.75,5.47-9-3.11C680.71,294,691.18,297.73,687.43,306.23Zm-3-1.05c2.53-6.41-1.4-6.92-2.94-1C678.94,310.11,682.71,311.4,684.39,305.18Z" transform="translate(-504.39 -262.26)"/><path class="cls-21" d="M553,316.25c6.31,15.15,10.81,24.28,20,37l38.71-17.87c-3-13.95-6.78-24.28-15.15-39.25A249.67,249.67,0,0,0,553,316.25Z" transform="translate(-504.39 -262.26)"/><path class="cls-22" d="M573,353.25c2.88,3,34.29-13.81,37.4-14.73l1.31-3.14Z" transform="translate(-504.39 -262.26)"/><path class="cls-20" d="M580.6,320.46c3.87,6.94-4.56,10.87-7.33,3.38C569.3,316.93,577.89,313.05,580.6,320.46Zm-2.47,1.14c-5.36-9.78-3.42,4.34.63,4.49C579.81,325,578.83,323.41,578.13,321.6Zm6.43-7.86c-.12,7.87.28,16.07.89,24.17a14.35,14.35,0,0,0-3.08.88,150.28,150.28,0,0,0-.82-24.2Zm9.4,15.07c3.88,6.93-4.6,10.86-7.35,3.39C582.65,325.3,591.25,321.39,594,328.81ZM591.47,330c-2.21-5.42-4.93-3.42-2.4,1.1C591,336.19,594.1,334.75,591.47,330Z" transform="translate(-504.39 -262.26)"/><polygon class="cls-23" points="225.51 139.13 233.56 132.03 235.34 135.26 228.43 140.13 225.51 139.13"/><polygon class="cls-13" points="103.47 25.01 106.02 22.03 101.18 15.25 96.54 16.73 103.47 25.01"/><polygon class="cls-13" points="67.91 113.94 70.46 110.97 65.62 104.19 60.98 105.67 67.91 113.94"/><polygon class="cls-24" points="153.82 64.64 160.32 62.47 161.89 65.35 153.88 66.39 153.82 64.64"/><polygon class="cls-25" points="250.62 81.78 266.36 79.2 265.84 85.26 250.44 85.27 250.62 81.78"/><path class="cls-26" d="M601.51,414.07,586,367.87a5.57,5.57,0,0,1,3.79-7.15L664.87,340a5.57,5.57,0,0,1,6.94,4.15l11.38,47.19a5.57,5.57,0,0,1-4,6.6L608.3,417.67A5.58,5.58,0,0,1,601.51,414.07Z" transform="translate(-504.39 -262.26)"/><path class="cls-27" d="M601.78,415l-15.51-46.2a5.58,5.58,0,0,1,3.8-7.15L665.13,341a5.58,5.58,0,0,1,6.94,4.15l11.39,47.19a5.59,5.59,0,0,1-4,6.61l-70.94,19.72A5.59,5.59,0,0,1,601.78,415Z" transform="translate(-504.39 -262.26)"/><polygon class="cls-28" points="84.01 113.33 169.05 88.71 171.27 98.08 87.17 122.41 84.01 113.33"/><polygon class="cls-29" points="92.09 124.74 93.73 130.64 143.84 116.41 142.11 110.2 92.09 124.74"/><polygon class="cls-30" points="150.26 107.94 152.06 114.39 170.44 109.17 168.49 102.32 150.26 107.94"/><polygon class="cls-31" points="157.85 123.57 172.1 119.1 173.5 125.81 159.43 129.23 157.85 123.57"/><circle class="cls-32" cx="158.6" cy="126.25" r="6.43"/><path class="cls-33" d="M726.49,311.93a17.52,17.52,0,0,0,5.73,5.05s8.78,1.57,21.29-12.61S763,281,763,281s-3-4-7-5.39Z" transform="translate(-504.39 -262.26)"/><path class="cls-34" d="M750.08,301.33c-8.61,9.76-19.16,14.5-23.59,10.6s-1-15,7.57-24.72,19.16-14.5,23.58-10.6S758.68,291.58,750.08,301.33Z" transform="translate(-504.39 -262.26)"/><path class="cls-35" d="M759.23,284.92l-33.51,15.85s-1.83,5.33-1,7.62l31.47-15.6S758.87,288.25,759.23,284.92Z" transform="translate(-504.39 -262.26)"/><path class="cls-36" d="M749,300.28c-7.44,8.44-16.5,12.76-20.82,10.08a4.28,4.28,0,0,1-.61-.44c-4-3.55-.94-13.62,6.88-22.48s17.42-13.17,21.44-9.63a6.76,6.76,0,0,1,.52.55C759.58,282.32,756.43,291.84,749,300.28Z" transform="translate(-504.39 -262.26)"/><path class="cls-31" d="M749,300.28c-7.44,8.44-16.5,12.76-20.82,10.08-3.2-3.95,0-13.47,7.41-21.92s16.49-12.75,20.82-10.08C759.58,282.32,756.43,291.84,749,300.28Z" transform="translate(-504.39 -262.26)"/><path class="cls-37" d="M736.17,300.61a1.29,1.29,0,0,1-.38-.54c-.21-.41.79-4.46.61-5l1.28,1.11a3.06,3.06,0,0,0,.13.88,4,4,0,0,0,.29.68,5.63,5.63,0,0,0,.38.6,1.14,1.14,0,0,0,1,.13,2.29,2.29,0,0,0,1.12-.74,3,3,0,0,0,.65-1.09,4.57,4.57,0,0,0,.21-1.15c0-.39,0-.8,0-1.23a7,7,0,0,1,.11-1.35,6.27,6.27,0,0,1,.44-1.45,6.64,6.64,0,0,1,2.41-2.79,4.7,4.7,0,0,1,1.34-.59A3.69,3.69,0,0,1,747,288c.39.05-.54-1-.24-.81l4.14-4.82,2.27,2L749,289l.22.23a3.37,3.37,0,0,1,.35.47,3.67,3.67,0,0,1,.31.69,2.33,2.33,0,0,1,.13.85l-2.37,2.48a4.15,4.15,0,0,0-.2-1.13,5.66,5.66,0,0,0-.37-.84,2.75,2.75,0,0,0-.51-.69,1.82,1.82,0,0,0-1.59.7,2.19,2.19,0,0,0-.49.93,6.74,6.74,0,0,0-.2,1.18c0,.42-.07.88-.11,1.37a9.5,9.5,0,0,1-.23,1.52,8.38,8.38,0,0,1-.58,1.6,6.74,6.74,0,0,1-1.11,1.63,6,6,0,0,1-2.46,1.76,3.25,3.25,0,0,1-2.32,0l-4,4.64-1.28-1.11Z" transform="translate(-504.39 -262.26)"/><path class="cls-38" d="M735.19,300a4.71,4.71,0,0,1-.68-1,11.58,11.58,0,0,1-.58-1.36l2.47-2.5a3.06,3.06,0,0,0,.14.88,4,4,0,0,0,.28.68,4.43,4.43,0,0,0,.39.6,1.14,1.14,0,0,0,1,.13,2.27,2.27,0,0,0,1.11-.74,2.84,2.84,0,0,0,.65-1.09,5.08,5.08,0,0,0,.22-1.15q0-.59,0-1.23a7.92,7.92,0,0,1,.11-1.35,6.8,6.8,0,0,1,.44-1.45,6.83,6.83,0,0,1,2.41-2.79,4.7,4.7,0,0,1,1.34-.59,3.73,3.73,0,0,1,1.23-.09,3.24,3.24,0,0,1,1,.3l4.14-4.82,1,.91-4.21,4.54a2.7,2.7,0,0,1,.22.23,3.37,3.37,0,0,1,.35.47,3.89,3.89,0,0,1,.32.68,2.67,2.67,0,0,1,.13.86l-2.38,2.48a3.8,3.8,0,0,0-.2-1.13,7,7,0,0,0-.36-.84,3.41,3.41,0,0,0-.51-.7,1.85,1.85,0,0,0-1.6.71,2.31,2.31,0,0,0-.49.93,7.83,7.83,0,0,0-.2,1.18c0,.42-.07.88-.1,1.37a10.85,10.85,0,0,1-.24,1.52,9.35,9.35,0,0,1-.57,1.6,7.1,7.1,0,0,1-1.12,1.63,6,6,0,0,1-2.46,1.76,3.25,3.25,0,0,1-2.32,0l-4,4.64-1-.91Z" transform="translate(-504.39 -262.26)"/><polygon class="cls-39" points="241.95 30.3 243.23 31.41 245.6 28.93 244.32 27.82 241.95 30.3"/><polygon class="cls-39" points="233.05 39.46 231.78 38.35 227.8 42.99 229.08 44.1 233.05 39.46"/><polygon class="cls-39" points="244.58 26.69 243.31 25.57 247.52 21.05 248.79 22.16 244.58 26.69"/><path class="cls-40" d="M759.23,284.92l3.56,3.14a23.31,23.31,0,0,1-3.14,7.82l-3.5-3.09S758.87,288.28,759.23,284.92Z" transform="translate(-504.39 -262.26)"/><path class="cls-40" d="M730.5,313.29l4.11,3.62A16.86,16.86,0,0,0,738,316l-3.11-3.58A11.17,11.17,0,0,1,730.5,313.29Z" transform="translate(-504.39 -262.26)"/><path class="cls-41" d="M749.21,276.08s4.2,1.13,5.91-.68A10.13,10.13,0,0,0,749.21,276.08Z" transform="translate(-504.39 -262.26)"/></g></g></svg>