<svg xmlns="http://www.w3.org/2000/svg" xmlns:xlink="http://www.w3.org/1999/xlink" viewBox="0 0 357.59 330.43"><defs><style>.cls-1{isolation:isolate;}.cls-2{opacity:0.2;}.cls-3{fill:url(#linear-gradient);}.cls-4{fill:url(#linear-gradient-2);}.cls-10,.cls-11,.cls-12,.cls-13,.cls-14,.cls-15,.cls-16,.cls-17,.cls-18,.cls-19,.cls-20,.cls-21,.cls-22,.cls-23,.cls-24,.cls-25,.cls-26,.cls-27,.cls-28,.cls-29,.cls-30,.cls-31,.cls-32,.cls-5,.cls-6,.cls-7,.cls-8,.cls-9{fill-rule:evenodd;}.cls-5{fill:url(#linear-gradient-3);}.cls-6{fill:url(#linear-gradient-4);}.cls-7{fill:url(#linear-gradient-5);}.cls-8{fill:#601734;}.cls-17,.cls-26,.cls-31,.cls-33,.cls-8{opacity:0.5;}.cls-15,.cls-31,.cls-8{mix-blend-mode:multiply;}.cls-17,.cls-9{fill:#fff;}.cls-13,.cls-17,.cls-26,.cls-9{mix-blend-mode:soft-light;}.cls-10{fill:url(#linear-gradient-6);}.cls-11{fill:url(#linear-gradient-7);}.cls-12{fill:url(#linear-gradient-8);}.cls-13{fill:#fbd99a;}.cls-14{fill:url(#linear-gradient-9);}.cls-15,.cls-31{fill:#1d0c43;}.cls-15{opacity:0.3;}.cls-16{fill:url(#linear-gradient-10);}.cls-18{fill:url(#linear-gradient-11);}.cls-19{fill:url(#linear-gradient-12);}.cls-20{fill:url(#linear-gradient-13);}.cls-21{fill:url(#linear-gradient-14);}.cls-22{fill:url(#linear-gradient-15);}.cls-23{fill:url(#linear-gradient-16);}.cls-24{fill:url(#linear-gradient-17);}.cls-25{fill:url(#linear-gradient-18);}.cls-26{fill:#fbf9fa;}.cls-27{fill:url(#linear-gradient-19);}.cls-28{fill:url(#linear-gradient-20);}.cls-29{fill:url(#linear-gradient-21);}.cls-30{fill:url(#linear-gradient-22);}.cls-32{fill:url(#linear-gradient-23);}.cls-34{fill:#7f3f98;}</style><linearGradient id="linear-gradient" x1="190.84" y1="212.98" x2="387.43" y2="725.07" gradientUnits="userSpaceOnUse"><stop offset="0" stop-color="#e56ba6"/><stop offset="0.99" stop-color="#713592"/></linearGradient><linearGradient id="linear-gradient-2" x1="214.55" y1="203.88" x2="411.13" y2="715.97" xlink:href="#linear-gradient"/><linearGradient id="linear-gradient-3" x1="353.8" y1="298.65" x2="359.47" y2="412.32" gradientUnits="userSpaceOnUse"><stop offset="0" stop-color="#7d287a"/><stop offset="0.22" stop-color="#74287a"/><stop offset="0.57" stop-color="#5d2a78"/><stop offset="1" stop-color="#372c76"/></linearGradient><linearGradient id="linear-gradient-4" x1="347.5" y1="298.97" x2="353.17" y2="412.63" xlink:href="#linear-gradient-3"/><linearGradient id="linear-gradient-5" x1="325.33" y1="323.34" x2="363.36" y2="417.18" gradientUnits="userSpaceOnUse"><stop offset="0" stop-color="#ffd587"/><stop offset="0.41" stop-color="#ea9f74"/><stop offset="0.8" stop-color="#d87164"/><stop offset="1" stop-color="#d15f5e"/></linearGradient><linearGradient id="linear-gradient-6" x1="1021.85" y1="540.02" x2="1010.43" y2="442" gradientTransform="matrix(0.25, -0.97, -0.97, -0.25, 363.08, 1574.16)" gradientUnits="userSpaceOnUse"><stop offset="0" stop-color="#7d287a"/><stop offset="0.25" stop-color="#612a78"/><stop offset="0.52" stop-color="#4a2b77"/><stop offset="0.78" stop-color="#3c2c76"/><stop offset="1" stop-color="#372c76"/></linearGradient><linearGradient id="linear-gradient-7" x1="1023.47" y1="539.47" x2="1023.47" y2="436.16" xlink:href="#linear-gradient-6"/><linearGradient id="linear-gradient-8" x1="222.08" y1="406.23" x2="88.33" y2="492.52" xlink:href="#linear-gradient-5"/><linearGradient id="linear-gradient-9" x1="49.62" y1="154.27" x2="141.58" y2="154.27" gradientTransform="matrix(1, 0, 0, 1, 0, 0)" xlink:href="#linear-gradient-6"/><linearGradient id="linear-gradient-10" x1="49.62" y1="77.37" x2="62.03" y2="77.37" gradientTransform="matrix(1, 0, 0, 1, 0, 0)" xlink:href="#linear-gradient-6"/><linearGradient id="linear-gradient-11" x1="57.31" y1="150.73" x2="143.23" y2="150.73" gradientTransform="matrix(1, 0, 0, 1, 0, 0)" xlink:href="#linear-gradient-6"/><linearGradient id="linear-gradient-12" x1="359.68" y1="23.18" x2="283.63" y2="183.36" gradientTransform="matrix(1, 0, 0, 1, 0, 0)" xlink:href="#linear-gradient-6"/><linearGradient id="linear-gradient-13" x1="363.07" y1="24.79" x2="287.02" y2="184.97" gradientTransform="matrix(1, 0, 0, 1, 0, 0)" xlink:href="#linear-gradient-6"/><linearGradient id="linear-gradient-14" x1="353.28" y1="20.14" x2="277.23" y2="180.32" gradientTransform="matrix(1, 0, 0, 1, 0, 0)" xlink:href="#linear-gradient-6"/><linearGradient id="linear-gradient-15" x1="163.89" y1="467.34" x2="374.41" y2="482.97" gradientTransform="translate(-151.3 -165.05) rotate(-12.84)" xlink:href="#linear-gradient-6"/><linearGradient id="linear-gradient-16" x1="164.95" y1="444.4" x2="376.37" y2="444.4" gradientTransform="translate(-151.3 -165.05) rotate(-12.84)" xlink:href="#linear-gradient-5"/><linearGradient id="linear-gradient-17" x1="190.95" y1="444.69" x2="346.85" y2="456.26" gradientTransform="translate(-151.3 -165.05) rotate(-12.84)" xlink:href="#linear-gradient-6"/><linearGradient id="linear-gradient-18" x1="190.55" y1="435.3" x2="347.09" y2="435.3" gradientTransform="translate(-151.3 -165.05) rotate(-12.84)" gradientUnits="userSpaceOnUse"><stop offset="0" stop-color="#f79420"/><stop offset="0.4" stop-color="#f2684b"/><stop offset="0.72" stop-color="#ef4c66"/><stop offset="0.9" stop-color="#ee4270"/></linearGradient><linearGradient id="linear-gradient-19" x1="247.46" y1="448.18" x2="250.54" y2="448.18" gradientTransform="translate(-55.59 106.72) rotate(-12.84)" xlink:href="#linear-gradient-18"/><linearGradient id="linear-gradient-20" x1="269.39" y1="448.58" x2="272.47" y2="448.58" gradientTransform="translate(-55.59 106.72) rotate(-12.84)" xlink:href="#linear-gradient-18"/><linearGradient id="linear-gradient-21" x1="277.17" y1="448.86" x2="280.25" y2="448.86" gradientTransform="translate(-55.59 106.72) rotate(-12.84)" xlink:href="#linear-gradient-18"/><linearGradient id="linear-gradient-22" x1="286.49" y1="449.14" x2="289.56" y2="449.14" gradientTransform="translate(-55.59 106.72) rotate(-12.84)" xlink:href="#linear-gradient-18"/><linearGradient id="linear-gradient-23" x1="176.43" y1="484.04" x2="364.11" y2="484.04" gradientTransform="translate(-151.3 -165.05) rotate(-12.84)" xlink:href="#linear-gradient-5"/></defs><g class="cls-1"><g id="Layer_1" data-name="Layer 1"><g class="cls-2"><path class="cls-3" d="M180.28,589.84c-59.44-40.54-70.77-175.56-6.52-236.17,67.89-64,276-8.5,277.4,101.59S240.56,631,180.28,589.84Z" transform="translate(-95.72 -271.78)"/><path class="cls-4" d="M262.13,273.71c-21.83-8.41-39.86,12.57-37.94,26.24s45.51,8,51,1.21S268.15,276,262.13,273.71Z" transform="translate(-95.72 -271.78)"/></g><path class="cls-5" d="M363,356l-5.54,15.88C360.52,363.09,364.93,357.4,363,356Zm-5.54,15.88-5.56,15.87C353.3,387.32,354.38,380.64,357.46,371.87ZM363,356l-5.54,15.88C360.52,363.09,364.93,357.4,363,356Zm-5.54,15.88-5.56,15.87C353.3,387.32,354.38,380.64,357.46,371.87Zm16,13.75,5.39,3.06,5.81-15.89-6.23-1c.11-.59.22-1.18.3-1.76a40.77,40.77,0,0,0,.53-7.92L385.8,358l-3-14-6.25,6a18.31,18.31,0,0,0-3.2-4.66,11.84,11.84,0,0,0-1.08-1.05l3.82-8.83L366,332.12h0l-2.44,8.9a16.73,16.73,0,0,0-6.89,1.61l-1.12-8.41-11.19,8.47,2.58,7.45a42.27,42.27,0,0,0-5.46,8L336,355.05l-5.82,15.89,6.23,1a42.94,42.94,0,0,0-.82,9.68l-6.52,4.09,3,14,6.25-6a17.41,17.41,0,0,0,4.28,5.7l-3.83,8.84,10,3.9,1.55-5.64,1.05-3.85a16.88,16.88,0,0,0,6.9-1.6l1.11,8.4L370.6,401,368,393.59a41.57,41.57,0,0,0,4.4-6.1C372.79,386.88,373.13,386.26,373.48,385.62Zm-16-13.75c-3.08,8.77,0,17.81-5.56,15.87s-7.61-10.65-4.54-19.4S357.44,354.05,363,356,360.52,363.09,357.46,371.87ZM363,356l-5.54,15.88C360.52,363.09,364.93,357.4,363,356Zm-5.54,15.88-5.56,15.87C353.3,387.32,354.38,380.64,357.46,371.87Z" transform="translate(-95.72 -271.78)"/><path class="cls-6" d="M378.87,388.68l5.81-15.89-5.93-2.8-1-.45.62-8.75,6.59-3.21L382.83,344l-14.35-4.67,2.64,6.3,5-10.19L366,332.12l-4.18-1.36-10-3.91-1.87,6.84-8.72-4.14L330,338l3.4,9.16-10.47,29-5.17,18.85,9.94,1.09-3.24,7.47,10,3.91,14.35,4.67-2.3-4.61L345,404.83l5.3,1.73,9.06,2.95L370.6,401l-6.93-8.16,8.74-5.39Zm-31.51-20.34c3.08-8.77,10.08-14.29,15.64-12.35l-5.54,15.88-5.56,15.87C346.32,385.78,344.29,377.09,347.36,368.34Z" transform="translate(-95.72 -271.78)"/><path class="cls-7" d="M364.52,384l5.81-15.88-6.23-1a44,44,0,0,0,.83-9.67l6.52-4.09-3-14-6.26,6a17.25,17.25,0,0,0-4.27-5.7l3.82-8.83-10-3.91-2.59,9.49a17,17,0,0,0-6.89,1.6l-1.11-8.4L330,338l2.58,7.45a42.83,42.83,0,0,0-5.46,8l-5.4-3.05-5.81,15.88,6.23,1.05a44,44,0,0,0-.83,9.66l-6.52,4.09,3,14,6.26-6a17.54,17.54,0,0,0,4.27,5.71l-3.82,8.83,10,3.9L337,398a16.85,16.85,0,0,0,6.89-1.61l1.11,8.4,11.2-8.47-2.58-7.45a43.08,43.08,0,0,0,5.46-8Zm-27-.93c-5.57-1.95-7.6-10.64-4.52-19.4s10.07-14.29,15.64-12.34,7.6,10.64,4.53,19.4S343.11,385,337.54,383.06Z" transform="translate(-95.72 -271.78)"/><polygon class="cls-8" points="290.08 86.2 275.73 81.53 269.21 85.63 283.56 90.3 290.08 86.2"/><polygon class="cls-9" points="274.88 129.26 260.52 124.58 257.94 117.14 272.29 121.81 274.88 129.26"/><polygon class="cls-8" points="262.23 67.81 270.1 70.09 272.76 67.54 277.98 69.24 280.4 63.66 266.06 58.98 262.23 67.81"/><path class="cls-8" d="M337,398l7.52,3.13-.63-4.74S339.89,398.57,337,398Z" transform="translate(-95.72 -271.78)"/><path class="cls-8" d="M338.2,355l12.66,6.69a19.67,19.67,0,0,1,3.25-3.45S350.81,344.31,338.2,355Z" transform="translate(-95.72 -271.78)"/><path class="cls-10" d="M140.44,468l16.94,11.28C155.15,481.11,149.8,474.23,140.44,468ZM123.5,456.71,140.44,468C131.08,461.76,123.57,458.47,123.5,456.71ZM140.44,468l16.94,11.28C155.15,481.11,149.8,474.23,140.44,468ZM123.5,456.71,140.44,468C131.08,461.76,123.57,458.47,123.5,456.71Zm-5.89,24.12a50.31,50.31,0,0,1-5.81-7l-9.52.79L95.72,459l10.18,1.23a20.67,20.67,0,0,1,.19-8.57l-4.19-2.4-6.14-3.51,7.58-10.56,9.22,7.15a21.07,21.07,0,0,1,8-3.31l-5.12-9.12,17.29.72,2.84,8.88a52.34,52.34,0,0,1,11.1,3.88l3.09-7,16.87,11.6-5.19,5.41a51.53,51.53,0,0,1,7.68,8.8l9.52-.79L185.16,477,175,475.82a20.62,20.62,0,0,1-.18,8.56l9.69,5.54h0l-6.94,10.93-9.2-7.14a15.06,15.06,0,0,1-1.56,1,21.82,21.82,0,0,1-6.42,2.35l5.12,9.12-17.29-.73-2.84-8.87a50.09,50.09,0,0,1-9.12-3c-.66-.27-1.32-.58-2-.88l-3.09,7L114.29,488l5.2-5.4C118.85,482,118.22,481.45,117.61,480.83Zm39.77-1.55c4-5.94-.41-15.81-9.77-22s-20.13-6.47-24.11-.52,7.58,5.05,16.94,11.29S153.42,485.23,157.38,479.28ZM140.44,468l16.94,11.28C155.15,481.11,149.8,474.23,140.44,468ZM123.5,456.71,140.44,468C131.08,461.76,123.57,458.47,123.5,456.71Z" transform="translate(-95.72 -271.78)"/><path class="cls-11" d="M117.61,480.83,113.93,469l-11.65,5.67L95.72,459l6.18-9.74,3.62-5.69-3.67.87-6.09,1.31,9.79-15.41,7.6-10.58,7.79,6,4.26-11.32,20.55,11.73,30.88,21L188.39,446,195,461.62l-7.48,9,7.45,4.25-7.6,10.58-2.85,4.49-6.94,10.93-10.45-8.93,8.19-1.21-9.8,15.42-16.58-1.54-1.79-8.69-10.06-3.36-.82,1-5.07,6.11L114.29,488Zm5.89-24.12L140.44,468l16.94,11.28c4-5.94-.41-15.81-9.77-22S127.48,450.76,123.5,456.71Z" transform="translate(-95.72 -271.78)"/><path class="cls-12" d="M129.29,467.22a52.51,52.51,0,0,1-7.7-8.8l-9.5.78-6.56-15.67,10.17,1.22a20.62,20.62,0,0,1,.19-8.56l-10.33-5.9,7.59-10.57,9.2,7.14a21.2,21.2,0,0,1,8-3.29l-5.12-9.13,17.3.72,2.83,8.88a53.12,53.12,0,0,1,11.08,3.88l3.1-7,16.87,11.6-5.19,5.41a52,52,0,0,1,7.69,8.8l9.51-.78L195,461.63l-10.18-1.23a20.62,20.62,0,0,1-.19,8.56l10.34,5.9-7.6,10.57-9.2-7.14a21.33,21.33,0,0,1-8,3.3l5.12,9.12L158,490l-2.83-8.88a53,53,0,0,1-11.09-3.88l-3.1,7-16.87-11.6Zm13.78-3.88c9.35,6.23,20.14,6.47,24.11.53s-.41-15.82-9.76-22.05-20.15-6.48-24.11-.54S133.71,457.1,143.07,463.34Z" transform="translate(-95.72 -271.78)"/><polygon class="cls-8" points="52.47 233.63 62.26 218.21 59.43 209.34 49.63 224.75 52.47 233.63"/><polygon class="cls-13" points="6.57 202.85 16.37 187.42 25.88 186.64 16.08 202.06 6.57 202.85"/><polygon class="cls-8" points="82.42 206.51 77.38 215.05 79.56 218.94 76 224.55 81.82 229.07 91.62 213.65 82.42 206.51"/><path class="cls-8" d="M115.89,436.19,110,444.06l5.74.69S114.42,439.37,115.89,436.19Z" transform="translate(-95.72 -271.78)"/><path class="cls-8" d="M166,450.5l-11.65,12.82a23.84,23.84,0,0,1,3.06,4.85S174.74,468.5,166,450.5Z" transform="translate(-95.72 -271.78)"/><polygon class="cls-14" points="141.58 225.44 128.68 229.83 49.62 78.72 57.31 78.71 141.58 225.44"/><polygon class="cls-15" points="141.58 225.44 128.68 229.83 49.62 78.72 57.31 78.71 141.58 225.44"/><polygon class="cls-16" points="49.62 78.72 62.03 76.02 57.31 78.71 49.62 78.72"/><polygon class="cls-17" points="49.62 78.72 62.03 76.02 57.31 78.71 49.62 78.72"/><polygon class="cls-18" points="62.03 76.02 143.24 210.6 141.58 225.44 57.31 78.71 62.03 76.02"/><polygon class="cls-19" points="265.07 199.28 277.95 203.71 357.58 50.77 349.9 50.73 265.07 199.28"/><polygon class="cls-15" points="265.07 199.28 277.95 203.71 357.58 50.77 349.9 50.73 265.07 199.28"/><polygon class="cls-20" points="357.58 50.77 345.18 48.03 349.9 50.73 357.58 50.77"/><polygon class="cls-17" points="357.58 50.77 345.18 48.03 349.9 50.73 357.58 50.77"/><polygon class="cls-21" points="345.18 48.03 266.5 179.44 265.07 199.28 349.9 50.73 345.18 48.03"/><polygon class="cls-22" points="110.24 240 122.86 266.16 220.52 264.61 317.54 222.51 317.15 196.41 110.24 240"/><polygon class="cls-23" points="155.5 197.05 110.24 240 212.97 231.47 317.15 196.41 256.15 174.1 155.5 197.05"/><polygon class="cls-24" points="134.55 231.47 209.42 209.09 287.82 199.5 134.55 231.47"/><polygon class="cls-25" points="287.82 199.5 239.37 177.93 202.4 182.58 165.11 194.86 134.55 231.47 209.42 209.09 287.82 199.5"/><polygon class="cls-26" points="209.42 209.09 202.4 182.58 239.37 177.93 287.82 199.5 209.42 209.09"/><path class="cls-27" d="M288.32,488a1.54,1.54,0,1,1-1.85-1.16A1.54,1.54,0,0,1,288.32,488Z" transform="translate(-95.72 -271.78)"/><path class="cls-28" d="M309.79,483.51a1.54,1.54,0,1,1-3,.69,1.54,1.54,0,0,1,3-.69Z" transform="translate(-95.72 -271.78)"/><path class="cls-29" d="M317.44,482.07a1.54,1.54,0,1,1-1.84-1.16A1.54,1.54,0,0,1,317.44,482.07Z" transform="translate(-95.72 -271.78)"/><path class="cls-30" d="M326.58,480.27a1.54,1.54,0,1,1-1.84-1.16A1.54,1.54,0,0,1,326.58,480.27Z" transform="translate(-95.72 -271.78)"/><polygon class="cls-26" points="212.97 231.47 220.52 264.61 317.54 222.51 317.15 196.41 212.97 231.47"/><polygon class="cls-31" points="126.38 259.14 119.01 244.51 215.09 240.81 312 203.8 310.24 221.23 218.95 257.73 126.38 259.14"/><polygon class="cls-32" points="126.38 259.14 129.13 256.75 217.65 252.87 305.37 220.07 310.24 221.23 218.95 257.73 126.38 259.14"/><g class="cls-33"><path class="cls-34" d="M273.33,439.23l-3.12-5.48a74.6,74.6,0,0,1,43.54-9.61l-.51,6.29a68,68,0,0,0-39.91,8.8Z" transform="translate(-95.72 -271.78)"/><path class="cls-34" d="M278.76,448.57l-3.26-5.39A61.06,61.06,0,0,1,312.81,435l-.7,6.26a54.7,54.7,0,0,0-33.35,7.32Z" transform="translate(-95.72 -271.78)"/><path class="cls-34" d="M267.87,429.87l-3.16-5.46a84.54,84.54,0,0,1,23.67-9.26,85.81,85.81,0,0,1,26.29-1.81l-.53,6.28a79.63,79.63,0,0,0-24.37,1.67A78.11,78.11,0,0,0,267.87,429.87Z" transform="translate(-95.72 -271.78)"/></g></g></g></svg>