<svg xmlns="http://www.w3.org/2000/svg" xmlns:xlink="http://www.w3.org/1999/xlink" viewBox="0 0 1080 1080"><defs><style>.cls-1{isolation:isolate;}.cls-2{opacity:0.2;}.cls-3{fill:url(#linear-gradient);}.cls-4{fill:url(#linear-gradient-2);}.cls-27,.cls-5{fill:#a02755;}.cls-6{fill:url(#linear-gradient-3);}.cls-7{fill:url(#linear-gradient-4);}.cls-8{fill:url(#linear-gradient-5);}.cls-9{fill:#5d656d;opacity:0.42;}.cls-27,.cls-33,.cls-34,.cls-42,.cls-9{mix-blend-mode:multiply;}.cls-10{fill:url(#linear-gradient-6);}.cls-11{fill:url(#linear-gradient-7);}.cls-12{fill:url(#linear-gradient-8);}.cls-13{fill:url(#linear-gradient-9);}.cls-14{fill:url(#linear-gradient-10);}.cls-15{fill:url(#linear-gradient-11);}.cls-16{fill:url(#linear-gradient-12);}.cls-17,.cls-18,.cls-19{fill:#fffffe;}.cls-17{opacity:0.3;}.cls-18{opacity:0.15;}.cls-19,.cls-27{opacity:0.5;}.cls-20,.cls-21,.cls-22,.cls-23,.cls-24,.cls-29,.cls-44,.cls-46{fill-rule:evenodd;}.cls-20{fill:url(#linear-gradient-13);}.cls-21{fill:url(#linear-gradient-14);}.cls-22{fill:#fbf9fa;}.cls-22,.cls-43{mix-blend-mode:soft-light;}.cls-23{fill:url(#linear-gradient-15);}.cls-24{fill:#f79420;}.cls-25{fill:url(#linear-gradient-16);}.cls-26{fill:url(#linear-gradient-17);}.cls-28{fill:#eda677;}.cls-29{fill:#fbf9b8;}.cls-30{fill:url(#linear-gradient-18);}.cls-31{fill:url(#linear-gradient-19);}.cls-32{fill:url(#Áåçûìÿííûé_ãðàäèåíò_10);}.cls-33,.cls-42{opacity:0.62;}.cls-33{fill:url(#Áåçûìÿííûé_ãðàäèåíò_75);}.cls-34{fill:#1d0c43;opacity:0.4;}.cls-35{fill:url(#linear-gradient-20);}.cls-36{fill:url(#linear-gradient-21);}.cls-37{fill:url(#Áåçûìÿííûé_ãðàäèåíò_10-2);}.cls-38{fill:url(#linear-gradient-22);}.cls-39{fill:url(#linear-gradient-23);}.cls-40{fill:url(#linear-gradient-24);}.cls-41{fill:url(#linear-gradient-25);}.cls-42{fill:url(#Áåçûìÿííûé_ãðàäèåíò_75-2);}.cls-43{fill:#fff;}.cls-44{fill:url(#linear-gradient-26);}.cls-45{fill:url(#linear-gradient-27);}.cls-46{fill:url(#linear-gradient-28);}.cls-47{fill:url(#linear-gradient-29);}.cls-48{fill:url(#linear-gradient-30);}</style><linearGradient id="linear-gradient" x1="276.96" y1="-71.69" x2="813.55" y2="1326.11" gradientUnits="userSpaceOnUse"><stop offset="0" stop-color="#e56ba6"/><stop offset="0.99" stop-color="#713592"/></linearGradient><linearGradient id="linear-gradient-2" x1="277.82" y1="11.62" x2="814.41" y2="1409.42" gradientTransform="translate(-92.1 6.7) rotate(-10)" xlink:href="#linear-gradient"/><linearGradient id="linear-gradient-3" x1="720.96" y1="870.99" x2="512.28" y2="856.08" gradientUnits="userSpaceOnUse"><stop offset="0" stop-color="#7d287a"/><stop offset="0.25" stop-color="#612a78"/><stop offset="0.52" stop-color="#4a2b77"/><stop offset="0.78" stop-color="#3c2c76"/><stop offset="1" stop-color="#372c76"/></linearGradient><linearGradient id="linear-gradient-4" x1="1054.17" y1="316.18" x2="257.72" y2="816.27" gradientUnits="userSpaceOnUse"><stop offset="0.14" stop-color="#f6935b"/><stop offset="0.15" stop-color="#f4915c"/><stop offset="0.33" stop-color="#c16e6e"/><stop offset="0.5" stop-color="#9a537c"/><stop offset="0.66" stop-color="#7d3f86"/><stop offset="0.8" stop-color="#6c338c"/><stop offset="0.9" stop-color="#662f8e"/></linearGradient><linearGradient id="linear-gradient-5" x1="941.64" y1="249.3" x2="194.34" y2="718.54" xlink:href="#linear-gradient-4"/><linearGradient id="linear-gradient-6" x1="912.12" y1="313.51" x2="361.18" y2="521.08" xlink:href="#linear-gradient-4"/><linearGradient id="linear-gradient-7" x1="899.18" y1="271.66" x2="228.99" y2="480.34" xlink:href="#linear-gradient-4"/><linearGradient id="linear-gradient-8" x1="890.59" y1="527.55" x2="565.07" y2="701.26" gradientUnits="userSpaceOnUse"><stop offset="0" stop-color="#f79420"/><stop offset="0.4" stop-color="#f2684b"/><stop offset="0.72" stop-color="#ef4c66"/><stop offset="0.9" stop-color="#ee4270"/></linearGradient><linearGradient id="linear-gradient-9" x1="780.7" y1="245.55" x2="405.11" y2="563.87" xlink:href="#linear-gradient-8"/><linearGradient id="linear-gradient-10" x1="923.3" y1="339.82" x2="534.34" y2="669.46" xlink:href="#linear-gradient-8"/><linearGradient id="linear-gradient-11" x1="822.74" y1="72.06" x2="360.49" y2="359.13" xlink:href="#linear-gradient-8"/><linearGradient id="linear-gradient-12" x1="799.96" y1="35.38" x2="337.71" y2="322.45" xlink:href="#linear-gradient-8"/><linearGradient id="linear-gradient-13" x1="687.99" y1="289.82" x2="687.99" y2="174.9" gradientTransform="translate(501 -337.5) rotate(41.4)" gradientUnits="userSpaceOnUse"><stop offset="0" stop-color="#f79420"/><stop offset="0.58" stop-color="#f15c56"/><stop offset="0.9" stop-color="#ee4270"/></linearGradient><linearGradient id="linear-gradient-14" x1="672.01" y1="288.85" x2="672.01" y2="176.19" gradientTransform="translate(501 -337.5) rotate(41.4)" gradientUnits="userSpaceOnUse"><stop offset="0" stop-color="#f79420"/><stop offset="1" stop-color="#fdd085"/></linearGradient><linearGradient id="linear-gradient-15" x1="670.7" y1="283.57" x2="670.7" y2="181.15" xlink:href="#linear-gradient-13"/><linearGradient id="linear-gradient-16" x1="748.24" y1="1033.72" x2="748.24" y2="973.05" gradientTransform="matrix(-0.58, -0.51, 0.76, -0.88, 522.04, 1543.86)" xlink:href="#linear-gradient-13"/><linearGradient id="linear-gradient-17" x1="751.21" y1="1033.72" x2="751.21" y2="973.05" gradientTransform="matrix(-0.58, -0.51, 0.76, -0.88, 522.04, 1543.86)" xlink:href="#linear-gradient-14"/><linearGradient id="linear-gradient-18" x1="229.29" y1="853.81" x2="422.98" y2="853.81" gradientTransform="translate(-63.1 76.5) rotate(-6.2)" xlink:href="#linear-gradient-3"/><linearGradient id="linear-gradient-19" x1="230.75" y1="827.82" x2="421.47" y2="827.82" gradientTransform="translate(-63.1 76.5) rotate(-6.2)" xlink:href="#linear-gradient-3"/><linearGradient id="Áåçûìÿííûé_ãðàäèåíò_10" x1="230.65" y1="810.99" x2="421.47" y2="810.99" gradientTransform="translate(-63.1 76.5) rotate(-6.2)" gradientUnits="userSpaceOnUse"><stop offset="0" stop-color="#d93de3"/><stop offset="1" stop-color="#ff6dba"/></linearGradient><linearGradient id="Áåçûìÿííûé_ãðàäèåíò_75" x1="325.84" y1="898.28" x2="380.8" y2="898.28" gradientTransform="translate(-63.1 76.5) rotate(-6.2)" gradientUnits="userSpaceOnUse"><stop offset="0" stop-color="#8b8be0"/><stop offset="1" stop-color="#a177b7"/></linearGradient><linearGradient id="linear-gradient-20" x1="593.96" y1="901.84" x2="787.65" y2="901.84" gradientTransform="matrix(-0.99, -0.11, -0.11, 0.99, 1536.9, 76.53)" xlink:href="#linear-gradient-3"/><linearGradient id="linear-gradient-21" x1="595.42" y1="875.84" x2="786.13" y2="875.84" gradientTransform="matrix(-0.99, -0.11, -0.11, 0.99, 1536.9, 76.53)" xlink:href="#linear-gradient-3"/><linearGradient id="Áåçûìÿííûé_ãðàäèåíò_10-2" x1="617.87" y1="929.27" x2="797.82" y2="854.29" gradientTransform="matrix(1, 0, 0, 1, 0, 0)" xlink:href="#Áåçûìÿííûé_ãðàäèåíò_10"/><linearGradient id="linear-gradient-22" x1="766.39" y1="674.23" x2="422.64" y2="897.26" xlink:href="#linear-gradient-3"/><linearGradient id="linear-gradient-23" x1="770.84" y1="681.09" x2="427.1" y2="904.12" xlink:href="#linear-gradient-3"/><linearGradient id="linear-gradient-24" x1="735.89" y1="670.92" x2="408.34" y2="881.44" gradientUnits="userSpaceOnUse"><stop offset="0" stop-color="#ffd587"/><stop offset="0.41" stop-color="#ea9f74"/><stop offset="0.8" stop-color="#d87164"/><stop offset="1" stop-color="#d15f5e"/></linearGradient><linearGradient id="linear-gradient-25" x1="374.14" y1="875.65" x2="683.28" y2="713.35" gradientUnits="userSpaceOnUse"><stop offset="0" stop-color="#e03347"/><stop offset="1" stop-color="#ff6e27"/></linearGradient><linearGradient id="Áåçûìÿííûé_ãðàäèåíò_75-2" x1="544.07" y1="928.12" x2="651.27" y2="928.12" gradientTransform="matrix(1, 0, 0, 1, 0, 0)" xlink:href="#Áåçûìÿííûé_ãðàäèåíò_75"/><linearGradient id="linear-gradient-26" x1="222.44" y1="563.61" x2="222.44" y2="406.37" gradientTransform="matrix(-0.92, 0.38, -0.38, -0.92, 616.34, 908.91)" xlink:href="#linear-gradient-13"/><linearGradient id="linear-gradient-27" x1="200.58" y1="562.29" x2="200.58" y2="408.13" gradientTransform="translate(446.9 1021.7) rotate(180)" xlink:href="#linear-gradient-14"/><linearGradient id="linear-gradient-28" x1="198.79" y1="555.06" x2="198.79" y2="414.93" gradientTransform="matrix(-0.92, 0.38, -0.38, -0.92, 616.34, 908.91)" xlink:href="#linear-gradient-13"/><linearGradient id="linear-gradient-29" x1="1359.03" y1="831.5" x2="1359.03" y2="748.49" gradientTransform="matrix(0.71, -0.3, 0.45, 1.07, -1080.87, 95.63)" xlink:href="#linear-gradient-13"/><linearGradient id="linear-gradient-30" x1="1363.1" y1="831.5" x2="1363.1" y2="748.49" gradientTransform="matrix(0.71, -0.3, 0.45, 1.07, -1080.87, 95.63)" xlink:href="#linear-gradient-14"/></defs><g class="cls-1"><g id="Layer_1" data-name="Layer 1"><g class="cls-2"><path class="cls-3" d="M248.1,957C85.9,846.3,55,477.8,230.3,312.4c185.3-174.9,753.4-23.3,757.2,277.2S412.7,1069.2,248.1,957Z"/><path class="cls-4" d="M344.4,135.5c-62.6-12.4-101.2,52.6-89.6,88.4s126.1,0,137.7-20.8S361.7,138.8,344.4,135.5Z"/></g><path class="cls-5" d="M581.6,345.7s189.6,15.2,216.6-156L640.3,61.4S805,263.4,581.6,345.7Z"/><path class="cls-5" d="M313.1,163,260.3,275.8s32.5,82.4,321.3,69.9C581.6,345.7,348.1,316.4,313.1,163Z"/><polygon class="cls-6" points="802.8 860.3 433.1 860.3 340.7 860.3 433.1 851.2 802.8 860.3"/><polygon class="cls-7" points="433.1 851.2 802.8 860.3 838.6 345.8 391.8 345.8 433.1 851.2"/><polygon class="cls-8" points="266.3 390.8 340.7 860.3 433.1 851.2 391.8 345.8 266.3 390.8"/><polygon class="cls-9" points="266.3 390.8 340.7 860.3 433.1 851.2 391.8 345.8 266.3 390.8"/><polygon class="cls-10" points="403.3 509.9 847.9 501.5 859.2 346.4 391.8 345.8 403.3 509.9"/><polygon class="cls-11" points="252.7 395.5 270.8 528.4 403.3 509.9 391.8 345.8 252.7 395.5"/><polygon class="cls-9" points="404.7 529.1 829.3 501.8 403.3 509.9 404.7 529.1"/><polygon class="cls-9" points="283.7 526.6 404.7 529.1 403.3 509.9 283.7 526.6"/><polygon class="cls-12" points="311.1 673.7 319.1 723.8 423.4 732.7 811.6 732.7 815.7 673.7 418.9 677.5 311.1 673.7"/><polygon class="cls-13" points="288.1 383.1 366.8 857.7 391.4 855.5 344 363 288.1 383.1"/><polygon class="cls-14" points="614.8 855.7 669.3 857 713.1 345.7 560 345.7 614.8 855.7"/><path class="cls-15" d="M640.3,61.4s-147.8,90.3-58.7,284.3c0,0,41.8-131.5,216.6-156C798.2,189.7,754.2,93,640.3,61.4Z"/><path class="cls-16" d="M313.1,163s-35.6,40.6-52.8,112.8c0,0,185.9-51.9,321.3,69.9C581.6,345.7,504.9,165.2,313.1,163Z"/><path class="cls-17" d="M725.5,152.3c-.9-1.3-3.3-4.4-4-5.3-2.2-2.7-4.3-5.4-6.5-8-5.1-6.1-10.4-12.1-15.8-17.9C676.8,97,651.7,86.4,622.7,74.7c-18.9,16.5-48.2,48.3-62,96.5,17,9.2,32.2,23.3,45.8,35.2a186.8,186.8,0,0,1,39.8,48.8c25.9-22.4,61.2-43.7,108.7-56.6a39.6,39.6,0,0,1-5.1-7.7C743.1,177.2,734.5,164.5,725.5,152.3Z"/><path class="cls-18" d="M341.1,170.7c.2-.1-2.2,6-2.7,7.5-2.9,8.5-5.3,17.2-7.6,25.8-2.9,10.5-5,21.1-7.3,31.7-.8,4.1-1.5,8.4-2.6,12.4-.1.4-3.5,14.6-3.3,9.1a47.3,47.3,0,0,1-1.2,9.3,416.7,416.7,0,0,1,92.4,1.8c.6-2.7,1.4-5.3,2.2-7.9,2.4-24.7,8.3-47.4,23.7-68.5A272.4,272.4,0,0,0,344.2,165C343.1,166.9,342.1,168.8,341.1,170.7Z"/><path class="cls-19" d="M859.2,346.4l-467.4-.6C720.5,376.3,859.2,346.4,859.2,346.4Z"/><path class="cls-20" d="M813.9,323.7s4.2,6.6,13.7,12.1c0,0,21,3.7,51-30.2s22.6-55.8,22.6-55.8-7.2-9.7-16.8-12.9Z"/><path class="cls-21" d="M870.3,298.4c-20.5,23.3-45.8,34.6-56.4,25.3s-2.4-35.8,18.1-59.1,45.9-34.7,56.5-25.4S890.9,275,870.3,298.4Z"/><path class="cls-22" d="M892.2,259.1,812.1,297s-4.4,12.8-2.5,18.2l75.3-37.3S891.4,267,892.2,259.1Z"/><path class="cls-23" d="M867.7,295.8c-17.8,20.2-39.4,30.6-49.8,24.2l-1.5-1.1c-9.6-8.5-2.2-32.6,16.5-53.8s41.7-31.5,51.3-23a4.9,4.9,0,0,1,1.2,1.3C893.1,252.9,885.6,275.6,867.7,295.8Z"/><path class="cls-24" d="M867.7,295.8c-17.8,20.2-39.4,30.6-49.8,24.2-7.6-9.5-.1-32.3,17.7-52.5s39.5-30.5,49.8-24.1C893.1,252.9,885.6,275.6,867.7,295.8Z"/><path class="cls-25" d="M837.1,296.6c-.6-.6-.4-.3-.9-1.3s1.9-10.6,1.4-11.8l3.1,2.6a6.6,6.6,0,0,0,.3,2.1,5.9,5.9,0,0,0,.7,1.6c.3.6.6,1,.9,1.5a3.1,3.1,0,0,0,2.4.3,7.1,7.1,0,0,0,2.7-1.8,7.6,7.6,0,0,0,1.5-2.6,8.7,8.7,0,0,0,.5-2.8,27.1,27.1,0,0,0,.1-2.9,18.2,18.2,0,0,1,.3-3.2,16.9,16.9,0,0,1,1-3.5,15.5,15.5,0,0,1,2.5-3.8,17.1,17.1,0,0,1,3.3-2.9,12.5,12.5,0,0,1,3.2-1.4,9.7,9.7,0,0,1,2.9-.2c1,.1-1.3-2.3-.5-1.9l9.9-11.6,5.4,4.9-10.1,10.8.6.6.8,1.1a7.7,7.7,0,0,1,.7,1.6,4.9,4.9,0,0,1,.4,2.1l-5.7,5.9a10.8,10.8,0,0,0-.5-2.7,12.9,12.9,0,0,0-.9-2,6.6,6.6,0,0,0-1.2-1.7,4.6,4.6,0,0,0-3.8,1.7,4.8,4.8,0,0,0-1.2,2.2,21.8,21.8,0,0,0-.5,2.9c-.1,1-.1,2.1-.2,3.3a27,27,0,0,1-.6,3.6,16.1,16.1,0,0,1-1.4,3.8,17.6,17.6,0,0,1-2.6,3.9,14.7,14.7,0,0,1-5.9,4.2,8.3,8.3,0,0,1-5.6.1l-9.5,11.1-3-2.7Z"/><path class="cls-26" d="M834.7,295.1a14.3,14.3,0,0,1-1.6-2.4,25.2,25.2,0,0,1-1.4-3.3l5.9-5.9a4.5,4.5,0,0,0,.4,2,16.2,16.2,0,0,0,.6,1.7,7.1,7.1,0,0,0,1,1.4,2.3,2.3,0,0,0,2.3.3,5,5,0,0,0,2.7-1.7,7.7,7.7,0,0,0,1.6-2.7,25.6,25.6,0,0,0,.5-2.7c0-1,.1-1.9,0-3a18.2,18.2,0,0,1,.3-3.2,14,14,0,0,1,1.1-3.5,14.5,14.5,0,0,1,2.4-3.7,14.3,14.3,0,0,1,3.3-2.9,9.8,9.8,0,0,1,3.2-1.4,6.2,6.2,0,0,1,3-.2,7.2,7.2,0,0,1,2.5.7l9.9-11.6,2.3,2.2-10,10.9.5.5a6.2,6.2,0,0,1,.8,1.2,6,6,0,0,1,.8,1.6,6.4,6.4,0,0,1,.3,2l-5.7,6a7.8,7.8,0,0,0-.5-2.8,11.9,11.9,0,0,0-.8-2,10.1,10.1,0,0,0-1.3-1.6,4.2,4.2,0,0,0-3.8,1.7,5.1,5.1,0,0,0-1.1,2.2,11.6,11.6,0,0,0-.5,2.8q-.1,1.5-.3,3.3a22.3,22.3,0,0,1-.5,3.6,20.3,20.3,0,0,1-1.4,3.9,17.2,17.2,0,0,1-2.7,3.9,14.1,14.1,0,0,1-5.9,4.2,7.4,7.4,0,0,1-5.5,0l-9.5,11.1-2.4-2.2Z"/><polygon class="cls-27" points="861.4 277.4 864.5 280 870.2 274.1 867.1 271.4 861.4 277.4"/><polygon class="cls-27" points="840.1 299.3 837.1 296.6 827.6 307.7 830.6 310.4 840.1 299.3"/><polygon class="cls-27" points="867.7 268.7 864.7 266.1 874.7 255.2 877.8 257.9 867.7 268.7"/><path class="cls-28" d="M892.2,259.1l8.6,7.5a56.8,56.8,0,0,1-7.5,18.7l-8.4-7.4S891.4,267.1,892.2,259.1Z"/><path class="cls-28" d="M823.5,327l9.8,8.6a39.3,39.3,0,0,0,8.2-2.1l-7.4-8.5S827.9,327.5,823.5,327Z"/><path class="cls-29" d="M868.3,237.9s10,2.7,14.1-1.6A24.5,24.5,0,0,0,868.3,237.9Z"/><path class="cls-30" d="M410,883l-1.9,2.9,9.6,37.3.3,1.7c1.4,8.1,1.2,19,.3,23.5l-4.2-1.2-27.8-7.6-29-7.9-56.2,29c-1.9-3.7-4.3-15.9-4.7-25.7v-.6h0l1.7-36.8-2.4-2.3L253.1,853c-2.2-6.7-3.5-10.7-1.8-16.9l61.5-6.4,25-2.6,41.8-4.5,61.4-6.5c2.2,5.1,3.3,8.9,1.8,16.9Z"/><path class="cls-31" d="M410.2,883.6l-2.1,2.3,7.5,45.9,2.7,16.6h-4.8c-2.8-.2-5.5-.4-8.1-.8l-5.3-.9-3.8-.8-4.2-1.1-4.2-1.2h-.5l-1.3-.5c-10.4-3.3-20-7.7-28.8-11.2-17.5,12.9-32.6,19.9-56.2,29l-.8-16.8-2.2-46.4-2.4-1.7c-18.4-13.8-32.8-25.6-42.6-42.8l7.6-2.8,51.6-19.6.5-.9L326,803.3l14.7-29.1,38.9,48.4.7.9,53.4,8.1,9.1,1.4C434.3,854.4,425.3,866.7,410.2,883.6Z"/><path class="cls-32" d="M433.7,831.6c-10.2,16-27.4,37.4-27.4,37.4s1.7,5.8,3.7,14c.1.2.1.4.2.6,3.4,13,7.6,31.5,7.8,41.3,0,3.4-.4,5.7-1.5,6.5l-.9.4a12.5,12.5,0,0,1-5.3.2h-.4l-3.1-.5-4.8-1c-4.6-1.1-9.8-2.6-15.1-4.3h0c-12.8-4.1-25.7-9.1-29.9-10.8l-1.6-.6s-44.4,29.8-55.1,29.1h-1c-1.4-.5-2.3-4.1-2.9-9.4h0c-1.1-10.3-1-26.5-.7-38.5v-.6c.3-8.4.5-14.6.5-14.6s-22.3-17-35.5-30.4c-5.8-6-9.9-11.3-9.4-14.1,1.3-7.8,59.1-22.4,59.1-22.4s4-11,9.2-23.3h0c6.5-15.3,14.7-32.6,19.2-33.1,8.7-.9,39.6,49.4,39.6,49.4s61.9,3.5,62.6,9.5C441.2,818.8,438.1,824.7,433.7,831.6Z"/><path class="cls-33" d="M414.4,948.3h-.9a64,64,0,0,1-8.1-.8l-5.3-.9-3.8-.8-4.2-1.1-4.2-1.2h-.5l-1.3-.4h0a229,229,0,0,1-28.8-11.2l-1.9-16.9,1.6.6a298.3,298.3,0,0,0,29.9,11.1,146.8,146.8,0,0,0,15.1,4l4.8,1,3.1.5h1.2l3,15.1Z"/><path class="cls-34" d="M442.8,833c-8.5,21.4-17.5,33.7-32.6,50.6,3.4,13,7.6,31.5,7.8,41.3,1.4,8.1,1.2,19,.3,23.5h-4.8a64,64,0,0,1-8.1-.8l-5.3-.9-3.8-.8-4.2-1.1-4.2-1.2h-.5l-1.3-.4h0l.2-3.3.6-13.1v-.3h0l-49.1-99.1L326,803.3l-6.4-12.9h0c6.5-15.3,14.7-32.6,19.2-33.1,8.7-.9,39.6,49.4,39.6,49.4s61.9,3.5,62.6,9.5C443.2,821.2,444.3,825,442.8,833Z"/><path class="cls-35" d="M696,891.4l2,3-9.6,37.3-.3,1.7c-1.4,8.1-1.3,19-.3,23.4l4.1-1.1,27.9-7.6,29-7.9,56.2,29c1.9-3.7,4.2-15.9,4.7-25.7v-.7h.1L808,906l2.4-2.3L853,861.5c2.2-6.8,3.5-10.7,1.8-16.9l-61.5-6.5-25-2.6-41.8-4.4-61.4-6.5c-2.2,5-3.3,8.9-1.8,16.9Z"/><path class="cls-36" d="M695.8,892.1l2.2,2.3-7.5,45.9-2.7,16.5c1.3.1,2.6,0,3.9,0h.9c2.8-.1,5.5-.4,8.1-.7a43.8,43.8,0,0,0,5.3-1l3.8-.8,4.2-1.1,4.2-1.2h.5l1.2-.4c10.5-3.3,20-7.7,28.9-11.2,17.4,12.9,32.6,19.9,56.2,29l.8-16.8L808,906l2.3-1.7c18.4-13.8,32.8-25.6,42.7-42.8l-7.6-2.9-51.6-19.5-.5-1-13.2-26.3-14.7-29.2-38.9,48.5-.7.9-53.4,8.1-9.1,1.4C671.8,862.8,680.8,875.2,695.8,892.1Z"/><path class="cls-37" d="M672.4,840.1c10.2,15.9,27.4,37.4,27.4,37.4s-1.7,5.8-3.8,13.9a6.4,6.4,0,0,1-.2.7c-3.3,13-7.6,31.5-7.7,41.3,0,3.4.4,5.7,1.5,6.5l.9.4a12.5,12.5,0,0,0,5.3.2h.3l3.1-.4,4.8-1c4.6-1.1,9.9-2.6,15.1-4.3h0c12.8-4.1,25.7-9.1,30-10.7l1.5-.6s44.5,29.8,55.2,29.1h1c1.4-.5,2.3-4.2,2.8-9.5h.1c1.1-10.2.9-26.5.6-38.4.1-.2,0-.4.1-.6-.3-8.5-.6-14.6-.6-14.6s22.4-17,35.6-30.5c5.8-5.9,9.9-11.2,9.4-14-1.3-7.8-59.2-22.4-59.2-22.4s-4-11-9.2-23.3h0c-6.4-15.3-14.7-32.6-19.1-33.1-8.7-.9-39.7,49.3-39.7,49.3s-61.8,3.6-62.5,9.6C664.8,827.2,668,833.2,672.4,840.1Z"/><path class="cls-34" d="M691.7,956.8h.9a45,45,0,0,0,8.1-.7,43.8,43.8,0,0,0,5.3-1l3.8-.8,4.2-1.1,4.2-1.2h.5l1.2-.3h0a223.8,223.8,0,0,0,28.9-11.2l1.8-16.9-1.5.6c-4.2,1.8-16.5,6.9-29.9,11.1a155.6,155.6,0,0,1-15.2,4l-4.8,1-3.1.4H695l-3.1,15.1Z"/><path class="cls-38" d="M730.5,716.1c3.3,10.3,4.7,17.9,0,33.2l-78.3,95.3,10.7,74.3c1.7,16.5-1,39.8-4,48.8L544.1,922.6,429,967.1c-2.8-7.6-4.9-31.8-3.7-51l11.1-72.2-77.8-95.7c-2.9-13.6-4.6-21.6,0-33.1Z"/><path class="cls-39" d="M611.3,717.6l119.2,31.7c-21.8,41.4-42.9,63.6-78.3,95.3l6.7,123.1c-46-4.4-82.7-28.2-114.8-45.1C507.6,944,476.6,954.4,429,967.1l7.4-123.2c-34.8-32.2-61.7-58.8-77.8-95.7L478,717.3l67-103.6Z"/><path class="cls-40" d="M611.3,684.5s119.2,19.9,119.2,31.6c0,17-78.3,95.3-78.3,95.3s20.2,115.9,6.7,123.1c-15.2,8.2-114.8-45.1-114.8-45.1S444.9,941.5,429,933.9c-11.1-5.3,7.4-123.1,7.4-123.1s-82.7-78.4-77.8-95.7c4.2-14.9,119.4-31,119.4-31s51.1-103.6,67-103.6S611.3,684.5,611.3,684.5Z"/><path class="cls-41" d="M650.7,922.8c-18,0-80.8-31.5-103.5-43.7l-3.1-1.6-3.1,1.6c-22.7,12-85.7,42.9-103.9,42.9h-.2c-3.1-11.4,2.4-65.7,9.7-112l.6-3.4-2.5-2.4c-35.2-33.4-72.5-75.1-73.4-85.5,7.7-7.4,62.4-18.9,109.9-25.6l3.4-.4,1.6-3.2c21.2-43,49.4-91.3,58.8-96.2,9.7,4.5,37.4,53.1,58.1,96.5l1.5,3.1,3.4.6c45.8,7.7,98.6,19.4,109.2,25.8-4.4,12-40.3,52.6-73.4,85.6l-2.4,2.4.6,3.4c8.2,46.9,13.9,102.1,9.4,112Z"/><path class="cls-42" d="M544.1,922.6V889.4s62.1,35.9,104.3,45.3l2.9,32.1S614,964.7,544.1,922.6Z"/><path class="cls-43" d="M394.7,710s113.2,81.7,256.6,80.7c0,0,65.1-48.5,74.1-73,0,0-24.4-14.7-116.6-27.2,0,0-28.4-71.3-64.2-104.8,0,0-34.3,38.4-55.5,103.2C489.1,688.9,433.5,692.6,394.7,710Z"/><path class="cls-44" d="M217,465.2s-10.7,1.2-23.1,9.5c0,0-17.4,23.5,6.2,80.8s54.8,61.6,54.8,61.6,16.2-3.1,26-12.9Z"/><ellipse class="cls-45" cx="246.3" cy="536.5" rx="34.9" ry="77.1" transform="translate(-185.5 134) rotate(-22.4)"/><path class="cls-22" d="M248.9,600.4l1.9-121.3S237.9,466,230,465l.3,115S239.7,594.5,248.9,600.4Z"/><path class="cls-46" d="M218.6,548.1c-14-34.1-13.6-66.9.5-75.7a11.9,11.9,0,0,1,2.2-1.2c16.3-6.7,41.4,16.9,56.1,52.7s13.5,70.2-2.8,76.9a8.8,8.8,0,0,1-2.3.7C256,605.2,232.6,582.2,218.6,548.1Z"/><path class="cls-24" d="M218.6,548.1c-14-34.1-13.6-66.9.5-75.7,16.3-3.7,39.7,19.3,53.7,53.4s13.6,66.9-.5,75.7C256,605.2,232.6,582.2,218.6,548.1Z"/><path class="cls-47" d="M236.2,510a3.5,3.5,0,0,1,2.1-.3c1.5-.1,12,8.7,13.7,8.9l-5.1,2.2a7.2,7.2,0,0,0-2.7-.9,10.7,10.7,0,0,0-2.5-.1l-2.3.2a3.9,3.9,0,0,0-1.8,2.8,7.5,7.5,0,0,0,.6,4.3,9.5,9.5,0,0,0,2.2,3.5,22.6,22.6,0,0,0,3.1,2.3l3.6,1.9a24.8,24.8,0,0,1,3.8,2.2,28.1,28.1,0,0,1,3.6,3.4,24,24,0,0,1,3.2,5.3,24.9,24.9,0,0,1,1.5,5.8,14.9,14.9,0,0,1-.2,4.8,10.3,10.3,0,0,1-1.5,3.7c-.7,1.1,3.6-.1,2.7.5l8.2,19.2-9.3,3.7-7.2-18.9-1,.3a8.4,8.4,0,0,1-1.9.3,9.6,9.6,0,0,1-2.4,0,7.2,7.2,0,0,1-2.7-.9L240,553.7a14,14,0,0,0,3.6,1,16,16,0,0,0,3,.1,8.7,8.7,0,0,0,2.8-.5,5.8,5.8,0,0,0,.2-5.6,6.9,6.9,0,0,0-2-2.8,20.2,20.2,0,0,0-3.2-2.3l-3.8-2.3a35.2,35.2,0,0,1-4.2-2.9,29.2,29.2,0,0,1-3.8-4,21.8,21.8,0,0,1-3.2-5.7,19.4,19.4,0,0,1-1.6-9.7,11.3,11.3,0,0,1,3.3-6.9l-7.9-18.4,5.1-2.1Z"/><path class="cls-48" d="M239.5,508.1a12.3,12.3,0,0,1,3.9-.6l4.9.3,3.7,10.8a9.2,9.2,0,0,0-2.7-.8,10.6,10.6,0,0,0-2.4-.2l-2.4.3a3.9,3.9,0,0,0-1.8,2.7,7.4,7.4,0,0,0,.6,4.3,9.2,9.2,0,0,0,2.2,3.5,16.6,16.6,0,0,0,3.1,2.3,30.4,30.4,0,0,0,3.6,1.9,25.7,25.7,0,0,1,3.8,2.3,22.5,22.5,0,0,1,3.6,3.4,20.1,20.1,0,0,1,3.2,5.3,23.7,23.7,0,0,1,1.5,5.8,14.9,14.9,0,0,1-.2,4.8,11.1,11.1,0,0,1-1.5,3.7,8.7,8.7,0,0,1-2.4,2.6l8.2,19.2-4.2,1.6-7.2-19-1,.3-1.9.4a10,10,0,0,1-2.4-.1,9.2,9.2,0,0,1-2.7-.8l-3.9-10.6a14.6,14.6,0,0,0,3.6,1.1h3a8.7,8.7,0,0,0,2.8-.5,6,6,0,0,0,.2-5.7,6.9,6.9,0,0,0-2-2.8c-.9-.8-2-1.5-3.1-2.3l-3.9-2.3a21.9,21.9,0,0,1-4.1-2.9,21.2,21.2,0,0,1-3.9-4,22.9,22.9,0,0,1-3.2-5.6,19.8,19.8,0,0,1-1.6-9.8,10.7,10.7,0,0,1,3.3-6.8l-7.9-18.4,4.2-1.6Z"/><polygon class="cls-27" points="245.1 551.5 240 553.7 243.9 564.2 249 562.1 245.1 551.5"/><polygon class="cls-27" points="231.1 512.1 236.2 510 228.3 491.6 223.2 493.7 231.1 512.1"/><polygon class="cls-27" points="251.9 564.5 257 562.3 264.2 581.3 259.1 583.4 251.9 564.5"/><path class="cls-28" d="M248.9,600.4l-14.4,5.9a77.9,77.9,0,0,1-18.4-20.5l14.2-5.8S239.6,594.5,248.9,600.4Z"/><path class="cls-28" d="M207.2,475l-16.6,6.8a53.6,53.6,0,0,0-2.4,11.4l15-4S203.9,480,207.2,475Z"/><path class="cls-29" d="M289.4,583.8s-9.4,10.7-6.6,18.3A33.6,33.6,0,0,0,289.4,583.8Z"/></g></g></svg>