<svg xmlns="http://www.w3.org/2000/svg" xmlns:xlink="http://www.w3.org/1999/xlink" viewBox="0 0 874.2 819.2"><defs><style>.cls-1{isolation:isolate;}.cls-2{opacity:0.2;}.cls-3{fill:url(#linear-gradient);}.cls-4{fill:url(#linear-gradient-2);}.cls-10,.cls-11,.cls-12,.cls-13,.cls-14,.cls-15,.cls-17,.cls-19,.cls-20,.cls-21,.cls-22,.cls-23,.cls-24,.cls-25,.cls-26,.cls-27,.cls-29,.cls-31,.cls-32,.cls-33,.cls-34,.cls-35,.cls-36,.cls-37,.cls-38,.cls-39,.cls-40,.cls-41,.cls-42,.cls-43,.cls-44,.cls-45,.cls-46,.cls-48,.cls-49,.cls-5,.cls-50,.cls-51,.cls-52,.cls-53,.cls-54,.cls-56,.cls-57,.cls-58,.cls-59,.cls-6,.cls-7,.cls-8,.cls-9{fill-rule:evenodd;}.cls-11,.cls-15,.cls-22,.cls-27,.cls-32,.cls-5,.cls-51,.cls-54,.cls-58,.cls-6{opacity:0.5;}.cls-5{fill:url(#linear-gradient-3);}.cls-6{fill:url(#linear-gradient-4);}.cls-7{fill:url(#linear-gradient-5);}.cls-8{fill:url(#linear-gradient-6);}.cls-9{fill:url(#Áåçûìÿííûé_ãðàäèåíò_77);}.cls-10{fill:url(#linear-gradient-7);}.cls-11,.cls-14,.cls-22,.cls-27,.cls-32,.cls-51,.cls-54,.cls-58{mix-blend-mode:multiply;}.cls-11{fill:url(#Áåçûìÿííûé_ãðàäèåíò_42);}.cls-12{fill:url(#Áåçûìÿííûé_ãðàäèåíò_77-2);}.cls-13{fill:url(#linear-gradient-8);}.cls-14,.cls-20{fill:#1d0c43;}.cls-14{opacity:0.35;}.cls-15{fill:#fbf9fa;mix-blend-mode:soft-light;}.cls-16{fill:url(#Áåçûìÿííûé_ãðàäèåíò_8);}.cls-17{fill:url(#Áåçûìÿííûé_ãðàäèåíò_8-2);}.cls-18{fill:url(#Áåçûìÿííûé_ãðàäèåíò_135);}.cls-19{fill:url(#linear-gradient-9);}.cls-21,.cls-55{fill:#fff;}.cls-22{fill:url(#Áåçûìÿííûé_ãðàäèåíò_42-2);}.cls-23{fill:url(#Áåçûìÿííûé_ãðàäèåíò_88);}.cls-24{fill:url(#Áåçûìÿííûé_ãðàäèåíò_88-2);}.cls-25{fill:url(#Áåçûìÿííûé_ãðàäèåíò_135-2);}.cls-26{fill:url(#linear-gradient-10);}.cls-27{fill:url(#Áåçûìÿííûé_ãðàäèåíò_42-3);}.cls-28{fill:url(#Áåçûìÿííûé_ãðàäèåíò_88-3);}.cls-29{fill:url(#Áåçûìÿííûé_ãðàäèåíò_88-4);}.cls-30{fill:url(#Áåçûìÿííûé_ãðàäèåíò_135-3);}.cls-31{fill:url(#linear-gradient-11);}.cls-32{fill:url(#Áåçûìÿííûé_ãðàäèåíò_42-4);}.cls-33{fill:url(#linear-gradient-12);}.cls-34{fill:url(#linear-gradient-13);}.cls-35{fill:#937cbe;}.cls-36{fill:url(#Áåçûìÿííûé_ãðàäèåíò_187);}.cls-37{fill:url(#Áåçûìÿííûé_ãðàäèåíò_187-2);}.cls-38{fill:#d6c5ff;}.cls-39{fill:url(#Áåçûìÿííûé_ãðàäèåíò_45);}.cls-40{fill:#8368b4;}.cls-41{fill:url(#Áåçûìÿííûé_ãðàäèåíò_131);}.cls-42{fill:url(#Áåçûìÿííûé_ãðàäèåíò_131-2);}.cls-43{fill:url(#linear-gradient-14);}.cls-44{fill:url(#Áåçûìÿííûé_ãðàäèåíò_131-3);}.cls-45{fill:url(#Áåçûìÿííûé_ãðàäèåíò_131-4);}.cls-46{fill:url(#linear-gradient-15);}.cls-47{fill:url(#Áåçûìÿííûé_ãðàäèåíò_88-5);}.cls-48{fill:url(#Áåçûìÿííûé_ãðàäèåíò_88-6);}.cls-49{fill:url(#Áåçûìÿííûé_ãðàäèåíò_135-4);}.cls-50{fill:url(#linear-gradient-16);}.cls-51{fill:url(#Áåçûìÿííûé_ãðàäèåíò_42-5);}.cls-52{fill:url(#linear-gradient-17);}.cls-53{fill:url(#Áåçûìÿííûé_ãðàäèåíò_7);}.cls-54{fill:#401765;}.cls-56{fill:url(#Áåçûìÿííûé_ãðàäèåíò_36);}.cls-57{fill:url(#linear-gradient-18);}.cls-58{fill:url(#Áåçûìÿííûé_ãðàäèåíò_42-6);}.cls-59{fill:url(#linear-gradient-19);}</style><linearGradient id="linear-gradient" x1="333.39" y1="178.49" x2="780.56" y2="875.8" gradientUnits="userSpaceOnUse"><stop offset="0" stop-color="#e56ba6"/><stop offset="0.99" stop-color="#713592"/></linearGradient><linearGradient id="linear-gradient-2" x1="337.99" y1="800.14" x2="460.74" y2="991.55" gradientTransform="translate(107.6 -111.4) rotate(10.5)" xlink:href="#linear-gradient"/><linearGradient id="linear-gradient-3" x1="277.71" y1="677.06" x2="822.52" y2="677.06" gradientUnits="userSpaceOnUse"><stop offset="0.02" stop-color="#ee466c"/><stop offset="0.13" stop-color="#f16585"/><stop offset="0.35" stop-color="#f69cb0"/><stop offset="0.55" stop-color="#fac7d2"/><stop offset="0.74" stop-color="#fde5eb"/><stop offset="0.89" stop-color="#fef8fa"/><stop offset="1" stop-color="#fff"/></linearGradient><linearGradient id="linear-gradient-4" x1="272.69" y1="150.19" x2="874.16" y2="150.19" xlink:href="#linear-gradient-3"/><linearGradient id="linear-gradient-5" x1="163.71" y1="448.08" x2="545.13" y2="561.88" gradientUnits="userSpaceOnUse"><stop offset="0" stop-color="#7d287a"/><stop offset="0.25" stop-color="#612a78"/><stop offset="0.52" stop-color="#4a2b77"/><stop offset="0.78" stop-color="#3c2c76"/><stop offset="1" stop-color="#372c76"/></linearGradient><linearGradient id="linear-gradient-6" x1="593.43" y1="621.31" x2="176.18" y2="454.83" xlink:href="#linear-gradient-5"/><linearGradient id="Áåçûìÿííûé_ãðàäèåíò_77" x1="23.43" y1="347.17" x2="23.43" y2="236.59" gradientTransform="translate(339.7 882) rotate(180)" gradientUnits="userSpaceOnUse"><stop offset="0" stop-color="#ebd7e3"/><stop offset="0.89" stop-color="#9c87bb"/><stop offset="1" stop-color="#b7a8ce"/></linearGradient><linearGradient id="linear-gradient-7" x1="139.12" y1="464.54" x2="139.12" y2="636.06" gradientTransform="translate(478.4 1007.4) rotate(180)" gradientUnits="userSpaceOnUse"><stop offset="0" stop-color="#ffd587"/><stop offset="0.41" stop-color="#ea9f74"/><stop offset="0.8" stop-color="#d87164"/><stop offset="1" stop-color="#d15f5e"/></linearGradient><linearGradient id="Áåçûìÿííûé_ãðàäèåíò_42" x1="186.26" y1="487.19" x2="487.75" y2="487.19" gradientUnits="userSpaceOnUse"><stop offset="0" stop-color="#daccd2"/><stop offset="1" stop-color="#b0339f"/></linearGradient><linearGradient id="Áåçûìÿííûé_ãðàäèåíò_77-2" x1="28.81" y1="692.24" x2="28.81" y2="581.67" xlink:href="#Áåçûìÿííûé_ãðàäèåíò_77"/><linearGradient id="linear-gradient-8" x1="65.42" y1="578.39" x2="339.7" y2="578.39" xlink:href="#linear-gradient-7"/><linearGradient id="Áåçûìÿííûé_ãðàäèåíò_8" x1="612.92" y1="407.53" x2="518.09" y2="355.55" gradientUnits="userSpaceOnUse"><stop offset="0" stop-color="#e03347"/><stop offset="1" stop-color="#ff6e27"/></linearGradient><linearGradient id="Áåçûìÿííûé_ãðàäèåíò_8-2" x1="748.69" y1="538.16" x2="653.87" y2="486.18" xlink:href="#Áåçûìÿííûé_ãðàäèåíò_8"/><linearGradient id="Áåçûìÿííûé_ãðàäèåíò_135" x1="508.5" y1="450.06" x2="508.5" y2="284.82" gradientUnits="userSpaceOnUse"><stop offset="0" stop-color="#ffa700"/><stop offset="1" stop-color="#ffd328"/></linearGradient><linearGradient id="linear-gradient-9" x1="372.78" y1="422.96" x2="734.18" y2="563.1" gradientUnits="userSpaceOnUse"><stop offset="0" stop-color="#f79420"/><stop offset="0.4" stop-color="#f2684b"/><stop offset="0.72" stop-color="#ef4c66"/><stop offset="0.9" stop-color="#ee4270"/></linearGradient><linearGradient id="Áåçûìÿííûé_ãðàäèåíò_42-2" x1="680.74" y1="578.98" x2="699.59" y2="547.85" xlink:href="#Áåçûìÿííûé_ãðàäèåíò_42"/><linearGradient id="Áåçûìÿííûé_ãðàäèåíò_88" x1="716.91" y1="434.25" x2="786.51" y2="319.3" gradientTransform="translate(74 -69.5) rotate(7.2)" gradientUnits="userSpaceOnUse"><stop offset="0.01" stop-color="#ff4747"/><stop offset="1" stop-color="#ff9127"/></linearGradient><linearGradient id="Áåçûìÿííûé_ãðàäèåíò_88-2" x1="701.1" y1="435.53" x2="774.51" y2="314.28" xlink:href="#Áåçûìÿííûé_ãðàäèåíò_88"/><linearGradient id="Áåçûìÿííûé_ãðàäèåíò_135-2" x1="724.17" y1="449.49" x2="724.17" y2="304.05" gradientTransform="translate(74 -69.5) rotate(7.2)" xlink:href="#Áåçûìÿííûé_ãðàäèåíò_135"/><linearGradient id="linear-gradient-10" x1="419.08" y1="303.54" x2="780.48" y2="443.68" xlink:href="#linear-gradient-9"/><linearGradient id="Áåçûìÿííûé_ãðàäèåíò_42-3" x1="753.75" y1="452.58" x2="770.34" y2="425.18" gradientTransform="translate(74 -69.5) rotate(7.2)" xlink:href="#Áåçûìÿííûé_ãðàäèåíò_42"/><linearGradient id="Áåçûìÿííûé_ãðàäèåíò_88-3" x1="570.98" y1="774.38" x2="650.58" y2="642.92" gradientTransform="translate(1311.2 97.8) rotate(90)" xlink:href="#Áåçûìÿííûé_ãðàäèåíò_88"/><linearGradient id="Áåçûìÿííûé_ãðàäèåíò_88-4" x1="552.89" y1="775.84" x2="636.86" y2="637.17" gradientTransform="matrix(1, 0.05, -0.05, 1, 29.35, -30.83)" xlink:href="#Áåçûìÿííûé_ãðàäèåíò_88"/><linearGradient id="Áåçûìÿííûé_ãðàäèåíò_135-3" x1="579.28" y1="791.82" x2="579.28" y2="625.48" gradientTransform="translate(1279.8 127.7) rotate(90)" xlink:href="#Áåçûìÿííûé_ãðàäèåíò_135"/><linearGradient id="linear-gradient-11" x1="290.08" y1="636.24" x2="651.48" y2="776.37" xlink:href="#linear-gradient-9"/><linearGradient id="Áåçûìÿííûé_ãðàäèåíò_42-4" x1="613.12" y1="795.35" x2="632.09" y2="764" gradientTransform="matrix(1, 0.05, -0.05, 1, 29.35, -30.83)" xlink:href="#Áåçûìÿííûé_ãðàäèåíò_42"/><linearGradient id="linear-gradient-12" x1="513.15" y1="564.93" x2="683.14" y2="647.81" gradientTransform="matrix(1, 0, 0, 1, 0, 0)" xlink:href="#linear-gradient-7"/><linearGradient id="linear-gradient-13" x1="583.62" y1="546.71" x2="802.07" y2="687.2" xlink:href="#linear-gradient-5"/><linearGradient id="Áåçûìÿííûé_ãðàäèåíò_187" x1="676.93" y1="850.92" x2="669.44" y2="821.65" gradientTransform="matrix(0.76, -0.21, 0.26, 0.96, -0.85, 92.6)" gradientUnits="userSpaceOnUse"><stop offset="0.02" stop-color="#e2c7eb"/><stop offset="1" stop-color="#efe0ff"/></linearGradient><linearGradient id="Áåçûìÿííûé_ãðàäèåíò_187-2" x1="-111.41" y1="852.01" x2="-120.07" y2="818.16" gradientTransform="matrix(-0.76, 0.21, 0.26, 0.96, 467.09, -34.51)" xlink:href="#Áåçûìÿííûé_ãðàäèåíò_187"/><linearGradient id="Áåçûìÿííûé_ãðàäèåíò_45" x1="717.51" y1="869.97" x2="695.51" y2="783.97" gradientTransform="matrix(0.76, -0.21, 0.26, 0.96, -0.85, 92.6)" gradientUnits="userSpaceOnUse"><stop offset="0.02" stop-color="#e2dceb"/><stop offset="1" stop-color="#fff"/></linearGradient><linearGradient id="Áåçûìÿííûé_ãðàäèåíò_131" x1="869.08" y1="363.96" x2="899.77" y2="273.97" gradientTransform="matrix(0.91, 0.03, -0.03, 1, 90.43, -13.84)" gradientUnits="userSpaceOnUse"><stop offset="0.01" stop-color="#530e68"/><stop offset="1" stop-color="#60309d"/></linearGradient><linearGradient id="Áåçûìÿííûé_ãðàäèåíò_131-2" x1="857.82" y1="366.49" x2="890.48" y2="270.71" xlink:href="#Áåçûìÿííûé_ãðàäèåíò_131"/><linearGradient id="linear-gradient-14" x1="447.24" y1="188.1" x2="957.21" y2="360.9" xlink:href="#linear-gradient-9"/><linearGradient id="Áåçûìÿííûé_ãðàäèåíò_131-3" x1="488.92" y1="551.42" x2="510.99" y2="486.72" gradientTransform="matrix(0.9, -0.11, 0.12, 0.99, 20.29, 67.55)" xlink:href="#Áåçûìÿííûé_ãðàäèåíò_131"/><linearGradient id="Áåçûìÿííûé_ãðàäèåíò_131-4" x1="480.82" y1="553.25" x2="504.31" y2="484.37" gradientTransform="matrix(0.9, -0.11, 0.12, 0.99, 20.29, 67.55)" xlink:href="#Áåçûìÿííûé_ãðàäèåíò_131"/><linearGradient id="linear-gradient-15" x1="352.26" y1="468.41" x2="862.23" y2="641.21" xlink:href="#linear-gradient-9"/><linearGradient id="Áåçûìÿííûé_ãðàäèåíò_88-5" x1="546" y1="371.23" x2="597.4" y2="286.34" gradientTransform="translate(921.8 -245.1) rotate(90)" xlink:href="#Áåçûìÿííûé_ãðàäèåíò_88"/><linearGradient id="Áåçûìÿííûé_ãðàäèåíò_88-6" x1="534.33" y1="372.17" x2="588.54" y2="282.63" gradientTransform="translate(45.9 -41.6) rotate(4)" xlink:href="#Áåçûìÿííûé_ãðàäèåíò_88"/><linearGradient id="Áåçûìÿííûé_ãðàäèåíò_135-4" x1="551.36" y1="382.49" x2="551.36" y2="275.07" gradientTransform="translate(45.9 -41.6) rotate(4)" xlink:href="#Áåçûìÿííûé_ãðàäèåíò_135"/><linearGradient id="linear-gradient-16" x1="423.45" y1="292.28" x2="784.85" y2="432.41" xlink:href="#linear-gradient-9"/><linearGradient id="Áåçûìÿííûé_ãðàäèåíò_42-5" x1="573.21" y1="384.77" x2="585.47" y2="364.53" gradientTransform="translate(45.9 -41.6) rotate(4)" xlink:href="#Áåçûìÿííûé_ãðàäèåíò_42"/><linearGradient id="linear-gradient-17" x1="470.96" y1="89.28" x2="608.63" y2="96.65" xlink:href="#linear-gradient-5"/><linearGradient id="Áåçûìÿííûé_ãðàäèåíò_7" x1="631.71" y1="120.47" x2="490.52" y2="78.33" gradientUnits="userSpaceOnUse"><stop offset="0.01" stop-color="#713592"/><stop offset="1" stop-color="#5178fe"/></linearGradient><linearGradient id="Áåçûìÿííûé_ãðàäèåíò_36" x1="828.93" y1="653" x2="775.33" y2="542.08" gradientTransform="translate(-193.1 -51.4) rotate(-6.5)" gradientUnits="userSpaceOnUse"><stop offset="0.02" stop-color="#d4cbe2"/><stop offset="1" stop-color="#f3e6ee"/></linearGradient><linearGradient id="linear-gradient-18" x1="660.92" y1="418.38" x2="829.5" y2="481.6" xlink:href="#linear-gradient-5"/><linearGradient id="Áåçûìÿííûé_ãðàäèåíò_42-6" x1="745.26" y1="572.02" x2="869.46" y2="572.02" xlink:href="#Áåçûìÿííûé_ãðàäèåíò_42"/><linearGradient id="linear-gradient-19" x1="637.57" y1="480.64" x2="806.15" y2="543.86" xlink:href="#linear-gradient-5"/></defs><g class="cls-1"><g id="Layer_1" data-name="Layer 1"><g class="cls-2"><path class="cls-3" d="M220.5,547.3c-7.4-162.4,221.1-366.2,417.9-332.5C846.3,250.5,1028.5,701.9,831.5,854S228.1,712,220.5,547.3Z" transform="translate(-138.6 -125.4)"/><path class="cls-4" d="M298.9,767.3c38.6,36.4,184.6,116.1,160,145.4S284.2,910,250.1,869.5,233,705.1,298.9,767.3Z" transform="translate(-138.6 -125.4)"/></g><polygon class="cls-5" points="277.7 534.9 822.5 568.5 779.5 819.2 279.3 645.4 277.7 534.9"/><polygon class="cls-6" points="274.3 300.4 874.2 246 849.5 0 272.7 189.8 274.3 300.4"/><path class="cls-7" d="M493.5,770.9,295.4,716.3c-69.5-19.2-125.9-96.8-125.9-173.4,0-27.8,7.2-54.7,19.8-79h0a192.1,192.1,0,0,1,16.3-26.3c22.2-32.5,52.9-58.5,86.9-68l193.4-54.4.9,56.2.7,39.5.2,14.9L293.2,453.7c-35.1,5-63.5,45.1-63.3,89.2a93.6,93.6,0,0,0,.9,13c5.1,38.7,31.9,71.7,63.9,76.3l197,28.1Z" transform="translate(-138.6 -125.4)"/><path class="cls-8" d="M190.7,542.9a115,115,0,0,1,12.5-53.2c10-19.4,25.1-33.2,42.1-36l49.3-8.2,118.3-19.7-1.6-110.6L263.5,363.4l-18.8,6.2c-25.7,8.3-49.1,29.3-67.3,56.1-2.7,3.8-5.2,7.8-7.6,11.9-19.2,30.2-31.2,67-31.2,105.3,0,76.6,48.7,154.2,108.6,173.4L302,733.8l115.9,37.1-1.6-110.6-43-7.1L261.9,634.7l-15.3-2.5C216,627.1,190.9,587,190.7,542.9Z" transform="translate(-138.6 -125.4)"/><polygon class="cls-9" points="279.3 645.4 354.9 645.4 353.1 534.9 277.7 534.9 279.3 645.4"/><path class="cls-10" d="M190.7,542.9l4.7-67.8,118.9-81.2,172.5-22.5,1,54.4L293.2,453.7c-35.1,5-63.5,45-63.3,89.2Z" transform="translate(-138.6 -125.4)"/><path class="cls-11" d="M487.7,425.8,293.2,453.7c-35.1,5-63.5,45.1-63.3,89.2a93.6,93.6,0,0,0,.9,13l-35.4,19.4-9.1-47.2,3-64.2h0l99-55.7,191.9-9.1,7.3,11.8Z" transform="translate(-138.6 -125.4)"/><polygon class="cls-12" points="349.1 300.4 274.3 300.4 272.7 189.8 347.3 189.8 349.1 300.4"/><path class="cls-13" d="M138.6,542.9c0-38.3,12-75.1,31.2-105.3,19.2-32.5,45.6-58.5,74.9-68l166.6-54.4,1.6,110.6L245.3,453.7c-30.3,5-54.8,45-54.6,89.2Z" transform="translate(-138.6 -125.4)"/><polygon class="cls-14" points="274.3 300.4 106.6 328.3 148.6 329.5 349.1 300.4 274.3 300.4"/><path class="cls-15" d="M416.6,680.8s-8-16.7-16-18.1-154-30.5-154-30.5l169.7,28.1Z" transform="translate(-138.6 -125.4)"/><ellipse class="cls-16" cx="539.8" cy="367.4" rx="55.6" ry="82.6"/><path class="cls-17" d="M647.1,575.5s23.1,2.5,38.5-.7,25.7-103.1,25.7-103.1l-24.7-60.6s-33.2-8.4-51.8,1.2C618.2,420.8,647.1,575.5,647.1,575.5Z" transform="translate(-138.6 -125.4)"/><ellipse class="cls-18" cx="508.5" cy="367.4" rx="55.6" ry="82.6"/><path class="cls-19" d="M689.1,509.3a102.5,102.5,0,0,1-6.2,20.3C676.7,544.5,665,562,644.4,562c-14.8-.1-24.3-8.2-30.5-18h0c-9.4-14.9-10.8-33.7-10.8-33.7Z" transform="translate(-138.6 -125.4)"/><path class="cls-20" d="M655.3,487.9s17.9-11.3,35.5-4.8v-7.2s-23.4-5.9-35.5,9Z" transform="translate(-138.6 -125.4)"/><path class="cls-20" d="M689.1,509.3a102.5,102.5,0,0,1-6.2,20.3s-10.7-3.9-36.8,0S613.9,544,613.9,544h0c-9.4-14.9-10.8-33.7-10.8-33.7Z" transform="translate(-138.6 -125.4)"/><path class="cls-20" d="M629.5,487.9s-13.4-11.3-26.4-4.8v-7.2s17.4-5.9,26.4,9Z" transform="translate(-138.6 -125.4)"/><polygon class="cls-21" points="471 384.7 477.6 398.3 546.5 398.3 550.4 383.9 471 384.7"/><path class="cls-15" d="M687.5,436.1s19.6-2.9,31.3,0c0,0-7.8-10.8-15.7-17.2,0,0-18.3-4.3-36.6-3.5C666.5,415.4,680.5,422.5,687.5,436.1Z" transform="translate(-138.6 -125.4)"/><path class="cls-22" d="M666.5,570.3s11.4,2.9,31.3,0c0,0,7.9-4.2,16.1-13.8,0,0-13.2-1.1-28.7-3.5C685.2,553,676.9,564.5,666.5,570.3Z" transform="translate(-138.6 -125.4)"/><path class="cls-23" d="M821.3,404.4c-5,39.9-30.8,69.4-57.7,66s-44.4-38.4-39.4-78.2,30.8-69.4,57.6-66.1S826.3,364.6,821.3,404.4Z" transform="translate(-138.6 -125.4)"/><path class="cls-24" d="M736.3,467s19.9,4.7,33.7,3.6,33.8-87.2,33.8-87.2l-14.9-55.6s-28-10.9-45.4-4.6C728.1,328.7,736.3,467,736.3,467Z" transform="translate(-138.6 -125.4)"/><path class="cls-25" d="M794,401c-5.1,39.8-30.9,69.4-57.7,66s-44.4-38.4-39.4-78.3,30.8-69.4,57.6-66S799,361.1,794,401Z" transform="translate(-138.6 -125.4)"/><path class="cls-26" d="M780.2,413.8a88.5,88.5,0,0,1-7.6,17.1c-7,12.3-19.2,26.3-37.2,24-12.9-1.6-20.3-9.8-24.6-19.1h0c-6.6-14.1-5.8-30.7-5.8-30.7Z" transform="translate(-138.6 -125.4)"/><path class="cls-20" d="M753.1,391.4s16.9-7.9,31.5-.3l.8-6.3s-19.8-7.7-32,4Z" transform="translate(-138.6 -125.4)"/><path class="cls-20" d="M730.5,388.6s-10.4-11.4-22.5-7.2l.8-6.2s15.8-3.3,22.1,10.7Z" transform="translate(-138.6 -125.4)"/><path class="cls-15" d="M786.9,349.7s17.5-.4,27.3,3.5c0,0-5.6-10.4-11.7-16.8a139.9,139.9,0,0,0-31.7-7.1S782.3,337.1,786.9,349.7Z" transform="translate(-138.6 -125.4)"/><path class="cls-27" d="M753.8,464.6s9.6,3.8,27.3,3.5a54.4,54.4,0,0,0,15.6-10.3s-11.4-2.5-24.6-6.2C772.1,451.6,763.6,460.7,753.8,464.6Z" transform="translate(-138.6 -125.4)"/><path class="cls-21" d="M710.8,405.9s-1.9,44.9,24.6,49c31.8,4.9,44.8-41.1,44.8-41.1Z" transform="translate(-138.6 -125.4)"/><ellipse class="cls-28" cx="602.6" cy="708.6" rx="83.2" ry="56" transform="translate(-275 1148.2) rotate(-87)"/><path class="cls-29" d="M566.8,790s23.1,3.8,38.6,1.3S636.7,689,636.7,689l-21.6-62.1s-32.9-10.2-52.2-1.6C545.8,633,566.8,790,566.8,790Z" transform="translate(-138.6 -125.4)"/><ellipse class="cls-30" cx="571.1" cy="707" rx="83.2" ry="56" transform="translate(-303.2 1115.2) rotate(-87)"/><path class="cls-31" d="M612.4,725.7a102.5,102.5,0,0,1-7.3,20.1c-7,14.6-19.7,31.6-40.3,30.5-14.9-.8-24.1-9.5-29.8-19.7h0c-8.6-15.5-9.1-34.5-9.1-34.5Z" transform="translate(-138.6 -125.4)"/><path class="cls-20" d="M579.5,702.4s18.7-10.4,36-3l.4-7.2s-23.3-7.2-36.2,7.2Z" transform="translate(-138.6 -125.4)"/><path class="cls-20" d="M553.6,701s-12.9-12-26.3-6.2l.4-7.2s17.8-5,26,10.4Z" transform="translate(-138.6 -125.4)"/><path class="cls-15" d="M614.6,652s19.9-1.9,31.5,1.6c0,0-7.3-11.3-14.8-18.1,0,0-18.2-5.2-36.7-5.4C594.6,630.1,608.3,638,614.6,652Z" transform="translate(-138.6 -125.4)"/><path class="cls-32" d="M586.5,785.9s11.3,3.4,31.4,1.6c0,0,8.3-3.8,17-13.1,0,0-13.2-1.8-28.6-5C606.3,769.4,597.3,780.6,586.5,785.9Z" transform="translate(-138.6 -125.4)"/><path class="cls-21" d="M532.6,722.4s1.5,51.4,32.2,53.9c36.6,3,47.6-50.6,47.6-50.6Z" transform="translate(-138.6 -125.4)"/><polygon class="cls-33" points="576.5 706.6 554.4 568.5 668.9 530.1 685 688.7 576.5 706.6"/><polygon class="cls-34" points="668.9 530.1 691.3 539.2 704.3 686.1 685 688.7 668.9 530.1"/><path class="cls-20" d="M787.7,731.7l-.3-1.5h0s-2.8-27.2-3.8-32-11.8-3.2-11.8-3.2-8.2-12-21.6-5.5-17.2,32.1-17,33.1,8.1,23.9,8.1,23.9h0c-2.3-.8-4.7-.7-5.9,1.8-3.9,8.4,6.5,30.2,14.1,25.4A38.3,38.3,0,0,0,761,787.2l-4.2,21.6c5.1,5.6,25.5,2.1,28.5-5.2l-1.7-21.7c2.9-4.7,5-11,6-18.6,8.4.5,10.3-27.5,4-33.4C791.7,728.1,789.5,729.5,787.7,731.7Z" transform="translate(-138.6 -125.4)"/><path class="cls-35" d="M780.7,731.7l-.3-1.5h0s-2.8-27.2-3.8-32.1-11.7-3.1-11.7-3.1-8.2-12.1-21.6-5.6-17.3,32.1-17.1,33.1,8.1,24,8.1,24h0c-2.3-.7-4.7-.7-5.9,1.9-3.9,8.4,6.6,30.2,14.1,25.4A37,37,0,0,0,754,787.1l-4.1,21.7c5.1,5.6,25.4,2.1,28.4-5.2l-1.7-21.7a46.8,46.8,0,0,0,6-18.7c8.4.6,10.4-27.4,4-33.4C784.7,728,782.5,729.5,780.7,731.7Z" transform="translate(-138.6 -125.4)"/><path class="cls-36" d="M730,751.3s-8.9-7.1-11.6-1.3c-3.9,8.4,6.7,30.4,14.2,25.4S730,751.3,730,751.3Z" transform="translate(-138.6 -125.4)"/><path class="cls-37" d="M766.7,739.8s5.6-12.5,9.9-8.5c6.5,6,4.4,34.4-4.1,33.4S766.7,739.8,766.7,739.8Z" transform="translate(-138.6 -125.4)"/><path class="cls-38" d="M744.2,787.7l5.7,21.1c5.1,5.6,15.5,3.6,18.4-3.7l-1.7-22.8Z" transform="translate(-138.6 -125.4)"/><path class="cls-39" d="M740.9,699.8c-16.9,6.8-20.5,27.4-15.7,54.2s19.3,39.2,31.6,38.7c11.5-5,19.8-24.2,15.1-53.2S757.8,693.2,740.9,699.8Z" transform="translate(-138.6 -125.4)"/><path class="cls-38" d="M724.3,748.1l2.1-24.3a35.7,35.7,0,0,0,15.1-.4,25.6,25.6,0,0,0,13.4-8.4h-4.2l8-4.8a162.5,162.5,0,0,1,11.8,21.7s-2.8-27.2-3.9-32-11.7-3.2-11.7-3.2-8.2-12.1-21.6-5.6-17.2,32.1-17.1,33.1S724.3,748.1,724.3,748.1Z" transform="translate(-138.6 -125.4)"/><path class="cls-40" d="M772.5,764.7l9.8.7a16.1,16.1,0,0,0,4-4.1l-7.9-2.4A9.9,9.9,0,0,1,772.5,764.7Z" transform="translate(-138.6 -125.4)"/><path class="cls-40" d="M778.3,803.6l-10,1.5s-.1,5.1-9.2,6.8l7.7-1S775.3,810.2,778.3,803.6Z" transform="translate(-138.6 -125.4)"/><path class="cls-40" d="M754.9,696.6l10-1.5s-4.3-8.2-16.5-8.2L735.8,690S746.1,687.4,754.9,696.6Z" transform="translate(-138.6 -125.4)"/><path class="cls-35" d="M773.7,730.6l11.4-1.6s3.2.7,4.1,5.9l-10.2.4S777.1,730.3,773.7,730.6Z" transform="translate(-138.6 -125.4)"/><path class="cls-41" d="M917.7,293c-19.6-3.5-30.7,21.3-30.7,21.3s-8.8-25.9-28.6-24.4c-23,1.8-25.2,36.8-10.7,57.2s29.7,24.7,36.4,33.3c7.4-7.9,22.9-10.5,39.1-29.3S940.4,297.2,917.7,293Z" transform="translate(-138.6 -125.4)"/><path class="cls-42" d="M834.8,291s12.7-5.8,31.1-.3l21.3,16.1,9-14.6a34,34,0,0,1,31.9,6.2l-3.9,35-40.1,47-17-.5-17.6-45.5Z" transform="translate(-138.6 -125.4)"/><path class="cls-43" d="M900.7,292.5c-19.6-3.5-30.6,21.3-30.6,21.3s-8.9-25.9-28.7-24.4c-23,1.7-25.2,36.8-10.7,57.2s29.7,24.7,36.4,33.3c7.4-7.9,22.9-10.5,39.2-29.3S923.5,296.7,900.7,292.5Z" transform="translate(-138.6 -125.4)"/><path class="cls-15" d="M911.8,298.6s15.4,1,19.1,3.4c0,0,5.5,8.4,4.2,18l-16.8-4S917.6,303,911.8,298.6Z" transform="translate(-138.6 -125.4)"/><path class="cls-44" d="M555.5,496.7c-14.3-.3-19.4,18.6-19.4,18.6s-9.2-17.5-23.1-14.2c-16.1,3.8-13.8,28.9-1.2,41.8s23.8,14.2,29.5,19.6c4.4-6.4,15.1-10,24.6-25.2S572.1,497.1,555.5,496.7Z" transform="translate(-138.6 -125.4)"/><path class="cls-45" d="M496.4,504.5s8.3-5.6,22.1-3.7l16.8,9.1,4.8-11.4a24.5,24.5,0,0,1,23.3.8l1.2,25.4-23.3,37.8L529.2,564l-17.6-30.3Z" transform="translate(-138.6 -125.4)"/><path class="cls-46" d="M543.4,498.2c-14.3-.3-19.5,18.6-19.5,18.6s-9.1-17.5-23-14.2c-16.2,3.8-13.8,28.9-1.3,41.8s23.9,14.3,29.6,19.6c4.4-6.4,15.1-10,24.5-25.1S560,498.7,543.4,498.2Z" transform="translate(-138.6 -125.4)"/><path class="cls-15" d="M551.9,501.3s11.1-1,14,.3c0,0,4.8,5.4,5,12.4l-12.4-1S556.5,503.8,551.9,501.3Z" transform="translate(-138.6 -125.4)"/><ellipse class="cls-47" cx="593" cy="326.6" rx="53.7" ry="36.1" transform="matrix(0.07, -1, 1, 0.07, 86.95, 769.74)"/><path class="cls-48" d="M569,378.7s14.8,2.7,24.9,1.3,21.4-65.7,21.4-65.7l-13.2-40.4s-21.2-6.9-33.7-1.6S569,378.7,569,378.7Z" transform="translate(-138.6 -125.4)"/><path class="cls-49" d="M608.8,327.7c-2.1,29.6-19.9,52.4-39.8,51s-34.4-26.5-32.3-56.1,19.9-52.5,39.8-51S610.9,298.1,608.8,327.7Z" transform="translate(-138.6 -125.4)"/><path class="cls-50" d="M599.2,337.7a65.9,65.9,0,0,1-5,12.9c-4.7,9.4-13.1,20.2-26.4,19.2-9.6-.7-15.4-6.4-19-13.1h0c-5.3-10.1-5.4-22.3-5.4-22.3Z" transform="translate(-138.6 -125.4)"/><path class="cls-20" d="M578.2,322.3s12.2-6.5,23.3-1.5l.3-4.7s-14.9-4.9-23.4,4.2Z" transform="translate(-138.6 -125.4)"/><path class="cls-20" d="M561.5,321.1s-8.2-7.9-16.9-4.3l.3-4.7s11.6-3,16.7,7.1Z" transform="translate(-138.6 -125.4)"/><path class="cls-15" d="M601.5,290.2s12.9-1,20.3,1.4c0,0-4.6-7.4-9.4-11.9a99.3,99.3,0,0,0-23.6-3.9S597.6,281,601.5,290.2Z" transform="translate(-138.6 -125.4)"/><path class="cls-51" d="M581.7,376.2s7.3,2.4,20.3,1.5a39.8,39.8,0,0,0,11.1-8.3s-8.5-1.3-18.4-3.5C594.7,365.9,588.8,373,581.7,376.2Z" transform="translate(-138.6 -125.4)"/><path class="cls-21" d="M547.7,334.6s.3,33.3,20.1,35.2c23.6,2.4,31.4-32.1,31.4-32.1Z" transform="translate(-138.6 -125.4)"/><polygon class="cls-52" points="571 29.6 585.9 40.5 593.6 113.7 507.3 141.1 497.8 155.7 491.2 151.3 475.5 77.5 571 29.6"/><polygon class="cls-53" points="491.2 151.3 473.5 68.6 571 29.6 581.6 106.7 499.4 134.4 491.2 151.3"/><polygon class="cls-54" points="581.6 106.7 593.6 113.7 507.3 141.1 499.4 134.4 581.6 106.7"/><ellipse class="cls-55" cx="644.1" cy="217" rx="5" ry="6.7" transform="translate(-173.7 65.7) rotate(-16.4)"/><path class="cls-21" d="M668.4,209.1c1.1,3.6-.2,7.1-2.9,7.9s-5.6-1.5-6.7-5,.3-7.1,2.9-7.9S667.4,205.6,668.4,209.1Z" transform="translate(-138.6 -125.4)"/><path class="cls-21" d="M689.5,202.9c1,3.6-.3,7.1-2.9,7.9s-5.7-1.5-6.7-5,.2-7.1,2.9-7.9S688.4,199.4,689.5,202.9Z" transform="translate(-138.6 -125.4)"/><polygon class="cls-56" points="606.6 495.6 611.8 416.2 730.8 397.6 726 489.8 606.6 495.6"/><polygon class="cls-57" points="730.8 397.6 739.4 404.6 733.3 491.9 726 489.8 730.8 397.6"/><path class="cls-58" d="M869.5,523l-10.7,16.2s-50.7,38.9-61.1,39.7c-7.7.6-44.2-21.9-44.2-21.9l-3-15.3,1.8,16.2s16.5,12.3,30.3,20.7L745.3,621h2.1L785,580c6.3,3.6,11.7,6.2,14.2,5.9s10.3-5.2,19.2-11.7l46.2,41,.2-2.5-44-40.2c17.9-13.4,39.9-31.9,39.9-31.9Z" transform="translate(-138.6 -125.4)"/><polygon class="cls-59" points="733.3 491.9 726.1 487.3 606.6 495.6 611.7 496.4 733.3 491.9"/></g></g></svg>