<svg xmlns="http://www.w3.org/2000/svg" xmlns:xlink="http://www.w3.org/1999/xlink" viewBox="0 0 859.5 812.9"><defs><style>.cls-1{isolation:isolate;}.cls-2{opacity:0.2;}.cls-3{fill:url(#linear-gradient);}.cls-4{fill:url(#linear-gradient-2);}.cls-5{fill:url(#linear-gradient-3);}.cls-6{fill:url(#linear-gradient-4);}.cls-7{fill:url(#linear-gradient-5);}.cls-8{fill:url(#linear-gradient-6);}.cls-9{fill:url(#linear-gradient-7);}.cls-10{fill:url(#linear-gradient-8);}.cls-11,.cls-12,.cls-14,.cls-15,.cls-16,.cls-17,.cls-18,.cls-19,.cls-20,.cls-21,.cls-22{fill-rule:evenodd;}.cls-11{opacity:0.58;fill:url(#Áåçûìÿííûé_ãðàäèåíò_86);}.cls-12{fill:url(#linear-gradient-9);}.cls-13{fill:url(#linear-gradient-10);}.cls-14{fill:url(#Áåçûìÿííûé_ãðàäèåíò_7);}.cls-15{fill:url(#linear-gradient-11);}.cls-16{fill:url(#linear-gradient-12);}.cls-17{fill:url(#linear-gradient-13);}.cls-18{fill:#792a7c;}.cls-18,.cls-22{opacity:0.3;mix-blend-mode:multiply;}.cls-19{fill:#fbf9fa;opacity:0.5;}.cls-20{fill:url(#linear-gradient-14);}.cls-21{fill:url(#Áåçûìÿííûé_ãðàäèåíò_36);}.cls-22{fill:#262262;}.cls-23{fill:#a02755;}.cls-24{fill:url(#linear-gradient-15);}</style><linearGradient id="linear-gradient" x1="320.78" y1="-42.42" x2="805.96" y2="1221.47" gradientUnits="userSpaceOnUse"><stop offset="0" stop-color="#e56ba6"/><stop offset="0.99" stop-color="#713592"/></linearGradient><linearGradient id="linear-gradient-2" x1="325.43" y1="45.62" x2="810.62" y2="1309.51" gradientTransform="translate(-92.1 6.7) rotate(-10)" xlink:href="#linear-gradient"/><linearGradient id="linear-gradient-3" x1="993.55" y1="115.57" x2="510.36" y2="355.17" gradientUnits="userSpaceOnUse"><stop offset="0" stop-color="#7d287a"/><stop offset="0.25" stop-color="#612a78"/><stop offset="0.52" stop-color="#4a2b77"/><stop offset="0.78" stop-color="#3c2c76"/><stop offset="1" stop-color="#372c76"/></linearGradient><linearGradient id="linear-gradient-4" x1="922.93" y1="-26.85" x2="439.74" y2="212.74" xlink:href="#linear-gradient-3"/><linearGradient id="linear-gradient-5" x1="967.27" y1="62.57" x2="484.08" y2="302.17" xlink:href="#linear-gradient-3"/><linearGradient id="linear-gradient-6" x1="944.47" y1="16.58" x2="461.28" y2="256.18" xlink:href="#linear-gradient-3"/><linearGradient id="linear-gradient-7" x1="892.77" y1="-87.68" x2="409.58" y2="151.92" xlink:href="#linear-gradient-3"/><linearGradient id="linear-gradient-8" x1="1007.74" y1="24.75" x2="219.07" y2="310.28" gradientUnits="userSpaceOnUse"><stop offset="0" stop-color="#ffd587"/><stop offset="0.41" stop-color="#ea9f74"/><stop offset="0.8" stop-color="#d87164"/><stop offset="1" stop-color="#d15f5e"/></linearGradient><linearGradient id="Áåçûìÿííûé_ãðàäèåíò_86" x1="547.31" y1="750.89" x2="547.31" y2="757.21" gradientTransform="translate(-176.5 133.6) rotate(-17.2)" gradientUnits="userSpaceOnUse"><stop offset="0" stop-color="#f8f0f4"/><stop offset="0.98" stop-color="#cec4de"/></linearGradient><linearGradient id="linear-gradient-9" x1="284.52" y1="829.19" x2="875.6" y2="916.37" gradientTransform="translate(-176.5 133.6) rotate(-17.2)" xlink:href="#linear-gradient-3"/><linearGradient id="linear-gradient-10" x1="456.39" y1="515.52" x2="839.75" y2="973.76" gradientTransform="translate(237.9 -151.5) rotate(17.2)" xlink:href="#linear-gradient-8"/><linearGradient id="Áåçûìÿííûé_ãðàäèåíò_7" x1="959.98" y1="737.81" x2="661.48" y2="582.07" gradientUnits="userSpaceOnUse"><stop offset="0.01" stop-color="#713592"/><stop offset="1" stop-color="#5178fe"/></linearGradient><linearGradient id="linear-gradient-11" x1="641.04" y1="509.34" x2="499.95" y2="495.36" xlink:href="#linear-gradient-3"/><linearGradient id="linear-gradient-12" x1="620.74" y1="717.93" x2="942.37" y2="717.93" gradientUnits="userSpaceOnUse"><stop offset="0" stop-color="#f79420"/><stop offset="0.4" stop-color="#de684b"/><stop offset="0.72" stop-color="#cf4c66"/><stop offset="0.9" stop-color="#c94270"/></linearGradient><linearGradient id="linear-gradient-13" x1="534.86" y1="553" x2="962.15" y2="708.74" gradientUnits="userSpaceOnUse"><stop offset="0" stop-color="#f79420"/><stop offset="0.4" stop-color="#f2684b"/><stop offset="0.72" stop-color="#ef4c66"/><stop offset="0.9" stop-color="#ee4270"/></linearGradient><linearGradient id="linear-gradient-14" x1="944.56" y1="428.89" x2="1284.13" y2="428.89" gradientTransform="matrix(-1, 0, 0, 1, 1284.13, -123.25)" gradientUnits="userSpaceOnUse"><stop offset="0" stop-color="#f6935b"/><stop offset="0.01" stop-color="#f4915c"/><stop offset="0.23" stop-color="#c16e6e"/><stop offset="0.43" stop-color="#9a537c"/><stop offset="0.62" stop-color="#7d3f86"/><stop offset="0.78" stop-color="#6c338c"/><stop offset="0.9" stop-color="#662f8e"/></linearGradient><linearGradient id="Áåçûìÿííûé_ãðàäèåíò_36" x1="1069.98" y1="563.29" x2="1128.79" y2="253.07" gradientTransform="matrix(-1, 0, 0, 1, 1284.13, -123.25)" gradientUnits="userSpaceOnUse"><stop offset="0.02" stop-color="#d4cbe2"/><stop offset="1" stop-color="#f3e6ee"/></linearGradient><linearGradient id="linear-gradient-15" x1="367.87" y1="239.66" x2="255.97" y2="544.84" xlink:href="#linear-gradient-13"/></defs><g class="cls-1"><g id="Layer_1" data-name="Layer 1"><g class="cls-2"><path class="cls-3" d="M294.7,887.7C148,787.7,120,454.4,278.6,304.8c167.6-158,681.2-21,684.7,250.8S443.5,989.2,294.7,887.7Z" transform="translate(-104.5 -123.3)"/><path class="cls-4" d="M381.8,144.9c-56.7-11.1-91.6,47.6-81.1,80s114.1-.1,124.5-18.9S397.4,147.9,381.8,144.9Z" transform="translate(-104.5 -123.3)"/></g><polygon class="cls-5" points="800.9 160.3 777.6 177 824.1 250.4 847 233.5 800.9 160.3"/><polygon class="cls-6" points="720.2 86.5 675.8 16.4 699.9 0 744 69.9 606.7 208.5 581.8 226.1 720.2 86.5"/><polygon class="cls-7" points="494.5 180.5 468.6 198.2 599.1 361.7 623.8 343.6 494.5 180.5"/><polygon class="cls-8" points="157.7 353.6 128.8 373.1 247.5 415.4 275.3 396 157.7 353.6"/><polygon class="cls-9" points="473.7 38.2 447.7 55.4 128.8 373.1 157.7 353.6 473.7 38.2"/><polygon class="cls-10" points="859.5 38 699.9 0 744 69.9 606.7 208.5 473.7 38.2 157.7 353.6 275.3 396 494.5 180.5 623.8 343.6 800.9 160.3 847 233.5 859.5 38"/><path class="cls-11" d="M572.1,691.4a3.2,3.2,0,0,1-2.1,4,3.1,3.1,0,0,1-3.9-2.1,3.1,3.1,0,0,1,6-1.9Z" transform="translate(-104.5 -123.3)"/><path class="cls-12" d="M333.9,800.6s7.5,48.8,63.6,97.8c0,0,96.2,73.7,285.6,15.2,175.3-54.2,232.2-173.2,232.2-173.2s13.2-57.1-7.7-117.1Z" transform="translate(-104.5 -123.3)"/><ellipse class="cls-13" cx="620.7" cy="712" rx="300.3" ry="134" transform="translate(-287.1 91.8) rotate(-17.2)"/><path class="cls-14" d="M620.7,712l68.5-176.7s139-28.9,223.4,27.7Z" transform="translate(-104.5 -123.3)"/><polygon class="cls-15" points="539.8 421.9 584.7 412 516.2 588.7 539.8 421.9"/><path class="cls-16" d="M620.7,712l201.9,50.5,20.1,65,38,.6s50.5-56.2,58.5-124.2c0,0,7-66,.1-96.1Z" transform="translate(-104.5 -123.3)"/><path class="cls-17" d="M620.7,712l258.8,30.4S992.2,636.5,912.6,563Z" transform="translate(-104.5 -123.3)"/><polygon class="cls-18" points="775 619.2 776.1 704.8 738.1 704.2 718.1 639.3 516.2 588.7 775 619.2"/><path class="cls-19" d="M475.2,867.4s75.9,14.1,181.7-18.6c110.7-34.2,165.7-86.3,165.7-86.3s-64.7,46.4-170,78.9S475.2,867.4,475.2,867.4Z" transform="translate(-104.5 -123.3)"/><polygon class="cls-20" points="29.9 153.6 0 186.9 142.3 457.7 320.3 428.1 339.6 416.3 29.9 153.6"/><polygon class="cls-21" points="339.6 416.3 232.2 150.7 29.9 153.6 153.3 441 339.6 416.3"/><polygon class="cls-22" points="239.7 369.6 144.6 422 52 205 162.6 180.6 239.7 369.6"/><path class="cls-23" d="M340.6,444.3c-2.8-11.5-5.6-19.6-8.3-24.5s-5.2-6.9-7.5-6.4a4.4,4.4,0,0,0-2.7,2.5,14.3,14.3,0,0,0-1.1,6.2,61.9,61.9,0,0,0,.8,10.5,154.2,154.2,0,0,0,3.2,15.5c2.8,11.7,5.6,20,8.4,24.8s5.3,7,7.5,6.4,3.5-3.6,3.7-9.2S343.4,455.9,340.6,444.3Zm-59.5-92.5a97.4,97.4,0,0,1,3.2,21.4,53.4,53.4,0,0,1-1.6,15.8,23.5,23.5,0,0,1-5.5,10.4,17.7,17.7,0,0,1-8.5,5,18.6,18.6,0,0,1-9.9-.4,23.4,23.4,0,0,1-9.7-6.6,52,52,0,0,1-8.7-13.2,99.8,99.8,0,0,1-7-20.7c-2.1-8.6-3.3-16-3.4-22.2a48.3,48.3,0,0,1,1.6-15.6,22,22,0,0,1,5.7-9.7,20.6,20.6,0,0,1,8.7-4.7,19.6,19.6,0,0,1,9.9.4,23.2,23.2,0,0,1,9.5,6.4,51.3,51.3,0,0,1,8.7,13.1A104.9,104.9,0,0,1,281.1,351.8Zm29.7-43.2c-1.3,10.8-2.6,22.8-3.8,36.2s-2.6,27.9-3.7,43.5S301,420.4,300,438s-1.9,35.8-2.7,55l-7.4-.3-6.5.2a22.8,22.8,0,0,0-5.8.9c1.4-9,2.7-18.9,4-29.8s2.4-22,3.5-33.4,2-23,2.9-34.6,1.6-22.7,2.1-33.4,1.1-20.6,1.3-29.7.4-17,.2-23.6Zm-45.7,47.2q-4.4-17.4-8.4-24.6c-2.8-4.8-5.2-6.9-7.4-6.4a4.3,4.3,0,0,0-2.8,2.5,13.2,13.2,0,0,0-1.1,6.1,63.7,63.7,0,0,0,.8,10.6c.7,4.3,1.8,9.5,3.2,15.6,2.9,11.6,5.7,19.8,8.5,24.7s5.3,7.2,7.5,6.6,3.5-3.7,3.6-9.4S267.9,367.2,265.1,355.8Zm91.7,84.6a103.8,103.8,0,0,1,3.2,21.4,53,53,0,0,1-1.6,15.8,23.2,23.2,0,0,1-5.6,10.3,18.2,18.2,0,0,1-8.6,4.9,17.7,17.7,0,0,1-9.9-.4,24.1,24.1,0,0,1-9.7-6.5c-3.1-3.2-5.9-7.6-8.7-13.2a104.9,104.9,0,0,1-7-20.6,108.5,108.5,0,0,1-3.4-22.1c-.1-6.2.4-11.4,1.7-15.5a21.8,21.8,0,0,1,5.7-9.8,18.4,18.4,0,0,1,18.6-4.4,22.2,22.2,0,0,1,9.6,6.4,51.3,51.3,0,0,1,8.7,13.1A102.7,102.7,0,0,1,356.8,440.4Z" transform="translate(-104.5 -123.3)"/><path class="cls-23" d="M341.2,443.7c-2.8-11.5-5.6-19.7-8.3-24.5s-5.2-7-7.5-6.5a4.7,4.7,0,0,0-2.7,2.5,15.9,15.9,0,0,0-1.2,6.3,76.7,76.7,0,0,0,.9,10.5c.6,4.3,1.7,9.4,3.2,15.5,2.8,11.8,5.6,20,8.4,24.9s5.3,7,7.5,6.4,3.5-3.6,3.7-9.2S344.1,455.3,341.2,443.7ZM281.6,351a98.3,98.3,0,0,1,3.2,21.4,50.9,50.9,0,0,1-1.6,15.9,23.5,23.5,0,0,1-5.5,10.4,17.7,17.7,0,0,1-8.5,5,18,18,0,0,1-10-.4,24,24,0,0,1-9.7-6.6,52.8,52.8,0,0,1-8.7-13.3,106,106,0,0,1-7-20.7c-2.1-8.6-3.3-16-3.4-22.2a48.3,48.3,0,0,1,1.6-15.6,21.8,21.8,0,0,1,5.7-9.8,20.4,20.4,0,0,1,8.7-4.6,18.5,18.5,0,0,1,9.9.3,24.1,24.1,0,0,1,9.6,6.4,53.9,53.9,0,0,1,8.7,13.2A102.7,102.7,0,0,1,281.6,351Zm29.8-43.3q-1.9,16.2-3.9,36.3c-1.3,13.4-2.5,27.9-3.7,43.5s-2.3,32.3-3.3,49.8-1.9,36-2.7,55.2l-7.4-.3c-2.1,0-4.2,0-6.5.2a22.8,22.8,0,0,0-5.8.9c1.4-9,2.7-19,4-29.8s2.4-22.1,3.5-33.6,2-23,2.9-34.6,1.6-22.8,2.2-33.5,1-20.6,1.2-29.7.4-17.1.2-23.7ZM265.5,355q-4.2-17.4-8.4-24.6c-2.7-4.8-5.2-7-7.4-6.4a4.2,4.2,0,0,0-2.7,2.4,15,15,0,0,0-1.2,6.2,66.3,66.3,0,0,0,.9,10.6c.6,4.3,1.7,9.5,3.2,15.6,2.8,11.6,5.6,19.9,8.4,24.8s5.3,7.1,7.6,6.6,3.4-3.7,3.6-9.4S268.3,366.5,265.5,355Zm92,84.8a110.9,110.9,0,0,1,3.2,21.5,56.5,56.5,0,0,1-1.6,15.8,24.8,24.8,0,0,1-5.6,10.3,18.1,18.1,0,0,1-8.7,4.9,17.7,17.7,0,0,1-9.9-.4,24.1,24.1,0,0,1-9.7-6.5,50.3,50.3,0,0,1-8.7-13.2,105.7,105.7,0,0,1-7.1-20.7,115,115,0,0,1-3.3-22.1,48,48,0,0,1,1.7-15.6,20.1,20.1,0,0,1,5.7-9.8,18.3,18.3,0,0,1,18.6-4.4,23.1,23.1,0,0,1,9.6,6.4,51.3,51.3,0,0,1,8.7,13.1A105.7,105.7,0,0,1,357.5,439.8Z" transform="translate(-104.5 -123.3)"/><path class="cls-23" d="M341.8,443.1c-2.8-11.5-5.5-19.7-8.3-24.6s-5.2-7-7.5-6.4a3.9,3.9,0,0,0-2.7,2.5,15.4,15.4,0,0,0-1.2,6.2,79.2,79.2,0,0,0,.9,10.6c.6,4.2,1.7,9.4,3.2,15.5q4.2,17.7,8.4,24.9c2.8,4.9,5.3,7,7.6,6.5s3.4-3.7,3.6-9.3S344.7,454.8,341.8,443.1Zm-59.7-92.9a99.1,99.1,0,0,1,3.2,21.5,49.9,49.9,0,0,1-1.6,15.8,23.9,23.9,0,0,1-5.5,10.5,17.7,17.7,0,0,1-18.5,4.6A23.4,23.4,0,0,1,250,396a55.7,55.7,0,0,1-8.8-13.3,111.4,111.4,0,0,1-7.1-20.8,110.2,110.2,0,0,1-3.4-22.3c-.1-6.2.4-11.4,1.7-15.6a21.5,21.5,0,0,1,5.8-9.8,19.3,19.3,0,0,1,8.7-4.6,17.7,17.7,0,0,1,9.9.4,22.2,22.2,0,0,1,9.6,6.4,50.3,50.3,0,0,1,8.7,13.2A102.7,102.7,0,0,1,282.1,350.2Zm29.8-43.4c-1.3,10.8-2.5,23-3.8,36.4s-2.6,28-3.7,43.6-2.3,32.3-3.3,49.9-1.9,36.1-2.7,55.3l-7.5-.3c-2.1,0-4.2,0-6.5.2a22.8,22.8,0,0,0-5.8.9c1.4-9,2.7-19,4-29.9s2.4-22.1,3.5-33.6,2.1-23.1,2.9-34.8,1.6-22.8,2.2-33.5,1-20.6,1.3-29.8.3-17,.2-23.7ZM266,354.2c-2.8-11.7-5.6-19.9-8.4-24.7s-5.3-6.9-7.4-6.4a4.4,4.4,0,0,0-2.8,2.4,15.4,15.4,0,0,0-1.2,6.2,81.9,81.9,0,0,0,.9,10.7c.6,4.3,1.7,9.5,3.2,15.6,2.8,11.6,5.7,19.9,8.5,24.9s5.3,7.1,7.5,6.6,3.5-3.7,3.7-9.4S268.8,365.7,266,354.2Zm92.1,85a98.2,98.2,0,0,1,3.2,21.5,49.9,49.9,0,0,1-1.6,15.8,22.6,22.6,0,0,1-5.6,10.3,17.6,17.6,0,0,1-8.6,5,18,18,0,0,1-10-.4,24.1,24.1,0,0,1-9.7-6.5,51,51,0,0,1-8.7-13.3,105.7,105.7,0,0,1-7.1-20.7,108.4,108.4,0,0,1-3.4-22.2c-.1-6.2.4-11.4,1.7-15.6a21.8,21.8,0,0,1,5.7-9.8,19.8,19.8,0,0,1,8.7-4.8,18.9,18.9,0,0,1,10,.4,23.4,23.4,0,0,1,9.7,6.4,52.9,52.9,0,0,1,8.6,13.2C353.8,424,356.1,430.9,358.1,439.2Z" transform="translate(-104.5 -123.3)"/><path class="cls-23" d="M342.5,442.5c-2.8-11.5-5.6-19.8-8.4-24.6s-5.2-7.1-7.5-6.5a4.5,4.5,0,0,0-2.8,2.5,16.2,16.2,0,0,0-1.1,6.3,63.5,63.5,0,0,0,.9,10.5c.6,4.3,1.7,9.5,3.2,15.6,2.8,11.8,5.6,20.1,8.4,25s5.3,7,7.6,6.4,3.5-3.6,3.7-9.2S345.3,454.2,342.5,442.5Zm-59.9-93.1a99.1,99.1,0,0,1,3.2,21.5,50.9,50.9,0,0,1-1.6,15.9,23.9,23.9,0,0,1-5.5,10.5,17.8,17.8,0,0,1-18.6,4.6,23.4,23.4,0,0,1-9.7-6.6,51.7,51.7,0,0,1-8.7-13.4,105.3,105.3,0,0,1-7.2-20.7,112.1,112.1,0,0,1-3.4-22.4c-.1-6.2.4-11.4,1.7-15.6a21,21,0,0,1,5.8-9.8,18.6,18.6,0,0,1,8.7-4.7,17.6,17.6,0,0,1,9.9.4,23.1,23.1,0,0,1,9.6,6.4,53,53,0,0,1,8.8,13.2A106,106,0,0,1,282.6,349.4Zm29.9-43.5c-1.3,10.8-2.6,23-3.9,36.5s-2.5,28-3.7,43.7-2.3,32.3-3.3,50-1.9,36.1-2.7,55.4l-7.5-.3c-2,0-4.2,0-6.5.2a22.8,22.8,0,0,0-5.8.9c1.4-9.1,2.7-19.1,4-30s2.4-22.1,3.5-33.6,2.1-23.2,2.9-34.9,1.6-22.8,2.2-33.6,1-20.7,1.3-29.8.3-17.1.2-23.8Zm-46,47.5c-2.9-11.7-5.7-19.9-8.5-24.7s-5.2-7-7.4-6.4a4.1,4.1,0,0,0-2.8,2.4,13.7,13.7,0,0,0-1.1,6.2,63.7,63.7,0,0,0,.8,10.6c.7,4.3,1.7,9.6,3.2,15.7,2.9,11.7,5.7,20,8.5,24.9s5.4,7.2,7.6,6.7,3.5-3.7,3.6-9.5S269.3,364.9,266.5,353.4Zm92.3,85.1a106.5,106.5,0,0,1,3.2,21.6,53.3,53.3,0,0,1-1.6,15.9,23.6,23.6,0,0,1-5.6,10.3,18.1,18.1,0,0,1-18.7,4.6,24.1,24.1,0,0,1-9.7-6.5,52.8,52.8,0,0,1-8.7-13.3,100.6,100.6,0,0,1-7.1-20.8,108.4,108.4,0,0,1-3.4-22.2,48.7,48.7,0,0,1,1.7-15.7,21.4,21.4,0,0,1,5.7-9.8,19.8,19.8,0,0,1,8.7-4.8,18.9,18.9,0,0,1,10,.4,22.8,22.8,0,0,1,9.7,6.4,52,52,0,0,1,8.7,13.2A105.7,105.7,0,0,1,358.8,438.5Z" transform="translate(-104.5 -123.3)"/><path class="cls-23" d="M343.1,441.9c-2.8-11.6-5.6-19.8-8.4-24.7s-5.2-7-7.5-6.5a4.3,4.3,0,0,0-2.8,2.5,16.2,16.2,0,0,0-1.1,6.3,55.7,55.7,0,0,0,.9,10.6,157.3,157.3,0,0,0,3.1,15.6c2.9,11.8,5.8,20.2,8.5,25s5.4,7.1,7.6,6.5,3.5-3.6,3.7-9.3S345.9,453.6,343.1,441.9Zm-60-93.3a107.4,107.4,0,0,1,3.3,21.6,53.8,53.8,0,0,1-1.7,15.9,23.9,23.9,0,0,1-5.5,10.5,17.8,17.8,0,0,1-18.6,4.6,23.6,23.6,0,0,1-9.8-6.6,53.5,53.5,0,0,1-8.7-13.4c-2.8-5.6-5.1-12.6-7.2-20.8a112.1,112.1,0,0,1-3.4-22.4c-.1-6.3.4-11.5,1.7-15.7a21,21,0,0,1,5.8-9.8,20,20,0,0,1,8.7-4.7,17.6,17.6,0,0,1,9.9.4,22.8,22.8,0,0,1,9.7,6.4,52.8,52.8,0,0,1,8.7,13.3C278.8,333.4,281.1,340.4,283.1,348.6Zm30-43.6q-2,16.3-3.9,36.6c-1.3,13.5-2.6,28.1-3.7,43.8s-2.3,32.4-3.3,50.1-2,36.2-2.8,55.5l-7.5-.3c-2,0-4.2,0-6.5.2a22.8,22.8,0,0,0-5.8.9c1.4-9.1,2.7-19.1,4-30s2.4-22.2,3.5-33.8,2.1-23.2,2.9-34.9,1.6-22.9,2.2-33.6,1-20.8,1.3-30,.3-17.1.2-23.8Zm-46.2,47.6c-2.8-11.7-5.6-20-8.4-24.8s-5.3-6.9-7.5-6.4a4.6,4.6,0,0,0-2.8,2.4,14.3,14.3,0,0,0-1.1,6.2,56.7,56.7,0,0,0,.9,10.7c.6,4.3,1.7,9.6,3.2,15.7,2.8,11.7,5.7,20,8.5,25s5.3,7.2,7.6,6.6,3.4-3.7,3.6-9.4S269.7,364.2,266.9,352.6Zm92.5,85.3a107.2,107.2,0,0,1,3.3,21.7,57.7,57.7,0,0,1-1.6,15.9,24.3,24.3,0,0,1-5.7,10.3,18.3,18.3,0,0,1-8.7,5,18,18,0,0,1-10-.4,24.1,24.1,0,0,1-9.7-6.5,54.5,54.5,0,0,1-8.8-13.4,104.5,104.5,0,0,1-7.1-20.8,110.4,110.4,0,0,1-3.4-22.2c-.1-6.3.4-11.5,1.7-15.7a21.9,21.9,0,0,1,5.8-9.9,18.7,18.7,0,0,1,8.7-4.8,18,18,0,0,1,10,.4,22.8,22.8,0,0,1,9.7,6.4,52.8,52.8,0,0,1,8.7,13.3C355.1,422.7,357.4,429.7,359.4,437.9Z" transform="translate(-104.5 -123.3)"/><path class="cls-23" d="M343.7,441.3c-2.8-11.6-5.6-19.9-8.4-24.7s-5.2-7.1-7.5-6.6a4.4,4.4,0,0,0-2.8,2.6,16.2,16.2,0,0,0-1.1,6.3,63.7,63.7,0,0,0,.8,10.6c.7,4.3,1.7,9.5,3.2,15.6,2.9,11.9,5.8,20.2,8.6,25.1s5.3,7,7.5,6.5,3.5-3.7,3.7-9.3S346.6,453,343.7,441.3Zm-60.1-93.5a107.4,107.4,0,0,1,3.3,21.6,54.5,54.5,0,0,1-1.7,16,23.9,23.9,0,0,1-5.5,10.5,17.6,17.6,0,0,1-8.6,5,18.4,18.4,0,0,1-10.1-.4,23.4,23.4,0,0,1-9.7-6.6,51,51,0,0,1-8.8-13.4,107.6,107.6,0,0,1-7.2-20.9,113.2,113.2,0,0,1-3.4-22.4c-.1-6.3.4-11.5,1.7-15.8a21,21,0,0,1,5.8-9.8,20,20,0,0,1,8.7-4.7,18,18,0,0,1,10,.4,23.4,23.4,0,0,1,9.7,6.4,52.8,52.8,0,0,1,8.7,13.3A98.5,98.5,0,0,1,283.6,347.8Zm30-43.7q-2,16.3-3.9,36.6c-1.3,13.6-2.5,28.2-3.7,43.9s-2.3,32.5-3.3,50.3-1.9,36.2-2.7,55.6l-7.5-.3c-2.1,0-4.3,0-6.6.2a22.8,22.8,0,0,0-5.8.9c1.4-9.1,2.7-19.1,4-30.1s2.4-22.2,3.5-33.8,2.1-23.3,3-35,1.5-22.9,2.1-33.7,1.1-20.8,1.3-30,.4-17.2.2-23.9Zm-46.2,47.7c-2.9-11.7-5.7-20-8.5-24.8s-5.3-7-7.4-6.5a4.3,4.3,0,0,0-2.8,2.5,15,15,0,0,0-1.2,6.2,66.5,66.5,0,0,0,.9,10.7c.6,4.3,1.7,9.6,3.2,15.7,2.9,11.7,5.7,20.1,8.5,25.1s5.4,7.2,7.6,6.6,3.5-3.7,3.7-9.5S270.2,363.4,267.4,351.8Zm92.7,85.5a99.8,99.8,0,0,1,3.2,21.7,50.6,50.6,0,0,1-1.6,15.9,23,23,0,0,1-5.6,10.4,19.3,19.3,0,0,1-8.7,5,18,18,0,0,1-10-.4,23,23,0,0,1-9.8-6.6,53.7,53.7,0,0,1-8.8-13.3,105.7,105.7,0,0,1-7.1-20.9,110.2,110.2,0,0,1-3.4-22.3,48.7,48.7,0,0,1,1.7-15.7,22.7,22.7,0,0,1,5.7-9.9,19.6,19.6,0,0,1,8.8-4.8,18,18,0,0,1,10,.4,22.8,22.8,0,0,1,9.7,6.4,52.9,52.9,0,0,1,8.8,13.3A104.5,104.5,0,0,1,360.1,437.3Z" transform="translate(-104.5 -123.3)"/><path class="cls-23" d="M344.4,440.7c-2.9-11.6-5.7-19.9-8.4-24.8s-5.3-7.1-7.6-6.5a4.3,4.3,0,0,0-2.8,2.5,14.5,14.5,0,0,0-1.1,6.3,64.8,64.8,0,0,0,.8,10.7c.7,4.2,1.7,9.5,3.2,15.7,2.9,11.8,5.8,20.1,8.6,25s5.3,7.1,7.6,6.5,3.5-3.6,3.7-9.3S347.2,452.4,344.4,440.7ZM284.1,347a107.2,107.2,0,0,1,3.3,21.7,53.8,53.8,0,0,1-1.7,15.9,23.7,23.7,0,0,1-5.5,10.6,17.5,17.5,0,0,1-8.7,5,18,18,0,0,1-10-.4,23.6,23.6,0,0,1-9.8-6.6,52.5,52.5,0,0,1-8.8-13.5c-2.8-5.6-5.1-12.6-7.2-20.9a113,113,0,0,1-3.4-22.5,48.7,48.7,0,0,1,1.7-15.7,21.9,21.9,0,0,1,5.8-9.9,20.4,20.4,0,0,1,8.8-4.7,17.6,17.6,0,0,1,9.9.4,23.1,23.1,0,0,1,9.7,6.5c3.2,3.2,6.1,7.7,8.8,13.3A104.5,104.5,0,0,1,284.1,347Zm30.1-43.8c-1.3,10.9-2.6,23.2-3.9,36.7s-2.6,28.2-3.8,44-2.3,32.6-3.3,50.3-1.9,36.4-2.7,55.8l-7.5-.3c-2.1,0-4.3,0-6.6.2a22.8,22.8,0,0,0-5.8.9c1.4-9.1,2.7-19.2,4-30.2s2.4-22.2,3.5-33.8,2.1-23.4,3-35.1,1.6-23,2.2-33.8,1-20.8,1.3-30.1.3-17.2.1-23.9ZM267.9,351c-2.9-11.7-5.7-20-8.5-24.9s-5.3-7-7.5-6.4a4.4,4.4,0,0,0-2.8,2.4,15.9,15.9,0,0,0-1.2,6.3,81.9,81.9,0,0,0,.9,10.7c.7,4.3,1.7,9.6,3.2,15.7,2.9,11.8,5.7,20.1,8.6,25.1s5.3,7.2,7.6,6.7,3.5-3.7,3.7-9.5S270.7,362.6,267.9,351Zm92.9,85.7a106.4,106.4,0,0,1,3.2,21.7,54.4,54.4,0,0,1-1.6,16,24.7,24.7,0,0,1-5.7,10.4,18.3,18.3,0,0,1-8.7,5,18,18,0,0,1-10-.4,23.6,23.6,0,0,1-9.8-6.6,50.1,50.1,0,0,1-8.8-13.4,112.1,112.1,0,0,1-7.2-20.9,110.2,110.2,0,0,1-3.4-22.3c-.1-6.3.4-11.5,1.7-15.8a21.9,21.9,0,0,1,5.8-9.9,19.6,19.6,0,0,1,8.8-4.8,18,18,0,0,1,10,.4,23.1,23.1,0,0,1,9.8,6.4,52.8,52.8,0,0,1,8.7,13.3C356.4,421.4,358.7,428.4,360.8,436.7Z" transform="translate(-104.5 -123.3)"/><path class="cls-23" d="M345,440.1q-4.3-17.6-8.4-24.9c-2.8-4.9-5.3-7.1-7.6-6.5a4.3,4.3,0,0,0-2.8,2.5,15,15,0,0,0-1.1,6.4,63.7,63.7,0,0,0,.8,10.6c.6,4.3,1.7,9.6,3.2,15.8,2.9,11.8,5.8,20.2,8.6,25.1s5.3,7.1,7.6,6.5,3.5-3.7,3.7-9.3S347.8,451.8,345,440.1Zm-60.4-93.9a108.2,108.2,0,0,1,3.3,21.7,54.5,54.5,0,0,1-1.7,16,24.7,24.7,0,0,1-5.5,10.6,17.7,17.7,0,0,1-8.7,5.1,18,18,0,0,1-10-.5,23.9,23.9,0,0,1-9.9-6.6,55.3,55.3,0,0,1-8.8-13.5,124.8,124.8,0,0,1-10.6-43.5,49.3,49.3,0,0,1,1.7-15.8,21,21,0,0,1,5.8-9.8,19.6,19.6,0,0,1,8.8-4.8,18.9,18.9,0,0,1,10,.4,23.7,23.7,0,0,1,9.7,6.5,52.9,52.9,0,0,1,8.8,13.3A105.7,105.7,0,0,1,284.6,346.2Zm30.2-43.9c-1.4,11-2.7,23.2-4,36.8s-2.5,28.3-3.7,44.1-2.3,32.6-3.3,50.4-1.9,36.4-2.8,55.9l-7.5-.3c-2.1,0-4.3,0-6.6.2a22.8,22.8,0,0,0-5.8.9c1.4-9.1,2.7-19.2,4-30.2s2.4-22.3,3.5-34,2.1-23.3,3-35.1,1.6-23,2.2-33.9,1-20.9,1.3-30.1.3-17.2.2-24Zm-46.5,47.9c-2.8-11.8-5.7-20.1-8.5-24.9s-5.3-7-7.5-6.5a4.5,4.5,0,0,0-2.8,2.5,13.7,13.7,0,0,0-1.1,6.2,66.6,66.6,0,0,0,.8,10.8c.7,4.3,1.8,9.6,3.3,15.8,2.8,11.7,5.7,20.1,8.5,25.1s5.4,7.2,7.7,6.7,3.5-3.7,3.6-9.5S271.2,361.9,268.3,350.2Zm93.1,85.9a107.2,107.2,0,0,1,3.3,21.7,54.8,54.8,0,0,1-1.7,16.1,24.1,24.1,0,0,1-5.6,10.4,19.1,19.1,0,0,1-8.8,5,17.2,17.2,0,0,1-10-.5,22.4,22.4,0,0,1-9.8-6.5,51.8,51.8,0,0,1-8.8-13.4,102.4,102.4,0,0,1-7.2-21,110.2,110.2,0,0,1-3.4-22.3,49,49,0,0,1,1.7-15.8,21.7,21.7,0,0,1,5.8-10,19.1,19.1,0,0,1,8.8-4.8,18,18,0,0,1,10,.4,22.4,22.4,0,0,1,9.8,6.5,53.7,53.7,0,0,1,8.8,13.3A105.7,105.7,0,0,1,361.4,436.1Z" transform="translate(-104.5 -123.3)"/><path class="cls-23" d="M345.6,439.5c-2.8-11.7-5.7-20-8.4-24.9s-5.3-7.1-7.6-6.6a4.4,4.4,0,0,0-2.8,2.6,15.9,15.9,0,0,0-1.2,6.3,80.5,80.5,0,0,0,.9,10.7c.6,4.3,1.7,9.6,3.2,15.8,2.9,11.8,5.8,20.2,8.6,25.1s5.4,7.1,7.6,6.6,3.5-3.7,3.7-9.4S348.5,451.3,345.6,439.5Zm-60.5-94.1a101.5,101.5,0,0,1,3.3,21.7,58.8,58.8,0,0,1-1.6,16.1,26.6,26.6,0,0,1-5.6,10.6,17.7,17.7,0,0,1-8.7,5.1,18.4,18.4,0,0,1-10.1-.5,23.6,23.6,0,0,1-9.8-6.6,52.6,52.6,0,0,1-8.9-13.5,124.6,124.6,0,0,1-10.6-43.6,49,49,0,0,1,1.7-15.8c1.3-4.3,3.2-7.6,5.8-9.9a19.6,19.6,0,0,1,8.8-4.8,18.9,18.9,0,0,1,10,.4,23.3,23.3,0,0,1,9.8,6.5,54.5,54.5,0,0,1,8.8,13.4A105.7,105.7,0,0,1,285.1,345.4Zm30.2-44q-1.9,16.5-3.9,36.9c-1.3,13.6-2.6,28.3-3.8,44.2s-2.3,32.7-3.3,50.5-1.9,36.5-2.7,56l-7.6-.3c-2.1,0-4.3,0-6.6.2a22.8,22.8,0,0,0-5.8.9c1.4-9.2,2.7-19.3,4-30.3s2.4-22.3,3.5-34,2.1-23.4,3-35.2,1.6-23.1,2.2-34,1-20.9,1.3-30.1.3-17.3.2-24.1Zm-46.5,48c-2.9-11.8-5.7-20.1-8.5-25s-5.3-7-7.5-6.4a4.3,4.3,0,0,0-2.9,2.4,14.5,14.5,0,0,0-1.1,6.3,56.7,56.7,0,0,0,.9,10.7c.6,4.4,1.7,9.7,3.2,15.9,2.9,11.8,5.7,20.2,8.6,25.2s5.4,7.2,7.6,6.7,3.5-3.8,3.7-9.6S271.6,361.1,268.8,349.4Zm93.3,86.1a100.7,100.7,0,0,1,3.2,21.8,51.2,51.2,0,0,1-1.6,16,23.1,23.1,0,0,1-5.7,10.5,17.9,17.9,0,0,1-18.8,4.5,23.3,23.3,0,0,1-9.8-6.5,53.7,53.7,0,0,1-8.9-13.4,108,108,0,0,1-7.1-21.1c-2.1-8.6-3.3-16.1-3.4-22.4a52.3,52.3,0,0,1,1.6-15.8,23.2,23.2,0,0,1,5.8-10,20.1,20.1,0,0,1,8.8-4.8,18.3,18.3,0,0,1,10.1.4,22.4,22.4,0,0,1,9.8,6.5,51.1,51.1,0,0,1,8.8,13.3A100.3,100.3,0,0,1,362.1,435.5Z" transform="translate(-104.5 -123.3)"/><path class="cls-23" d="M346.2,438.9c-2.8-11.7-5.6-20.1-8.4-25s-5.3-7.1-7.6-6.5a4,4,0,0,0-2.8,2.5,16.1,16.1,0,0,0-1.2,6.4,81.9,81.9,0,0,0,.9,10.7c.6,4.3,1.7,9.5,3.2,15.8,2.9,11.9,5.8,20.3,8.6,25.2s5.4,7.1,7.7,6.5,3.5-3.6,3.7-9.4S349.1,450.7,346.2,438.9Zm-60.6-94.3a102.3,102.3,0,0,1,3.3,21.8,55.5,55.5,0,0,1-1.6,16.1,26.6,26.6,0,0,1-5.6,10.6,17.7,17.7,0,0,1-8.7,5.1,18.4,18.4,0,0,1-10.1-.5,23.3,23.3,0,0,1-9.9-6.6,55.2,55.2,0,0,1-8.9-13.6,124.6,124.6,0,0,1-10.6-43.6,49.6,49.6,0,0,1,1.7-15.9,21.9,21.9,0,0,1,5.8-9.9,20.6,20.6,0,0,1,8.8-4.8,19.3,19.3,0,0,1,10.1.4,24.1,24.1,0,0,1,9.7,6.5,53.7,53.7,0,0,1,8.9,13.4A109.2,109.2,0,0,1,285.6,344.6Zm30.3-44.1c-1.3,11-2.6,23.3-3.9,37s-2.6,28.4-3.8,44.2-2.3,32.8-3.3,50.7-2,36.6-2.8,56.1l-7.6-.3H288a27.6,27.6,0,0,0-5.9,1c1.4-9.2,2.7-19.3,4-30.3s2.4-22.5,3.6-34.2,2-23.4,2.9-35.2,1.6-23.2,2.2-34,1-21,1.3-30.3.4-17.3.2-24.1Zm-46.6,48.1c-2.9-11.8-5.8-20.1-8.6-25s-5.3-7-7.5-6.5a4.3,4.3,0,0,0-2.8,2.5,15,15,0,0,0-1.2,6.2,57.7,57.7,0,0,0,.9,10.8c.6,4.4,1.7,9.7,3.2,15.9,2.9,11.8,5.8,20.2,8.6,25.2s5.4,7.3,7.7,6.7,3.5-3.7,3.7-9.5S272.1,360.3,269.3,348.6Zm93.4,86.2a103.1,103.1,0,0,1,3.3,21.9,55.1,55.1,0,0,1-1.6,16.1,24.1,24.1,0,0,1-5.7,10.4,17.9,17.9,0,0,1-18.9,4.6,24.3,24.3,0,0,1-9.8-6.5,52.6,52.6,0,0,1-8.9-13.5,116,116,0,0,1-7.2-21,113,113,0,0,1-3.4-22.5,50,50,0,0,1,1.7-15.9,22.3,22.3,0,0,1,5.8-10,19.6,19.6,0,0,1,8.8-4.8,18.3,18.3,0,0,1,10.1.4,22.4,22.4,0,0,1,9.8,6.5,51.9,51.9,0,0,1,8.9,13.4A105.7,105.7,0,0,1,362.7,434.8Z" transform="translate(-104.5 -123.3)"/><path class="cls-23" d="M346.9,438.3c-2.9-11.8-5.7-20.1-8.5-25s-5.3-7.2-7.6-6.6a4.3,4.3,0,0,0-2.8,2.5,16.9,16.9,0,0,0-1.2,6.4,56.7,56.7,0,0,0,.9,10.7c.6,4.4,1.7,9.6,3.2,15.9,2.9,11.9,5.8,20.3,8.6,25.3s5.4,7.1,7.7,6.5,3.5-3.7,3.7-9.4S349.7,450.1,346.9,438.3Zm-60.8-94.5a102.3,102.3,0,0,1,3.3,21.8,55.1,55.1,0,0,1-1.6,16.1,25.3,25.3,0,0,1-5.7,10.7,17.3,17.3,0,0,1-8.7,5.1,18.4,18.4,0,0,1-10.1-.5,24.6,24.6,0,0,1-9.9-6.6,58.2,58.2,0,0,1-8.9-13.6,114.6,114.6,0,0,1-7.2-21.1c-2.1-8.8-3.3-16.3-3.4-22.7a50,50,0,0,1,1.7-15.9,21.9,21.9,0,0,1,5.8-9.9,20.7,20.7,0,0,1,8.9-4.7,18.9,18.9,0,0,1,10,.3,23.6,23.6,0,0,1,9.8,6.6,51.9,51.9,0,0,1,8.9,13.4A104.6,104.6,0,0,1,286.1,343.8Zm30.3-44.2c-1.3,11-2.6,23.4-3.9,37s-2.6,28.5-3.8,44.4-2.3,32.8-3.3,50.8-1.9,36.6-2.8,56.2l-7.5-.3h-6.6a27.6,27.6,0,0,0-5.9,1c1.4-9.2,2.7-19.3,4-30.4s2.5-22.5,3.6-34.2,2.1-23.5,2.9-35.3,1.6-23.2,2.2-34.1,1.1-21,1.3-30.3.4-17.4.2-24.2Zm-46.7,48.2c-2.9-11.8-5.7-20.2-8.5-25.1s-5.4-7-7.6-6.5a4.5,4.5,0,0,0-2.8,2.5,15.9,15.9,0,0,0-1.2,6.3,83.2,83.2,0,0,0,.9,10.8c.7,4.4,1.7,9.7,3.3,15.9,2.9,11.8,5.7,20.3,8.6,25.3s5.4,7.3,7.7,6.7,3.5-3.7,3.7-9.6S272.6,359.5,269.7,347.8Zm93.7,86.4a110,110,0,0,1,3.3,21.9,55.5,55.5,0,0,1-1.7,16.2,22.2,22.2,0,0,1-5.7,10.4,17.5,17.5,0,0,1-8.8,5.1,18.4,18.4,0,0,1-10.1-.5,23.6,23.6,0,0,1-9.8-6.6c-3.2-3.2-6.1-7.7-8.9-13.4a103.5,103.5,0,0,1-7.2-21.1c-2.1-8.7-3.3-16.2-3.4-22.6a49,49,0,0,1,1.7-15.8,22.6,22.6,0,0,1,5.8-10.1,19.6,19.6,0,0,1,8.8-4.8,18.3,18.3,0,0,1,10.1.4c3.5,1,6.7,3.2,9.9,6.5a53.6,53.6,0,0,1,8.8,13.4A102.4,102.4,0,0,1,363.4,434.2Z" transform="translate(-104.5 -123.3)"/><path class="cls-23" d="M347.5,437.7c-2.9-11.8-5.7-20.1-8.5-25.1s-5.3-7.1-7.6-6.6a4.6,4.6,0,0,0-2.9,2.6,16.2,16.2,0,0,0-1.1,6.3,57,57,0,0,0,.9,10.8c.6,4.3,1.7,9.6,3.2,15.9,2.9,11.9,5.8,20.4,8.6,25.3s5.4,7.1,7.7,6.6,3.5-3.7,3.7-9.5S350.4,449.5,347.5,437.7ZM286.6,343a103.1,103.1,0,0,1,3.3,21.9,55.1,55.1,0,0,1-1.6,16.1,26,26,0,0,1-5.7,10.7,17.7,17.7,0,0,1-8.7,5.1,17.5,17.5,0,0,1-10.1-.5,23.3,23.3,0,0,1-9.9-6.6,52.5,52.5,0,0,1-8.9-13.6,108.4,108.4,0,0,1-7.3-21.2c-2.1-8.8-3.3-16.3-3.4-22.7a50,50,0,0,1,1.7-15.9,21.7,21.7,0,0,1,5.8-10,20.7,20.7,0,0,1,8.9-4.7,18.3,18.3,0,0,1,10.1.4c3.4,1,6.6,3.2,9.8,6.5a53.6,53.6,0,0,1,8.8,13.4A101.4,101.4,0,0,1,286.6,343ZM317,298.7c-1.3,11.1-2.6,23.4-3.9,37.1s-2.6,28.5-3.8,44.5-2.3,32.9-3.4,50.8-1.9,36.8-2.7,56.4l-7.6-.3H289a29.9,29.9,0,0,0-6,1c1.5-9.2,2.8-19.4,4.1-30.5s2.5-22.5,3.6-34.2,2.1-23.6,2.9-35.4,1.7-23.3,2.2-34.2,1.1-21,1.4-30.4.3-17.4.2-24.1ZM270.2,347c-2.9-11.8-5.8-20.2-8.6-25.1s-5.3-7.1-7.5-6.5a4.4,4.4,0,0,0-2.9,2.5,13.7,13.7,0,0,0-1.1,6.2,67,67,0,0,0,.8,10.9q1,6.6,3.3,15.9c2.9,11.9,5.8,20.3,8.6,25.4s5.5,7.2,7.7,6.7,3.6-3.8,3.7-9.6S273.1,358.8,270.2,347Zm93.9,86.6a102.3,102.3,0,0,1,3.2,22,51.9,51.9,0,0,1-1.6,16.1,25.1,25.1,0,0,1-5.7,10.5,18.4,18.4,0,0,1-8.8,5.1,18.8,18.8,0,0,1-10.2-.5,24.6,24.6,0,0,1-9.9-6.6,52.5,52.5,0,0,1-8.8-13.5,107.2,107.2,0,0,1-7.3-21.1,112.8,112.8,0,0,1-3.4-22.6,50,50,0,0,1,1.7-15.9,22.6,22.6,0,0,1,5.8-10,19.2,19.2,0,0,1,8.9-4.9,18.3,18.3,0,0,1,10.1.4,22.2,22.2,0,0,1,9.9,6.5,55.4,55.4,0,0,1,8.9,13.5A110.8,110.8,0,0,1,364.1,433.6Z" transform="translate(-104.5 -123.3)"/><path class="cls-23" d="M348.1,437.1c-2.9-11.8-5.7-20.2-8.5-25.2s-5.3-7.1-7.6-6.6a4.6,4.6,0,0,0-2.9,2.6,15,15,0,0,0-1.1,6.4,66.6,66.6,0,0,0,.8,10.8q1.1,6.4,3.3,15.9c2.9,11.9,5.8,20.4,8.6,25.4s5.4,7.1,7.7,6.6,3.6-3.8,3.8-9.5S351,448.9,348.1,437.1Zm-61-94.9a97.1,97.1,0,0,1,3.3,21.9,56.2,56.2,0,0,1-1.6,16.2,26,26,0,0,1-5.7,10.7,17.8,17.8,0,0,1-18.9,4.6,23.9,23.9,0,0,1-9.9-6.6,54.1,54.1,0,0,1-8.9-13.7,108.4,108.4,0,0,1-7.3-21.2c-2.1-8.8-3.3-16.3-3.4-22.7a50.3,50.3,0,0,1,1.7-16c1.3-4.2,3.2-7.6,5.8-9.9a19.9,19.9,0,0,1,8.9-4.8,18.3,18.3,0,0,1,10.1.4,22.4,22.4,0,0,1,9.8,6.5,50.1,50.1,0,0,1,8.9,13.5A101.4,101.4,0,0,1,287.1,342.2Zm30.5-44.4c-1.4,11.1-2.7,23.5-4,37.2s-2.6,28.6-3.8,44.6-2.3,32.9-3.3,50.9-2,36.8-2.8,56.5l-7.6-.3h-6.6a31.2,31.2,0,0,0-6,1c1.5-9.3,2.8-19.4,4.1-30.5s2.5-22.6,3.6-34.4,2.1-23.6,3-35.4,1.6-23.3,2.2-34.3,1-21.1,1.3-30.4.3-17.4.2-24.2Zm-46.9,48.4c-2.9-11.9-5.8-20.3-8.6-25.2s-5.4-7-7.6-6.5a4.6,4.6,0,0,0-2.9,2.5,14.5,14.5,0,0,0-1.1,6.3,59.3,59.3,0,0,0,.9,10.9c.6,4.4,1.7,9.7,3.2,15.9,2.9,11.9,5.8,20.4,8.7,25.4s5.4,7.3,7.7,6.8,3.5-3.8,3.7-9.6S273.5,358,270.7,346.2Zm94,86.8a103,103,0,0,1,3.3,22,55.5,55.5,0,0,1-1.6,16.2,24.2,24.2,0,0,1-5.8,10.5,18,18,0,0,1-8.8,5.1,18.8,18.8,0,0,1-10.2-.5,24.6,24.6,0,0,1-9.9-6.6,55.4,55.4,0,0,1-8.9-13.5,111.1,111.1,0,0,1-7.2-21.2c-2.1-8.7-3.3-16.3-3.4-22.6a50.3,50.3,0,0,1,1.7-16,21.7,21.7,0,0,1,5.8-10,19.2,19.2,0,0,1,8.9-4.9,18.3,18.3,0,0,1,10.1.4,22.2,22.2,0,0,1,9.9,6.5,52.6,52.6,0,0,1,8.9,13.5A101.4,101.4,0,0,1,364.7,433Z" transform="translate(-104.5 -123.3)"/><path class="cls-23" d="M348.7,436.4c-2.8-11.8-5.7-20.1-8.5-25.1s-5.3-7.2-7.6-6.6a4.4,4.4,0,0,0-2.9,2.5,15.3,15.3,0,0,0-1.1,6.4,65.2,65.2,0,0,0,.8,10.8c.7,4.4,1.8,9.7,3.3,16,2.9,12,5.8,20.5,8.6,25.4s5.5,7.2,7.8,6.6,3.5-3.7,3.7-9.5S351.6,448.4,348.7,436.4Zm-61.1-95a97.1,97.1,0,0,1,3.3,22,56.2,56.2,0,0,1-1.6,16.2,26,26,0,0,1-5.7,10.7,17.7,17.7,0,0,1-8.7,5.1,18.7,18.7,0,0,1-10.2-.4,24.8,24.8,0,0,1-10-6.8c-3.2-3.3-6.1-7.9-8.9-13.6a108.4,108.4,0,0,1-7.3-21.2c-2.1-8.9-3.3-16.5-3.4-22.8a50.3,50.3,0,0,1,1.7-16,21.7,21.7,0,0,1,5.8-10,20.2,20.2,0,0,1,9-4.8,18.4,18.4,0,0,1,10.1.4,23.3,23.3,0,0,1,9.8,6.5,56.4,56.4,0,0,1,8.9,13.5A102.5,102.5,0,0,1,287.6,341.4Zm30.5-44.5c-1.3,11.1-2.6,23.5-3.9,37.3s-2.6,28.6-3.8,44.6-2.4,33.1-3.4,51.1-1.9,36.9-2.8,56.5l-7.6-.2c-2.1-.1-4.3,0-6.6.1a31.2,31.2,0,0,0-6,1c1.5-9.3,2.8-19.5,4.1-30.6s2.5-22.6,3.6-34.4,2.1-23.7,3-35.6,1.6-23.3,2.2-34.3,1-21.1,1.3-30.5.4-17.4.2-24.2Zm-47,48.5c-2.9-11.9-5.8-20.3-8.6-25.2s-5.4-7.1-7.6-6.6a4.5,4.5,0,0,0-2.8,2.5,16.1,16.1,0,0,0-1.2,6.4,58.3,58.3,0,0,0,.9,10.8,143.4,143.4,0,0,0,3.3,16c2.9,11.9,5.8,20.4,8.6,25.5s5.5,7.3,7.8,6.7,3.5-3.7,3.7-9.6S274,357.2,271.1,345.4Zm94.3,87a109.8,109.8,0,0,1,3.3,22,52,52,0,0,1-1.7,16.2,23.9,23.9,0,0,1-5.7,10.6,18.1,18.1,0,0,1-19,4.6,24.2,24.2,0,0,1-10-6.6,54.2,54.2,0,0,1-8.9-13.6,102.5,102.5,0,0,1-7.2-21.2,107.7,107.7,0,0,1-3.5-22.7,50.6,50.6,0,0,1,1.7-16,22.4,22.4,0,0,1,5.9-10,18.7,18.7,0,0,1,8.9-4.9,18.3,18.3,0,0,1,10.1.4,23,23,0,0,1,10,6.5,55.4,55.4,0,0,1,8.9,13.5A115.9,115.9,0,0,1,365.4,432.4Z" transform="translate(-104.5 -123.3)"/><path class="cls-23" d="M349.4,435.8c-2.9-11.8-5.8-20.2-8.6-25.2s-5.4-7.2-7.7-6.6a4.4,4.4,0,0,0-2.8,2.6,16.1,16.1,0,0,0-1.2,6.4,83.2,83.2,0,0,0,.9,10.8c.7,4.4,1.8,9.7,3.3,16q4.3,18,8.7,25.5c2.8,4.9,5.4,7.1,7.7,6.6s3.6-3.7,3.7-9.5S352.3,447.8,349.4,435.8Zm-61.3-95.2a97.9,97.9,0,0,1,3.3,22,57,57,0,0,1-1.6,16.3,26,26,0,0,1-5.7,10.7,17.5,17.5,0,0,1-8.8,5.1,18.7,18.7,0,0,1-10.2-.4,24.5,24.5,0,0,1-9.9-6.8,53.4,53.4,0,0,1-9-13.6,111.9,111.9,0,0,1-7.3-21.3,118.6,118.6,0,0,1-3.5-22.9c-.1-6.3.4-11.7,1.8-16a21.7,21.7,0,0,1,5.8-10,20.2,20.2,0,0,1,9-4.8,18.3,18.3,0,0,1,10.1.4,24.6,24.6,0,0,1,9.9,6.6,55.4,55.4,0,0,1,8.9,13.5A102.5,102.5,0,0,1,288.1,340.6ZM318.7,296c-1.3,11.2-2.7,23.6-4,37.4s-2.6,28.7-3.8,44.7-2.3,33.1-3.3,51.2-2,36.9-2.8,56.6l-7.7-.2c-2.1-.1-4.3,0-6.6.1a31.2,31.2,0,0,0-6,1c1.5-9.3,2.8-19.5,4.1-30.7s2.5-22.6,3.6-34.4,2.1-23.7,3-35.7,1.6-23.4,2.2-34.3,1.1-21.2,1.3-30.6.4-17.5.2-24.3Zm-47.1,48.6c-2.9-11.9-5.8-20.3-8.6-25.2s-5.4-7.2-7.6-6.6a4.4,4.4,0,0,0-2.9,2.5,15.9,15.9,0,0,0-1.2,6.3,83.2,83.2,0,0,0,.9,10.9c.7,4.4,1.8,9.8,3.3,16.1q4.3,17.8,8.7,25.5c2.9,5,5.4,7.3,7.8,6.7s3.5-3.7,3.7-9.6S274.5,356.5,271.6,344.6Zm94.5,87.2a103.1,103.1,0,0,1,3.2,22.1,52.6,52.6,0,0,1-1.6,16.2,24,24,0,0,1-5.8,10.6,18,18,0,0,1-8.8,5.1,18.7,18.7,0,0,1-10.2-.5,24.2,24.2,0,0,1-10-6.6,56.1,56.1,0,0,1-8.9-13.6,111.9,111.9,0,0,1-7.3-21.3,106.8,106.8,0,0,1-3.4-22.7,50.3,50.3,0,0,1,1.7-16,22.1,22.1,0,0,1,5.8-10.1,19.5,19.5,0,0,1,9-4.9,18.7,18.7,0,0,1,10.2.4,23.6,23.6,0,0,1,9.9,6.6,52.6,52.6,0,0,1,8.9,13.5A106.1,106.1,0,0,1,366.1,431.8Z" transform="translate(-104.5 -123.3)"/><path class="cls-23" d="M350,435.2c-2.9-11.8-5.8-20.2-8.6-25.2s-5.4-7.2-7.7-6.7a4.4,4.4,0,0,0-2.8,2.6,16.5,16.5,0,0,0-1.2,6.4,83.2,83.2,0,0,0,.9,10.9c.7,4.3,1.7,9.7,3.3,16q4.4,18,8.7,25.5c2.8,5,5.4,7.2,7.7,6.7s3.6-3.8,3.8-9.6S352.9,447.2,350,435.2Zm-61.4-95.4a97.9,97.9,0,0,1,3.3,22,56.6,56.6,0,0,1-1.6,16.3,25.3,25.3,0,0,1-5.7,10.7,17,17,0,0,1-8.8,5.2,18.7,18.7,0,0,1-10.2-.4,23.8,23.8,0,0,1-10-6.8,52.4,52.4,0,0,1-9-13.7,107.2,107.2,0,0,1-7.3-21.3,118.6,118.6,0,0,1-3.5-22.9c-.1-6.4.4-11.7,1.7-16s3.3-7.7,6-10.1a19.9,19.9,0,0,1,8.9-4.8,18.7,18.7,0,0,1,10.2.4,23.6,23.6,0,0,1,9.8,6.6,52.7,52.7,0,0,1,9,13.5A103.6,103.6,0,0,1,288.6,339.8Zm30.7-44.7c-1.4,11.2-2.7,23.7-4,37.5s-2.6,28.7-3.8,44.8-2.4,33.2-3.4,51.3-2,37-2.8,56.7l-7.7-.2c-2.1-.1-4.3,0-6.6.1a31.2,31.2,0,0,0-6,1c1.5-9.3,2.8-19.6,4.1-30.7s2.5-22.7,3.6-34.6,2.1-23.7,3-35.7,1.6-23.4,2.2-34.4,1.1-21.2,1.4-30.6.3-17.6.1-24.4Zm-47.2,48.7c-3-11.9-5.8-20.4-8.7-25.3s-5.4-7.1-7.6-6.6a4.7,4.7,0,0,0-2.9,2.5,14.7,14.7,0,0,0-1.1,6.4,67.8,67.8,0,0,0,.8,10.9c.7,4.4,1.8,9.8,3.3,16.1q4.3,17.8,8.7,25.5c2.9,5.1,5.5,7.4,7.8,6.8s3.6-3.8,3.7-9.7S274.9,355.7,272.1,343.8Zm94.6,87.4a110.7,110.7,0,0,1,3.3,22.1,56.6,56.6,0,0,1-1.6,16.3,24.6,24.6,0,0,1-5.8,10.6,18.3,18.3,0,0,1-8.9,5.1,18.8,18.8,0,0,1-10.2-.5,24.2,24.2,0,0,1-10-6.6,54.1,54.1,0,0,1-8.9-13.7,101.2,101.2,0,0,1-7.3-21.3,107.7,107.7,0,0,1-3.5-22.7,50.9,50.9,0,0,1,1.7-16.1,22.2,22.2,0,0,1,5.9-10.1,19.1,19.1,0,0,1,19.2-4.5,23.6,23.6,0,0,1,9.9,6.6,50.1,50.1,0,0,1,8.9,13.5A101.2,101.2,0,0,1,366.7,431.2Z" transform="translate(-104.5 -123.3)"/><path class="cls-23" d="M350.6,434.6c-2.9-11.9-5.7-20.3-8.6-25.3s-5.4-7.2-7.7-6.6a4,4,0,0,0-2.8,2.5,17.1,17.1,0,0,0-1.2,6.5,67.6,67.6,0,0,0,.9,10.8,149.3,149.3,0,0,0,3.3,16.1c2.9,12,5.8,20.6,8.7,25.6s5.4,7.2,7.7,6.6,3.6-3.7,3.8-9.5S353.5,446.6,350.6,434.6ZM289.1,339a98.7,98.7,0,0,1,3.3,22.1,57,57,0,0,1-1.6,16.3,25.3,25.3,0,0,1-5.7,10.7,17.4,17.4,0,0,1-8.8,5.2,18.1,18.1,0,0,1-10.3-.4,23.8,23.8,0,0,1-10-6.8,52.4,52.4,0,0,1-9-13.7,110.7,110.7,0,0,1-7.3-21.4,117.4,117.4,0,0,1-3.5-22.9c-.1-6.4.4-11.8,1.7-16.1s3.3-7.7,6-10.1a19.9,19.9,0,0,1,8.9-4.8,18.7,18.7,0,0,1,10.2.4,24.6,24.6,0,0,1,9.9,6.6,55.3,55.3,0,0,1,9,13.6A101.5,101.5,0,0,1,289.1,339Zm30.7-44.8c-1.3,11.2-2.6,23.7-4,37.5s-2.6,28.9-3.8,45-2.3,33.2-3.4,51.3-1.9,37.1-2.8,56.9l-7.6-.2c-2.1-.1-4.4,0-6.7.1a31.2,31.2,0,0,0-6,1c1.5-9.3,2.8-19.6,4.1-30.8s2.5-22.7,3.6-34.6,2.1-23.8,3-35.8,1.6-23.5,2.2-34.5,1.1-21.3,1.4-30.7.3-17.6.2-24.4ZM272.5,343c-2.9-11.9-5.8-20.4-8.6-25.3s-5.4-7.2-7.7-6.6a4.3,4.3,0,0,0-2.8,2.5,13,13,0,0,0-1.2,6.3,60.2,60.2,0,0,0,.9,11,149.3,149.3,0,0,0,3.3,16.1c2.9,12,5.8,20.5,8.7,25.6s5.5,7.4,7.8,6.8,3.5-3.8,3.7-9.7S275.4,354.9,272.5,343Zm94.9,87.5a112.6,112.6,0,0,1,3.3,22.2A52.6,52.6,0,0,1,369,469a23.1,23.1,0,0,1-5.8,10.6,18,18,0,0,1-19.1,4.7,23.5,23.5,0,0,1-10-6.7,51.7,51.7,0,0,1-9-13.6,110.7,110.7,0,0,1-7.3-21.4c-2.1-8.8-3.3-16.4-3.4-22.8a51.3,51.3,0,0,1,1.7-16.1,22.2,22.2,0,0,1,5.9-10.1,20.1,20.1,0,0,1,8.9-4.9,19,19,0,0,1,10.3.4,23.9,23.9,0,0,1,9.9,6.6,51.7,51.7,0,0,1,9,13.6A108.4,108.4,0,0,1,367.4,430.5Z" transform="translate(-104.5 -123.3)"/><path class="cls-23" d="M351.2,434c-2.9-11.9-5.7-20.3-8.6-25.3s-5.4-7.3-7.7-6.7a4.2,4.2,0,0,0-2.8,2.6,16.5,16.5,0,0,0-1.2,6.4,58.6,58.6,0,0,0,.9,10.9,149.3,149.3,0,0,0,3.3,16.1c2.9,12.1,5.8,20.6,8.7,25.6s5.5,7.3,7.8,6.7,3.6-3.8,3.7-9.6S354.2,446,351.2,434Zm-61.6-95.8a98.7,98.7,0,0,1,3.3,22.1,53.9,53.9,0,0,1-1.6,16.4,25.3,25.3,0,0,1-5.7,10.7,17.4,17.4,0,0,1-8.8,5.2,18.1,18.1,0,0,1-10.3-.4,24.1,24.1,0,0,1-10.1-6.8,60.1,60.1,0,0,1-9-13.7,113.1,113.1,0,0,1-7.3-21.4,119.4,119.4,0,0,1-3.5-23c-.1-6.5.4-11.8,1.7-16.2s3.3-7.6,6-10a20.9,20.9,0,0,1,9-4.9,18.7,18.7,0,0,1,10.2.4,23.9,23.9,0,0,1,9.9,6.7,49.3,49.3,0,0,1,8.9,13.6A101.2,101.2,0,0,1,289.6,338.2Zm30.8-44.8c-1.4,11.1-2.7,23.7-4,37.5s-2.6,28.9-3.8,45-2.4,33.3-3.4,51.5-2,37.2-2.8,57l-7.7-.2c-2.1-.1-4.4,0-6.7.1a31.2,31.2,0,0,0-6,1c1.5-9.4,2.8-19.6,4.1-30.9s2.5-22.7,3.6-34.6,2.1-23.9,3-35.9,1.7-23.5,2.3-34.6,1-21.3,1.3-30.7.3-17.6.2-24.5ZM273,342.2c-2.9-12-5.8-20.4-8.7-25.4s-5.4-7.1-7.6-6.6a4.4,4.4,0,0,0-2.9,2.5,16.1,16.1,0,0,0-1.2,6.4,60.2,60.2,0,0,0,.9,11c.7,4.4,1.8,9.8,3.3,16.1,2.9,12,5.8,20.6,8.7,25.7s5.5,7.3,7.9,6.8,3.5-3.8,3.7-9.7S275.9,354.2,273,342.2Zm95,87.7a106.4,106.4,0,0,1,3.4,22.2,56.6,56.6,0,0,1-1.7,16.4,24,24,0,0,1-5.8,10.6,19.8,19.8,0,0,1-8.9,5.2,19.1,19.1,0,0,1-10.3-.5,23.5,23.5,0,0,1-10-6.7,52.4,52.4,0,0,1-9-13.7,108.4,108.4,0,0,1-7.3-21.4,116.6,116.6,0,0,1-3.5-22.8c-.1-6.4.4-11.8,1.7-16.1a22.7,22.7,0,0,1,6-10.2,20.1,20.1,0,0,1,8.9-4.9,19,19,0,0,1,10.3.4,24.2,24.2,0,0,1,10,6.6c3.2,3.3,6.1,7.9,8.9,13.6A101.2,101.2,0,0,1,368,429.9Z" transform="translate(-104.5 -123.3)"/><path class="cls-23" d="M351.9,433.4c-2.9-11.9-5.8-20.4-8.6-25.4s-5.5-7.3-7.8-6.7a4.8,4.8,0,0,0-2.9,2.6c-.7,1.4-1,3.6-1.1,6.5a59.3,59.3,0,0,0,.9,10.9,154.4,154.4,0,0,0,3.3,16.1c2.9,12.1,5.8,20.7,8.7,25.7s5.5,7.2,7.8,6.7,3.6-3.8,3.8-9.6S354.8,445.4,351.9,433.4Zm-61.7-96a112.6,112.6,0,0,1,3.3,22.2,57.4,57.4,0,0,1-1.7,16.4,25.3,25.3,0,0,1-5.7,10.7,18.6,18.6,0,0,1-8.9,5.3,19.1,19.1,0,0,1-10.3-.5,23.8,23.8,0,0,1-10-6.8,54.9,54.9,0,0,1-9-13.8,104,104,0,0,1-7.4-21.4,119.2,119.2,0,0,1-3.5-23.1,50.9,50.9,0,0,1,1.7-16.1c1.4-4.4,3.3-7.7,6-10.1a20.9,20.9,0,0,1,9-4.9,19.7,19.7,0,0,1,10.2.4,23.3,23.3,0,0,1,9.9,6.7,53.4,53.4,0,0,1,9,13.6A110.3,110.3,0,0,1,290.2,337.4ZM321,292.5c-1.4,11.2-2.7,23.7-4,37.6s-2.7,28.9-3.9,45.1-2.3,33.4-3.4,51.6-1.9,37.3-2.8,57.1l-7.7-.2c-2.1-.1-4.4,0-6.7.1a25,25,0,0,0-6,1c1.4-9.4,2.8-19.7,4.1-30.9s2.5-22.9,3.6-34.8,2.2-23.9,3-35.9,1.7-23.6,2.3-34.7,1-21.3,1.3-30.8.4-17.6.2-24.5Zm-47.5,49q-4.5-18.2-8.7-25.5c-2.9-5-5.5-7.2-7.7-6.7a4.6,4.6,0,0,0-2.9,2.6,15.5,15.5,0,0,0-1.2,6.3,84.5,84.5,0,0,0,.9,11q1,6.8,3.3,16.2c3,12,5.9,20.6,8.8,25.7s5.5,7.4,7.8,6.8,3.6-3.8,3.8-9.7S276.4,353.4,273.5,341.5Zm95.2,87.8a105.5,105.5,0,0,1,3.3,22.3,57.3,57.3,0,0,1-1.6,16.4,24.1,24.1,0,0,1-5.9,10.6,18.8,18.8,0,0,1-8.9,5.2,19.1,19.1,0,0,1-10.3-.5,24.5,24.5,0,0,1-10-6.7,52.4,52.4,0,0,1-9-13.7,105.4,105.4,0,0,1-7.3-21.5,103.2,103.2,0,0,1-3.5-22.8,51.3,51.3,0,0,1,1.7-16.2,23.1,23.1,0,0,1,5.9-10.2,19.9,19.9,0,0,1,9-4.9,19,19,0,0,1,10.3.4,24.2,24.2,0,0,1,10,6.6,53.4,53.4,0,0,1,9,13.6A110.7,110.7,0,0,1,368.7,429.3Z" transform="translate(-104.5 -123.3)"/><path class="cls-23" d="M352.5,432.8c-2.9-11.9-5.8-20.4-8.6-25.5s-5.5-7.2-7.8-6.7a4.8,4.8,0,0,0-2.9,2.6,15.5,15.5,0,0,0-1.1,6.5,58.6,58.6,0,0,0,.9,10.9c.6,4.5,1.7,9.8,3.2,16.2,3,12.1,5.9,20.7,8.8,25.7s5.5,7.3,7.8,6.7,3.6-3.7,3.8-9.6S355.4,444.9,352.5,432.8Zm-61.8-96.2a112.6,112.6,0,0,1,3.3,22.2,57,57,0,0,1-1.7,16.4,25.2,25.2,0,0,1-5.7,10.8,18.6,18.6,0,0,1-8.9,5.3,19.1,19.1,0,0,1-10.3-.5,24.1,24.1,0,0,1-10.1-6.8,54.9,54.9,0,0,1-9-13.8,111.5,111.5,0,0,1-7.4-21.5,119.2,119.2,0,0,1-3.5-23.1,52,52,0,0,1,1.7-16.2,21.5,21.5,0,0,1,6-10.1,19.7,19.7,0,0,1,9-4.8,17.8,17.8,0,0,1,10.2.4c3.5,1,6.8,3.3,10,6.6a54.2,54.2,0,0,1,9,13.7A108,108,0,0,1,290.7,336.6Zm30.8-45c-1.3,11.2-2.7,23.8-4,37.7s-2.6,29-3.8,45.2-2.4,33.4-3.4,51.7-2,37.3-2.9,57.2l-7.7-.2c-2.1-.1-4.4,0-6.7.1a24.2,24.2,0,0,0-6,1c1.4-9.4,2.8-19.7,4.1-31s2.5-22.9,3.6-34.8,2.2-24,3.1-36,1.6-23.6,2.2-34.7,1.1-21.4,1.3-30.9.4-17.7.2-24.6Zm-47.6,49.1c-2.9-12.1-5.8-20.6-8.7-25.6s-5.4-7.2-7.7-6.6a4.6,4.6,0,0,0-2.9,2.5,14.7,14.7,0,0,0-1.1,6.4,68.2,68.2,0,0,0,.8,11c.7,4.5,1.8,9.9,3.4,16.2q4.4,18.1,8.7,25.8c2.9,5.1,5.6,7.4,7.9,6.8s3.6-3.8,3.7-9.7S276.8,352.6,273.9,340.7Zm95.5,88a113.5,113.5,0,0,1,3.3,22.3,53.3,53.3,0,0,1-1.7,16.4,24.4,24.4,0,0,1-5.8,10.7,19.8,19.8,0,0,1-8.9,5.2,19.4,19.4,0,0,1-10.4-.5,24.5,24.5,0,0,1-10-6.7,53.1,53.1,0,0,1-9-13.8,103,103,0,0,1-7.4-21.5,116.4,116.4,0,0,1-3.5-22.9c-.1-6.4.4-11.8,1.8-16.2a23.1,23.1,0,0,1,5.9-10.2,19.9,19.9,0,0,1,9-4.9,19,19,0,0,1,10.3.4,24.2,24.2,0,0,1,10,6.6,54.2,54.2,0,0,1,9,13.7A108,108,0,0,1,369.4,428.7Z" transform="translate(-104.5 -123.3)"/><path class="cls-23" d="M353.1,432.2c-2.9-12-5.8-20.5-8.6-25.5s-5.5-7.3-7.8-6.7a4.3,4.3,0,0,0-2.9,2.6,15.2,15.2,0,0,0-1.1,6.5,67.8,67.8,0,0,0,.8,10.9q1,6.6,3.3,16.2c3,12.2,5.9,20.8,8.8,25.8s5.5,7.3,7.9,6.7,3.6-3.8,3.8-9.6S356.1,444.3,353.1,432.2Zm-61.9-96.4a112.5,112.5,0,0,1,3.3,22.3,57,57,0,0,1-1.7,16.4,25.2,25.2,0,0,1-5.7,10.8,18.6,18.6,0,0,1-8.9,5.3,19.5,19.5,0,0,1-10.4-.5c-3.5-1.1-6.8-3.4-10.1-6.8a54.9,54.9,0,0,1-9-13.8,128.7,128.7,0,0,1-10.9-44.7,51.3,51.3,0,0,1,1.7-16.2,21.4,21.4,0,0,1,6-10.2,20.2,20.2,0,0,1,9-4.8,18.1,18.1,0,0,1,10.3.4,23.8,23.8,0,0,1,10,6.6,54.2,54.2,0,0,1,9,13.7A109.1,109.1,0,0,1,291.2,335.8Zm30.9-45.1c-1.4,11.2-2.7,23.8-4,37.8s-2.7,29-3.9,45.3-2.4,33.5-3.4,51.8-2,37.4-2.8,57.3l-7.8-.2c-2.1-.1-4.3,0-6.7.1a24.2,24.2,0,0,0-6,1c1.4-9.4,2.8-19.8,4.1-31.1s2.5-22.9,3.6-34.9,2.2-23.9,3.1-36,1.6-23.7,2.2-34.8,1.1-21.5,1.4-31,.3-17.7.2-24.6Zm-47.7,49.2c-3-12.1-5.9-20.6-8.7-25.6s-5.5-7.2-7.7-6.7a4.6,4.6,0,0,0-2.9,2.6c-.8,1.3-1.2,3.5-1.2,6.4a60.2,60.2,0,0,0,.9,11,145.8,145.8,0,0,0,3.3,16.2c2.9,12.1,5.9,20.7,8.8,25.9s5.5,7.4,7.9,6.8,3.5-3.8,3.7-9.8S277.3,351.8,274.4,339.9ZM370,428.1a107.3,107.3,0,0,1,3.4,22.3,57.3,57.3,0,0,1-1.7,16.5,24.4,24.4,0,0,1-5.8,10.7,19.6,19.6,0,0,1-9,5.2,19.1,19.1,0,0,1-10.3-.5,24.2,24.2,0,0,1-10.1-6.7,57.8,57.8,0,0,1-9.1-13.8,130.5,130.5,0,0,1-10.8-44.5,51.3,51.3,0,0,1,1.7-16.2,22.2,22.2,0,0,1,6-10.3,19.9,19.9,0,0,1,9-4.9,19,19,0,0,1,10.3.4,24.5,24.5,0,0,1,10.1,6.6,56,56,0,0,1,9,13.7A109.5,109.5,0,0,1,370,428.1Z" transform="translate(-104.5 -123.3)"/><path class="cls-23" d="M353.8,431.6c-3-12-5.9-20.5-8.7-25.6s-5.5-7.3-7.8-6.7a4.6,4.6,0,0,0-2.9,2.6,16.7,16.7,0,0,0-1.2,6.5,84.5,84.5,0,0,0,.9,11q1,6.6,3.3,16.2c3,12.2,5.9,20.8,8.8,25.8s5.6,7.3,7.9,6.8,3.6-3.8,3.8-9.7S356.7,443.7,353.8,431.6ZM291.7,335a113.5,113.5,0,0,1,3.3,22.3,58.1,58.1,0,0,1-1.7,16.5,25.2,25.2,0,0,1-5.7,10.8,18,18,0,0,1-19.3,4.8,24.1,24.1,0,0,1-10.1-6.8,53.9,53.9,0,0,1-9.1-13.9,110.3,110.3,0,0,1-7.4-21.6,112.9,112.9,0,0,1-3.5-23.1,52.3,52.3,0,0,1,1.7-16.3,21.8,21.8,0,0,1,6-10.2,20.6,20.6,0,0,1,9.1-4.8,18.7,18.7,0,0,1,10.2.4,24.4,24.4,0,0,1,10.1,6.7,52.4,52.4,0,0,1,9,13.7A106.9,106.9,0,0,1,291.7,335Zm30.9-45.2c-1.3,11.3-2.6,23.9-4,37.8s-2.6,29.2-3.8,45.4-2.4,33.6-3.5,51.9-1.9,37.5-2.8,57.5l-7.7-.2c-2.2-.1-4.4,0-6.8.1a24.2,24.2,0,0,0-6,1c1.4-9.4,2.8-19.8,4.1-31.1s2.5-23,3.7-35,2.1-24,3-36.1,1.6-23.8,2.2-34.9,1.1-21.5,1.4-31,.3-17.8.2-24.7Zm-47.8,49.3c-2.9-12.1-5.8-20.7-8.7-25.7s-5.5-7.2-7.7-6.6a4.4,4.4,0,0,0-2.9,2.5,16.1,16.1,0,0,0-1.2,6.4,61.2,61.2,0,0,0,.9,11.1q1.1,6.8,3.3,16.2c3,12.2,5.9,20.8,8.8,25.9s5.6,7.5,7.9,6.9,3.6-3.8,3.8-9.8S277.8,351.1,274.8,339.1Zm95.9,88.4a106.4,106.4,0,0,1,3.3,22.4,54.7,54.7,0,0,1-1.7,16.5,24,24,0,0,1-5.8,10.7,18.6,18.6,0,0,1-9,5.1,18.1,18.1,0,0,1-10.3-.4,23.5,23.5,0,0,1-10.1-6.8,52.5,52.5,0,0,1-9.1-13.7,115.1,115.1,0,0,1-7.4-21.6,119.2,119.2,0,0,1-3.5-23.1c-.1-6.4.4-11.9,1.8-16.2a23,23,0,0,1,5.9-10.3,20.8,20.8,0,0,1,9.1-4.9,19.1,19.1,0,0,1,10.3.4,23.8,23.8,0,0,1,10.1,6.7,52.4,52.4,0,0,1,9,13.7A106.9,106.9,0,0,1,370.7,427.5Z" transform="translate(-104.5 -123.3)"/><path class="cls-23" d="M354.4,431c-3-12-5.8-20.6-8.7-25.6s-5.5-7.4-7.8-6.8a4.6,4.6,0,0,0-2.9,2.6,17.6,17.6,0,0,0-1.2,6.6,87.2,87.2,0,0,0,.9,11q1.1,6.6,3.3,16.2c3,12.2,6,20.9,8.9,25.9s5.5,7.3,7.8,6.7,3.6-3.8,3.8-9.6S357.3,443.1,354.4,431Zm-62.2-96.8a113.5,113.5,0,0,1,3.3,22.3,58.5,58.5,0,0,1-1.7,16.6c-1.3,4.5-3.2,8.2-5.8,10.8a17.5,17.5,0,0,1-8.9,5.3,18.5,18.5,0,0,1-10.4-.5,24.1,24.1,0,0,1-10.1-6.8,58.7,58.7,0,0,1-9.1-13.9,115.1,115.1,0,0,1-7.4-21.6,108,108,0,0,1-3.5-23.3,52.3,52.3,0,0,1,1.7-16.3,21.5,21.5,0,0,1,6-10.1,19.8,19.8,0,0,1,9.1-4.9,19,19,0,0,1,10.3.4,23.5,23.5,0,0,1,10,6.7,52.5,52.5,0,0,1,9.1,13.7A110.3,110.3,0,0,1,292.2,334.2Zm31-45.3c-1.4,11.3-2.7,23.9-4,37.9s-2.7,29.2-3.9,45.5-2.4,33.7-3.4,52-2,37.6-2.9,57.6l-7.7-.2c-2.2-.1-4.4,0-6.8.1a24.2,24.2,0,0,0-6,1c1.4-9.5,2.8-19.9,4.1-31.2s2.5-23,3.7-35,2.1-24.1,3-36.2,1.7-23.8,2.3-35,1-21.5,1.3-31.1.4-17.7.2-24.7Zm-47.9,49.4c-2.9-12.2-5.9-20.7-8.8-25.7s-5.4-7.2-7.7-6.7a4.4,4.4,0,0,0-2.9,2.5,16.7,16.7,0,0,0-1.2,6.5,87.2,87.2,0,0,0,.9,11.1c.7,4.4,1.8,9.9,3.4,16.3,2.9,12.1,5.9,20.7,8.8,25.9s5.5,7.4,7.9,6.9,3.6-3.9,3.8-9.8S278.2,350.3,275.3,338.3Zm96,88.6a107.1,107.1,0,0,1,3.4,22.4,54,54,0,0,1-1.7,16.5,25.4,25.4,0,0,1-5.8,10.8,19.5,19.5,0,0,1-9,5.1,18.5,18.5,0,0,1-10.4-.4,25.1,25.1,0,0,1-10.1-6.8c-3.3-3.3-6.3-7.9-9.1-13.8a104.1,104.1,0,0,1-7.4-21.6,111.9,111.9,0,0,1-3.5-23.1,52.3,52.3,0,0,1,1.7-16.3c1.4-4.4,3.3-7.8,6-10.2a19.7,19.7,0,0,1,9-5,19.4,19.4,0,0,1,10.4.4,23.8,23.8,0,0,1,10.1,6.7,55.1,55.1,0,0,1,9.1,13.7A104.4,104.4,0,0,1,371.3,426.9Z" transform="translate(-104.5 -123.3)"/><path class="cls-23" d="M355,430.4c-2.9-12.1-5.8-20.6-8.7-25.7s-5.5-7.3-7.8-6.8a4.5,4.5,0,0,0-2.9,2.7,16.7,16.7,0,0,0-1.2,6.5,59.6,59.6,0,0,0,.9,11c.7,4.5,1.8,9.9,3.3,16.3,3,12.2,6,20.9,8.9,26s5.5,7.3,7.8,6.7,3.7-3.8,3.9-9.7S358,442.5,355,430.4Zm-62.3-97a114.4,114.4,0,0,1,3.3,22.4,54.4,54.4,0,0,1-1.7,16.5c-1.3,4.6-3.2,8.3-5.8,10.9a17.5,17.5,0,0,1-8.9,5.3,18.5,18.5,0,0,1-10.4-.5,25,25,0,0,1-10.2-6.8,58.7,58.7,0,0,1-9.1-13.9,113.9,113.9,0,0,1-7.4-21.7,108,108,0,0,1-3.5-23.3,52.3,52.3,0,0,1,1.7-16.3,21.4,21.4,0,0,1,6-10.2,20.8,20.8,0,0,1,9.1-4.9,19,19,0,0,1,10.3.4,23.8,23.8,0,0,1,10.1,6.7,57.8,57.8,0,0,1,9.1,13.8A110.3,110.3,0,0,1,292.7,333.4ZM323.8,288c-1.4,11.3-2.7,24-4.1,38s-2.6,29.2-3.8,45.6-2.4,33.7-3.5,52.1-2,37.6-2.8,57.7l-7.8-.3-6.8.2a24.2,24.2,0,0,0-6,1c1.4-9.5,2.8-19.9,4.1-31.3s2.5-23,3.7-35.1,2.1-24.1,3-36.2,1.7-23.9,2.3-35.1,1-21.5,1.3-31.1.4-17.8.2-24.8Zm-48,49.5c-3-12.2-5.9-20.8-8.8-25.8s-5.5-7.2-7.7-6.7a4.7,4.7,0,0,0-3,2.6,16.1,16.1,0,0,0-1.2,6.4,74,74,0,0,0,1,11.1,152.9,152.9,0,0,0,3.3,16.4c3,12.1,5.9,20.8,8.8,26s5.6,7.4,8,6.8,3.6-3.8,3.7-9.8S278.7,349.5,275.8,337.5ZM372,426.2a108.9,108.9,0,0,1,3.4,22.5,58,58,0,0,1-1.7,16.6,24.5,24.5,0,0,1-5.9,10.7,18,18,0,0,1-9,5.2,18.5,18.5,0,0,1-10.4-.4,25.1,25.1,0,0,1-10.1-6.8,52.4,52.4,0,0,1-9.1-13.8,107,107,0,0,1-7.5-21.7,119.2,119.2,0,0,1-3.5-23.1c-.1-6.5.4-12,1.8-16.4a21.8,21.8,0,0,1,6-10.2,19.2,19.2,0,0,1,9-5,19.4,19.4,0,0,1,10.4.4,23.8,23.8,0,0,1,10.1,6.7,51.7,51.7,0,0,1,9.1,13.7A112.7,112.7,0,0,1,372,426.2Z" transform="translate(-104.5 -123.3)"/><path class="cls-23" d="M355.6,429.8q-4.4-18.2-8.7-25.8c-2.9-5-5.5-7.3-7.8-6.7a4.3,4.3,0,0,0-2.9,2.6,17.1,17.1,0,0,0-1.2,6.5,60.6,60.6,0,0,0,.9,11.1c.6,4.4,1.8,9.9,3.3,16.3,3,12.3,6,20.9,8.9,26s5.5,7.3,7.9,6.8,3.6-3.8,3.8-9.7S358.6,442,355.6,429.8Zm-62.4-97.2a114.4,114.4,0,0,1,3.3,22.4,55,55,0,0,1-1.7,16.6c-1.3,4.6-3.2,8.3-5.8,10.9a17.5,17.5,0,0,1-8.9,5.3,18.5,18.5,0,0,1-10.4-.5,23.8,23.8,0,0,1-10.2-6.8,56.6,56.6,0,0,1-9.2-14,111.5,111.5,0,0,1-7.4-21.7,108,108,0,0,1-3.5-23.3,53,53,0,0,1,1.7-16.4,21.4,21.4,0,0,1,6-10.2,20.8,20.8,0,0,1,9.1-4.9,19.4,19.4,0,0,1,10.4.4,24.4,24.4,0,0,1,10.1,6.7,54.9,54.9,0,0,1,9,13.8A104.8,104.8,0,0,1,293.2,332.6Zm31.1-45.5c-1.3,11.3-2.7,24-4,38.1s-2.7,29.3-3.9,45.7-2.4,33.7-3.4,52.2-2,37.7-2.9,57.8l-7.8-.3-6.8.2a24.2,24.2,0,0,0-6,1c1.4-9.5,2.8-19.9,4.1-31.3s2.5-23.1,3.7-35.2,2.1-24.2,3-36.4,1.7-23.8,2.3-35,1.1-21.7,1.4-31.2.3-17.9.2-24.9Zm-48.1,49.6c-2.9-12.2-5.9-20.8-8.8-25.8s-5.4-7.3-7.7-6.7a4.4,4.4,0,0,0-2.9,2.5c-.8,1.4-1.2,3.6-1.2,6.5a61.2,61.2,0,0,0,.9,11.1c.6,4.5,1.8,10,3.3,16.4,3,12.2,6,20.8,8.9,26s5.6,7.5,7.9,6.9,3.6-3.8,3.8-9.8S279.2,348.8,276.2,336.7Zm96.5,88.9a108.1,108.1,0,0,1,3.3,22.6,55,55,0,0,1-1.7,16.6,24.4,24.4,0,0,1-5.8,10.7,18.7,18.7,0,0,1-9.1,5.2,18.5,18.5,0,0,1-10.4-.4,26.1,26.1,0,0,1-10.2-6.8,56.7,56.7,0,0,1-9.1-13.9,113.9,113.9,0,0,1-7.4-21.7,111.8,111.8,0,0,1-3.5-23.2,52.3,52.3,0,0,1,1.7-16.3,24,24,0,0,1,6-10.3,20,20,0,0,1,9.1-5,19.4,19.4,0,0,1,10.4.4,24.1,24.1,0,0,1,10.2,6.7,57.8,57.8,0,0,1,9.1,13.8A110.3,110.3,0,0,1,372.7,425.6Z" transform="translate(-104.5 -123.3)"/><path class="cls-23" d="M356.3,429.2c-3-12.1-5.9-20.7-8.8-25.8s-5.5-7.4-7.8-6.8a4.6,4.6,0,0,0-2.9,2.6c-.8,1.5-1.1,3.7-1.2,6.6a61.2,61.2,0,0,0,.9,11.1,156.7,156.7,0,0,0,3.3,16.3c3,12.3,6,21,8.9,26.1s5.5,7.3,7.9,6.7,3.6-3.8,3.8-9.7S359.2,441.4,356.3,429.2Zm-62.6-97.4a115.3,115.3,0,0,1,3.3,22.5,55.4,55.4,0,0,1-1.7,16.6,25.2,25.2,0,0,1-5.8,10.9,17.8,17.8,0,0,1-9,5.3,18.5,18.5,0,0,1-10.4-.5,25,25,0,0,1-10.2-6.8,56.5,56.5,0,0,1-9.1-14,105.9,105.9,0,0,1-7.5-21.8,108,108,0,0,1-3.5-23.3,52.6,52.6,0,0,1,1.7-16.4,22.2,22.2,0,0,1,6-10.3,21.6,21.6,0,0,1,9.2-4.9,19,19,0,0,1,10.3.4,24.1,24.1,0,0,1,10.1,6.8c3.3,3.3,6.3,8,9.1,13.8S291.5,323.1,293.7,331.8Zm31.2-45.6c-1.4,11.4-2.7,24.1-4.1,38.2s-2.6,29.3-3.9,45.7-2.3,33.9-3.4,52.4-2,37.8-2.8,57.9l-7.9-.3-6.8.2a25.9,25.9,0,0,0-6.1,1c1.5-9.5,2.9-20,4.2-31.4s2.5-23.1,3.7-35.2,2.2-24.3,3.1-36.5,1.6-23.9,2.2-35.1,1.1-21.7,1.4-31.3.3-17.9.2-24.9Zm-48.2,49.7c-3-12.2-5.9-20.8-8.8-25.9s-5.5-7.2-7.8-6.7a4.6,4.6,0,0,0-2.9,2.6,16.3,16.3,0,0,0-1.2,6.5,61.2,61.2,0,0,0,.9,11.1c.7,4.5,1.8,10,3.4,16.4,2.9,12.2,5.9,20.9,8.8,26.1s5.6,7.5,8,6.9,3.6-3.9,3.8-9.9S279.7,348,276.7,335.9ZM373.3,425a109.8,109.8,0,0,1,3.4,22.6,54.7,54.7,0,0,1-1.7,16.6,24.3,24.3,0,0,1-5.9,10.8,18,18,0,0,1-9,5.2,18.9,18.9,0,0,1-10.5-.4,26.1,26.1,0,0,1-10.2-6.8,56.7,56.7,0,0,1-9.1-13.9,115,115,0,0,1-7.4-21.8,113.7,113.7,0,0,1-3.6-23.2,55.9,55.9,0,0,1,1.8-16.4,22.2,22.2,0,0,1,6-10.3,20,20,0,0,1,9.1-5,19.4,19.4,0,0,1,10.4.4,23.5,23.5,0,0,1,10.2,6.7,55,55,0,0,1,9.1,13.8A113.9,113.9,0,0,1,373.3,425Z" transform="translate(-104.5 -123.3)"/><path class="cls-23" d="M356.9,428.6c-3-12.2-5.9-20.8-8.8-25.9s-5.5-7.3-7.8-6.8a4.6,4.6,0,0,0-3,2.7,15.2,15.2,0,0,0-1.1,6.5,60,60,0,0,0,.9,11.1,152.9,152.9,0,0,0,3.3,16.4c3,12.3,6,21,8.9,26.1s5.6,7.4,7.9,6.8,3.7-3.8,3.9-9.7S359.9,440.8,356.9,428.6ZM294.2,331a108.1,108.1,0,0,1,3.3,22.5,55.7,55.7,0,0,1-1.7,16.7,25.2,25.2,0,0,1-5.8,10.9,18.2,18.2,0,0,1-9,5.3,18.5,18.5,0,0,1-10.4-.4,26,26,0,0,1-10.3-6.9,58.4,58.4,0,0,1-9.1-14,107,107,0,0,1-7.5-21.9,115.4,115.4,0,0,1-3.6-23.4,55.9,55.9,0,0,1,1.8-16.4,20.4,20.4,0,0,1,15.2-15.2,19.4,19.4,0,0,1,10.4.4c3.5,1.1,6.8,3.4,10.1,6.8a55,55,0,0,1,9.1,13.8A112.2,112.2,0,0,1,294.2,331Zm31.3-45.7c-1.4,11.4-2.8,24.1-4.1,38.3s-2.7,29.4-3.9,45.8-2.4,33.9-3.5,52.4-2,37.9-2.8,58.1l-7.8-.3-6.9.2a25.9,25.9,0,0,0-6.1,1c1.5-9.5,2.9-20,4.2-31.4s2.6-23.3,3.7-35.4,2.2-24.3,3.1-36.5,1.6-23.9,2.2-35.2,1.1-21.7,1.4-31.3.4-18,.2-24.9Zm-48.3,49.8c-3-12.2-5.9-20.9-8.9-25.9s-5.5-7.3-7.7-6.7a4.6,4.6,0,0,0-3,2.5,16.7,16.7,0,0,0-1.2,6.5,88.6,88.6,0,0,0,.9,11.2c.7,4.5,1.8,10,3.4,16.4,3,12.2,5.9,21,8.9,26.2s5.6,7.5,8,6.9,3.6-3.9,3.7-9.9S280.1,347.2,277.2,335.1ZM374,424.4a109.8,109.8,0,0,1,3.4,22.6,58.8,58.8,0,0,1-1.7,16.7,24.9,24.9,0,0,1-5.9,10.8,19.1,19.1,0,0,1-19.6,4.8,27.2,27.2,0,0,1-10.2-6.8,54.7,54.7,0,0,1-9.1-14,105.9,105.9,0,0,1-7.5-21.8,112.8,112.8,0,0,1-3.5-23.2,53.3,53.3,0,0,1,1.7-16.5,23.2,23.2,0,0,1,6.1-10.3,19.5,19.5,0,0,1,19.5-4.6,23.5,23.5,0,0,1,10.2,6.7,51.5,51.5,0,0,1,9.1,13.9A104.8,104.8,0,0,1,374,424.4Z" transform="translate(-104.5 -123.3)"/><path class="cls-23" d="M357.5,428c-2.9-12.2-5.9-20.8-8.8-25.9s-5.5-7.4-7.8-6.8a4.5,4.5,0,0,0-3,2.6,16.1,16.1,0,0,0-1.1,6.6,70,70,0,0,0,.8,11.1c.7,4.5,1.8,9.9,3.4,16.4,3,12.3,6,21.1,8.9,26.2s5.6,7.3,7.9,6.8,3.7-3.9,3.9-9.8S360.5,440.2,357.5,428Zm-62.8-97.8a108.1,108.1,0,0,1,3.3,22.5,55.4,55.4,0,0,1-1.7,16.7,25,25,0,0,1-5.8,11,18.2,18.2,0,0,1-9,5.3,18.9,18.9,0,0,1-10.5-.4,25,25,0,0,1-10.2-6.9,54.6,54.6,0,0,1-9.2-14.1,108.1,108.1,0,0,1-7.5-21.8,117.3,117.3,0,0,1-3.6-23.5c-.1-6.6.4-12,1.8-16.4a20.8,20.8,0,0,1,15.2-15.3,19.4,19.4,0,0,1,10.4.4,25,25,0,0,1,10.2,6.8,53.9,53.9,0,0,1,9.1,13.9C290.1,314.2,292.5,321.5,294.7,330.2ZM326,284.4c-1.4,11.4-2.7,24.2-4.1,38.3s-2.6,29.5-3.9,46-2.4,34-3.4,52.5-2,38-2.9,58.2l-7.8-.3-6.9.2a25.9,25.9,0,0,0-6.1,1q2.3-14.4,4.2-31.5c1.3-11.5,2.6-23.3,3.7-35.4s2.2-24.3,3.1-36.6,1.6-24,2.3-35.3,1-21.7,1.3-31.4.4-17.9.2-24.9Zm-48.4,49.9c-2.9-12.3-5.9-20.9-8.8-26s-5.5-7.3-7.8-6.7a5,5,0,0,0-3,2.6,16.3,16.3,0,0,0-1.2,6.5,76.2,76.2,0,0,0,1,11.2c.6,4.5,1.8,10,3.3,16.4,3,12.3,6,21,8.9,26.2s5.7,7.5,8,7,3.7-3.9,3.8-9.9S280.6,346.4,277.6,334.3Zm97,89.5a103.3,103.3,0,0,1,3.4,22.7,54.7,54.7,0,0,1-1.7,16.6,24.3,24.3,0,0,1-5.9,10.9,18.6,18.6,0,0,1-9.1,5.2,18.9,18.9,0,0,1-10.5-.4,26.4,26.4,0,0,1-10.2-6.9,56.7,56.7,0,0,1-9.2-13.9,135.5,135.5,0,0,1-11-45.2,55.9,55.9,0,0,1,1.8-16.4,23.5,23.5,0,0,1,6-10.4,20.3,20.3,0,0,1,9.2-5,19.4,19.4,0,0,1,10.4.4,23.5,23.5,0,0,1,10.2,6.7c3.3,3.4,6.3,8.1,9.2,13.9A112.6,112.6,0,0,1,374.6,423.8Z" transform="translate(-104.5 -123.3)"/><path class="cls-23" d="M358.1,427.3c-2.9-12.1-5.9-20.8-8.8-25.9s-5.5-7.4-7.9-6.8a4.6,4.6,0,0,0-2.9,2.6,17.6,17.6,0,0,0-1.2,6.6,87.2,87.2,0,0,0,.9,11.2c.7,4.5,1.8,9.9,3.4,16.4,3,12.4,6,21.1,8.9,26.2s5.6,7.4,8,6.8,3.6-3.8,3.8-9.7S361.1,439.6,358.1,427.3Zm-62.9-98a110.8,110.8,0,0,1,3.3,22.7,55.7,55.7,0,0,1-1.7,16.7,25.6,25.6,0,0,1-5.8,11,18.2,18.2,0,0,1-9,5.3,18.8,18.8,0,0,1-10.5-.4,26,26,0,0,1-10.3-6.9,57.3,57.3,0,0,1-9.2-14.1,107,107,0,0,1-7.5-21.9,117.3,117.3,0,0,1-3.6-23.5c-.1-6.6.4-12.1,1.8-16.5a22.5,22.5,0,0,1,6-10.3,20.1,20.1,0,0,1,9.2-4.9,18.8,18.8,0,0,1,10.5.4,23.8,23.8,0,0,1,10.1,6.7c3.3,3.4,6.3,8.1,9.2,13.9A122.1,122.1,0,0,1,295.2,329.3Zm31.4-45.8c-1.4,11.4-2.7,24.2-4.1,38.4s-2.7,29.5-3.9,46.1-2.4,34-3.5,52.6-2,38-2.8,58.3l-7.9-.3c-2.2,0-4.5,0-6.9.2a25.9,25.9,0,0,0-6.1,1c1.5-9.6,2.9-20.1,4.2-31.6s2.6-23.3,3.7-35.4,2.2-24.4,3.1-36.7,1.7-24.1,2.3-35.4,1.1-21.8,1.3-31.4.4-18,.2-25Zm-48.5,50c-3-12.3-5.9-20.9-8.9-26s-5.5-7.3-7.8-6.8a4.6,4.6,0,0,0-2.9,2.6c-.8,1.4-1.2,3.6-1.2,6.5a61.6,61.6,0,0,0,.9,11.2c.7,4.6,1.8,10.1,3.4,16.5,3,12.3,5.9,21.1,8.9,26.3s5.6,7.5,8,6.9,3.6-3.8,3.8-9.9S281.1,345.7,278.1,333.5Zm97.2,89.7a109.7,109.7,0,0,1,3.4,22.7,55.4,55.4,0,0,1-1.7,16.7,25.3,25.3,0,0,1-5.9,10.9,19.5,19.5,0,0,1-9.1,5.2,18.8,18.8,0,0,1-10.5-.4,26,26,0,0,1-10.3-6.9,57.5,57.5,0,0,1-9.2-14,129.3,129.3,0,0,1-11-45.2q-.3-9.9,1.8-16.5a22.6,22.6,0,0,1,6-10.4,19.8,19.8,0,0,1,19.7-4.6,24.7,24.7,0,0,1,10.2,6.7,56.5,56.5,0,0,1,9.1,14A103.9,103.9,0,0,1,375.3,423.2Z" transform="translate(-104.5 -123.3)"/><path class="cls-23" d="M358.8,426.7c-3-12.2-5.9-20.8-8.8-26s-5.6-7.4-8-6.8a4.5,4.5,0,0,0-2.9,2.7,16.8,16.8,0,0,0-1.2,6.6,87.2,87.2,0,0,0,.9,11.1c.7,4.5,1.8,10,3.4,16.5,3,12.4,6,21.2,8.9,26.3s5.6,7.4,8,6.8,3.7-3.8,3.9-9.8S361.8,439,358.8,426.7Zm-63.1-98.2a110.8,110.8,0,0,1,3.3,22.7,56.1,56.1,0,0,1-1.7,16.8,25.6,25.6,0,0,1-5.8,11,18,18,0,0,1-9.1,5.3,18.9,18.9,0,0,1-10.5-.4,25.3,25.3,0,0,1-10.3-7,57.5,57.5,0,0,1-9.2-14,110.3,110.3,0,0,1-7.5-22,118.3,118.3,0,0,1-3.6-23.5,51.1,51.1,0,0,1,1.8-16.6,22.3,22.3,0,0,1,6.1-10.3,20.6,20.6,0,0,1,9.2-4.9,18.5,18.5,0,0,1,10.4.4,24,24,0,0,1,10.2,6.8,54,54,0,0,1,9.2,13.9A122.1,122.1,0,0,1,295.7,328.5Zm31.4-45.9c-1.3,11.5-2.7,24.3-4,38.5s-2.7,29.6-4,46.1-2.4,34.1-3.4,52.8-2,38.1-2.9,58.4l-7.9-.3c-2.2,0-4.5,0-6.8.2a21.7,21.7,0,0,0-6.2,1c1.5-9.6,2.9-20.1,4.2-31.6s2.6-23.4,3.7-35.6,2.2-24.4,3.1-36.7,1.7-24.1,2.3-35.4,1.1-21.9,1.4-31.6.3-18,.2-25Zm-48.5,50.1c-3-12.3-6-21-8.9-26s-5.6-7.4-7.8-6.8a4.3,4.3,0,0,0-3,2.6,16.3,16.3,0,0,0-1.2,6.5,62.2,62.2,0,0,0,.9,11.2c.7,4.6,1.8,10.1,3.4,16.6,3,12.3,6,21,8.9,26.2s5.7,7.6,8.1,7,3.6-3.9,3.8-9.9S281.6,344.9,278.6,332.7ZM376,422.5a111.5,111.5,0,0,1,3.4,22.8,59.5,59.5,0,0,1-1.7,16.8,24.4,24.4,0,0,1-6,10.9,19,19,0,0,1-9.1,5.2,18,18,0,0,1-10.5-.5,24.7,24.7,0,0,1-10.3-6.8c-3.3-3.4-6.3-8.1-9.2-14a108.1,108.1,0,0,1-7.5-22,115.4,115.4,0,0,1-3.6-23.4,57,57,0,0,1,1.8-16.5,23.6,23.6,0,0,1,6.1-10.4,19.8,19.8,0,0,1,19.7-4.6,24,24,0,0,1,10.2,6.8,54,54,0,0,1,9.2,13.9A114.7,114.7,0,0,1,376,422.5Z" transform="translate(-104.5 -123.3)"/><path class="cls-23" d="M359.4,426.1c-3-12.2-5.9-20.9-8.8-26s-5.6-7.4-8-6.9a4.5,4.5,0,0,0-2.9,2.7,17.6,17.6,0,0,0-1.2,6.6,61.6,61.6,0,0,0,.9,11.2c.7,4.5,1.8,10,3.4,16.5,3,12.4,6,21.2,8.9,26.3s5.7,7.5,8,6.9,3.7-3.9,3.9-9.8S362.4,438.5,359.4,426.1Zm-63.2-98.4a105.1,105.1,0,0,1,3.3,22.8,56.8,56.8,0,0,1-1.7,16.8,25.6,25.6,0,0,1-5.8,11,19,19,0,0,1-9.1,5.4,19.9,19.9,0,0,1-10.5-.5,24.6,24.6,0,0,1-10.3-7,53.8,53.8,0,0,1-9.3-14.1,106,106,0,0,1-7.5-22,118.1,118.1,0,0,1-3.6-23.6q-.3-9.9,1.8-16.5a22.2,22.2,0,0,1,6.1-10.4,20.6,20.6,0,0,1,9.2-4.9,18.9,18.9,0,0,1,10.5.4,25,25,0,0,1,10.2,6.8,58.7,58.7,0,0,1,9.2,13.9A120.6,120.6,0,0,1,296.2,327.7Zm31.5-46c-1.4,11.5-2.7,24.4-4.1,38.6s-2.7,29.6-3.9,46.2-2.4,34.2-3.5,52.9-2,38.1-2.9,58.5l-7.9-.3c-2.1,0-4.4,0-6.8.2a21.7,21.7,0,0,0-6.2,1c1.5-9.6,2.9-20.2,4.2-31.7s2.6-23.4,3.7-35.6,2.2-24.5,3.1-36.8,1.7-24.2,2.3-35.5,1.1-21.9,1.4-31.6.3-18.1.2-25.1ZM279,331.9c-3-12.3-5.9-21-8.9-26.1s-5.5-7.3-7.8-6.8a5,5,0,0,0-3,2.6,16.7,16.7,0,0,0-1.2,6.5,89.9,89.9,0,0,0,.9,11.3c.7,4.6,1.8,10.1,3.4,16.6,3,12.3,6,21.1,9,26.3s5.6,7.6,8,7,3.7-3.9,3.8-10S282,344.1,279,331.9Zm97.6,90a105,105,0,0,1,3.4,22.8,56.1,56.1,0,0,1-1.7,16.8,24.7,24.7,0,0,1-5.9,10.9,18.7,18.7,0,0,1-9.2,5.3,18,18,0,0,1-10.5-.5,24.7,24.7,0,0,1-10.3-6.8c-3.3-3.4-6.3-8.1-9.2-14.1a107,107,0,0,1-7.5-21.9,117.3,117.3,0,0,1-3.6-23.5q-.3-9.9,1.8-16.5a22.4,22.4,0,0,1,6-10.5,19.9,19.9,0,0,1,19.8-4.6,23.5,23.5,0,0,1,10.2,6.8,53.2,53.2,0,0,1,9.2,13.9A107,107,0,0,1,376.6,421.9Z" transform="translate(-104.5 -123.3)"/><path class="cls-23" d="M360,425.5c-3-12.2-5.9-20.9-8.8-26.1s-5.6-7.4-8-6.8a4.6,4.6,0,0,0-2.9,2.6,17.8,17.8,0,0,0-1.2,6.7,62.2,62.2,0,0,0,.9,11.2c.7,4.5,1.8,10,3.4,16.5q4.5,18.6,9,26.4c2.9,5.1,5.6,7.4,8,6.8s3.6-3.8,3.8-9.8S363,437.9,360,425.5Zm-63.3-98.6a105.9,105.9,0,0,1,3.3,22.8,56.1,56.1,0,0,1-1.7,16.8,25.4,25.4,0,0,1-5.8,11.1,19.4,19.4,0,0,1-9.1,5.4,20.2,20.2,0,0,1-10.6-.5,25.3,25.3,0,0,1-10.3-7,55.5,55.5,0,0,1-9.3-14.1,110.3,110.3,0,0,1-7.5-22,120,120,0,0,1-3.6-23.7,51.1,51.1,0,0,1,1.8-16.6,22.7,22.7,0,0,1,6.1-10.4,21.1,21.1,0,0,1,9.2-4.9,18.8,18.8,0,0,1,10.5.4,25,25,0,0,1,10.2,6.8,52.2,52.2,0,0,1,9.2,14A113,113,0,0,1,296.7,326.9Zm31.6-46.1c-1.4,11.5-2.8,24.4-4.1,38.7s-2.7,29.7-4,46.3-2.4,34.2-3.5,52.9-2,38.3-2.8,58.7l-7.9-.3c-2.2,0-4.5,0-6.9.2a21.7,21.7,0,0,0-6.2,1q2.3-14.4,4.2-31.8c1.3-11.5,2.6-23.4,3.7-35.6s2.2-24.6,3.1-36.9,1.7-24.2,2.3-35.6,1.1-21.9,1.4-31.6.4-18.1.2-25.2Zm-48.8,50.3c-3-12.3-6-21.1-8.9-26.1s-5.6-7.4-7.9-6.8a4.4,4.4,0,0,0-2.9,2.5,15.6,15.6,0,0,0-1.3,6.6,76.3,76.3,0,0,0,1,11.3,158.7,158.7,0,0,0,3.4,16.6c3,12.3,6,21.1,8.9,26.4s5.7,7.6,8.1,7,3.7-3.9,3.8-10S282.5,343.4,279.5,331.1Zm97.8,90.2a112.4,112.4,0,0,1,3.4,22.9A56.1,56.1,0,0,1,379,461a23.9,23.9,0,0,1-6,10.9,18.7,18.7,0,0,1-19.7,4.8,24.7,24.7,0,0,1-10.3-6.8,57.4,57.4,0,0,1-9.3-14.1,124.7,124.7,0,0,1-7.5-22,117.3,117.3,0,0,1-3.6-23.5,56.9,56.9,0,0,1,1.8-16.6,24,24,0,0,1,6.1-10.5,19.9,19.9,0,0,1,19.8-4.6,24.7,24.7,0,0,1,10.3,6.8,57.5,57.5,0,0,1,9.2,14A107,107,0,0,1,377.3,421.3Z" transform="translate(-104.5 -123.3)"/><path class="cls-23" d="M360.6,424.9c-2.9-12.2-5.9-21-8.8-26.1s-5.6-7.5-8-6.9a4.5,4.5,0,0,0-2.9,2.7,14.1,14.1,0,0,0-1.2,6.6,61.6,61.6,0,0,0,.9,11.2c.7,4.6,1.8,10.1,3.4,16.6q4.5,18.8,9,26.4c2.9,5.2,5.6,7.5,8,6.9s3.7-3.9,3.9-9.8S363.7,437.3,360.6,424.9Zm-63.4-98.8a113.4,113.4,0,0,1,3.4,22.9,59.6,59.6,0,0,1-1.8,16.8,25.4,25.4,0,0,1-5.8,11.1,19.4,19.4,0,0,1-9.1,5.4,19.2,19.2,0,0,1-10.6-.5,25.5,25.5,0,0,1-10.4-7,53.6,53.6,0,0,1-9.2-14.2,107.8,107.8,0,0,1-7.6-22,120,120,0,0,1-3.6-23.7c-.2-6.6.4-12.2,1.8-16.6a21.7,21.7,0,0,1,6.1-10.4,20.3,20.3,0,0,1,9.2-5,19.7,19.7,0,0,1,10.5.4,24.7,24.7,0,0,1,10.3,6.8,52.9,52.9,0,0,1,9.2,14.1A113,113,0,0,1,297.2,326.1Zm31.6-46.2c-1.3,11.6-2.7,24.5-4.1,38.8s-2.7,29.7-3.9,46.3-2.5,34.4-3.5,53.1-2,38.3-2.9,58.8l-7.9-.3c-2.2,0-4.5,0-6.9.2a21.7,21.7,0,0,0-6.2,1q2.3-14.6,4.2-31.8c1.4-11.6,2.6-23.5,3.8-35.8s2.1-24.6,3.1-36.9,1.6-24.3,2.3-35.7,1-22,1.3-31.7.4-18.1.2-25.2ZM280,330.3c-3-12.4-6-21.1-9-26.2s-5.5-7.4-7.8-6.8a4.5,4.5,0,0,0-3,2.6q-1.2,2.1-1.2,6.6a63.9,63.9,0,0,0,.9,11.3c.7,4.5,1.8,10.1,3.4,16.6q4.5,18.6,9,26.4c3,5.3,5.7,7.7,8.1,7.1s3.6-3.9,3.8-10S283,342.6,280,330.3Zm98,90.4a112.4,112.4,0,0,1,3.4,22.9,60.3,60.3,0,0,1-1.7,16.9,26.5,26.5,0,0,1-6,10.9,18.7,18.7,0,0,1-9.2,5.3,18.3,18.3,0,0,1-10.6-.5,24,24,0,0,1-10.3-6.9,53.8,53.8,0,0,1-9.3-14.1,108.1,108.1,0,0,1-7.5-22,117.1,117.1,0,0,1-3.6-23.6A51.1,51.1,0,0,1,325,393a23.6,23.6,0,0,1,6.1-10.5,20.3,20.3,0,0,1,9.2-5,19.2,19.2,0,0,1,10.6.4,24.7,24.7,0,0,1,10.3,6.8,52.2,52.2,0,0,1,9.2,14A114.2,114.2,0,0,1,378,420.7Z" transform="translate(-104.5 -123.3)"/><path class="cls-23" d="M361.3,424.3c-3-12.3-6-21-8.9-26.2s-5.6-7.5-8-6.9a4.5,4.5,0,0,0-2.9,2.7,14.6,14.6,0,0,0-1.2,6.7,62.2,62.2,0,0,0,.9,11.2,164.1,164.1,0,0,0,3.4,16.6c3,12.5,6,21.3,9,26.5s5.6,7.5,8,6.9,3.7-3.9,3.9-9.9S364.3,436.7,361.3,424.3Zm-63.6-99a113.4,113.4,0,0,1,3.4,22.9c.1,6.6-.4,12.2-1.8,16.9a25.4,25.4,0,0,1-5.8,11.1,19.7,19.7,0,0,1-9.2,5.4,19.2,19.2,0,0,1-10.6-.5,25.3,25.3,0,0,1-10.3-7,56.3,56.3,0,0,1-9.3-14.2,108.9,108.9,0,0,1-7.6-22.1,120,120,0,0,1-3.6-23.7,51.4,51.4,0,0,1,1.8-16.7,22.2,22.2,0,0,1,6.1-10.4,21.1,21.1,0,0,1,9.3-5,19.8,19.8,0,0,1,10.5.4,24.6,24.6,0,0,1,10.3,6.9,57.5,57.5,0,0,1,9.2,14A114.2,114.2,0,0,1,297.7,325.3ZM329.4,279c-1.4,11.6-2.8,24.5-4.1,38.8s-2.7,29.9-4,46.5-2.4,34.4-3.5,53.2-2,38.4-2.9,58.9l-7.9-.3c-2.2,0-4.5,0-6.9.2a21.7,21.7,0,0,0-6.2,1c1.5-9.7,2.9-20.3,4.2-31.9s2.6-23.5,3.8-35.8,2.2-24.6,3.1-37,1.7-24.3,2.3-35.8,1.1-22,1.4-31.7.3-18.2.2-25.3Zm-49,50.5c-3-12.4-6-21.1-8.9-26.2s-5.6-7.4-7.9-6.9a4.7,4.7,0,0,0-3,2.6,17.6,17.6,0,0,0-1.2,6.6,62.6,62.6,0,0,0,.9,11.3c.7,4.6,1.8,10.2,3.4,16.7,3,12.4,6.1,21.2,9,26.5s5.7,7.6,8.1,7,3.7-3.9,3.9-10S283.4,341.8,280.4,329.5Zm98.2,90.6A105.8,105.8,0,0,1,382,443a56.4,56.4,0,0,1-1.7,16.9,24.2,24.2,0,0,1-6,11,18.3,18.3,0,0,1-9.2,5.3,19.2,19.2,0,0,1-10.6-.5,24,24,0,0,1-10.3-6.9,53.8,53.8,0,0,1-9.3-14.1,115.4,115.4,0,0,1-7.6-22.1,110.4,110.4,0,0,1-3.5-23.6,55,55,0,0,1,1.7-16.7,23.6,23.6,0,0,1,6.1-10.4,19.5,19.5,0,0,1,9.3-5.1,19.2,19.2,0,0,1,10.6.4,24.7,24.7,0,0,1,10.3,6.8,55.5,55.5,0,0,1,9.3,14.1A106,106,0,0,1,378.6,420.1Z" transform="translate(-104.5 -123.3)"/><path class="cls-23" d="M361.9,423.7c-3-12.3-6-21.1-8.9-26.2s-5.6-7.5-8-6.9a5,5,0,0,0-3,2.6,17.8,17.8,0,0,0-1.2,6.7,76.3,76.3,0,0,0,1,11.3c.6,4.5,1.8,10.1,3.3,16.6,3.1,12.5,6.1,21.4,9.1,26.6s5.6,7.4,8,6.8,3.7-3.8,3.9-9.8S364.9,436.1,361.9,423.7Zm-63.7-99.2a113.4,113.4,0,0,1,3.4,22.9c.1,6.6-.4,12.3-1.8,17a25.4,25.4,0,0,1-5.8,11.1,19.7,19.7,0,0,1-9.2,5.4,19.2,19.2,0,0,1-10.6-.5,24.6,24.6,0,0,1-10.4-7,56.3,56.3,0,0,1-9.3-14.2,116.6,116.6,0,0,1-7.6-22.2,119.8,119.8,0,0,1-3.6-23.8,51.8,51.8,0,0,1,1.8-16.7,22.7,22.7,0,0,1,6.1-10.4,21.1,21.1,0,0,1,9.3-5,19.7,19.7,0,0,1,10.5.4,24,24,0,0,1,10.3,6.9,53.8,53.8,0,0,1,9.3,14.1A111.8,111.8,0,0,1,298.2,324.5ZM330,278.1c-1.4,11.6-2.8,24.6-4.2,38.9s-2.7,29.9-3.9,46.6-2.5,34.5-3.5,53.3-2.1,38.5-2.9,59l-8-.3c-2.2,0-4.5,0-6.9.2a21.7,21.7,0,0,0-6.2,1c1.5-9.7,2.9-20.4,4.2-32s2.6-23.5,3.8-35.9,2.2-24.6,3.1-37.1,1.7-24.3,2.3-35.7,1.1-22.1,1.4-31.9.3-18.2.2-25.3Zm-49.1,50.6c-3-12.4-6-21.2-9-26.3s-5.6-7.4-7.9-6.8a5,5,0,0,0-3,2.6,16.8,16.8,0,0,0-1.2,6.6,91.3,91.3,0,0,0,.9,11.3c.7,4.6,1.9,10.2,3.5,16.7,3,12.4,6,21.3,9,26.6s5.7,7.6,8.1,7,3.7-3.9,3.8-10S283.9,341.1,280.9,328.7Zm98.4,90.8a112.3,112.3,0,0,1,3.4,23,56.8,56.8,0,0,1-1.7,16.9,24.8,24.8,0,0,1-6,11,19.2,19.2,0,0,1-9.2,5.3,19.6,19.6,0,0,1-10.7-.5,24,24,0,0,1-10.3-6.9c-3.3-3.4-6.4-8.2-9.3-14.2a106.8,106.8,0,0,1-7.6-22.1,118.1,118.1,0,0,1-3.6-23.6,51.4,51.4,0,0,1,1.8-16.7,23.4,23.4,0,0,1,6.1-10.5,19.5,19.5,0,0,1,9.3-5.1,19.2,19.2,0,0,1,10.6.4,24.7,24.7,0,0,1,10.3,6.8,57.4,57.4,0,0,1,9.3,14.1A113,113,0,0,1,379.3,419.5Z" transform="translate(-104.5 -123.3)"/><path class="cls-23" d="M362.5,423.1c-3-12.3-6-21.1-8.9-26.3s-5.6-7.5-8-6.9a4.9,4.9,0,0,0-3,2.7,17.8,17.8,0,0,0-1.2,6.7,88.6,88.6,0,0,0,.9,11.2c.7,4.6,1.8,10.2,3.4,16.7,3.1,12.5,6.1,21.4,9.1,26.6s5.7,7.5,8.1,6.9,3.7-3.9,3.9-9.9S365.6,435.6,362.5,423.1Zm-63.8-99.4a114.2,114.2,0,0,1,3.4,23c.1,6.6-.4,12.3-1.8,16.9s-3.2,8.5-5.9,11.2a18.2,18.2,0,0,1-9.1,5.4,19.6,19.6,0,0,1-10.7-.5,24.6,24.6,0,0,1-10.4-7,57,57,0,0,1-9.3-14.3,116.6,116.6,0,0,1-7.6-22.2c-2.2-9.2-3.5-17.1-3.6-23.8a51.4,51.4,0,0,1,1.8-16.7,22.5,22.5,0,0,1,6.1-10.5,22.2,22.2,0,0,1,9.3-5,20.1,20.1,0,0,1,10.6.4,25,25,0,0,1,10.3,6.9,57.4,57.4,0,0,1,9.3,14.1A115.4,115.4,0,0,1,298.7,323.7Zm31.8-46.5c-1.4,11.6-2.7,24.6-4.1,39s-2.7,29.9-4,46.7-2.4,34.5-3.5,53.4-2,38.5-2.9,59.1l-8-.3c-2.2,0-4.5,0-6.9.2a21.7,21.7,0,0,0-6.2,1c1.5-9.7,2.9-20.4,4.2-32s2.6-23.7,3.8-36,2.2-24.7,3.1-37.2,1.7-24.4,2.3-35.8,1.1-22.1,1.4-31.9.4-18.3.2-25.4Zm-49.1,50.7c-3.1-12.4-6.1-21.2-9-26.3s-5.6-7.4-8-6.9a4.6,4.6,0,0,0-2.9,2.6,15.6,15.6,0,0,0-1.3,6.6,77.5,77.5,0,0,0,1,11.4c.7,4.6,1.8,10.2,3.4,16.7,3,12.5,6,21.4,9,26.6s5.7,7.7,8.2,7.1,3.6-3.9,3.8-10.1S284.4,340.3,281.4,327.9Zm98.5,91a106.5,106.5,0,0,1,3.5,23,54.1,54.1,0,0,1-1.8,17,24.8,24.8,0,0,1-6,11,18.9,18.9,0,0,1-19.8,4.8c-3.7-1.1-7.1-3.5-10.4-6.9a59.2,59.2,0,0,1-9.4-14.2,110.3,110.3,0,0,1-7.5-22.2,105.1,105.1,0,0,1-3.6-23.7,55,55,0,0,1,1.7-16.7,23.5,23.5,0,0,1,6.2-10.5,19.5,19.5,0,0,1,9.3-5.1,19.2,19.2,0,0,1,10.6.4,24.9,24.9,0,0,1,10.4,6.8,57.4,57.4,0,0,1,9.3,14.1A110.3,110.3,0,0,1,379.9,418.9Z" transform="translate(-104.5 -123.3)"/><path class="cls-23" d="M363.2,422.5c-3.1-12.4-6-21.2-9-26.4s-5.6-7.5-8-6.9a4.6,4.6,0,0,0-3,2.7,17.8,17.8,0,0,0-1.2,6.7,89.9,89.9,0,0,0,.9,11.3c.7,4.6,1.8,10.1,3.4,16.7,3.1,12.6,6.1,21.5,9.1,26.7s5.7,7.5,8.1,6.9,3.7-3.9,3.9-10S366.2,435,363.2,422.5Zm-64-99.6a114.2,114.2,0,0,1,3.4,23,57.5,57.5,0,0,1-1.7,17c-1.4,4.7-3.3,8.5-6,11.2a17.5,17.5,0,0,1-9.1,5.4,18.7,18.7,0,0,1-10.7-.5,24.6,24.6,0,0,1-10.4-7,54.5,54.5,0,0,1-9.4-14.3,116.6,116.6,0,0,1-7.6-22.2c-2.2-9.3-3.5-17.2-3.6-23.9a55.3,55.3,0,0,1,1.7-16.8,22.6,22.6,0,0,1,6.2-10.4,21.9,21.9,0,0,1,9.3-5.1,19.2,19.2,0,0,1,10.6.5c3.6,1.1,7,3.4,10.4,6.8a56.3,56.3,0,0,1,9.3,14.2A113,113,0,0,1,299.2,322.9Zm31.9-46.6c-1.4,11.7-2.8,24.7-4.2,39.1s-2.7,30-3.9,46.7-2.5,34.6-3.6,53.5-2,38.7-2.9,59.3l-8-.3c-2.2,0-4.5,0-6.9.2a21.7,21.7,0,0,0-6.2,1q2.3-14.6,4.2-32.1c1.4-11.7,2.6-23.7,3.8-36s2.2-24.8,3.1-37.3,1.7-24.4,2.3-35.9,1.1-22.1,1.4-32,.4-18.2.2-25.4Zm-49.3,50.8q-4.5-18.6-9-26.4c-2.9-5.1-5.6-7.4-7.9-6.8a4.3,4.3,0,0,0-3,2.6q-1.2,2.1-1.2,6.6a64.3,64.3,0,0,0,.9,11.4c.7,4.6,1.8,10.2,3.4,16.7,3.1,12.5,6.1,21.4,9.1,26.7s5.7,7.7,8.1,7.1,3.7-4,3.9-10.1S284.9,339.5,281.8,327.1Zm98.8,91.1c2.1,8.8,3.3,16.4,3.4,23.1a57.1,57.1,0,0,1-1.7,17,24.6,24.6,0,0,1-6,11.1,19.9,19.9,0,0,1-9.3,5.3,19.2,19.2,0,0,1-10.6-.5c-3.7-1.1-7.1-3.5-10.4-6.9a56.4,56.4,0,0,1-9.4-14.2,120.3,120.3,0,0,1-7.6-22.3,117.9,117.9,0,0,1-3.6-23.7,52.1,52.1,0,0,1,1.8-16.8,23.4,23.4,0,0,1,6.1-10.5,20.3,20.3,0,0,1,9.4-5.1,19.2,19.2,0,0,1,10.6.4,24.3,24.3,0,0,1,10.4,6.9,53.8,53.8,0,0,1,9.3,14.1A113,113,0,0,1,380.6,418.2Z" transform="translate(-104.5 -123.3)"/><path class="cls-23" d="M363.8,421.9q-4.5-18.6-9-26.4c-2.9-5.2-5.6-7.6-8-7a4.4,4.4,0,0,0-3,2.7,18.2,18.2,0,0,0-1.2,6.7,64.3,64.3,0,0,0,.9,11.4c.7,4.6,1.8,10.1,3.4,16.7,3.1,12.6,6.1,21.5,9.1,26.7s5.7,7.5,8.1,6.9,3.7-3.9,3.9-9.9S366.8,434.4,363.8,421.9Zm-64.1-99.8a114.1,114.1,0,0,1,3.4,23.1,57.8,57.8,0,0,1-1.7,17c-1.4,4.7-3.3,8.5-6,11.2a17.8,17.8,0,0,1-9.2,5.4,18.7,18.7,0,0,1-10.7-.5,24.6,24.6,0,0,1-10.4-7,57.1,57.1,0,0,1-9.4-14.3,117.8,117.8,0,0,1-7.6-22.3,109.2,109.2,0,0,1-3.6-23.9,55.3,55.3,0,0,1,1.7-16.8,23.5,23.5,0,0,1,6.2-10.5,21,21,0,0,1,9.4-5,18.3,18.3,0,0,1,10.6.4,24,24,0,0,1,10.3,6.9,53.9,53.9,0,0,1,9.4,14.1A116.6,116.6,0,0,1,299.7,322.1Zm32-46.6c-1.4,11.6-2.8,24.6-4.2,39.1s-2.7,30-4,46.8-2.4,34.7-3.5,53.6-2.1,38.7-2.9,59.4l-8-.3c-2.2,0-4.6,0-7,.2a21.7,21.7,0,0,0-6.2,1c1.5-9.8,2.9-20.5,4.2-32.2s2.6-23.7,3.8-36.1,2.2-24.8,3.1-37.3,1.7-24.5,2.4-36,1.1-22.2,1.3-32,.4-18.3.2-25.5Zm-49.4,50.8c-3-12.4-6.1-21.3-9-26.4s-5.7-7.5-8-6.9a5,5,0,0,0-3,2.6,17.6,17.6,0,0,0-1.2,6.6,66,66,0,0,0,.9,11.5c.7,4.6,1.9,10.2,3.5,16.8q4.5,18.8,9,26.7c3.1,5.3,5.8,7.7,8.2,7.1s3.7-4,3.9-10.1S285.3,338.7,282.3,326.3Zm99,91.3a116,116,0,0,1,3.4,23.2,57.8,57.8,0,0,1-1.7,17,25.9,25.9,0,0,1-6.1,11,18.5,18.5,0,0,1-9.2,5.4,19.6,19.6,0,0,1-10.7-.5,25.6,25.6,0,0,1-10.4-6.9,54.5,54.5,0,0,1-9.4-14.3,108.9,108.9,0,0,1-7.6-22.3,106,106,0,0,1-3.6-23.7,52.1,52.1,0,0,1,1.8-16.8,22.9,22.9,0,0,1,6.1-10.6,19.9,19.9,0,0,1,9.3-5.1,19.5,19.5,0,0,1,10.7.4,24.3,24.3,0,0,1,10.4,6.9,55.6,55.6,0,0,1,9.4,14.1A116.6,116.6,0,0,1,381.3,417.6Z" transform="translate(-104.5 -123.3)"/><path class="cls-23" d="M364.4,421.3c-3-12.4-6-21.3-9-26.5s-5.6-7.5-8-6.9a4.4,4.4,0,0,0-3,2.7,17.8,17.8,0,0,0-1.2,6.7,62.6,62.6,0,0,0,.9,11.3c.7,4.6,1.8,10.2,3.4,16.8,3.1,12.6,6.1,21.6,9.1,26.8s5.7,7.5,8.1,6.9,3.8-3.9,4-10S367.5,433.8,364.4,421.3Zm-64.2-100a116.1,116.1,0,0,1,3.4,23.1,58.2,58.2,0,0,1-1.7,17.1c-1.4,4.7-3.3,8.4-6,11.2a17.8,17.8,0,0,1-9.2,5.4,18.7,18.7,0,0,1-10.7-.5c-3.7-1.1-7.1-3.5-10.5-7a58.8,58.8,0,0,1-9.4-14.4,115.3,115.3,0,0,1-7.6-22.3,116.4,116.4,0,0,1-3.7-24,58.3,58.3,0,0,1,1.8-16.8,23.5,23.5,0,0,1,6.2-10.5,21,21,0,0,1,9.4-5,18.3,18.3,0,0,1,10.6.4,24.3,24.3,0,0,1,10.4,6.9,56.3,56.3,0,0,1,9.3,14.2A109.7,109.7,0,0,1,300.2,321.3Zm32-46.7c-1.4,11.6-2.8,24.7-4.1,39.1s-2.8,30.2-4,47-2.5,34.7-3.6,53.7-2,38.8-2.9,59.5l-8-.3c-2.2-.1-4.6,0-7,.1a25.6,25.6,0,0,0-6.2,1.1c1.5-9.8,2.9-20.5,4.2-32.2s2.6-23.8,3.8-36.2,2.2-24.9,3.1-37.4,1.7-24.5,2.4-36.1,1.1-22.2,1.4-32,.3-18.4.2-25.6Zm-49.4,51c-3.1-12.6-6.1-21.4-9.1-26.6s-5.6-7.4-8-6.9a4.9,4.9,0,0,0-3,2.7,16.8,16.8,0,0,0-1.2,6.6,91.3,91.3,0,0,0,.9,11.4c.7,4.7,1.9,10.3,3.5,16.9,3,12.5,6.1,21.4,9.1,26.7s5.7,7.7,8.2,7.1,3.7-3.9,3.8-10.1S285.8,338,282.8,325.6ZM381.9,417a116.8,116.8,0,0,1,3.5,23.2,53.7,53.7,0,0,1-1.8,17,24.6,24.6,0,0,1-6,11.1,19.2,19.2,0,0,1-9.3,5.4,19.6,19.6,0,0,1-10.7-.5,25.8,25.8,0,0,1-10.5-7c-3.3-3.4-6.4-8.2-9.3-14.2a111.9,111.9,0,0,1-7.7-22.4,118.8,118.8,0,0,1-3.6-23.8,52.1,52.1,0,0,1,1.8-16.8,23.5,23.5,0,0,1,6.2-10.6,20,20,0,0,1,20-4.7,23.7,23.7,0,0,1,10.4,6.9,53.8,53.8,0,0,1,9.4,14.2A107.8,107.8,0,0,1,381.9,417Z" transform="translate(-104.5 -123.3)"/><path class="cls-23" d="M365,420.7c-3-12.5-6-21.3-9-26.5s-5.6-7.6-8-7a4.4,4.4,0,0,0-3,2.7,14.6,14.6,0,0,0-1.2,6.7,64.3,64.3,0,0,0,.9,11.4c.7,4.6,1.8,10.2,3.4,16.8,3.1,12.7,6.1,21.6,9.1,26.8s5.8,7.6,8.2,7,3.7-3.9,3.9-10S368.1,433.2,365,420.7ZM300.7,320.5a116,116,0,0,1,3.4,23.2,57.8,57.8,0,0,1-1.7,17c-1.4,4.8-3.3,8.5-6,11.3a17.8,17.8,0,0,1-9.2,5.4,19.9,19.9,0,0,1-10.8-.4,25.8,25.8,0,0,1-10.4-7.1,57.9,57.9,0,0,1-9.5-14.4,116.5,116.5,0,0,1-7.6-22.4,116.4,116.4,0,0,1-3.7-24,59.5,59.5,0,0,1,1.8-16.9,23.5,23.5,0,0,1,6.2-10.5,21,21,0,0,1,9.4-5,19.5,19.5,0,0,1,10.7.4c3.6,1.1,7,3.4,10.4,6.9a56.3,56.3,0,0,1,9.3,14.2A114.9,114.9,0,0,1,300.7,320.5Zm32.1-46.8c-1.4,11.7-2.8,24.7-4.2,39.2s-2.7,30.2-4,47.1-2.5,34.8-3.5,53.8-2.1,38.8-3,59.6l-8-.3c-2.2-.1-4.6,0-7,.1a27.4,27.4,0,0,0-6.3,1.1c1.6-9.8,3-20.6,4.3-32.3s2.6-23.8,3.8-36.2,2.2-25,3.2-37.5,1.7-24.6,2.3-36.1,1.1-22.3,1.4-32.2.3-18.4.2-25.6Zm-49.6,51.1c-3-12.6-6-21.4-9-26.6s-5.7-7.5-8-6.9a4.5,4.5,0,0,0-3,2.6c-.8,1.4-1.2,3.7-1.3,6.7a77.5,77.5,0,0,0,1,11.4c.7,4.7,1.8,10.3,3.4,16.9,3.1,12.5,6.1,21.5,9.2,26.8s5.7,7.7,8.1,7.1,3.7-3.9,3.9-10.1S286.3,337.2,283.2,324.8Zm99.4,91.6a109.1,109.1,0,0,1,3.4,23.2,58.2,58.2,0,0,1-1.7,17.1,24.6,24.6,0,0,1-6,11.1,20.4,20.4,0,0,1-9.4,5.4,19.6,19.6,0,0,1-10.7-.5,26.5,26.5,0,0,1-10.5-7,58,58,0,0,1-9.4-14.3,116.5,116.5,0,0,1-7.6-22.4,118.8,118.8,0,0,1-3.6-23.8,52.7,52.7,0,0,1,1.8-16.9,23.4,23.4,0,0,1,6.1-10.6,20.3,20.3,0,0,1,9.4-5.1,19.5,19.5,0,0,1,10.7.4,24,24,0,0,1,10.5,6.9,56.3,56.3,0,0,1,9.3,14.2A108.6,108.6,0,0,1,382.6,416.4Z" transform="translate(-104.5 -123.3)"/><path class="cls-23" d="M365.7,420.1c-3.1-12.5-6.1-21.4-9-26.6s-5.7-7.6-8.1-7a4.4,4.4,0,0,0-3,2.7,15,15,0,0,0-1.2,6.8,64.3,64.3,0,0,0,.9,11.4c.7,4.6,1.8,10.2,3.4,16.8,3.1,12.7,6.1,21.6,9.2,26.9s5.7,7.5,8.1,6.9,3.8-3.9,4-10S368.7,432.6,365.7,420.1ZM301.2,319.7a116,116,0,0,1,3.4,23.2,58.2,58.2,0,0,1-1.7,17.1c-1.4,4.8-3.3,8.5-6,11.3a17.8,17.8,0,0,1-9.2,5.4,19.9,19.9,0,0,1-10.8-.4,25.5,25.5,0,0,1-10.5-7.1,57,57,0,0,1-9.4-14.4,114.1,114.1,0,0,1-7.7-22.4,118.3,118.3,0,0,1-3.7-24.1c-.2-6.8.4-12.4,1.8-16.9a23.9,23.9,0,0,1,6.2-10.6,21,21,0,0,1,9.4-5,19.5,19.5,0,0,1,10.7.4,24.3,24.3,0,0,1,10.4,6.9,54.5,54.5,0,0,1,9.4,14.3A114.9,114.9,0,0,1,301.2,319.7Zm32.1-46.9c-1.4,11.7-2.7,24.8-4.1,39.3s-2.8,30.2-4,47.1-2.5,34.9-3.6,54-2,38.9-2.9,59.7l-8.1-.3c-2.2-.1-4.5,0-7,.1a27.4,27.4,0,0,0-6.3,1.1c1.6-9.8,3-20.6,4.3-32.4s2.6-23.8,3.8-36.3,2.2-24.9,3.2-37.5,1.7-24.6,2.3-36.2,1.1-22.3,1.4-32.2.4-18.5.2-25.7ZM283.7,324c-3.1-12.6-6.1-21.5-9.1-26.7s-5.6-7.5-8-6.9a5,5,0,0,0-3,2.6,14.6,14.6,0,0,0-1.2,6.7,65.3,65.3,0,0,0,.9,11.5,165.9,165.9,0,0,0,3.5,16.9c3,12.6,6.1,21.5,9.1,26.9s5.8,7.7,8.2,7.1,3.7-4,3.9-10.2S286.7,336.4,283.7,324Zm99.5,91.8a109.8,109.8,0,0,1,3.5,23.3,58.2,58.2,0,0,1-1.7,17.1,25.7,25.7,0,0,1-6.1,11.1,19.1,19.1,0,0,1-20.1,4.9,26.5,26.5,0,0,1-10.5-7,60,60,0,0,1-9.4-14.3,114.5,114.5,0,0,1-7.6-22.4,115.5,115.5,0,0,1-3.7-24,52.1,52.1,0,0,1,1.8-16.8,24.3,24.3,0,0,1,6.2-10.7,21.2,21.2,0,0,1,9.4-5.1,19.5,19.5,0,0,1,10.7.4,24,24,0,0,1,10.5,6.9,56.4,56.4,0,0,1,9.4,14.2A112.2,112.2,0,0,1,383.2,415.8Z" transform="translate(-104.5 -123.3)"/><path class="cls-23" d="M366.3,419.5q-4.7-18.7-9-26.7c-3-5.2-5.7-7.5-8.1-7a4.8,4.8,0,0,0-3,2.8,15.8,15.8,0,0,0-1.3,6.7,79.8,79.8,0,0,0,1,11.5,166.5,166.5,0,0,0,3.4,16.8c3.1,12.7,6.2,21.7,9.2,26.9s5.7,7.6,8.1,7,3.8-3.9,4-10S369.4,432.1,366.3,419.5ZM301.7,318.9a109.1,109.1,0,0,1,3.4,23.2,58.9,58.9,0,0,1-1.7,17.2c-1.4,4.8-3.3,8.5-6,11.3a18.1,18.1,0,0,1-9.3,5.4,19.9,19.9,0,0,1-10.8-.4,26.8,26.8,0,0,1-10.5-7.1,58.6,58.6,0,0,1-9.4-14.5c-3-6-5.5-13.5-7.7-22.4a118.3,118.3,0,0,1-3.7-24.1,53.4,53.4,0,0,1,1.8-17A23.5,23.5,0,0,1,254,280a21,21,0,0,1,9.5-5.1,19.5,19.5,0,0,1,10.7.4c3.6,1.1,7,3.5,10.4,7a56.4,56.4,0,0,1,9.4,14.2A116.1,116.1,0,0,1,301.7,318.9Zm32.2-47c-1.4,11.7-2.8,24.8-4.2,39.4s-2.7,30.3-4,47.2-2.5,35-3.6,54-2,39-2.9,59.9l-8.1-.3c-2.2-.1-4.5,0-7,.1a27.4,27.4,0,0,0-6.3,1.1c1.6-9.9,3-20.6,4.3-32.4s2.6-23.9,3.8-36.4,2.3-25,3.2-37.6,1.7-24.7,2.3-36.3,1.1-22.4,1.4-32.3.4-18.4.2-25.6Zm-49.7,51.3c-3.1-12.6-6.1-21.5-9.1-26.7s-5.7-7.5-8.1-6.9a4.7,4.7,0,0,0-3,2.6,17.4,17.4,0,0,0-1.2,6.7,66,66,0,0,0,.9,11.5c.7,4.6,1.9,10.3,3.5,16.9,3.1,12.6,6.1,21.6,9.2,26.9s5.7,7.8,8.2,7.2,3.7-4,3.9-10.2S287.2,335.7,284.2,323.2Zm99.7,92a116.7,116.7,0,0,1,3.5,23.3,54.7,54.7,0,0,1-1.8,17.1,25,25,0,0,1-6,11.2,20.9,20.9,0,0,1-9.4,5.4,20,20,0,0,1-10.8-.5,26.5,26.5,0,0,1-10.5-7,56.1,56.1,0,0,1-9.4-14.4c-3-6-5.5-13.5-7.7-22.4a122.6,122.6,0,0,1-3.6-24A52.7,52.7,0,0,1,330,387a23.4,23.4,0,0,1,6.2-10.7,20.7,20.7,0,0,1,9.4-5.1,19.5,19.5,0,0,1,10.7.4,24,24,0,0,1,10.5,6.9,54.5,54.5,0,0,1,9.4,14.3C379.2,398.8,381.7,406.3,383.9,415.2Z" transform="translate(-104.5 -123.3)"/><path class="cls-23" d="M366.9,418.9c-3-12.6-6.1-21.4-9-26.7s-5.7-7.6-8.1-7a4.8,4.8,0,0,0-3.1,2.7,18.4,18.4,0,0,0-1.2,6.8,91.3,91.3,0,0,0,.9,11.4c.7,4.6,1.9,10.3,3.5,16.9,3.1,12.7,6.2,21.7,9.2,27s5.7,7.6,8.2,7,3.7-4,3.9-10.1S370,431.5,366.9,418.9ZM302.2,318.1a110,110,0,0,1,3.4,23.3,59.3,59.3,0,0,1-1.7,17.2,28.2,28.2,0,0,1-6,11.3,19.4,19.4,0,0,1-9.3,5.5,20,20,0,0,1-10.8-.5,25.5,25.5,0,0,1-10.5-7.1,56,56,0,0,1-9.5-14.5,113,113,0,0,1-7.7-22.5,118.1,118.1,0,0,1-3.7-24.2,52.7,52.7,0,0,1,1.8-16.9,23.3,23.3,0,0,1,6.2-10.6,22.6,22.6,0,0,1,9.5-5.1,19.5,19.5,0,0,1,10.7.4,26.5,26.5,0,0,1,10.5,7,57.1,57.1,0,0,1,9.4,14.3A116.1,116.1,0,0,1,302.2,318.1ZM334.5,271c-1.4,11.7-2.8,24.9-4.2,39.5s-2.8,30.3-4,47.3-2.5,35-3.6,54.1-2.1,39.1-3,60l-8-.3c-2.3-.1-4.6,0-7.1.1a27.4,27.4,0,0,0-6.3,1.1c1.6-9.9,3-20.7,4.3-32.5s2.7-23.9,3.8-36.4,2.3-25.1,3.2-37.7,1.7-24.8,2.4-36.4,1.1-22.4,1.4-32.3.3-18.5.2-25.7Zm-49.9,51.4c-3-12.6-6.1-21.6-9.1-26.8s-5.7-7.5-8-6.9a4.5,4.5,0,0,0-3,2.6,15.8,15.8,0,0,0-1.3,6.7,77.8,77.8,0,0,0,.9,11.6c.7,4.6,1.9,10.3,3.5,16.9,3.1,12.6,6.2,21.6,9.2,27s5.8,7.8,8.2,7.2,3.8-4,3.9-10.2S287.7,334.9,284.6,322.4Zm100,92.2a110,110,0,0,1,3.4,23.3,58.5,58.5,0,0,1-1.7,17.2,25.7,25.7,0,0,1-6.1,11.2,19.3,19.3,0,0,1-20.2,4.9,26.5,26.5,0,0,1-10.5-7,56.1,56.1,0,0,1-9.4-14.4,113,113,0,0,1-7.7-22.5,116.4,116.4,0,0,1-3.7-24,56.4,56.4,0,0,1,1.8-17,24.8,24.8,0,0,1,6.2-10.7,21,21,0,0,1,9.5-5.1,19.9,19.9,0,0,1,10.8.4,25.2,25.2,0,0,1,10.5,6.9,57.1,57.1,0,0,1,9.4,14.3A117.3,117.3,0,0,1,384.6,414.6Z" transform="translate(-104.5 -123.3)"/><path class="cls-23" d="M367.5,418.2q-4.5-18.7-9-26.7c-3-5.3-5.7-7.6-8.2-7a4.9,4.9,0,0,0-3,2.7,18.4,18.4,0,0,0-1.2,6.8,76.6,76.6,0,0,0,.9,11.5c.7,4.6,1.9,10.3,3.5,16.9,3.1,12.8,6.2,21.8,9.2,27s5.7,7.6,8.2,7.1,3.8-4,4-10.1S370.6,430.9,367.5,418.2ZM302.7,317.3a110,110,0,0,1,3.4,23.3,60,60,0,0,1-1.7,17.3,28.2,28.2,0,0,1-6,11.3,19.4,19.4,0,0,1-9.3,5.5,19.9,19.9,0,0,1-10.8-.5,26.4,26.4,0,0,1-10.6-7.1,58.7,58.7,0,0,1-9.5-14.5,111.9,111.9,0,0,1-7.7-22.6,118.1,118.1,0,0,1-3.7-24.2,53.4,53.4,0,0,1,1.8-17,23.1,23.1,0,0,1,6.3-10.6,21.7,21.7,0,0,1,9.4-5.1,20.9,20.9,0,0,1,10.8.4,25.5,25.5,0,0,1,10.4,7c3.4,3.5,6.5,8.3,9.5,14.3A119.8,119.8,0,0,1,302.7,317.3ZM335,270.1q-2.1,17.7-4.2,39.6c-1.4,14.6-2.7,30.4-4,47.4s-2.5,35-3.6,54.2-2,39.2-2.9,60.1l-8.1-.3c-2.3-.1-4.6,0-7.1.1a27.4,27.4,0,0,0-6.3,1.1c1.5-9.9,3-20.7,4.3-32.5s2.7-24,3.8-36.6,2.3-25.1,3.2-37.7,1.7-24.8,2.4-36.5,1.1-22.4,1.4-32.4.3-18.5.2-25.7Zm-49.9,51.5C282,308.9,279,300,276,294.8s-5.7-7.5-8.1-7a4.4,4.4,0,0,0-3,2.7c-.8,1.4-1.2,3.7-1.3,6.7a78.7,78.7,0,0,0,1,11.5,167.2,167.2,0,0,0,3.5,17c3,12.7,6.1,21.7,9.2,27.1s5.7,7.7,8.2,7.1,3.7-4,3.9-10.2S288.2,334.1,285.1,321.6Zm100.1,92.3a112.5,112.5,0,0,1,3.5,23.4,59.2,59.2,0,0,1-1.7,17.3,26.7,26.7,0,0,1-6.1,11.2,20.9,20.9,0,0,1-9.4,5.4,19.9,19.9,0,0,1-10.8-.5,25.4,25.4,0,0,1-10.6-7.1,58.8,58.8,0,0,1-9.5-14.4,119.8,119.8,0,0,1-7.7-22.5,122.4,122.4,0,0,1-3.6-24.1,53.7,53.7,0,0,1,1.8-17,24.8,24.8,0,0,1,6.2-10.7,21,21,0,0,1,9.5-5.1,19.9,19.9,0,0,1,10.8.4,25.2,25.2,0,0,1,10.5,6.9,57.9,57.9,0,0,1,9.4,14.4C380.5,397.5,383,405,385.2,413.9Z" transform="translate(-104.5 -123.3)"/><path class="cls-23" d="M368.2,417.6c-3.1-12.5-6.1-21.4-9.1-26.7s-5.7-7.7-8.2-7.1a5.1,5.1,0,0,0-3,2.8,18,18,0,0,0-1.2,6.8,66,66,0,0,0,.9,11.5c.7,4.6,1.9,10.2,3.5,16.9,3.1,12.8,6.2,21.8,9.2,27.1s5.8,7.6,8.2,7,3.8-3.9,4-10.1S371.3,430.3,368.2,417.6Zm-65-101.1a109.9,109.9,0,0,1,3.4,23.4,59.3,59.3,0,0,1-1.7,17.2,28,28,0,0,1-6,11.4,19.4,19.4,0,0,1-9.3,5.5,20.3,20.3,0,0,1-10.9-.5,26.4,26.4,0,0,1-10.6-7.1c-3.4-3.6-6.5-8.5-9.5-14.6a118.5,118.5,0,0,1-7.7-22.6,118.1,118.1,0,0,1-3.7-24.2c-.2-6.8.4-12.5,1.8-17a23.5,23.5,0,0,1,6.3-10.7,21.7,21.7,0,0,1,9.4-5.1,20.9,20.9,0,0,1,10.8.4,26.5,26.5,0,0,1,10.5,7,57.9,57.9,0,0,1,9.5,14.4A114.9,114.9,0,0,1,303.2,316.5Zm32.4-47.3q-2.1,17.7-4.2,39.6c-1.4,14.7-2.8,30.5-4.1,47.5s-2.4,35.2-3.5,54.4-2.1,39.2-3,60.1l-8.1-.2c-2.2-.1-4.6,0-7.1.1a27.4,27.4,0,0,0-6.3,1.1c1.5-9.9,3-20.8,4.3-32.6s2.7-24.1,3.9-36.6,2.2-25.2,3.1-37.8,1.8-24.9,2.4-36.6,1.1-22.4,1.4-32.4.4-18.6.2-25.8Zm-50,51.6c-3.1-12.7-6.2-21.6-9.2-26.9s-5.7-7.5-8.1-6.9a5,5,0,0,0-3,2.6c-.8,1.5-1.2,3.7-1.2,6.8a66,66,0,0,0,.9,11.5c.7,4.7,1.9,10.4,3.5,17.1,3.1,12.6,6.1,21.7,9.2,27s5.8,7.8,8.3,7.2,3.7-4,3.9-10.2S288.6,333.4,285.6,320.8Zm100.3,92.5a119.5,119.5,0,0,1,3.5,23.5,55,55,0,0,1-1.8,17.2,24.6,24.6,0,0,1-6.1,11.2,19.3,19.3,0,0,1-9.4,5.5,20,20,0,0,1-10.8-.5,26.4,26.4,0,0,1-10.6-7.1c-3.4-3.5-6.5-8.3-9.5-14.4a118.5,118.5,0,0,1-7.7-22.6,116.3,116.3,0,0,1-3.7-24.1,59.4,59.4,0,0,1,1.8-17,23,23,0,0,1,6.3-10.7,20.2,20.2,0,0,1,20.3-4.8,23.9,23.9,0,0,1,10.5,7c3.4,3.5,6.5,8.3,9.5,14.3A119.8,119.8,0,0,1,385.9,413.3Z" transform="translate(-104.5 -123.3)"/><path class="cls-23" d="M368.8,417c-3.1-12.5-6.1-21.5-9.1-26.8s-5.7-7.6-8.2-7a4.9,4.9,0,0,0-3,2.7,18.4,18.4,0,0,0-1.2,6.8,65.3,65.3,0,0,0,.9,11.5,172.9,172.9,0,0,0,3.5,17c3.1,12.8,6.2,21.9,9.2,27.1s5.8,7.7,8.2,7.1,3.8-4,4-10.1S371.9,429.7,368.8,417ZM303.7,315.7a111.7,111.7,0,0,1,3.4,23.4,59.6,59.6,0,0,1-1.7,17.3,28,28,0,0,1-6,11.4,19.3,19.3,0,0,1-9.4,5.5,20,20,0,0,1-10.8-.5,25.1,25.1,0,0,1-10.6-7.2,56.9,56.9,0,0,1-9.6-14.5,136.9,136.9,0,0,1-11.4-46.9,54,54,0,0,1,1.8-17.1,23.5,23.5,0,0,1,6.3-10.7,22,22,0,0,1,9.5-5.1,20,20,0,0,1,10.8.5,24.5,24.5,0,0,1,10.5,7,57.1,57.1,0,0,1,9.4,14.3A111.6,111.6,0,0,1,303.7,315.7Zm32.5-47.4c-1.5,11.8-2.9,25.1-4.3,39.7s-2.7,30.5-4,47.6-2.5,35.2-3.6,54.5-2.1,39.3-3,60.2l-8.1-.2c-2.2-.1-4.6,0-7.1.1a34.7,34.7,0,0,0-6.3,1c1.5-9.8,3-20.7,4.3-32.6s2.7-24.1,3.9-36.6,2.2-25.3,3.1-38,1.8-24.8,2.4-36.5,1.1-22.6,1.4-32.5.4-18.7.2-25.9ZM286,320c-3.1-12.7-6.1-21.7-9.1-26.9s-5.8-7.6-8.1-7a4.8,4.8,0,0,0-3.1,2.7,17.4,17.4,0,0,0-1.2,6.7,67,67,0,0,0,.9,11.6c.7,4.7,1.9,10.4,3.5,17.1,3.1,12.7,6.2,21.7,9.3,27.1s5.8,7.8,8.2,7.2,3.8-4,4-10.3S289.1,332.6,286,320Zm100.5,92.7a113.2,113.2,0,0,1,3.6,23.5,62.5,62.5,0,0,1-1.8,17.3c-1.4,4.7-3.4,8.5-6.1,11.2a19.3,19.3,0,0,1-20.3,5,26.4,26.4,0,0,1-10.6-7.1c-3.4-3.5-6.5-8.3-9.5-14.5a106,106,0,0,1-7.7-22.6,116.3,116.3,0,0,1-3.7-24.1,54,54,0,0,1,1.8-17.1,23.5,23.5,0,0,1,6.3-10.7,20,20,0,0,1,9.4-5.2,20.2,20.2,0,0,1,10.9.4,23.4,23.4,0,0,1,10.5,7,53.6,53.6,0,0,1,9.5,14.4A103.1,103.1,0,0,1,386.5,412.7Z" transform="translate(-104.5 -123.3)"/><path class="cls-23" d="M369.4,416.4c-3.1-12.6-6.1-21.5-9.1-26.8s-5.7-7.7-8.2-7.1a4.6,4.6,0,0,0-3,2.7q-1.2,2.3-1.2,6.9a66,66,0,0,0,.9,11.5,172.9,172.9,0,0,0,3.5,17c3.1,12.8,6.2,21.9,9.2,27.2s5.8,7.7,8.3,7.1,3.8-4,4-10.2S372.5,429.1,369.4,416.4ZM304.2,314.9a119.7,119.7,0,0,1,3.5,23.4,63.7,63.7,0,0,1-1.8,17.4,28,28,0,0,1-6,11.4,19.2,19.2,0,0,1-20.3,5,25.7,25.7,0,0,1-10.6-7.2,56.9,56.9,0,0,1-9.6-14.5,122.2,122.2,0,0,1-7.7-22.7,119.8,119.8,0,0,1-3.7-24.4,54,54,0,0,1,1.8-17.1,23.1,23.1,0,0,1,6.3-10.6,20.1,20.1,0,0,1,9.5-5.1,18.9,18.9,0,0,1,10.8.4,24.5,24.5,0,0,1,10.5,7,53.6,53.6,0,0,1,9.5,14.4A111.6,111.6,0,0,1,304.2,314.9Zm32.5-47.5c-1.4,11.8-2.8,25.1-4.2,39.8s-2.8,30.6-4.1,47.7-2.5,35.3-3.5,54.5-2.1,39.4-3,60.4l-8.2-.2c-2.2-.1-4.6,0-7.1.1a33.3,33.3,0,0,0-6.3,1c1.5-9.9,3-20.8,4.3-32.6s2.7-24.2,3.9-36.8,2.2-25.2,3.2-38,1.7-24.9,2.3-36.6,1.1-22.6,1.4-32.6.4-18.6.2-25.9Zm-50.2,51.8c-3.1-12.7-6.2-21.7-9.2-26.9s-5.7-7.6-8.1-7a4.5,4.5,0,0,0-3,2.6c-.8,1.5-1.2,3.7-1.3,6.8a68.6,68.6,0,0,0,1,11.6,174.1,174.1,0,0,0,3.5,17.1c3.1,12.7,6.1,21.8,9.2,27.2s5.8,7.8,8.3,7.2,3.8-4,3.9-10.3S289.6,331.8,286.5,319.2Zm100.7,92.9a112.4,112.4,0,0,1,3.5,23.5A60.3,60.3,0,0,1,389,453c-1.4,4.7-3.4,8.5-6.2,11.2a19.7,19.7,0,0,1-9.4,5.5,20.3,20.3,0,0,1-10.9-.5,26.4,26.4,0,0,1-10.6-7.1,54.3,54.3,0,0,1-9.5-14.5,112.7,112.7,0,0,1-7.8-22.7,117.1,117.1,0,0,1-3.7-24.2c-.1-6.8.5-12.5,1.9-17.1a23.9,23.9,0,0,1,6.2-10.7,20.8,20.8,0,0,1,9.5-5.2,20.2,20.2,0,0,1,10.9.4,24.2,24.2,0,0,1,10.6,7,58.8,58.8,0,0,1,9.5,14.4A118.5,118.5,0,0,1,387.2,412.1Z" transform="translate(-104.5 -123.3)"/><path class="cls-23" d="M370,415.8c-3-12.6-6.1-21.6-9.1-26.9s-5.7-7.7-8.2-7.1a4.4,4.4,0,0,0-3,2.8,15,15,0,0,0-1.2,6.8,66.3,66.3,0,0,0,.9,11.6c.7,4.6,1.8,10.3,3.5,17,3.1,12.9,6.2,21.9,9.2,27.3s5.8,7.6,8.3,7,3.8-4,4-10.1S373.2,428.6,370,415.8ZM304.7,314.1a119.5,119.5,0,0,1,3.5,23.5,64.2,64.2,0,0,1-1.8,17.4,26.9,26.9,0,0,1-6.1,11.4,19,19,0,0,1-9.3,5.5,19.3,19.3,0,0,1-10.9-.5,26,26,0,0,1-10.7-7.2,55,55,0,0,1-9.5-14.6,112.7,112.7,0,0,1-7.8-22.7c-2.3-9.4-3.6-17.6-3.7-24.4a54,54,0,0,1,1.8-17.1,23,23,0,0,1,6.3-10.7,20.6,20.6,0,0,1,9.5-5.1,18.9,18.9,0,0,1,10.8.4c3.7,1.1,7.2,3.5,10.6,7a59.9,59.9,0,0,1,9.5,14.4A112.7,112.7,0,0,1,304.7,314.1Zm32.6-47.6q-2.1,17.8-4.2,39.9c-1.5,14.7-2.8,30.6-4.1,47.8s-2.5,35.3-3.6,54.6-2.1,39.5-3,60.5l-8.1-.2c-2.3-.1-4.7,0-7.2.1a33.3,33.3,0,0,0-6.3,1c1.5-9.9,3-20.8,4.3-32.7s2.7-24.2,3.9-36.8,2.2-25.3,3.2-38.1,1.7-25,2.3-36.7,1.2-22.6,1.5-32.6.3-18.7.2-26ZM287,318.4c-3.1-12.7-6.2-21.7-9.2-27s-5.8-7.6-8.2-7a4.6,4.6,0,0,0-3,2.7c-.8,1.4-1.2,3.7-1.3,6.7a82.2,82.2,0,0,0,1,11.7c.7,4.7,1.9,10.4,3.5,17.1,3.1,12.7,6.2,21.8,9.3,27.2s5.8,7.9,8.3,7.3,3.7-4.1,3.9-10.3S290,331,287,318.4Zm100.9,93.1a119.3,119.3,0,0,1,3.5,23.6,55.7,55.7,0,0,1-1.8,17.3,25.5,25.5,0,0,1-6.1,11.3,20,20,0,0,1-9.5,5.5,20.3,20.3,0,0,1-10.9-.5,26.4,26.4,0,0,1-10.6-7.1,57.7,57.7,0,0,1-9.6-14.6,119.7,119.7,0,0,1-7.7-22.7,117.1,117.1,0,0,1-3.7-24.2,54,54,0,0,1,1.8-17.1,23.8,23.8,0,0,1,6.3-10.8,20.3,20.3,0,0,1,9.5-5.2,19.3,19.3,0,0,1,10.9.4c3.7,1.1,7.2,3.5,10.6,7a55.3,55.3,0,0,1,9.5,14.4A112.7,112.7,0,0,1,387.9,411.5Z" transform="translate(-104.5 -123.3)"/><path class="cls-23" d="M370.7,415.2c-3.1-12.6-6.2-21.6-9.2-27s-5.7-7.7-8.2-7.1a4.6,4.6,0,0,0-3,2.8c-.8,1.5-1.2,3.8-1.3,6.9a78.7,78.7,0,0,0,1,11.5,174.1,174.1,0,0,0,3.5,17.1c3.1,12.9,6.2,22,9.2,27.3s5.9,7.7,8.3,7.1,3.8-4,4-10.2S373.8,428,370.7,415.2ZM305.2,313.3a120.6,120.6,0,0,1,3.5,23.5,63.7,63.7,0,0,1-1.8,17.4c-1.4,4.9-3.4,8.7-6.1,11.5a19.2,19.2,0,0,1-20.3,5,26,26,0,0,1-10.7-7.2,57.6,57.6,0,0,1-9.5-14.6,113.8,113.8,0,0,1-7.8-22.8c-2.3-9.4-3.6-17.6-3.7-24.4s.4-12.6,1.8-17.2a23.5,23.5,0,0,1,6.3-10.7,21.3,21.3,0,0,1,9.6-5.1,19,19,0,0,1,10.8.4,25.7,25.7,0,0,1,10.6,7,61.7,61.7,0,0,1,9.5,14.5A112.7,112.7,0,0,1,305.2,313.3Zm32.7-47.7c-1.5,11.9-2.9,25.2-4.3,40s-2.8,30.7-4.1,47.8-2.5,35.5-3.6,54.8-2.1,39.5-3,60.6l-8.1-.2c-2.3-.1-4.7,0-7.1.1a33.1,33.1,0,0,0-6.4,1c1.5-9.9,3-20.8,4.3-32.8s2.7-24.2,3.9-36.9,2.3-25.3,3.2-38.1,1.7-25,2.4-36.8,1.1-22.6,1.4-32.7.4-18.7.2-26Zm-50.5,52c-3.1-12.8-6.2-21.8-9.2-27s-5.7-7.6-8.1-7.1a4.8,4.8,0,0,0-3.1,2.7c-.8,1.5-1.2,3.7-1.2,6.8a67,67,0,0,0,.9,11.6c.7,4.8,1.9,10.5,3.5,17.2q4.7,19.2,9.3,27.3c3.1,5.4,5.9,7.8,8.3,7.2s3.8-4,4-10.3S290.5,330.3,287.4,317.6Zm101.1,93.3a114.1,114.1,0,0,1,3.6,23.6,63.7,63.7,0,0,1-1.8,17.4,25.6,25.6,0,0,1-6.2,11.3,19.6,19.6,0,0,1-9.5,5.5,20.3,20.3,0,0,1-10.9-.5,26.4,26.4,0,0,1-10.6-7.1,57.7,57.7,0,0,1-9.6-14.6,111.6,111.6,0,0,1-7.8-22.8,124.1,124.1,0,0,1-3.7-24.3c-.1-6.8.5-12.5,1.9-17.1a23.8,23.8,0,0,1,6.3-10.8,19.8,19.8,0,0,1,9.5-5.2,19.3,19.3,0,0,1,10.9.4c3.7,1.1,7.2,3.5,10.6,7a58.8,58.8,0,0,1,9.6,14.5A117.3,117.3,0,0,1,388.5,410.9Z" transform="translate(-104.5 -123.3)"/><path class="cls-23" d="M371.3,414.6c-3.1-12.7-6.1-21.7-9.2-27s-5.7-7.7-8.2-7.1a4.4,4.4,0,0,0-3,2.7,16.9,16.9,0,0,0-1.3,6.9,79.9,79.9,0,0,0,1,11.6,170.1,170.1,0,0,0,3.4,17.1c3.2,12.9,6.3,22,9.4,27.4s5.8,7.7,8.2,7.1,3.9-4,4.1-10.2S374.4,427.4,371.3,414.6ZM305.7,312.5a120.4,120.4,0,0,1,3.5,23.6c.1,6.8-.4,12.6-1.8,17.4s-3.4,8.7-6.1,11.5a19.2,19.2,0,0,1-20.3,5,26,26,0,0,1-10.7-7.2,59.5,59.5,0,0,1-9.6-14.6,114.9,114.9,0,0,1-7.8-22.9c-2.3-9.4-3.6-17.6-3.7-24.5a54,54,0,0,1,1.8-17.1,23.8,23.8,0,0,1,6.3-10.8,22.4,22.4,0,0,1,9.6-5.1,19.9,19.9,0,0,1,10.8.4,25.4,25.4,0,0,1,10.6,7.1,55.2,55.2,0,0,1,9.6,14.5A110.5,110.5,0,0,1,305.7,312.5Zm32.7-47.8c-1.4,11.9-2.8,25.3-4.2,40s-2.8,30.8-4.1,48-2.5,35.5-3.6,54.9-2.1,39.6-3,60.7l-8.2-.3-7.1.2a33.1,33.1,0,0,0-6.4,1c1.5-9.9,3-20.9,4.3-32.8s2.7-24.3,3.9-37,2.3-25.4,3.2-38.2,1.7-25.1,2.4-36.9,1.1-22.7,1.4-32.7.4-18.8.2-26.1Zm-50.5,52.1c-3.1-12.8-6.2-21.8-9.2-27.1s-5.8-7.6-8.2-7a4.8,4.8,0,0,0-3.1,2.7,15.7,15.7,0,0,0-1.2,6.7,67.4,67.4,0,0,0,.9,11.7,173.4,173.4,0,0,0,3.6,17.2c3.1,12.8,6.2,21.9,9.3,27.4s5.8,7.8,8.3,7.2,3.8-4,4-10.3S291,329.5,287.9,316.8Zm101.3,93.4a115.1,115.1,0,0,1,3.5,23.7,57.1,57.1,0,0,1-1.8,17.5,26.1,26.1,0,0,1-6.1,11.3,19,19,0,0,1-9.5,5.4,19.7,19.7,0,0,1-11-.4,25.7,25.7,0,0,1-10.6-7.2,56.9,56.9,0,0,1-9.6-14.5,114.9,114.9,0,0,1-7.8-22.9,117,117,0,0,1-3.7-24.3,54.7,54.7,0,0,1,1.8-17.2,23.8,23.8,0,0,1,6.3-10.8,20.6,20.6,0,0,1,9.6-5.2,19.3,19.3,0,0,1,10.9.4,25.4,25.4,0,0,1,10.7,7,61.7,61.7,0,0,1,9.5,14.5A112.7,112.7,0,0,1,389.2,410.2Z" transform="translate(-104.5 -123.3)"/><path class="cls-24" d="M305.7,312.5a120.4,120.4,0,0,1,3.5,23.6c.1,6.8-.4,12.6-1.8,17.4s-3.4,8.7-6.1,11.5a19.2,19.2,0,0,1-20.3,5,26,26,0,0,1-10.7-7.2,59.5,59.5,0,0,1-9.6-14.6,114.9,114.9,0,0,1-7.8-22.9c-2.3-9.4-3.6-17.6-3.7-24.5a54,54,0,0,1,1.8-17.1,23.8,23.8,0,0,1,6.3-10.8,22.4,22.4,0,0,1,9.6-5.1,19.9,19.9,0,0,1,10.8.4,25.4,25.4,0,0,1,10.6,7.1,55.2,55.2,0,0,1,9.6,14.5A110.5,110.5,0,0,1,305.7,312.5Zm32.7-47.8c-1.4,11.9-2.8,25.3-4.2,40s-2.8,30.8-4.1,48-2.5,35.5-3.6,54.9-2.1,39.6-3,60.7l-8.2-.3-7.1.2a33.1,33.1,0,0,0-6.4,1c1.5-9.9,3-20.9,4.3-32.8s2.7-24.3,3.9-37,2.3-25.4,3.2-38.2,1.7-25.1,2.4-36.9,1.1-22.7,1.4-32.7.4-18.8.2-26.1Zm-50.5,52.1c-3.1-12.8-6.2-21.8-9.2-27.1s-5.8-7.6-8.2-7a4.8,4.8,0,0,0-3.1,2.7,15.7,15.7,0,0,0-1.2,6.7,67.4,67.4,0,0,0,.9,11.7,173.4,173.4,0,0,0,3.6,17.2c3.1,12.8,6.2,21.9,9.3,27.4s5.8,7.8,8.3,7.2,3.8-4,4-10.3S291,329.5,287.9,316.8Zm101.3,93.4a115.1,115.1,0,0,1,3.5,23.7,57.1,57.1,0,0,1-1.8,17.5,26.1,26.1,0,0,1-6.1,11.3,19,19,0,0,1-9.5,5.4,19.7,19.7,0,0,1-11-.4,25.7,25.7,0,0,1-10.6-7.2,56.9,56.9,0,0,1-9.6-14.5,114.9,114.9,0,0,1-7.8-22.9,117,117,0,0,1-3.7-24.3,54.7,54.7,0,0,1,1.8-17.2,23.8,23.8,0,0,1,6.3-10.8,20.6,20.6,0,0,1,9.6-5.2,19.3,19.3,0,0,1,10.9.4,25.4,25.4,0,0,1,10.7,7,61.7,61.7,0,0,1,9.5,14.5A112.7,112.7,0,0,1,389.2,410.2Zm-17.9,4.4c-3.1-12.7-6.1-21.7-9.2-27s-5.7-7.7-8.2-7.1a4.4,4.4,0,0,0-3,2.7,16.9,16.9,0,0,0-1.3,6.9,79.9,79.9,0,0,0,1,11.6,170.1,170.1,0,0,0,3.4,17.1c3.2,12.9,6.3,22,9.4,27.4s5.8,7.7,8.2,7.1,3.9-4,4.1-10.2S374.4,427.4,371.3,414.6Z" transform="translate(-104.5 -123.3)"/></g></g></svg>