<svg xmlns="http://www.w3.org/2000/svg" xmlns:xlink="http://www.w3.org/1999/xlink" viewBox="0 0 306.74 349.29"><defs><style>.cls-1{isolation:isolate;}.cls-2{opacity:0.2;}.cls-3{fill:url(#linear-gradient);}.cls-4{fill:url(#linear-gradient-2);}.cls-5{fill:url(#linear-gradient-3);}.cls-10,.cls-11,.cls-12,.cls-13,.cls-14,.cls-15,.cls-16,.cls-17,.cls-18,.cls-19,.cls-6,.cls-8,.cls-9{fill-rule:evenodd;}.cls-6{fill:url(#linear-gradient-4);}.cls-7{fill:url(#linear-gradient-5);}.cls-8{fill:url(#linear-gradient-6);}.cls-9{fill:url(#linear-gradient-7);}.cls-10{fill:url(#linear-gradient-8);}.cls-11{fill:#fbf9fa;opacity:0.8;mix-blend-mode:soft-light;}.cls-12{fill:#401734;}.cls-12,.cls-16{opacity:0.3;mix-blend-mode:multiply;}.cls-13{fill:url(#linear-gradient-9);}.cls-14{fill:url(#linear-gradient-10);}.cls-15{fill:url(#linear-gradient-11);}.cls-16{fill:#5c175b;}.cls-17{fill:url(#linear-gradient-12);}.cls-18{fill:#ff7461;}.cls-19{fill:url(#linear-gradient-13);}.cls-20{fill:#b8a9d4;}</style><linearGradient id="linear-gradient" x1="617.84" y1="275.46" x2="811.02" y2="576.71" gradientUnits="userSpaceOnUse"><stop offset="0" stop-color="#e56ba6"/><stop offset="0.99" stop-color="#713592"/></linearGradient><linearGradient id="linear-gradient-2" x1="778.56" y1="214.81" x2="937.18" y2="462.17" xlink:href="#linear-gradient"/><linearGradient id="linear-gradient-3" x1="644.07" y1="562.67" x2="697.1" y2="645.36" gradientTransform="translate(70.2 -154.02) rotate(10.51)" xlink:href="#linear-gradient"/><linearGradient id="linear-gradient-4" x1="547.01" y1="521.66" x2="613.57" y2="521.66" gradientTransform="translate(-76.22 169.9) rotate(-19.14)" gradientUnits="userSpaceOnUse"><stop offset="0" stop-color="#7d287a"/><stop offset="0.25" stop-color="#612a78"/><stop offset="0.52" stop-color="#4a2b77"/><stop offset="0.78" stop-color="#3c2c76"/><stop offset="1" stop-color="#372c76"/></linearGradient><linearGradient id="linear-gradient-5" x1="718.84" y1="611.02" x2="610.43" y2="305.23" gradientTransform="translate(188.88 -192.93) rotate(19.14)" gradientUnits="userSpaceOnUse"><stop offset="0" stop-color="#ffd587"/><stop offset="0.41" stop-color="#ea9f74"/><stop offset="0.8" stop-color="#d87164"/><stop offset="1" stop-color="#d15f5e"/></linearGradient><linearGradient id="linear-gradient-6" x1="631.69" y1="328.93" x2="703.69" y2="583.76" gradientTransform="matrix(1, 0, 0, 1, 0, 0)" xlink:href="#linear-gradient-4"/><linearGradient id="linear-gradient-7" x1="633.34" y1="328.46" x2="705.34" y2="583.29" gradientTransform="matrix(1, 0, 0, 1, 0, 0)" xlink:href="#linear-gradient-4"/><linearGradient id="linear-gradient-8" x1="690.65" y1="415.44" x2="672.86" y2="466.13" gradientUnits="userSpaceOnUse"><stop offset="0" stop-color="#f79420"/><stop offset="0.4" stop-color="#f2684b"/><stop offset="0.72" stop-color="#ef4c66"/><stop offset="0.9" stop-color="#ee4270"/></linearGradient><linearGradient id="linear-gradient-9" x1="631.63" y1="504.8" x2="754.7" y2="504.8" gradientTransform="translate(-630.98 -126.29) rotate(-14.1)" xlink:href="#linear-gradient-4"/><linearGradient id="linear-gradient-10" x1="158.66" y1="181.96" x2="254.92" y2="151.22" xlink:href="#linear-gradient-8"/><linearGradient id="linear-gradient-11" x1="164.53" y1="200.37" x2="260.8" y2="169.63" xlink:href="#linear-gradient-8"/><linearGradient id="linear-gradient-12" x1="724.33" y1="318.78" x2="835.82" y2="318.78" gradientTransform="matrix(1, 0, 0, 1, 0, 0)" xlink:href="#linear-gradient-4"/><linearGradient id="linear-gradient-13" x1="772.94" y1="386.88" x2="772.94" y2="248.25" gradientTransform="matrix(1, 0, 0, 1, 0, 0)" xlink:href="#linear-gradient-5"/></defs><g class="cls-1"><g id="Layer_1" data-name="Layer 1"><g class="cls-2"><path class="cls-3" d="M569.09,434.79c-3.23-70.17,95.51-158.22,180.51-143.63,89.81,15.42,168.55,210.43,83.45,276.12S572.36,506,569.09,434.79Z" transform="translate(-569.01 -248.25)"/><path class="cls-4" d="M816.26,301.65c-6.16,6.48,33.78,63.61,48.46,65.62s13.44-33.54,3.69-49.83S824.21,293.27,816.26,301.65Z" transform="translate(-569.01 -248.25)"/><path class="cls-5" d="M603,529.82c16.68,15.75,79.73,50.17,69.13,62.81s-75.5-1.14-90.21-18.64S574.49,503,603,529.82Z" transform="translate(-569.01 -248.25)"/></g><path class="cls-6" d="M634.41,364.22s-6.75-.13-17,5.9c0,0-34.25,31.26-5.1,115.26,28.14,81.1,74.59,83.12,74.59,83.12s12-.82,19.15-8.66C711.44,554,634.41,364.22,634.41,364.22Z" transform="translate(-569.01 -248.25)"/><ellipse class="cls-7" cx="666.6" cy="463.67" rx="48.64" ry="104.51" transform="translate(-684.19 -4.05) rotate(-19.14)"/><path class="cls-8" d="M639.16,375.33c-22.45,7.79-27.08,53.21-10.33,101.45s48.51,81,71,73.24,27.08-53.22,10.34-101.46S661.61,367.53,639.16,375.33Zm58.34,164c-19.81,6.87-47.83-22-62.6-64.61s-10.69-82.62,9.11-89.49,47.84,22.05,62.61,64.6S717.3,532.41,697.5,539.28Z" transform="translate(-569.01 -248.25)"/><path class="cls-9" d="M650.21,402c-15.59,5.4-18.8,36.94-7.18,70.43s33.68,56.25,49.27,50.84,18.8-36.94,7.18-70.43S665.79,396.6,650.21,402Zm39.44,110.76c-13,4.5-31.31-14.43-41-42.29s-7-54.08,6-58.58,31.31,14.43,41,42.29S702.61,508.27,689.65,512.77Z" transform="translate(-569.01 -248.25)"/><path class="cls-10" d="M664.9,434c-7.08,2.46-8.54,16.79-3.26,32S677,491.56,684,489.1s8.55-16.8,3.26-32S672,431.5,664.9,434Z" transform="translate(-569.01 -248.25)"/><path class="cls-11" d="M600.56,421.73l8.73-3s.07-22,4.22-31.32L605.85,390S600,407.6,600.56,421.73Z" transform="translate(-569.01 -248.25)"/><path class="cls-12" d="M661.76,558.44l7.34-4.15s7.93,6.92,15.69,8.16l-9.24,3.21A71,71,0,0,1,661.76,558.44Z" transform="translate(-569.01 -248.25)"/><polygon class="cls-13" points="105.07 211.02 122.08 194.44 124.35 202.98 221.52 169.45 222.53 173.46 125.6 206.9 127.67 214.18 105.86 214.19 105.07 211.02"/><polygon class="cls-14" points="196.84 177.97 220.02 154.17 234.35 150.57 221.52 169.45 196.84 177.97"/><polygon class="cls-15" points="197.84 181.98 227.93 187.78 242.69 183.8 222.53 173.46 197.84 181.98"/><polygon class="cls-16" points="105.07 211.02 85.84 221.97 90.34 224.39 59.61 251.23 61.8 255.84 92.4 226.73 93.88 232.48 105.86 214.19 105.07 211.02"/><path class="cls-17" d="M791.77,250.1a42.32,42.32,0,0,0-6.89-.62c-27.61-.37-53.33,25-59.3,60-6.45,37.92,12.72,72.84,42.81,78,26.54,4.52,52.71-15.64,63-46.48a86.06,86.06,0,0,0,3.22-12.93C841,290.12,821.86,255.22,791.77,250.1Zm-19.59,115c-20.32-3.46-33.26-27-28.9-52.64s24.36-43.58,44.69-40.12a29.24,29.24,0,0,1,7.26,2.21c16,7.17,25.46,28,21.65,50.44-.08.48-.17,1-.28,1.44C811.76,351.32,792.13,368.55,772.18,365.15Z" transform="translate(-569.01 -248.25)"/><path class="cls-18" d="M774.67,248.34s15.92-.5,26.74,4.55l-9,1.07Z" transform="translate(-569.01 -248.25)"/><path class="cls-11" d="M758,385.69s11.14,3.76,20.26,2.34,12-7.19,12-7.19Z" transform="translate(-569.01 -248.25)"/><path class="cls-19" d="M784.64,248.88c-30.11-5.12-59.73,21.47-66.19,59.41s12.7,72.83,42.81,78c25.72,4.37,51.12-14.45,62-43.7a87.54,87.54,0,0,0,4.2-15.71C833.88,288.9,814.73,254,784.64,248.88Zm20.16,90.53c-8.2,16.87-23.89,27.23-39.75,24.53-20.32-3.46-33.26-27-28.9-52.64s24.36-43.58,44.69-40.12,33.27,27,28.91,52.65A58.45,58.45,0,0,1,804.8,339.41Z" transform="translate(-569.01 -248.25)"/><path class="cls-20" d="M754.06,305.66l-3.72-.63.6-3.56c3,.51,4.23-.22,5.57-3.19l2.39.41-5.43,32-3.55-.61Z" transform="translate(-569.01 -248.25)"/><path class="cls-20" d="M758.9,323.77l2.85-16.8c.87-5.11,3.27-7.71,6.76-7.12s4.91,3.84,4,8.95l-2.85,16.8c-.87,5.12-3.27,7.72-6.77,7.12S758,328.88,758.9,323.77Zm7.19,1.55,3-17.44c.39-2.28-.18-3.27-1.31-3.46s-2,.55-2.38,2.83l-3,17.44c-.39,2.29.18,3.28,1.31,3.47S765.7,327.6,766.09,325.32Z" transform="translate(-569.01 -248.25)"/><path class="cls-20" d="M771.83,326l2.85-16.81c.87-5.11,3.28-7.71,6.77-7.11s4.9,3.83,4,8.95l-2.85,16.8c-.87,5.11-3.27,7.71-6.76,7.12S771,331.08,771.83,326Zm7.19,1.55,3-17.45c.39-2.28-.18-3.27-1.31-3.46s-2,.56-2.38,2.84l-3,17.44c-.38,2.28.18,3.27,1.31,3.46S778.63,329.8,779,327.52Z" transform="translate(-569.01 -248.25)"/><path class="cls-20" d="M786.82,316.44l1.36-8c.56-3.29,2.06-4.91,4.29-4.53s3.12,2.41,2.56,5.69l-1.35,8c-.56,3.29-2.07,4.91-4.3,4.53S786.26,319.73,786.82,316.44Zm4.55,1,1.44-8.45c.24-1.41-.11-2.09-.83-2.21s-1.26.4-1.5,1.82l-1.43,8.44c-.24,1.42.07,2.08.82,2.21S791.13,318.86,791.37,317.45Zm9.24-11.68,2.26.38-14.19,30.48-2.26-.39Zm-6.35,27,1.36-8c.55-3.29,2.06-4.91,4.29-4.53s3.12,2.41,2.56,5.69l-1.36,8c-.56,3.29-2.06,4.91-4.29,4.54S793.7,336.07,794.26,332.78Zm4.55,1,1.44-8.45c.24-1.41-.12-2.08-.83-2.21s-1.26.4-1.5,1.82l-1.44,8.44c-.24,1.42.08,2.08.83,2.21S798.57,335.2,798.81,333.79Z" transform="translate(-569.01 -248.25)"/></g></g></svg>