<svg xmlns="http://www.w3.org/2000/svg" xmlns:xlink="http://www.w3.org/1999/xlink" viewBox="0 0 1080 1080"><defs><style>.cls-1{isolation:isolate;}.cls-10,.cls-11,.cls-12,.cls-13,.cls-14,.cls-15,.cls-16,.cls-17,.cls-18,.cls-19,.cls-2,.cls-21,.cls-22,.cls-23,.cls-24,.cls-25,.cls-26,.cls-4,.cls-5,.cls-7,.cls-8,.cls-9{fill-rule:evenodd;}.cls-2{fill:url(#Áåçûìÿííûé_ãðàäèåíò_7);}.cls-13,.cls-17,.cls-18,.cls-3,.cls-6{fill:#1d0c43;}.cls-13,.cls-3{opacity:0.3;}.cls-13,.cls-17,.cls-3{mix-blend-mode:multiply;}.cls-4{fill:url(#linear-gradient);}.cls-5{fill:url(#Áåçûìÿííûé_ãðàäèåíò_7-2);}.cls-7{fill:url(#linear-gradient-2);}.cls-8{fill:url(#linear-gradient-3);}.cls-9{fill:url(#linear-gradient-4);}.cls-10{fill:url(#linear-gradient-5);}.cls-11{fill:url(#linear-gradient-6);}.cls-12{fill:url(#linear-gradient-7);}.cls-14,.cls-15,.cls-16,.cls-22,.cls-27{opacity:0.5;}.cls-14,.cls-15,.cls-16,.cls-20,.cls-22,.cls-27{mix-blend-mode:soft-light;}.cls-14{fill:url(#Áåçûìÿííûé_ãðàäèåíò_21);}.cls-15{fill:url(#Áåçûìÿííûé_ãðàäèåíò_21-2);}.cls-16{fill:url(#Áåçûìÿííûé_ãðàäèåíò_21-3);}.cls-17,.cls-20{opacity:0.6;}.cls-19{fill:url(#linear-gradient-8);}.cls-20{fill:url(#Áåçûìÿííûé_ãðàäèåíò_21-4);}.cls-21{fill:url(#linear-gradient-9);}.cls-22{fill:url(#Áåçûìÿííûé_ãðàäèåíò_21-5);}.cls-23{fill:url(#linear-gradient-10);}.cls-24{fill:url(#linear-gradient-11);}.cls-25{fill:url(#linear-gradient-12);}.cls-26{fill:url(#linear-gradient-13);}.cls-27{fill:url(#Áåçûìÿííûé_ãðàäèåíò_21-6);}.cls-28{opacity:0.2;}.cls-29{fill:url(#linear-gradient-14);}.cls-30{fill:url(#linear-gradient-15);}</style><linearGradient id="Áåçûìÿííûé_ãðàäèåíò_7" x1="882.41" y1="906.67" x2="182.48" y2="693.73" gradientUnits="userSpaceOnUse"><stop offset="0.01" stop-color="#713592"/><stop offset="1" stop-color="#5178fe"/></linearGradient><linearGradient id="linear-gradient" x1="583.85" y1="835.59" x2="589.74" y2="714.49" gradientUnits="userSpaceOnUse"><stop offset="0" stop-color="#7d287a"/><stop offset="0.25" stop-color="#612a78"/><stop offset="0.52" stop-color="#4a2b77"/><stop offset="0.78" stop-color="#3c2c76"/><stop offset="1" stop-color="#372c76"/></linearGradient><linearGradient id="Áåçûìÿííûé_ãðàäèåíò_7-2" x1="862.38" y1="893.69" x2="270.67" y2="745.32" xlink:href="#Áåçûìÿííûé_ãðàäèåíò_7"/><linearGradient id="linear-gradient-2" x1="455.2" y1="416.2" x2="821.75" y2="707.69" gradientUnits="userSpaceOnUse"><stop offset="0" stop-color="#ffd587"/><stop offset="0.41" stop-color="#ea9f74"/><stop offset="0.8" stop-color="#d87164"/><stop offset="1" stop-color="#d15f5e"/></linearGradient><linearGradient id="linear-gradient-3" x1="372.14" y1="520.66" x2="738.68" y2="812.15" xlink:href="#linear-gradient-2"/><linearGradient id="linear-gradient-4" x1="295.39" y1="617.17" x2="661.93" y2="908.66" xlink:href="#linear-gradient-2"/><linearGradient id="linear-gradient-5" x1="481.66" y1="389.85" x2="1078.61" y2="890.8" xlink:href="#linear-gradient"/><linearGradient id="linear-gradient-6" x1="393.65" y1="494.73" x2="990.6" y2="995.68" xlink:href="#linear-gradient"/><linearGradient id="linear-gradient-7" x1="314.57" y1="588.97" x2="911.51" y2="1089.92" xlink:href="#linear-gradient"/><linearGradient id="Áåçûìÿííûé_ãðàäèåíò_21" x1="641.96" y1="528.34" x2="754.49" y2="528.34" gradientUnits="userSpaceOnUse"><stop offset="0" stop-color="#f3e6ee"/><stop offset="0.98" stop-color="#e5dfed"/></linearGradient><linearGradient id="Áåçûìÿííûé_ãðàäèåíò_21-2" x1="543.95" y1="616.55" x2="621.85" y2="616.55" xlink:href="#Áåçûìÿííûé_ãðàäèåíò_21"/><linearGradient id="Áåçûìÿííûé_ãðàäèåíò_21-3" x1="433.9" y1="753.11" x2="498.77" y2="753.11" xlink:href="#Áåçûìÿííûé_ãðàäèåíò_21"/><linearGradient id="linear-gradient-8" x1="68.51" y1="313.05" x2="694.01" y2="684.23" xlink:href="#linear-gradient"/><linearGradient id="Áåçûìÿííûé_ãðàäèåíò_21-4" x1="-30.86" y1="275.86" x2="675.94" y2="695.28" xlink:href="#Áåçûìÿííûé_ãðàäèåíò_21"/><linearGradient id="linear-gradient-9" x1="190.78" y1="493.22" x2="481.3" y2="493.22" xlink:href="#linear-gradient-2"/><linearGradient id="Áåçûìÿííûé_ãðàäèåíò_21-5" x1="190.78" y1="493.22" x2="336.04" y2="493.22" xlink:href="#Áåçûìÿííûé_ãðàäèåíò_21"/><linearGradient id="linear-gradient-10" x1="265.91" y1="469.53" x2="404.93" y2="469.53" xlink:href="#linear-gradient-2"/><linearGradient id="linear-gradient-11" x1="210.46" y1="393.92" x2="378.03" y2="508.47" xlink:href="#linear-gradient"/><linearGradient id="linear-gradient-12" x1="440.78" y1="532.32" x2="354.38" y2="444.18" gradientUnits="userSpaceOnUse"><stop offset="0" stop-color="#e03347"/><stop offset="1" stop-color="#ff6e27"/></linearGradient><linearGradient id="linear-gradient-13" x1="401.59" y1="570.74" x2="315.19" y2="482.6" xlink:href="#linear-gradient-12"/><linearGradient id="Áåçûìÿííûé_ãðàäèåíò_21-6" x1="353.7" y1="524.68" x2="263.34" y2="432.5" xlink:href="#Áåçûìÿííûé_ãðàäèåíò_21"/><linearGradient id="linear-gradient-14" x1="287.71" y1="-74.12" x2="799.4" y2="1258.82" gradientUnits="userSpaceOnUse"><stop offset="0" stop-color="#e56ba6"/><stop offset="0.99" stop-color="#713592"/></linearGradient><linearGradient id="linear-gradient-15" x1="293.43" y1="9.93" x2="805.13" y2="1342.86" gradientTransform="translate(-92.1 6.7) rotate(-10)" xlink:href="#linear-gradient-14"/></defs><g class="cls-1"><g id="Layer_1" data-name="Layer 1"><path class="cls-2" d="M254.1,813c-32.4-16.4-54.1-25-79.4-48.6,0,0,229.8,36.6,383.9,14l349,38.4S650,916.7,254.1,813Z"/><path class="cls-3" d="M907.6,816.8l-47.8-5.2L740.6,823s-186.3-57.1-306.7,2l105.2,33.3C769.1,870.5,907.6,816.8,907.6,816.8Z"/><path class="cls-4" d="M254.1,813s379.6,95.4,653.5,3.8c0,0,11.2,9.7,7.8,28,0,0-314.9,73.8-663-15.9A34.4,34.4,0,0,1,254.1,813Z"/><path class="cls-5" d="M254.1,813s379.6,95.4,653.5,3.8c0,0,11.2,9.7,7.8,28,0,0-314.9,73.8-663-15.9A34.4,34.4,0,0,1,254.1,813Z"/><path class="cls-6" d="M174.7,764.4a45.8,45.8,0,0,0-2.5,23l80.2,41.5,1.7-15.9S198.1,784.6,174.7,764.4Z"/><polygon class="cls-7" points="693.8 827 754.5 384.2 658.8 406.8 632.2 827 693.8 827"/><polygon class="cls-8" points="593.1 827.7 621.9 546.6 547.4 558.9 540.2 827 593.1 827.7"/><polygon class="cls-9" points="485.1 827 498.8 681.2 434.1 687.6 433.9 825 485.1 827"/><polygon class="cls-10" points="754.5 384.2 807.4 404 740.6 823 693.8 827 754.5 384.2"/><polygon class="cls-11" points="621.9 546.6 650.1 544.3 632.2 827 593.1 827.7 621.9 546.6"/><polygon class="cls-12" points="498.8 681.2 543.9 686.5 540.2 827 485.1 827 498.8 681.2"/><polygon class="cls-13" points="498.8 681.2 543.9 686.5 540.2 827 498.8 681.2"/><polygon class="cls-13" points="632.2 545.8 650.1 544.3 632.2 827 621.6 827.2 621.9 546.6 632.2 545.8"/><polygon class="cls-13" points="693.8 827 807.4 404 740.6 823 693.8 827"/><path class="cls-14" d="M754.5,384.2l-95.7,22.6L642,672.5S672.3,403,754.5,384.2Z"/><path class="cls-15" d="M621.9,546.6l-74.5,12.3-3.5,127.6S551.5,563.8,621.9,546.6Z"/><path class="cls-16" d="M498.8,681.2l-64.7,6.4L433.9,825S436,699,498.8,681.2Z"/><path class="cls-17" d="M254.1,813s379.6,95.4,653.5,3.8c0,0,11.2,9.7,7.8,28,0,0-314.9,73.8-663-15.9A34.4,34.4,0,0,1,254.1,813Z"/><path class="cls-18" d="M335.2,716.5C227.9,647,156.2,495.4,166.4,366.6l2.4-30.4,29.8-4.8c52.2-8.3,100.5-6.4,130.2-50.5l7.2-10.7h17.8l18.8,10.7c46.2,26.4,84.4,41.7,136.8,50.6l29.5,5,2.4,30.1c10,125.5-55.3,261.1-157.9,332.3l-25.6,17.5Z"/><path class="cls-19" d="M335.2,716.5c-4.5-2.9-29.4-18-33.8-21.2C201.7,623.2,138.8,490,148.6,366.6l2.4-30.4,29.8-4.8c52.2-8.3,90.6-24.3,136.4-50.5L336,270.2l18.8,10.7c46.2,26.4,84.4,41.7,136.8,50.6l29.5,5,2.4,30.1C523.9,605.6,335.2,716.5,335.2,716.5Z"/><path class="cls-20" d="M317.2,280.9c-45.8,26.2-84.2,42.2-136.4,50.5L151,336.2l-2.4,30.4C138.8,490,201.7,623.2,301.4,695.3c4.4,3.2,29.3,18.3,33.8,21.2l.8-446.3Z"/><path class="cls-18" d="M485.1,369S507.4,546.9,336,678.7c0,0-155-92-154.6-313.4,0,0,55.7-.2,154.6-51.1C336,314.2,404,359.6,485.1,369Z"/><path class="cls-21" d="M191.1,374.2c-2.3,46.4,6.7,93.1,23.8,136.1,24.2,61.2,66.6,118.9,121.1,155.9,54.6-37,96.9-94.7,121.2-155.9,17-43,26.1-89.8,23.7-136.1a423.9,423.9,0,0,1-73.2-19.9c-24.9-9.2-48.5-21-71.7-34-24.3,13.6-49.1,26-75.3,35.5a407.8,407.8,0,0,1-69.6,18.4"/><path class="cls-22" d="M191.1,374.2c-2.3,46.4,6.7,93.1,23.8,136.1,24.2,61.2,66.6,118.9,121.1,155.9h0V320.3c-24.3,13.6-49.1,26-75.3,35.5a407.8,407.8,0,0,1-69.6,18.4"/><path class="cls-23" d="M385.8,442.1a21.8,21.8,0,0,1,19.1,21.7v78.6a21.7,21.7,0,0,1-21.5,21.8H287.5a21.7,21.7,0,0,1-21.6-21.8V463.8A21.9,21.9,0,0,1,284,442.2V423.3a51,51,0,0,1,101.8,0h0v18.7Zm-83.3-.1h64.7V424.3h0a32.4,32.4,0,0,0-64.7,0V442Z"/><path class="cls-24" d="M388.4,440.3A21.8,21.8,0,0,1,407.6,462v78.6A21.7,21.7,0,0,1,386,562.4H290.1a21.7,21.7,0,0,1-21.5-21.8V462a21.8,21.8,0,0,1,18-21.6V421.5c1.2-27.4,24-48.4,50.9-48.4a50.9,50.9,0,0,1,50.8,48.4h0a18.5,18.5,0,0,1,.1,2.3,12.1,12.1,0,0,1-.1,1.9Zm-50.3,23.3a21.9,21.9,0,0,1,10.1,41.3v36.3H328V504.9a21.9,21.9,0,0,1,10.1-41.3Zm-32.9-23.4h64.7V422.5h0a32.2,32.2,0,0,0-32.3-30.5c-17,0-31.6,13.1-32.4,30.5v17.8Z"/><path class="cls-25" d="M365.3,440.8V423.2h0A32.2,32.2,0,0,0,333,392.6c-17,0-31.6,13.1-32.4,30.5v17.7H282.1V422.2a50.9,50.9,0,0,1,101.7,0h0a17.7,17.7,0,0,1,.1,2.3v16.2Z"/><path class="cls-26" d="M333.5,463.6a21.9,21.9,0,0,1,10.1,41.3v36.3H323.4V504.9a21.9,21.9,0,0,1,10.1-41.3m-32.9-23.4h83.3A21.8,21.8,0,0,1,403,462v78.6a21.7,21.7,0,0,1-21.5,21.8H285.6A21.7,21.7,0,0,1,264,540.6V462a21.9,21.9,0,0,1,18.1-21.6v-.2Z"/><path class="cls-27" d="M281.5,562c-1.1-25.1-2.7-83,4-101.6s67.5-19.9,99.7-19.9l-1.3-.2H282.1v.2A21.9,21.9,0,0,0,264,462v78.6A21.8,21.8,0,0,0,281.5,562Z"/><g class="cls-28"><path class="cls-29" d="M260.2,906.8C105.5,801.3,76,449.9,243.2,292.1,419.9,125.4,961.6,270,965.3,556.5S417.1,1013.8,260.2,906.8Z"/><path class="cls-30" d="M352,123.4c-59.7-11.7-96.5,50.2-85.4,84.4s120.2-.1,131.3-19.9S368.5,126.7,352,123.4Z"/></g></g></g></svg>