<svg xmlns="http://www.w3.org/2000/svg" xmlns:xlink="http://www.w3.org/1999/xlink" viewBox="0 0 1080 1080"><defs><style>.cls-1{isolation:isolate;}.cls-2,.cls-9{opacity:0.2;}.cls-3{fill:url(#linear-gradient);}.cls-4{fill:url(#linear-gradient-2);}.cls-5{fill:url(#linear-gradient-3);}.cls-10,.cls-11,.cls-12,.cls-13,.cls-14,.cls-15,.cls-16,.cls-17,.cls-18,.cls-19,.cls-20,.cls-21,.cls-22,.cls-23,.cls-24,.cls-25,.cls-26,.cls-27,.cls-28,.cls-29,.cls-30,.cls-31,.cls-32,.cls-33,.cls-34,.cls-35,.cls-36,.cls-37,.cls-38,.cls-39,.cls-40,.cls-41,.cls-45,.cls-47,.cls-48,.cls-49,.cls-51,.cls-52,.cls-53,.cls-55,.cls-6,.cls-7,.cls-8,.cls-9{fill-rule:evenodd;}.cls-6{fill:url(#linear-gradient-4);}.cls-7{fill:#a02755;}.cls-8{fill:url(#Áåçûìÿííûé_ãðàäèåíò_50);}.cls-18,.cls-26,.cls-27,.cls-9{fill:#1d0c43;}.cls-11,.cls-16,.cls-26,.cls-27,.cls-33,.cls-36,.cls-9{mix-blend-mode:multiply;}.cls-10,.cls-15,.cls-25,.cls-27,.cls-29,.cls-30,.cls-31,.cls-32,.cls-35,.cls-37{opacity:0.5;}.cls-10,.cls-12,.cls-15,.cls-25,.cls-28,.cls-29,.cls-30,.cls-31,.cls-32,.cls-34,.cls-35,.cls-37,.cls-39{mix-blend-mode:soft-light;}.cls-10{fill:url(#Áåçûìÿííûé_ãðàäèåíò_21);}.cls-11{fill:url(#Áåçûìÿííûé_ãðàäèåíò_210);}.cls-12,.cls-28,.cls-34,.cls-39{opacity:0.7;}.cls-12{fill:url(#Áåçûìÿííûé_ãðàäèåíò_21-2);}.cls-13{fill:url(#linear-gradient-5);}.cls-14{fill:url(#Áåçûìÿííûé_ãðàäèåíò_50-2);}.cls-15{fill:url(#Áåçûìÿííûé_ãðàäèåíò_21-3);}.cls-16{fill:url(#Áåçûìÿííûé_ãðàäèåíò_210-2);}.cls-17{fill:url(#radial-gradient);}.cls-19{fill:url(#linear-gradient-6);}.cls-20{fill:url(#linear-gradient-7);}.cls-21{fill:url(#linear-gradient-8);}.cls-22{fill:url(#linear-gradient-9);}.cls-23{fill:url(#radial-gradient-2);}.cls-24{fill:url(#linear-gradient-10);}.cls-25{fill:url(#Áåçûìÿííûé_ãðàäèåíò_21-4);}.cls-26{opacity:0.3;}.cls-28{fill:url(#Áåçûìÿííûé_ãðàäèåíò_21-5);}.cls-29{fill:url(#Áåçûìÿííûé_ãðàäèåíò_21-6);}.cls-30{fill:url(#Áåçûìÿííûé_ãðàäèåíò_21-7);}.cls-31{fill:url(#Áåçûìÿííûé_ãðàäèåíò_21-8);}.cls-32{fill:url(#Áåçûìÿííûé_ãðàäèåíò_21-9);}.cls-33{fill:url(#Áåçûìÿííûé_ãðàäèåíò_214);}.cls-34{fill:url(#Áåçûìÿííûé_ãðàäèåíò_21-10);}.cls-35{fill:url(#Áåçûìÿííûé_ãðàäèåíò_21-11);}.cls-36{fill:#ddcce0;opacity:0.71;}.cls-37{fill:url(#Áåçûìÿííûé_ãðàäèåíò_21-12);}.cls-38{fill:url(#linear-gradient-11);}.cls-39{fill:url(#Áåçûìÿííûé_ãðàäèåíò_21-13);}.cls-40{fill:url(#Áåçûìÿííûé_ãðàäèåíò_135);}.cls-41,.cls-42,.cls-43,.cls-44,.cls-45,.cls-46,.cls-47,.cls-48,.cls-49,.cls-50,.cls-51,.cls-52,.cls-53,.cls-54,.cls-55{opacity:0.58;}.cls-41{fill:url(#linear-gradient-12);}.cls-42{fill:url(#linear-gradient-13);}.cls-43{fill:url(#linear-gradient-14);}.cls-44{fill:url(#linear-gradient-15);}.cls-45{fill:url(#linear-gradient-16);}.cls-46{fill:url(#linear-gradient-17);}.cls-47{fill:url(#linear-gradient-18);}.cls-48{fill:url(#linear-gradient-19);}.cls-49{fill:url(#linear-gradient-20);}.cls-50{fill:url(#linear-gradient-21);}.cls-51{fill:url(#linear-gradient-22);}.cls-52{fill:url(#linear-gradient-23);}.cls-53{fill:url(#linear-gradient-24);}.cls-54{fill:url(#linear-gradient-25);}.cls-55{fill:url(#linear-gradient-26);}</style><linearGradient id="linear-gradient" x1="165.45" y1="40.82" x2="1059.15" y2="1218.71" gradientUnits="userSpaceOnUse"><stop offset="0" stop-color="#e56ba6"/><stop offset="0.99" stop-color="#713592"/></linearGradient><linearGradient id="linear-gradient-2" x1="-192.02" y1="312.04" x2="701.68" y2="1489.93" xlink:href="#linear-gradient"/><linearGradient id="linear-gradient-3" x1="535.98" y1="-240.31" x2="1429.68" y2="937.58" xlink:href="#linear-gradient"/><linearGradient id="linear-gradient-4" x1="711.13" y1="804.24" x2="711.13" y2="536.81" gradientTransform="matrix(-0.99, -0.13, -0.13, 0.99, 1540.81, 120.32)" gradientUnits="userSpaceOnUse"><stop offset="0" stop-color="#f79420"/><stop offset="0.4" stop-color="#f2684b"/><stop offset="0.72" stop-color="#ef4c66"/><stop offset="0.9" stop-color="#ee4270"/></linearGradient><linearGradient id="Áåçûìÿííûé_ãðàäèåíò_50" x1="408.84" y1="430.15" x2="702.19" y2="627.81" gradientUnits="userSpaceOnUse"><stop offset="0" stop-color="#603082"/><stop offset="0.99" stop-color="#2a0e51"/></linearGradient><linearGradient id="Áåçûìÿííûé_ãðàäèåíò_21" x1="759.26" y1="616.13" x2="822.18" y2="616.13" gradientUnits="userSpaceOnUse"><stop offset="0" stop-color="#f3e6ee"/><stop offset="0.98" stop-color="#e5dfed"/></linearGradient><linearGradient id="Áåçûìÿííûé_ãðàäèåíò_210" x1="781.41" y1="659.28" x2="781.41" y2="555.1" gradientTransform="matrix(-0.99, -0.13, -0.13, 0.99, 1540.81, 120.32)" gradientUnits="userSpaceOnUse"><stop offset="0" stop-color="#b3a6db"/><stop offset="0.41" stop-color="#a685be"/><stop offset="0.77" stop-color="#9d71ab"/><stop offset="1" stop-color="#9a69a4"/></linearGradient><linearGradient id="Áåçûìÿííûé_ãðàäèåíò_21-2" x1="804.25" y1="644.1" x2="819.02" y2="644.1" xlink:href="#Áåçûìÿííûé_ãðàäèåíò_21"/><linearGradient id="linear-gradient-5" x1="377.39" y1="803.6" x2="377.39" y2="536.18" gradientTransform="translate(61.7 -65.8) rotate(7.2)" xlink:href="#linear-gradient-4"/><linearGradient id="Áåçûìÿííûé_ãðàäèåíò_50-2" x1="332.94" y1="542.79" x2="626.29" y2="740.46" xlink:href="#Áåçûìÿííûé_ãðàäèåíò_50"/><linearGradient id="Áåçûìÿííûé_ãðàäèåíò_21-3" x1="290.18" y1="558.46" x2="377.69" y2="558.46" xlink:href="#Áåçûìÿííûé_ãðàäèåíò_21"/><linearGradient id="Áåçûìÿííûé_ãðàäèåíò_210-2" x1="447.66" y1="658.64" x2="447.66" y2="554.46" gradientTransform="translate(61.7 -65.8) rotate(7.2)" xlink:href="#Áåçûìÿííûé_ãðàäèåíò_210"/><radialGradient id="radial-gradient" cx="520.36" cy="273.84" r="500.08" gradientUnits="userSpaceOnUse"><stop offset="0.14" stop-color="#f6935b"/><stop offset="0.15" stop-color="#f4915c"/><stop offset="0.33" stop-color="#c16e6e"/><stop offset="0.5" stop-color="#9a537c"/><stop offset="0.66" stop-color="#7d3f86"/><stop offset="0.8" stop-color="#6c338c"/><stop offset="0.9" stop-color="#662f8e"/></radialGradient><linearGradient id="linear-gradient-6" x1="501.58" y1="186.92" x2="664.74" y2="186.92" gradientTransform="translate(61.7 -65.8) rotate(7.2)" gradientUnits="userSpaceOnUse"><stop offset="0" stop-color="#7d287a"/><stop offset="0.25" stop-color="#612a78"/><stop offset="0.52" stop-color="#4a2b77"/><stop offset="0.78" stop-color="#3c2c76"/><stop offset="1" stop-color="#372c76"/></linearGradient><linearGradient id="linear-gradient-7" x1="534.15" y1="172.02" x2="632.58" y2="172.02" xlink:href="#linear-gradient-6"/><linearGradient id="linear-gradient-8" x1="485.57" y1="345.04" x2="680.31" y2="345.04" xlink:href="#linear-gradient-6"/><linearGradient id="linear-gradient-9" x1="513.26" y1="345.31" x2="649.78" y2="345.31" xlink:href="#linear-gradient-6"/><radialGradient id="radial-gradient-2" cx="605.98" cy="384" r="66.83" gradientUnits="userSpaceOnUse"><stop offset="0" stop-color="#ffd126"/><stop offset="0.19" stop-color="#ffd328"/><stop offset="1" stop-color="#ffa700"/></radialGradient><linearGradient id="linear-gradient-10" x1="485.55" y1="638.7" x2="680.29" y2="638.7" gradientTransform="matrix(0.99, 0.13, -0.15, 1.17, 72.45, -150.75)" xlink:href="#linear-gradient-6"/><linearGradient id="Áåçûìÿííûé_ãðàäèåíò_21-4" x1="401.24" y1="400.7" x2="524.57" y2="400.7" gradientTransform="matrix(0.99, 0.13, -0.15, 1.17, 72.45, -150.75)" xlink:href="#Áåçûìÿííûé_ãðàäèåíò_21"/><linearGradient id="Áåçûìÿííûé_ãðàäèåíò_21-5" x1="467.01" y1="253.65" x2="500.96" y2="253.65" xlink:href="#Áåçûìÿííûé_ãðàäèåíò_21"/><linearGradient id="Áåçûìÿííûé_ãðàäèåíò_21-6" x1="521.16" y1="187.78" x2="568.17" y2="187.78" gradientTransform="translate(61.7 -65.8) rotate(7.2)" xlink:href="#Áåçûìÿííûé_ãðàäèåíò_21"/><linearGradient id="Áåçûìÿííûé_ãðàäèåíò_21-7" x1="544.66" y1="171.95" x2="581.36" y2="171.95" gradientTransform="translate(61.7 -65.8) rotate(7.2)" xlink:href="#Áåçûìÿííûé_ãðàäèåíò_21"/><linearGradient id="Áåçûìÿííûé_ãðàäèåíò_21-8" x1="511.89" y1="638.15" x2="559.26" y2="638.15" gradientTransform="matrix(0.99, 0.13, -0.15, 1.17, 72.45, -150.75)" xlink:href="#Áåçûìÿííûé_ãðàäèåíò_21"/><linearGradient id="Áåçûìÿííûé_ãðàäèåíò_21-9" x1="661.11" y1="554.09" x2="739.58" y2="554.09" gradientTransform="matrix(0.99, 0.13, -0.15, 1.17, 72.45, -150.75)" xlink:href="#Áåçûìÿííûé_ãðàäèåíò_21"/><linearGradient id="Áåçûìÿííûé_ãðàäèåíò_214" x1="581.52" y1="380.83" x2="581.52" y2="276.02" gradientTransform="translate(61.7 -65.8) rotate(7.2)" gradientUnits="userSpaceOnUse"><stop offset="0" stop-color="#e7e3f4"/><stop offset="0.07" stop-color="#dfd6ec"/><stop offset="0.37" stop-color="#c1a7cd"/><stop offset="0.64" stop-color="#ac85b7"/><stop offset="0.86" stop-color="#9f71a9"/><stop offset="1" stop-color="#9a69a4"/></linearGradient><linearGradient id="Áåçûìÿííûé_ãðàäèåíò_21-10" x1="575.37" y1="396.58" x2="606.41" y2="396.58" xlink:href="#Áåçûìÿííûé_ãðàäèåíò_21"/><linearGradient id="Áåçûìÿííûé_ãðàäèåíò_21-11" x1="490.54" y1="291.7" x2="554.4" y2="291.7" gradientTransform="translate(61.7 -65.8) rotate(7.2)" xlink:href="#Áåçûìÿííûé_ãðàäèåíò_21"/><linearGradient id="Áåçûìÿííûé_ãðàäèåíò_21-12" x1="674.68" y1="241.56" x2="745.07" y2="241.56" gradientTransform="translate(61.7 -65.8) rotate(7.2)" xlink:href="#Áåçûìÿííûé_ãðàäèåíò_21"/><linearGradient id="linear-gradient-11" x1="579.9" y1="109.48" x2="651.24" y2="190.06" gradientTransform="matrix(1, 0, 0, 1, 0, 0)" xlink:href="#linear-gradient-4"/><linearGradient id="Áåçûìÿííûé_ãðàäèåíò_21-13" x1="602.62" y1="136.17" x2="621.19" y2="136.17" xlink:href="#Áåçûìÿííûé_ãðàäèåíò_21"/><linearGradient id="Áåçûìÿííûé_ãðàäèåíò_135" x1="566.03" y1="557.92" x2="583.95" y2="557.92" gradientUnits="userSpaceOnUse"><stop offset="0" stop-color="#ffa700"/><stop offset="1" stop-color="#ffd328"/></linearGradient><linearGradient id="linear-gradient-12" x1="550.9" y1="592.2" x2="505.57" y2="1032.02" gradientUnits="userSpaceOnUse"><stop offset="0" stop-color="#602a7a"/><stop offset="0.03" stop-color="#6e317f"/><stop offset="0.1" stop-color="#90428a"/><stop offset="0.19" stop-color="#ae5194"/><stop offset="0.28" stop-color="#c65d9c"/><stop offset="0.39" stop-color="#d966a2"/><stop offset="0.51" stop-color="#e66ca7"/><stop offset="0.67" stop-color="#ee70a9"/><stop offset="1" stop-color="#f071aa"/></linearGradient><linearGradient id="linear-gradient-13" x1="291.5" y1="565.47" x2="246.17" y2="1005.29" xlink:href="#linear-gradient-12"/><linearGradient id="linear-gradient-14" x1="277.67" y1="564.04" x2="232.34" y2="1003.86" gradientTransform="translate(187 -37.6) rotate(13.3)" xlink:href="#linear-gradient-12"/><linearGradient id="linear-gradient-15" x1="321.67" y1="568.58" x2="276.35" y2="1008.4" xlink:href="#linear-gradient-12"/><linearGradient id="linear-gradient-16" x1="323.14" y1="568.73" x2="277.81" y2="1008.55" xlink:href="#linear-gradient-12"/><linearGradient id="linear-gradient-17" x1="768.87" y1="614.67" x2="723.55" y2="1054.48" gradientTransform="translate(817 -278.7) rotate(45)" xlink:href="#linear-gradient-12"/><linearGradient id="linear-gradient-18" x1="750.63" y1="612.79" x2="705.3" y2="1052.6" xlink:href="#linear-gradient-12"/><linearGradient id="linear-gradient-19" x1="803.78" y1="618.26" x2="758.46" y2="1058.08" xlink:href="#linear-gradient-12"/><linearGradient id="linear-gradient-20" x1="753.49" y1="613.08" x2="708.17" y2="1052.9" xlink:href="#linear-gradient-12"/><linearGradient id="linear-gradient-21" x1="726.95" y1="610.35" x2="681.63" y2="1050.16" xlink:href="#linear-gradient-12"/><linearGradient id="linear-gradient-22" x1="713.69" y1="608.98" x2="668.36" y2="1048.8" xlink:href="#linear-gradient-12"/><linearGradient id="linear-gradient-23" x1="725.27" y1="610.17" x2="679.95" y2="1049.99" xlink:href="#linear-gradient-12"/><linearGradient id="linear-gradient-24" x1="716.44" y1="609.26" x2="671.11" y2="1049.08" xlink:href="#linear-gradient-12"/><linearGradient id="linear-gradient-25" x1="343.76" y1="570.86" x2="298.43" y2="1010.67" xlink:href="#linear-gradient-12"/><linearGradient id="linear-gradient-26" x1="360.74" y1="572.61" x2="315.42" y2="1012.42" xlink:href="#linear-gradient-12"/></defs><g class="cls-1"><g id="Layer_1" data-name="Layer 1"><g class="cls-2"><path class="cls-3" d="M784.5,829.9c-127.3,143.8-235.3,152.7-318.2,45C352,726.4,142.1,799.8,127.2,613.4S461.7,138.7,693.4,180,1020.1,563.8,784.5,829.9Z"/><path class="cls-4" d="M255.7,788.8c-58.4-38.6-124.7,11.1-127.9,52.4s128,52.6,148.4,36.3S271.8,799.5,255.7,788.8Z"/><path class="cls-5" d="M928.5,228.8c-4.6-48.4-60.4-62.6-84.1-46.3s27.3,92.1,45,96.1S929.7,242.2,928.5,228.8Z"/></g><path class="cls-6" d="M759.3,562.7s50.8,52,62.9,106.9c0,0-58.2,115.6-154.1,151.1h0S707.5,699.3,759.3,562.7Z"/><path class="cls-7" d="M759.3,562.7l-12.1-1.5s-42,125.4-80.8,259l1.7.5S722.2,681.9,759.3,562.7Z"/><path class="cls-8" d="M668.2,664.2l27.6,13.9,16.8,8.4,18.5-56.4s-16-9.6-20.2-16.9c-1.6-2.8-2.2-6.9-2.3-11.4-.1-11.2,3.1-24.9,3.5-26.6C710.7,578.2,688.9,627.8,668.2,664.2Z"/><path class="cls-9" d="M736.3,779s-26-13.2-18.8-91.9c0,0,28.6-78.1,41.8-124.4l-28.2,67.4L707,683.7l-38.9,137S704.2,810.9,736.3,779Z"/><path class="cls-10" d="M822.2,669.6s-29.3-70.8-62.9-106.9C759.3,562.7,811.1,612.2,822.2,669.6Z"/><path class="cls-11" d="M668.2,664.2l27.6,13.9,12.8-76.3c-.1-11.2,3.1-24.9,3.5-26.6C710.7,578.2,688.9,627.8,668.2,664.2Z"/><path class="cls-12" d="M819,659.9c-.3,7.6-8.3-4.3-11.9-17.1s-2.8-16.9-2.8-16.9S819.5,648.3,819,659.9Z"/><path class="cls-13" d="M377.7,514.5s-62.2,37.7-87.5,87.9c0,0,27.6,126.5,111.7,184.7h0S393.8,659.7,377.7,514.5Z"/><path class="cls-7" d="M377.7,514.5l12.1,1.5s9.5,132,13.8,271.1h-1.7S383.9,639.1,377.7,514.5Z"/><path class="cls-14" d="M440.6,635.5l-30.1,6.6L392.2,646l-4-59.2s17.9-5.3,23.8-11.4c2.2-2.2,3.8-6.1,5-10.4,2.9-10.8,3.2-24.9,3.3-26.7C420.8,541.6,429.6,595.1,440.6,635.5Z"/><path class="cls-9" d="M346.2,729.7s28.4-6.3,41-84.3c0,0-8.3-82.7-9.5-130.9l10.5,72.3,10,58,3.7,142.3S369.3,768.6,346.2,729.7Z"/><path class="cls-15" d="M290.2,602.4s45.9-61.2,87.5-87.9C377.7,514.5,315.1,549.6,290.2,602.4Z"/><path class="cls-16" d="M440.6,635.5l-30.1,6.6L417,565c2.9-10.8,3.2-24.9,3.3-26.7C420.8,541.6,429.6,595.1,440.6,635.5Z"/><path class="cls-17" d="M678.6,671.9,442.3,642s-13.8-31.7-24.4-83.5A585.7,585.7,0,0,1,406.4,458h0a541.9,541.9,0,0,1,8.7-112.8c19.8-106.1,65.8-142.8,117.4-152.8h0c28.1-5.4,57.9-2.9,86.1.7,52.2,6.6,95.2,21,122.2,56.8h0c22.4,29.8,33.8,74.4,30,141.7C765.1,495.4,678.6,671.9,678.6,671.9Z"/><path class="cls-18" d="M560,656.9s28.9-261.6,58-453.7l.9.2s-32.8,317.8-58,453.6Z"/><path class="cls-19" d="M534.9,190.5l7.1-10.2s59.3-6.2,149.8,17.5l4.8,14.4Z"/><path class="cls-20" d="M569.1,179.7l8.2-11.9s54.6-1.8,87.1,13.6l2.4,10.4Z"/><path class="cls-18" d="M553.7,263.4c-63.9,26.6-80.4,142.9-6.5,179.8s144.5-22,146.1-84.2S629.2,232,553.7,263.4Z"/><path class="cls-21" d="M554.5,257.6c-63.9,26.7-80.5,142.9-6.6,179.8S692.5,415.5,694,353.3,630,226.2,554.5,257.6Z"/><path class="cls-22" d="M648.7,392.2c-10.2,13-25.5,22.8-45.8,25.8-45.2,6.8-76.6-36.2-75.2-74.8a57.8,57.8,0,0,1,8.7-29.6c30.8-48.7,92.8-39.1,116.7-3C668.8,334.1,667.2,368.5,648.7,392.2Z"/><path class="cls-23" d="M546.2,319.3c-21.8,34.4,7.5,94.5,55.6,87.4s62.3-59.4,42-89.9S572,278.6,546.2,319.3Z"/><polygon class="cls-24" points="461.4 644.5 466.1 675.8 645.4 698 654.6 668.8 461.4 644.5"/><path class="cls-25" d="M428.6,335.6c-29.9,125.2-8.9,224.6-8.2,228l-2.5-5.1c-11-53.9-18.4-129.6-2.8-213.3,19.8-106.1,65.8-142.8,117.4-152.8h0l24.8,3.9S459,208.3,428.6,335.6Z"/><path class="cls-26" d="M678.6,671.9,442.3,642s-13.8-31.7-24.4-83.5A585.7,585.7,0,0,1,406.4,458c.5,2.9,9.5,152.6,145.9,171.4,148.2,20.4,190.6-173.6,207.9-230.1s-5.9-126.4-19.4-149.4c22.4,29.8,33.8,74.4,30,141.7C765.1,495.4,678.6,671.9,678.6,671.9Z"/><path class="cls-27" d="M464.2,662.7s34.6-10.7,99.9-.7,85.1,24,85.1,24l5.4-17.2L461.4,644.5Z"/><path class="cls-28" d="M499.3,230.4c-13.2-7.5-39.3,30.6-30.5,45S508.4,235.6,499.3,230.4Z"/><path class="cls-29" d="M559.5,179.6l-5.3,14,43.5,5.4,5.1-15.1S573.1,179.8,559.5,179.6Z"/><path class="cls-30" d="M579.5,180.9l5.3-13.1s24.6,0,33.1,2l-4.3,15.5Z"/><polygon class="cls-31" points="487.6 647.8 489.2 677.4 530.9 682.7 534.5 653.7 487.6 647.8"/><path class="cls-32" d="M635.6,666.4s49.3-40.7,99.1-158.4c0,0-36.2,117-60.3,163.2Z"/><path class="cls-33" d="M648.7,392.2c-3-1.7-4.1-5.8-2-13.4,10.7-39.3-16.7-76.2-59.4-71.7s-49.4,43-49.4,43l-10.2-6.9a57.8,57.8,0,0,1,8.7-29.6c30.8-48.7,92.8-39.1,116.7-3C668.8,334.1,667.2,368.5,648.7,392.2Z"/><path class="cls-34" d="M575.4,395.9c-.4,5.7,27.9,10,30.8,1.2S575.7,390.2,575.4,395.9Z"/><path class="cls-35" d="M507.8,317s10.3-44.4,59-62.1l10.3,22.6s-34.4,7.6-49.9,46.5Z"/><path class="cls-36" d="M628.3,440.3,619,417.2s25.9-6.4,46.4-46.7l19.7,8.7S680.5,418.5,628.3,440.3Z"/><path class="cls-37" d="M705.8,218.9s45.3,21.4,59.8,87.7C765.6,306.6,741.3,255.3,705.8,218.9Z"/><path class="cls-38" d="M584.8,167.8S601.1,116.4,628,119s29.6,59.5,29.6,59.5Z"/><path class="cls-18" d="M580.2,528.4l-1.6-7.3s-9.7,9.2-13.6,28.2c-5.4,25.8,6,46.8,6,46.8Z"/><path class="cls-39" d="M621,126.7c-4.4-7.9-20.8,14-18.1,19.7S623,130.1,621,126.7Z"/><path class="cls-18" d="M578.2,528.1l.3-6.4s10.2,11.1,9.3,30.5c-1.2,26.3-17.5,43.9-17.5,43.9Z"/><path class="cls-40" d="M577.9,529.7c-5.2-.7-10.2,17-11.5,27.9s1.6,28.1,5.1,28.5S581.6,572,583.4,559,582,530.3,577.9,529.7Z"/><path class="cls-41" d="M735.7,876.7c-13.7-27.2-59.8-7.5-59.8-7.5s29.2-73.5-20.2-93.8a41.5,41.5,0,0,0-26.8-2.2L645.4,698,466.1,675.8l-1.5,88.1c-27.8,13.8-35.9,46.5-35.9,46.5s0-20.1-14.9-20.7-12.9,21.9-12.9,21.9-69.3-6.2-95.7,34.7,29.9,91.2,100.8,91.2c0,0-57.6-.1-67.7,15.9H737.8s-3.5-23.4-32.6-15.9C705.2,937.5,749.4,904,735.7,876.7Z"/><circle class="cls-42" cx="262.1" cy="850.8" r="15.9"/><circle class="cls-43" cx="255" cy="784.1" r="15.1" transform="translate(-173.3 79.6) rotate(-13.3)"/><circle class="cls-44" cx="293.7" cy="840.1" r="3.1"/><path class="cls-45" d="M302.4,775.1a4.9,4.9,0,0,0,4.8-4.8,4.8,4.8,0,0,0-4.8-4.8,4.7,4.7,0,0,0-4.8,4.8A4.8,4.8,0,0,0,302.4,775.1Z"/><circle class="cls-46" cx="744.9" cy="846.9" r="15.1" transform="translate(-380.7 774.8) rotate(-45)"/><path class="cls-47" d="M725.3,861.4a2.8,2.8,0,0,0,2.9-2.8,2.9,2.9,0,0,0-5.8,0A2.8,2.8,0,0,0,725.3,861.4Z"/><path class="cls-48" d="M778.7,858.6a2.9,2.9,0,0,0,0,5.7,2.9,2.9,0,1,0,0-5.7Z"/><path class="cls-49" d="M733,814.5a2.9,2.9,0,1,0,0-5.8,2.9,2.9,0,0,0,0,5.8Z"/><circle class="cls-50" cx="706.4" cy="809.9" r="2.9"/><path class="cls-51" d="M694.6,799.3a5,5,0,1,0-5-4.9A4.9,4.9,0,0,0,694.6,799.3Z"/><path class="cls-52" d="M708.4,775.9a2,2,0,0,0,2-2,2,2,0,1,0-4,0A2,2,0,0,0,708.4,775.9Z"/><path class="cls-53" d="M695.5,802.4a1,1,0,0,0,1,1,.9.9,0,0,0,1-1,1,1,0,0,0-1-1A1.1,1.1,0,0,0,695.5,802.4Z"/><circle class="cls-54" cx="323" cy="771.8" r="1"/><path class="cls-55" d="M338.2,792.5a1.1,1.1,0,0,0,1-1,1.1,1.1,0,0,0-1-1.1,1,1,0,0,0-1,1.1A1,1,0,0,0,338.2,792.5Z"/></g></g></svg>