<svg xmlns="http://www.w3.org/2000/svg" xmlns:xlink="http://www.w3.org/1999/xlink" viewBox="0 0 334 309.27"><defs><style>.cls-1{isolation:isolate;}.cls-2{opacity:0.2;}.cls-3{fill:url(#linear-gradient);}.cls-4{fill:url(#linear-gradient-2);}.cls-10,.cls-11,.cls-12,.cls-13,.cls-14,.cls-15,.cls-16,.cls-17,.cls-18,.cls-19,.cls-20,.cls-21,.cls-22,.cls-23,.cls-24,.cls-25,.cls-26,.cls-27,.cls-28,.cls-29,.cls-30,.cls-31,.cls-32,.cls-34,.cls-35,.cls-36,.cls-37,.cls-38,.cls-39,.cls-5,.cls-6,.cls-7,.cls-8,.cls-9{fill-rule:evenodd;}.cls-5{fill:url(#Áåçûìÿííûé_ãðàäèåíò_8);}.cls-6{fill:url(#Áåçûìÿííûé_ãðàäèåíò_8-2);}.cls-7{fill:url(#Áåçûìÿííûé_ãðàäèåíò_2);}.cls-8{fill:url(#linear-gradient-3);}.cls-27,.cls-9{fill:#1d0c43;}.cls-10,.cls-28,.cls-33{fill:#fff;}.cls-11{fill:#fbf9fa;}.cls-11,.cls-12,.cls-28,.cls-33{opacity:0.5;}.cls-11,.cls-28,.cls-33{mix-blend-mode:soft-light;}.cls-12,.cls-14,.cls-26,.cls-27,.cls-30{mix-blend-mode:multiply;}.cls-12{fill:url(#Áåçûìÿííûé_ãðàäèåíò_42);}.cls-13{fill:url(#linear-gradient-4);}.cls-14,.cls-27,.cls-30{opacity:0.3;}.cls-14{fill:url(#linear-gradient-5);}.cls-15{fill:url(#linear-gradient-6);}.cls-16{fill:url(#linear-gradient-7);}.cls-17{fill:url(#linear-gradient-8);}.cls-18{fill:url(#linear-gradient-9);}.cls-19{fill:url(#linear-gradient-10);}.cls-20{fill:url(#linear-gradient-11);}.cls-21{fill:url(#linear-gradient-12);}.cls-22{fill:url(#linear-gradient-13);}.cls-23{fill:url(#linear-gradient-14);}.cls-24{fill:url(#linear-gradient-15);}.cls-25{fill:url(#Áåçûìÿííûé_ãðàäèåíò_45);}.cls-26{fill:#2e3192;opacity:0.05;}.cls-29{fill:url(#linear-gradient-16);}.cls-30{fill:#401734;}.cls-31{fill:url(#Áåçûìÿííûé_ãðàäèåíò_45-2);}.cls-32{fill:url(#linear-gradient-17);}.cls-34{fill:url(#Áåçûìÿííûé_ãðàäèåíò_131);}.cls-35{fill:url(#Áåçûìÿííûé_ãðàäèåíò_131-2);}.cls-36{fill:url(#linear-gradient-18);}.cls-37{fill:url(#Áåçûìÿííûé_ãðàäèåíò_131-3);}.cls-38{fill:url(#Áåçûìÿííûé_ãðàäèåíò_131-4);}.cls-39{fill:url(#linear-gradient-19);}</style><linearGradient id="linear-gradient" x1="1437.41" y1="187.3" x2="1633.99" y2="699.39" gradientUnits="userSpaceOnUse"><stop offset="0" stop-color="#e56ba6"/><stop offset="0.99" stop-color="#713592"/></linearGradient><linearGradient id="linear-gradient-2" x1="1374.63" y1="416.47" x2="1571.22" y2="928.56" gradientTransform="matrix(1.24, -0.41, 0.2, 1, -423.95, 364.71)" xlink:href="#linear-gradient"/><linearGradient id="Áåçûìÿííûé_ãðàäèåíò_8" x1="1741.5" y1="405.05" x2="1619.37" y2="468.39" gradientUnits="userSpaceOnUse"><stop offset="0" stop-color="#e03347"/><stop offset="1" stop-color="#ff6e27"/></linearGradient><linearGradient id="Áåçûìÿííûé_ãðàäèåíò_8-2" x1="1742.75" y1="407.47" x2="1620.63" y2="470.81" xlink:href="#Áåçûìÿííûé_ãðàäèåíò_8"/><linearGradient id="Áåçûìÿííûé_ãðàäèåíò_2" x1="1636.29" y1="484.76" x2="1747.04" y2="378.57" gradientUnits="userSpaceOnUse"><stop offset="0" stop-color="#ffa700"/><stop offset="1" stop-color="#ffd328"/></linearGradient><linearGradient id="linear-gradient-3" x1="1715.81" y1="458.36" x2="1638.69" y2="483.9" gradientUnits="userSpaceOnUse"><stop offset="0" stop-color="#f79420"/><stop offset="0.4" stop-color="#f2684b"/><stop offset="0.72" stop-color="#ef4c66"/><stop offset="0.9" stop-color="#ee4270"/></linearGradient><linearGradient id="Áåçûìÿííûé_ãðàäèåíò_42" x1="1389.8" y1="429.18" x2="1401.43" y2="409.97" gradientTransform="matrix(-0.99, 0.12, 0.12, 0.99, 2987.7, -97.85)" gradientUnits="userSpaceOnUse"><stop offset="0" stop-color="#daccd2"/><stop offset="1" stop-color="#b0339f"/></linearGradient><linearGradient id="linear-gradient-4" x1="1669.35" y1="299.25" x2="1431.93" y2="493.44" gradientUnits="userSpaceOnUse"><stop offset="0" stop-color="#ffd587"/><stop offset="0.41" stop-color="#ea9f74"/><stop offset="0.8" stop-color="#d87164"/><stop offset="1" stop-color="#d15f5e"/></linearGradient><linearGradient id="linear-gradient-5" x1="1451.73" y1="504.32" x2="1564.37" y2="398.89" gradientUnits="userSpaceOnUse"><stop offset="0" stop-color="#231f20" stop-opacity="0"/><stop offset="0.45" stop-color="#231f20" stop-opacity="0.5"/><stop offset="1" stop-color="#231f20"/></linearGradient><linearGradient id="linear-gradient-6" x1="1599.82" y1="283.56" x2="1359.36" y2="491.4" gradientUnits="userSpaceOnUse"><stop offset="0" stop-color="#7d287a"/><stop offset="0.25" stop-color="#612a78"/><stop offset="0.52" stop-color="#4a2b77"/><stop offset="0.78" stop-color="#3c2c76"/><stop offset="1" stop-color="#372c76"/></linearGradient><linearGradient id="linear-gradient-7" x1="266.71" y1="82.93" x2="91.87" y2="191.78" xlink:href="#linear-gradient-6"/><linearGradient id="linear-gradient-8" x1="1617.77" y1="308.59" x2="1442.93" y2="417.44" xlink:href="#linear-gradient-6"/><linearGradient id="linear-gradient-9" x1="1634.24" y1="335.05" x2="1459.4" y2="443.9" gradientUnits="userSpaceOnUse"><stop offset="0" stop-color="#7d287a"/><stop offset="0.02" stop-color="#7a287a"/><stop offset="0.25" stop-color="#612979"/><stop offset="0.52" stop-color="#4a2b77"/><stop offset="0.78" stop-color="#3c2c76"/><stop offset="1" stop-color="#372c76"/></linearGradient><linearGradient id="linear-gradient-10" x1="1624.71" y1="319.73" x2="1449.86" y2="428.58" xlink:href="#linear-gradient-6"/><linearGradient id="linear-gradient-11" x1="1616.53" y1="306.6" x2="1441.69" y2="415.45" xlink:href="#linear-gradient-6"/><linearGradient id="linear-gradient-12" x1="1659.54" y1="381.56" x2="1487.58" y2="488.62" xlink:href="#linear-gradient-6"/><linearGradient id="linear-gradient-13" x1="269.42" y1="87.28" x2="94.57" y2="196.13" xlink:href="#linear-gradient-6"/><linearGradient id="linear-gradient-14" x1="1618.86" y1="310.34" x2="1444.01" y2="419.19" xlink:href="#linear-gradient-6"/><linearGradient id="linear-gradient-15" x1="1656.5" y1="393.51" x2="1515.41" y2="472.01" xlink:href="#linear-gradient"/><linearGradient id="Áåçûìÿííûé_ãðàäèåíò_45" x1="1543.66" y1="434.26" x2="1584.78" y2="389.51" gradientUnits="userSpaceOnUse"><stop offset="0.02" stop-color="#e2dceb"/><stop offset="1" stop-color="#fff"/></linearGradient><linearGradient id="linear-gradient-16" x1="308.57" y1="70.23" x2="95.42" y2="304.61" xlink:href="#linear-gradient-6"/><linearGradient id="Áåçûìÿííûé_ãðàäèåíò_45-2" x1="1519.76" y1="411.36" x2="1558.44" y2="369.27" xlink:href="#Áåçûìÿííûé_ãðàäèåíò_45"/><linearGradient id="linear-gradient-17" x1="1633.18" y1="313.6" x2="1517.12" y2="370.87" xlink:href="#linear-gradient"/><linearGradient id="Áåçûìÿííûé_ãðàäèåíò_131" x1="1681.73" y1="302.94" x2="1710.59" y2="218.3" gradientTransform="matrix(-0.9, 0.12, 0.14, 0.99, 2919.26, -99.18)" gradientUnits="userSpaceOnUse"><stop offset="0.01" stop-color="#530e68"/><stop offset="1" stop-color="#60309d"/></linearGradient><linearGradient id="Áåçûìÿííûé_ãðàäèåíò_131-2" x1="1671.13" y1="305.32" x2="1701.85" y2="215.23" xlink:href="#Áåçûìÿííûé_ãðàäèåíò_131"/><linearGradient id="linear-gradient-18" x1="1505.65" y1="296.91" x2="1386.18" y2="415.25" xlink:href="#linear-gradient-3"/><linearGradient id="Áåçûìÿííûé_ãðàäèåíò_131-3" x1="1647.13" y1="461.06" x2="1664.96" y2="408.8" xlink:href="#Áåçûìÿííûé_ãðàäèåíò_131"/><linearGradient id="Áåçûìÿííûé_ãðàäèåíò_131-4" x1="1640.59" y1="462.53" x2="1659.56" y2="406.9" xlink:href="#Áåçûìÿííûé_ãðàäèåíò_131"/><linearGradient id="linear-gradient-19" x1="1618.1" y1="410.45" x2="1498.63" y2="528.78" xlink:href="#linear-gradient-3"/></defs><g class="cls-1"><g id="Layer_1" data-name="Layer 1"><g class="cls-2"><path class="cls-3" d="M1426.84,564.16c-59.43-40.53-70.76-175.55-6.52-236.16,67.89-64,276-8.51,277.41,101.59S1487.12,605.28,1426.84,564.16Z" transform="translate(-1376.96 -267.26)"/><path class="cls-4" d="M1443.88,267.27c-28.86.55-47.08,28.86-41.93,41.69s58.24-10.68,63.71-19.67S1451.83,267.11,1443.88,267.27Z" transform="translate(-1376.96 -267.26)"/></g><path class="cls-5" d="M1623.12,453.08c3.52,27.95,21.62,48.68,40.42,46.31s31.18-26.94,27.66-54.89-21.61-48.68-40.41-46.31S1619.6,425.14,1623.12,453.08Z" transform="translate(-1376.96 -267.26)"/><path class="cls-6" d="M1682.7,497s-13.94,3.32-23.58,2.54-23.72-61.16-23.72-61.16l10.43-39s19.67-7.7,31.85-3.28C1688.47,400,1682.7,497,1682.7,497Z" transform="translate(-1376.96 -267.26)"/><path class="cls-7" d="M1642.29,450.67c3.52,27.94,21.61,48.67,40.41,46.3s31.19-26.94,27.67-54.88-21.62-48.68-40.42-46.31S1638.76,422.72,1642.29,450.67Z" transform="translate(-1376.96 -267.26)"/><path class="cls-8" d="M1651.9,459.7a64.4,64.4,0,0,0,5.36,12c5,8.61,13.47,18.45,26.06,16.83,9.07-1.17,14.29-6.89,17.3-13.39v0c4.57-9.87,4-21.5,4-21.5Z" transform="translate(-1376.96 -267.26)"/><path class="cls-9" d="M1671,444s-11.88-5.51-22.12-.21l-.56-4.39s13.89-5.42,22.44,2.77Z" transform="translate(-1376.96 -267.26)"/><path class="cls-9" d="M1651.9,459.7a64.4,64.4,0,0,0,5.36,12s6.23-3.21,22.56-2.85,20.8,6.29,20.8,6.29v0c4.57-9.87,4-21.5,4-21.5Z" transform="translate(-1376.96 -267.26)"/><path class="cls-9" d="M1686.76,442s7.32-7.93,15.8-5l-.55-4.39s-11.12-2.27-15.48,7.55Z" transform="translate(-1376.96 -267.26)"/><polygon class="cls-10" points="323.66 186.8 320.65 195.6 278.44 200.92 274.94 192.43 323.66 186.8"/><path class="cls-11" d="M1647.22,414.73s-12.25-.27-19.16,2.41c0,0,3.94-7.24,8.25-11.76a98.11,98.11,0,0,1,22.19-5S1650.48,405.87,1647.22,414.73Z" transform="translate(-1376.96 -267.26)"/><path class="cls-12" d="M1670.46,495.32s-6.76,2.62-19.16,2.41a37.86,37.86,0,0,1-10.94-7.23s8-1.71,17.27-4.35C1657.63,486.15,1663.6,492.57,1670.46,495.32Z" transform="translate(-1376.96 -267.26)"/><path class="cls-13" d="M1481.23,496.34l-18.09-198.71h157.3c4.36,45.92,10.34,116,5.86,184.84L1568,552.41Z" transform="translate(-1376.96 -267.26)"/><path class="cls-14" d="M1600.48,466.6l-7.71,12.73L1482,489.67s1.39-36.55,5-47.82,30.52-23.29,30.52-23.29l-.91-19.7s-17.68-18-13.75-40.64,30.57-29.91,30.57-29.91l23.17,13.19,14.31,76.35Z" transform="translate(-1376.96 -267.26)"/><path class="cls-15" d="M1463.14,297.63l-19.45,10.59,19.45,188.12h18.09S1479.29,369,1463.14,297.63Z" transform="translate(-1376.96 -267.26)"/><polygon class="cls-16" points="155.82 138.29 157.67 151.82 177.63 152.06 179.5 138.82 155.82 138.29"/><path class="cls-17" d="M1519.48,364.66s-3.6-7.12-8.54-4.26c-3.69,2.15.75,19.83,6.19,22.33s6-1.82,6-1.82Z" transform="translate(-1376.96 -267.26)"/><path class="cls-18" d="M1567.88,367.2s3.19-6.48,8.31-3.19c3.82,2.45.39,18.86-4.91,20.83s-6.16-2.23-6.16-2.23Z" transform="translate(-1376.96 -267.26)"/><path class="cls-19" d="M1565.51,344.27c-6.85-11.14-23.08-12.42-23.08-12.42s-16.22-1.25-22.44,9.24c-5.14,8.73-1.22,42.73,2.56,52.14s13.24,19.13,22.27,19.28,17.93-9,21.16-17.92S1571.17,353.39,1565.51,344.27Z" transform="translate(-1376.96 -267.26)"/><path class="cls-20" d="M1558.62,342.63a62.15,62.15,0,0,1-18.75,10.55c-11.37,4.1-22.15,12.28-22.15,12.28s-4.52-21.63,3.09-31.33c8.68-11.08,43.34-8.74,45.6-6.18s-6.25,9.34-6.25,9.34a6.36,6.36,0,0,1,6.31,1.14c4,3.22,4.4,23.28,2.28,30.85,0,0-.27-8-2.46-12.86S1559.22,346.07,1558.62,342.63Z" transform="translate(-1376.96 -267.26)"/><path class="cls-21" d="M1495.75,469.14s.94-40.86,10-46.75,39.16-7.07,39.16-7.07,29.24,1.19,39.7,7.83c9.66,6,30.81,40.81,30.81,40.81l-14.94,2.64Z" transform="translate(-1376.96 -267.26)"/><polygon class="cls-22" points="147.26 149.97 168.41 163.52 189.24 150.29 169.26 147.12 147.26 149.97"/><path class="cls-23" d="M1512.72,359.76l15.94-.81,3.66,21.91-15.83,1.5S1509.59,367.13,1512.72,359.76Z" transform="translate(-1376.96 -267.26)"/><path class="cls-24" d="M1512.18,464.87s.84-38.34,9.89-44.14,39.15-6.87,39.15-6.87,29.25,1.28,39.71,7.86S1615.42,464,1615.42,464Z" transform="translate(-1376.96 -267.26)"/><path class="cls-25" d="M1571.4,414.36l1.37-9.58-23.67-.6,1.42,10.27-10,1.25,4.12,2.61a32,32,0,0,0,34.15.14l3.7-2.31Z" transform="translate(-1376.96 -267.26)"/><path class="cls-26" d="M1571.4,414.36l1.37-9.58-23.67-.6,1.42,10.27-10,1.25,4.12,2.61a32,32,0,0,0,34.15.14l3.7-2.31Z" transform="translate(-1376.96 -267.26)"/><path class="cls-27" d="M1516.64,382.47l15.76-2.1a6.12,6.12,0,0,0,4.08,1.32l-16.24,1.81A7.33,7.33,0,0,1,1516.64,382.47Z" transform="translate(-1376.96 -267.26)"/><polygon class="cls-27" points="156.04 140.91 172.29 138.89 173.77 147.22 157.52 149.33 156.04 140.91"/><path class="cls-28" d="M1502.26,427l16.56-2.28s1.43-4.23,7-5.77l-12.19.36S1503.88,421,1502.26,427Z" transform="translate(-1376.96 -267.26)"/><polygon class="cls-29" points="86.18 229.08 182.63 285.15 191.05 285.15 104.27 229.08 86.18 229.08"/><polygon class="cls-30" points="86.18 229.08 182.63 285.15 191.05 285.15 104.27 229.08 86.18 229.08"/><path class="cls-31" d="M1592.48,363.3c-3.25-2.08-5.72-.26-7.1,1.34-.11-8.76-1.14-17-3.59-20.88-6.86-11-23.08-12.35-23.08-12.35s-16.22-1.3-22.43,9c-2.18,3.65-2.73,11.81-2.34,20.7-1.53-1.66-3.9-3.25-6.71-1.65-3.68,2.11.77,19.59,6.2,22.08a7.36,7.36,0,0,0,2.91.76,55.61,55.61,0,0,0,2.52,9.63c3.78,9.25,13.24,18.94,22.28,19.12s17.91-8.87,21.15-17.63a47.82,47.82,0,0,0,1.94-9.17,6.32,6.32,0,0,0,3.35-.44C1592.88,381.93,1596.3,365.73,1592.48,363.3Z" transform="translate(-1376.96 -267.26)"/><path class="cls-32" d="M1574.9,342.12a61.93,61.93,0,0,1-18.74,10.35c-11.37,4-22.14,12-22.14,12s-5.41-22.42,1.45-32.51,36.52-3.95,38.79-1.41a10.13,10.13,0,0,1,2.18,6.25,6.4,6.4,0,0,1,6.31,1.15c4,3.19,4.4,23,2.29,30.47,0,0-.27-7.91-2.46-12.71S1575.5,345.52,1574.9,342.12Z" transform="translate(-1376.96 -267.26)"/><path class="cls-33" d="M1620.44,297.63h-157.3s123,2.86,137.34,24.1,25.82,160.74,25.82,160.74C1630.78,413.66,1624.8,343.55,1620.44,297.63Z" transform="translate(-1376.96 -267.26)"/><path class="cls-34" d="M1393.41,337.08c17.94-5.26,30.78,16.89,30.78,16.89s5.68-25.11,24.34-25.68c21.71-.66,27.23,31.88,15.68,52.44s-25.34,26-30.72,34.71c-7.69-6.6-22.45-7.51-39.53-23.51S1372.52,343.21,1393.41,337.08Z" transform="translate(-1376.96 -267.26)"/><path class="cls-35" d="M1470.67,327s-12.4-4.2-29.1,2.8l-18.3,17.11-9.86-12.73a31.79,31.79,0,0,0-29.2,8.91l7.07,32.37,42.21,40,15.82-2.16,12-44.24Z" transform="translate(-1376.96 -267.26)"/><path class="cls-36" d="M1409.22,334.92c17.94-5.27,30.78,16.89,30.78,16.89s5.68-25.11,24.34-25.68c21.71-.66,27.23,31.88,15.68,52.44s-25.34,26-30.71,34.71c-7.7-6.6-22.46-7.51-39.54-23.51S1388.33,341.05,1409.22,334.92Z" transform="translate(-1376.96 -267.26)"/><path class="cls-11" d="M1399.44,341.71s-14.33,2.43-17.56,5.07c0,0-4.26,8.45-2.12,17.29l15.32-5.42S1394.47,346.37,1399.44,341.71Z" transform="translate(-1376.96 -267.26)"/><path class="cls-37" d="M1466.77,516.49c11.08-3.25,19,10.43,19,10.43s3.51-15.5,15-15.85c13.4-.41,16.81,19.68,9.68,32.38s-15.64,16.07-19,21.43c-4.75-4.08-13.87-4.64-24.42-14.52S1453.88,520.28,1466.77,516.49Z" transform="translate(-1376.96 -267.26)"/><path class="cls-38" d="M1514.48,510.27s-7.66-2.6-18,1.72l-11.29,10.57-6.1-7.86a19.65,19.65,0,0,0-18,5.5l4.37,20,26.07,24.69,9.76-1.34,7.41-27.32Z" transform="translate(-1376.96 -267.26)"/><path class="cls-39" d="M1476.53,515.16c11.09-3.25,19,10.43,19,10.43s3.51-15.51,15-15.86c13.41-.41,16.82,19.68,9.69,32.38s-15.65,16.07-19,21.43c-4.75-4.07-13.87-4.63-24.41-14.51S1463.64,518.94,1476.53,515.16Z" transform="translate(-1376.96 -267.26)"/><path class="cls-11" d="M1470.5,519.35s-8.85,1.5-10.84,3.13c0,0-2.64,5.22-1.31,10.68l9.45-3.35S1467.43,522.23,1470.5,519.35Z" transform="translate(-1376.96 -267.26)"/></g></g></svg>