<svg xmlns="http://www.w3.org/2000/svg" xmlns:xlink="http://www.w3.org/1999/xlink" viewBox="0 0 311.83 300.17"><defs><style>.cls-1{isolation:isolate;}.cls-2{opacity:0.2;}.cls-3{fill:url(#linear-gradient);}.cls-4{fill:url(#linear-gradient-2);}.cls-5{fill:url(#linear-gradient-3);}.cls-6{fill:url(#linear-gradient-4);}.cls-7{fill:url(#linear-gradient-5);}.cls-8{fill:url(#Áåçûìÿííûé_ãðàäèåíò_10);}.cls-9{opacity:0.62;fill:url(#Áåçûìÿííûé_ãðàäèåíò_75);}.cls-10,.cls-9{mix-blend-mode:multiply;}.cls-10,.cls-18{fill:#1d0c43;}.cls-10,.cls-15,.cls-25{opacity:0.4;}.cls-11{fill:url(#linear-gradient-6);}.cls-12{fill:url(#linear-gradient-7);}.cls-13{fill:url(#Áåçûìÿííûé_ãðàäèåíò_10-2);}.cls-14,.cls-15,.cls-16,.cls-17,.cls-18,.cls-19,.cls-20,.cls-21,.cls-22,.cls-23,.cls-24{fill-rule:evenodd;}.cls-14{fill:url(#linear-gradient-8);}.cls-15,.cls-25{fill:#fff;}.cls-15,.cls-22,.cls-25{mix-blend-mode:soft-light;}.cls-16{fill:url(#Áåçûìÿííûé_ãðàäèåíò_50);}.cls-17{fill:url(#linear-gradient-9);}.cls-19{fill:url(#linear-gradient-10);}.cls-20{opacity:0.86;fill:url(#Áåçûìÿííûé_ãðàäèåíò_148);}.cls-20,.cls-21{mix-blend-mode:screen;}.cls-21,.cls-22{opacity:0.5;}.cls-21{fill:url(#Áåçûìÿííûé_ãðàäèåíò_148-2);}.cls-22{fill:#fbf9fa;}.cls-23{fill:url(#Áåçûìÿííûé_ãðàäèåíò_50-2);}.cls-24{fill:url(#linear-gradient-11);}</style><linearGradient id="linear-gradient" x1="958.68" y1="237.41" x2="1306.26" y2="695.52" gradientUnits="userSpaceOnUse"><stop offset="0" stop-color="#e56ba6"/><stop offset="0.99" stop-color="#713592"/></linearGradient><linearGradient id="linear-gradient-2" x1="819.65" y1="342.89" x2="1167.23" y2="801" xlink:href="#linear-gradient"/><linearGradient id="linear-gradient-3" x1="1102.79" y1="128.07" x2="1450.37" y2="586.18" xlink:href="#linear-gradient"/><linearGradient id="linear-gradient-4" x1="952.26" y1="517.62" x2="1042.82" y2="517.62" gradientTransform="translate(-37.7 98.14) rotate(-6.18)" gradientUnits="userSpaceOnUse"><stop offset="0" stop-color="#7d287a"/><stop offset="0.25" stop-color="#612a78"/><stop offset="0.52" stop-color="#4a2b77"/><stop offset="0.78" stop-color="#3c2c76"/><stop offset="1" stop-color="#372c76"/></linearGradient><linearGradient id="linear-gradient-5" x1="952.94" y1="505.46" x2="1042.11" y2="505.46" xlink:href="#linear-gradient-4"/><linearGradient id="Áåçûìÿííûé_ãðàäèåíò_10" x1="952.89" y1="497.59" x2="1042.11" y2="497.59" gradientTransform="translate(-37.7 98.14) rotate(-6.18)" gradientUnits="userSpaceOnUse"><stop offset="0" stop-color="#d93de3"/><stop offset="1" stop-color="#ff6dba"/></linearGradient><linearGradient id="Áåçûìÿííûé_ãðàäèåíò_75" x1="997.4" y1="538.4" x2="1023.1" y2="538.4" gradientTransform="translate(-37.7 98.14) rotate(-6.18)" gradientUnits="userSpaceOnUse"><stop offset="0" stop-color="#8b8be0"/><stop offset="1" stop-color="#a177b7"/></linearGradient><linearGradient id="linear-gradient-6" x1="646.74" y1="488.46" x2="737.3" y2="488.46" gradientTransform="matrix(-0.99, -0.11, -0.11, 0.99, 1936.96, 98.14)" xlink:href="#linear-gradient-4"/><linearGradient id="linear-gradient-7" x1="647.42" y1="476.31" x2="736.59" y2="476.31" gradientTransform="matrix(-0.99, -0.11, -0.11, 0.99, 1936.96, 98.14)" xlink:href="#linear-gradient-4"/><linearGradient id="Áåçûìÿííûé_ãðàäèåíò_10-2" x1="1133.19" y1="523.51" x2="1217.32" y2="488.46" gradientTransform="matrix(1, 0, 0, 1, 0, 0)" xlink:href="#Áåçûìÿííûé_ãðàäèåíò_10"/><linearGradient id="linear-gradient-8" x1="1036.7" y1="303.6" x2="1132.16" y2="537.4" gradientTransform="matrix(1, 0, 0, 1, 0, 0)" xlink:href="#linear-gradient-4"/><linearGradient id="Áåçûìÿííûé_ãðàäèåíò_50" x1="1082.99" y1="420.24" x2="1211.74" y2="420.24" gradientUnits="userSpaceOnUse"><stop offset="0" stop-color="#603082"/><stop offset="0.99" stop-color="#2a0e51"/></linearGradient><linearGradient id="linear-gradient-9" x1="1076.37" y1="287.4" x2="1171.83" y2="521.2" gradientTransform="matrix(1, 0, 0, 1, 0, 0)" xlink:href="#linear-gradient-4"/><linearGradient id="linear-gradient-10" x1="1028.28" y1="416.78" x2="1177.05" y2="416.78" gradientUnits="userSpaceOnUse"><stop offset="0" stop-color="#ffd587"/><stop offset="0.41" stop-color="#ea9f74"/><stop offset="0.8" stop-color="#d87164"/><stop offset="1" stop-color="#d15f5e"/></linearGradient><radialGradient id="Áåçûìÿííûé_ãðàäèåíò_148" cx="1209.15" cy="385.48" r="65.82" gradientUnits="userSpaceOnUse"><stop offset="0" stop-color="#c0a9b1"/><stop offset="0.11" stop-color="#b6a0a7"/><stop offset="0.29" stop-color="#99878d"/><stop offset="0.53" stop-color="#6c5f63"/><stop offset="0.81" stop-color="#2d282a"/><stop offset="1"/></radialGradient><radialGradient id="Áåçûìÿííûé_ãðàäèåíò_148-2" cx="1095.73" cy="492.04" r="165.08" xlink:href="#Áåçûìÿííûé_ãðàäèåíò_148"/><linearGradient id="Áåçûìÿííûé_ãðàäèåíò_50-2" x1="120.69" y1="102.21" x2="161.27" y2="155.69" xlink:href="#Áåçûìÿííûé_ãðàäèåíò_50"/><linearGradient id="linear-gradient-11" x1="101.01" y1="95.92" x2="147.39" y2="137.72" gradientUnits="userSpaceOnUse"><stop offset="0" stop-color="#e03347"/><stop offset="1" stop-color="#ff6e27"/></linearGradient></defs><g class="cls-1"><g id="Layer_1" data-name="Layer 1"><g class="cls-2"><path class="cls-3" d="M1199.44,544.31c-49.51,55.92-91.51,59.37-123.74,17.5-44.47-57.76-126.1-29.23-131.9-101.71S1073.9,275.47,1164,291.55,1291.06,440.82,1199.44,544.31Z" transform="translate(-943.62 -289.99)"/><path class="cls-4" d="M993.78,528.31c-22.73-15-48.5,4.34-49.73,20.37s49.79,20.46,57.72,14.13S1000.05,532.46,993.78,528.31Z" transform="translate(-943.62 -289.99)"/><path class="cls-5" d="M1255.43,310.53c-1.77-18.85-23.47-24.35-32.68-18s10.62,35.85,17.5,37.39S1255.92,315.72,1255.43,310.53Z" transform="translate(-943.62 -289.99)"/></g><path class="cls-6" d="M1036.43,501.91l-.91,1.39,4.47,17.42a6.5,6.5,0,0,1,.14.79,36.29,36.29,0,0,1,.15,11l-1.94-.54-13-3.55-13.56-3.7-26.27,13.57c-.88-1.74-2-7.43-2.2-12l0-.28v-.05l.78-17.17-1.1-1.1-19.92-19.71c-1-3.17-1.66-5-.86-7.89L991,477l11.68-1.21,19.55-2.07,28.7-3a11.37,11.37,0,0,1,.85,7.89Z" transform="translate(-943.62 -289.99)"/><path class="cls-7" d="M1036.51,502.21c-.32.34-.64.71-1,1.09l3.51,21.43,1.25,7.75c-.61,0-1.24,0-1.83,0a3.29,3.29,0,0,1-.42,0c-1.3-.07-2.55-.19-3.79-.37a20.15,20.15,0,0,1-2.47-.43l-1.77-.37-2-.51c-.64-.17-1.31-.35-2-.56l-.21-.06a4.49,4.49,0,0,0-.59-.19c-4.87-1.57-9.36-3.62-13.49-5.26-8.16,6-15.25,9.33-26.27,13.57l-.38-7.84-1-21.7-1.1-.82c-8.61-6.43-15.33-12-19.92-20l3.55-1.34,24.11-9.13L991,477l6.19-12.33L1004,451l18.2,22.66.33.4,25,3.81,4.25.65C1047.77,488.53,1043.54,494.31,1036.51,502.21Z" transform="translate(-943.62 -289.99)"/><path class="cls-8" d="M1047.48,477.91c-4.75,7.44-12.82,17.47-12.82,17.47s.79,2.73,1.77,6.53a2.63,2.63,0,0,1,.08.3c1.57,6.08,3.56,14.73,3.62,19.3,0,1.6-.17,2.68-.7,3a1.66,1.66,0,0,1-.4.17,5.93,5.93,0,0,1-2.5.09.26.26,0,0,1-.15,0c-.47,0-1-.13-1.45-.2-.73-.13-1.47-.28-2.24-.46-2.15-.51-4.61-1.23-7.07-2v0c-6-1.91-12-4.25-14-5l-.71-.29s-20.79,13.94-25.79,13.63a1.32,1.32,0,0,1-.47-.08c-.65-.21-1.07-1.93-1.33-4.4v-.05a159.94,159.94,0,0,1-.32-18c0-.07,0-.18,0-.28.11-3.94.24-6.82.24-6.82s-10.45-7.94-16.61-14.23c-2.73-2.78-4.63-5.26-4.41-6.55.61-3.66,27.66-10.5,27.66-10.5s1.87-5.13,4.3-10.88v-.05c3-7.15,6.88-15.24,9-15.47,4.06-.44,18.52,23.06,18.52,23.06s28.92,1.68,29.23,4.49C1051,471.89,1049.55,474.66,1047.48,477.91Z" transform="translate(-943.62 -289.99)"/><path class="cls-9" d="M1038.45,532.45a3.29,3.29,0,0,1-.42,0,23.48,23.48,0,0,1-3.79-.37,20.15,20.15,0,0,1-2.47-.43l-1.77-.37-2-.51c-.64-.17-1.31-.35-2-.56l-.21-.06-.59-.17v0a112.35,112.35,0,0,1-13.49-5.26l-.86-7.9.71.29c1.95.85,7.74,3.24,14,5.18a69.52,69.52,0,0,0,7.08,1.89c.77.18,1.51.33,2.24.46.5.07,1,.15,1.45.2a.26.26,0,0,0,.15,0,1.94,1.94,0,0,0,.4.06l1.41,7.06Z" transform="translate(-943.62 -289.99)"/><path class="cls-10" d="M1051.73,478.56c-4,10-8.19,15.75-15.22,23.65,1.57,6.08,3.56,14.73,3.62,19.3a36.29,36.29,0,0,1,.15,11c-.61,0-1.24,0-1.83,0a3.29,3.29,0,0,1-.42,0,23.48,23.48,0,0,1-3.79-.37,20.15,20.15,0,0,1-2.47-.43l-1.77-.37-2-.51c-.64-.17-1.31-.35-2-.56l-.21-.06-.59-.17v0l.07-1.56.29-6.13v-.16l-23-46.33-5.49-11.12-3-6v-.05c3-7.15,6.88-15.24,9-15.47,4.06-.44,18.52,23.06,18.52,23.06s28.92,1.68,29.23,4.49A11.37,11.37,0,0,1,1051.73,478.56Z" transform="translate(-943.62 -289.99)"/><path class="cls-11" d="M1169.73,505.82l.9,1.39-4.47,17.43c-.05.25-.11.51-.14.79a36.29,36.29,0,0,0-.15,11l1.94-.54,13-3.55,13.56-3.7,26.26,13.57c.89-1.74,2-7.44,2.21-12l0-.29v-.05l-.77-17.17,1.1-1.09,19.92-19.71c1-3.17,1.65-5,.85-7.89l-28.75-3-11.68-1.22L1184,477.62l-28.69-3a11.46,11.46,0,0,0-.86,7.9Z" transform="translate(-943.62 -289.99)"/><path class="cls-12" d="M1169.64,506.12c.33.35.65.72,1,1.09l-3.51,21.44-1.25,7.75c.62,0,1.24,0,1.84,0a2.07,2.07,0,0,0,.41,0c1.3-.07,2.56-.19,3.79-.37a20.28,20.28,0,0,0,2.48-.43l1.77-.37,2-.51c.64-.17,1.3-.35,2-.57l.21-.05c.19-.08.41-.14.59-.2,4.88-1.56,9.36-3.61,13.5-5.25,8.16,6,15.24,9.33,26.26,13.57l.38-7.84,1-21.71,1.09-.81c8.61-6.43,15.34-12,19.93-20l-3.55-1.34-24.11-9.13-.24-.46L1209,468.57,1202.17,455,1184,477.62l-.32.4-25,3.81-4.26.65C1158.38,492.45,1162.61,498.23,1169.64,506.12Z" transform="translate(-943.62 -289.99)"/><path class="cls-13" d="M1158.68,481.83c4.75,7.44,12.81,17.46,12.81,17.46s-.78,2.74-1.76,6.53c0,.1,0,.21-.09.3-1.56,6.09-3.56,14.74-3.62,19.31,0,1.6.18,2.68.71,3.05a1.42,1.42,0,0,0,.39.17,6,6,0,0,0,2.5.09.45.45,0,0,0,.16,0c.47-.05.94-.13,1.44-.21.74-.12,1.48-.27,2.25-.45,2.15-.52,4.6-1.23,7.07-2v0c6-1.91,12-4.26,14-5,.46-.18.7-.29.7-.29s20.8,13.94,25.79,13.63a1.38,1.38,0,0,0,.48-.08c.64-.21,1.06-1.93,1.33-4.41v-.05a157.39,157.39,0,0,0,.32-18c0-.07,0-.18,0-.28-.12-3.94-.24-6.83-.24-6.83s10.45-7.94,16.61-14.22c2.73-2.78,4.63-5.26,4.4-6.55-.61-3.66-27.65-10.5-27.65-10.5s-1.88-5.14-4.3-10.88v-.05c-3-7.15-6.88-15.25-9-15.47-4.06-.44-18.53,23.06-18.53,23.06s-28.92,1.67-29.22,4.48C1155.14,475.81,1156.6,478.58,1158.68,481.83Z" transform="translate(-943.62 -289.99)"/><path class="cls-10" d="M1167.71,536.36a2.07,2.07,0,0,0,.41,0,23.48,23.48,0,0,0,3.79-.37,20.28,20.28,0,0,0,2.48-.43l1.77-.37,2-.51c.64-.17,1.3-.35,2-.57l.21-.05.59-.17v0a110.47,110.47,0,0,0,13.5-5.25l.85-7.9s-.24.11-.7.29c-2,.85-7.74,3.24-14,5.18a70.22,70.22,0,0,1-7.08,1.89c-.77.18-1.51.33-2.25.45-.5.08-1,.16-1.44.21a.45.45,0,0,1-.16,0,1.76,1.76,0,0,1-.39.06l-1.42,7.06Z" transform="translate(-943.62 -289.99)"/><path class="cls-14" d="M1012.8,390.29s35.79-15.1,45.09-67.18l48.58-18.54-16.15,230S1032.41,513.59,1012.8,390.29Z" transform="translate(-943.62 -289.99)"/><path class="cls-15" d="M1012.8,390.29s35.79-15.1,45.09-67.18l48.58-18.54-16.15,230S1032.41,513.59,1012.8,390.29Z" transform="translate(-943.62 -289.99)"/><path class="cls-16" d="M1211.74,391c-39.78,128.22-112.68,145-112.68,145s-8.56-.43-8.74-1.32c-14.14-72.76-7.31-165.47,16.15-230l68.65,16c.82,52.56,35.5,69.86,36.59,70.39Z" transform="translate(-943.62 -289.99)"/><path class="cls-17" d="M1204.86,389.07s-33.36-15.12-34.2-68.52l-64.19-16c-23.75,65.34-30.8,156.87-16.15,230C1090.32,534.59,1165.07,517.28,1204.86,389.07Z" transform="translate(-943.62 -289.99)"/><path class="cls-18" d="M1177.69,389.46l-.64,2c-32.12,101.17-91.4,114.9-91.4,114.9s-9-3.27-20.47-15.39c-14.53-15.4-33-45.11-41.82-100.55,0,0,28.75-12.13,36.23-54l40.94-14.91,49.68,12.85c0,1.5.08,2.95.16,4.38,1.37,22.92,10.4,36.32,17.71,43.52A37.41,37.41,0,0,0,1177.69,389.46Z" transform="translate(-943.62 -289.99)"/><path class="cls-19" d="M1177.05,391.48c-32.12,101.17-91.4,114.9-91.4,114.9s-9-3.27-20.47-15.39c-13.55-16.63-29-45.59-36.9-94.94,0,0,28.75-12.13,36.23-54l40.93-14.9,44.93,11.62c1.37,22.92,10.4,36.32,17.71,43.52A49,49,0,0,0,1177.05,391.48Z" transform="translate(-943.62 -289.99)"/><path class="cls-20" d="M1211.71,390.94l-6.85-1.86c-36.34-19.89-34.21-68.53-34.21-68.53h4.47C1175.94,373.11,1210.62,390.41,1211.71,390.94Z" transform="translate(-943.62 -289.99)"/><path class="cls-21" d="M1085.65,506.38s-46.53-16.87-62.29-115.94c0,0,28.75-12.13,36.23-54l40.94-14.91C1069.25,396.06,1085.65,506.38,1085.65,506.38Z" transform="translate(-943.62 -289.99)"/><path class="cls-22" d="M1143.78,499.45l-16.23-20.24,14.59-16.94,23.09,11S1152,491.52,1143.78,499.45Z" transform="translate(-943.62 -289.99)"/><polygon class="cls-22" points="203.74 164.93 226.33 176.25 229.86 170.59 206.9 160.09 203.74 164.93"/><polygon class="cls-23" points="174.43 117.61 170.43 116.61 170.11 116.73 150.78 112.8 141.33 90.58 137.33 89.58 129.76 111.03 129.44 111.59 112.56 113.08 121.7 131.51 121.38 134.8 115.66 151 119.66 152 136.82 145.56 154.96 156.44 158.96 157.44 156.22 133.46 174.43 117.61"/><polygon class="cls-24" points="154.96 156.44 134.26 144.03 115.66 151 117.7 130.51 108.56 112.08 125.44 110.59 137.33 89.58 146.78 111.8 170.43 116.61 152.22 132.46 154.96 156.44"/><path class="cls-25" d="M1081,379.57l-11.88,21-16.89,1.49,9.15,18.43-2,20.49,18.59-7C1076,406.47,1081,379.57,1081,379.57Z" transform="translate(-943.62 -289.99)"/></g></g></svg>