<svg xmlns="http://www.w3.org/2000/svg" xmlns:xlink="http://www.w3.org/1999/xlink" viewBox="0 0 1080 1080"><defs><style>.cls-1{isolation:isolate;}.cls-2,.cls-28{opacity:0.2;}.cls-3{fill:url(#linear-gradient);}.cls-4{fill:url(#linear-gradient-2);}.cls-5{fill:url(#linear-gradient-3);}.cls-6{fill:url(#linear-gradient-4);}.cls-7{fill:url(#linear-gradient-5);}.cls-8{fill:url(#linear-gradient-6);}.cls-9{fill:url(#linear-gradient-7);}.cls-10{fill:url(#linear-gradient-8);}.cls-11{fill:url(#linear-gradient-9);}.cls-12{fill:#dee1f1;}.cls-13{fill:url(#linear-gradient-10);}.cls-14,.cls-16,.cls-18{opacity:0.51;}.cls-14{fill:url(#linear-gradient-11);}.cls-15{fill:url(#linear-gradient-12);}.cls-16{fill:url(#linear-gradient-13);}.cls-17{fill:url(#linear-gradient-14);}.cls-18{fill:url(#linear-gradient-15);}.cls-19{fill:url(#linear-gradient-16);}.cls-20{fill:url(#linear-gradient-17);}.cls-21{fill:url(#linear-gradient-18);}.cls-22{fill:url(#linear-gradient-19);}.cls-23{fill:url(#Áåçûìÿííûé_ãðàäèåíò_14);}.cls-24,.cls-25,.cls-27,.cls-31{opacity:0.5;}.cls-24,.cls-25,.cls-27,.cls-28,.cls-29,.cls-30,.cls-31{mix-blend-mode:screen;}.cls-24{fill:url(#Áåçûìÿííûé_ãðàäèåíò_54);}.cls-25{fill:url(#Áåçûìÿííûé_ãðàäèåíò_54-2);}.cls-26{fill:#fff;opacity:0.65;}.cls-27{fill:url(#Áåçûìÿííûé_ãðàäèåíò_54-3);}.cls-28{fill:url(#Áåçûìÿííûé_ãðàäèåíò_126);}.cls-29,.cls-30{opacity:0.72;}.cls-29{fill:url(#Áåçûìÿííûé_ãðàäèåíò_134);}.cls-30{fill:url(#Áåçûìÿííûé_ãðàäèåíò_143);}.cls-31{fill:url(#Áåçûìÿííûé_ãðàäèåíò_54-4);}</style><linearGradient id="linear-gradient" x1="304.98" y1="-68.44" x2="804.56" y2="1232.94" gradientUnits="userSpaceOnUse"><stop offset="0" stop-color="#e56ba6"/><stop offset="0.99" stop-color="#713592"/></linearGradient><linearGradient id="linear-gradient-2" x1="457.44" y1="-83.89" x2="957.02" y2="1217.5" gradientTransform="matrix(1.24, -0.41, 0.2, 1, -417.17, 278.27)" xlink:href="#linear-gradient"/><linearGradient id="linear-gradient-3" x1="-70.76" y1="496.45" x2="-70.76" y2="281.44" gradientTransform="matrix(-1, 0, 0, 1, 257.46, 0)" gradientUnits="userSpaceOnUse"><stop offset="0" stop-color="#ffd587"/><stop offset="0.41" stop-color="#ea9f74"/><stop offset="0.8" stop-color="#d87164"/><stop offset="1" stop-color="#d15f5e"/></linearGradient><linearGradient id="linear-gradient-4" x1="379.86" y1="224.76" x2="266.25" y2="446.12" gradientUnits="userSpaceOnUse"><stop offset="0" stop-color="#7d287a"/><stop offset="0.25" stop-color="#612a78"/><stop offset="0.52" stop-color="#4a2b77"/><stop offset="0.78" stop-color="#3c2c76"/><stop offset="1" stop-color="#372c76"/></linearGradient><linearGradient id="linear-gradient-5" x1="771.7" y1="496.45" x2="771.7" y2="281.44" gradientTransform="matrix(1, 0, 0, 1, 0, 0)" xlink:href="#linear-gradient-3"/><linearGradient id="linear-gradient-6" x1="787.32" y1="398.31" x2="787.32" y2="281.43" xlink:href="#linear-gradient-4"/><linearGradient id="linear-gradient-7" x1="816.37" y1="506.74" x2="816.37" y2="295.49" xlink:href="#linear-gradient-4"/><linearGradient id="linear-gradient-8" x1="-26.08" y1="506.74" x2="-26.08" y2="295.49" gradientTransform="matrix(-1, 0, 0, 1, 257.46, 0)" xlink:href="#linear-gradient-4"/><linearGradient id="linear-gradient-9" x1="526.77" y1="801.41" x2="595.12" y2="257.16" gradientTransform="matrix(1, 0, 0, 1, 0, 0)" xlink:href="#linear-gradient-3"/><linearGradient id="linear-gradient-10" x1="549.07" y1="652.21" x2="549.07" y2="271.39" xlink:href="#linear-gradient-4"/><linearGradient id="linear-gradient-11" x1="550.95" y1="796.38" x2="550.95" y2="471.98" gradientUnits="userSpaceOnUse"><stop offset="0" stop-color="#c0445f" stop-opacity="0.1"/><stop offset="0.18" stop-color="#bf435e" stop-opacity="0.12"/><stop offset="0.34" stop-color="#bd415c" stop-opacity="0.2"/><stop offset="0.51" stop-color="#b83e57" stop-opacity="0.32"/><stop offset="0.67" stop-color="#b23951" stop-opacity="0.49"/><stop offset="0.83" stop-color="#aa344a" stop-opacity="0.72"/><stop offset="0.99" stop-color="#a02c40" stop-opacity="0.99"/><stop offset="1" stop-color="#a02c40"/></linearGradient><linearGradient id="linear-gradient-12" x1="332.31" y1="754.21" x2="755.04" y2="754.21" gradientTransform="matrix(1, 0, 0, 1, 0, 0)" xlink:href="#linear-gradient-3"/><linearGradient id="linear-gradient-13" x1="540.57" y1="852.15" x2="544.08" y2="730.35" xlink:href="#linear-gradient-11"/><linearGradient id="linear-gradient-14" x1="478.51" y1="803.62" x2="631.36" y2="626.76" xlink:href="#linear-gradient-4"/><linearGradient id="linear-gradient-15" x1="327.26" y1="721.16" x2="327.26" y2="635.67" xlink:href="#linear-gradient-11"/><linearGradient id="linear-gradient-16" x1="672.49" y1="480.81" x2="672.49" y2="369.66" gradientUnits="userSpaceOnUse"><stop offset="0" stop-color="#ffda95"/><stop offset="0.21" stop-color="#fece81"/><stop offset="0.63" stop-color="#fab04f"/><stop offset="1" stop-color="#f6921e"/></linearGradient><linearGradient id="linear-gradient-17" x1="-67.25" y1="481.21" x2="-67.25" y2="369.6" gradientTransform="matrix(-1, 0, 0, 1, 359.96, 0)" xlink:href="#linear-gradient-16"/><linearGradient id="linear-gradient-18" x1="489.07" y1="516.93" x2="623.9" y2="516.93" xlink:href="#linear-gradient-16"/><linearGradient id="linear-gradient-19" x1="211.2" y1="665.3" x2="242.53" y2="415.84" xlink:href="#linear-gradient-4"/><linearGradient id="Áåçûìÿííûé_ãðàäèåíò_14" x1="214.03" y1="716.82" x2="358.09" y2="623.12" gradientUnits="userSpaceOnUse"><stop offset="0" stop-color="#8357a3"/><stop offset="1" stop-color="#ec227e"/></linearGradient><linearGradient id="Áåçûìÿííûé_ãðàäèåíò_54" x1="364.17" y1="360.99" x2="753.75" y2="360.99" gradientUnits="userSpaceOnUse"><stop offset="0"/><stop offset="1" stop-color="#7592cb"/></linearGradient><linearGradient id="Áåçûìÿííûé_ãðàäèåíò_54-2" x1="419.25" y1="617.41" x2="696.1" y2="617.41" xlink:href="#Áåçûìÿííûé_ãðàäèåíò_54"/><linearGradient id="Áåçûìÿííûé_ãðàäèåíò_54-3" x1="337.19" y1="632.73" x2="337.19" y2="602.87" xlink:href="#Áåçûìÿííûé_ãðàäèåíò_54"/><linearGradient id="Áåçûìÿííûé_ãðàäèåíò_126" x1="330.98" y1="562.14" x2="330.98" y2="420.92" gradientTransform="translate(34.8 -10) rotate(3.9)" gradientUnits="userSpaceOnUse"><stop offset="0"/><stop offset="1" stop-color="#5ac8e7"/></linearGradient><linearGradient id="Áåçûìÿííûé_ãðàäèåíò_134" x1="782.8" y1="348.33" x2="837.76" y2="348.33" gradientUnits="userSpaceOnUse"><stop offset="0"/><stop offset="1" stop-color="#d5dff1"/></linearGradient><linearGradient id="Áåçûìÿííûé_ãðàäèåíò_143" x1="255.55" y1="339.85" x2="316.12" y2="339.85" gradientUnits="userSpaceOnUse"><stop offset="0" stop-color="#d5dff1"/><stop offset="1"/></linearGradient><linearGradient id="Áåçûìÿííûé_ãðàäèåíò_54-4" x1="206.22" y1="495.29" x2="206.22" y2="425.48" gradientTransform="matrix(1, 0.02, -0.02, 1, 8.22, -1.95)" xlink:href="#Áåçûìÿííûé_ãðàäèåíò_54"/></defs><g class="cls-1"><g id="Layer_1" data-name="Layer 1"><g class="cls-2"><path class="cls-3" d="M278.1,889.3c-151-103-179.8-446.2-16.5-600.2C434.1,126.4,963,267.5,966.5,547.3S431.3,993.8,278.1,889.3Z"/><path class="cls-4" d="M321.4,134.8c-73.3,1.4-119.6,73.3-106.5,105.9s148-27.1,161.9-50S341.6,134.4,321.4,134.8Z"/></g><path class="cls-5" d="M389.5,320.7s-38.8-33.4-86.2-39.3c0,0-14.6,7.1-31.4,59.4s14.2,155.6,14.2,155.6Z"/><path class="cls-6" d="M284.8,307.5s7.7-17.7,18.5-26.1c0,0,39,36.1,37.5,122.2l-11.3,11.6Z"/><path class="cls-7" d="M710.4,320.7s38.8-33.4,86.3-39.3c0,0,14.5,7.1,31.3,59.4s-14.2,155.6-14.2,155.6Z"/><path class="cls-8" d="M796.7,281.4s-38.4,41.2-38.4,107.5l14.8,9.4,43.3-89.5S802,280.7,796.7,281.4Z"/><path class="cls-9" d="M771.7,393.8s-10.2-56.7,27.1-98.3c0,0,42.1,19.8,59.5,93.4s-27.9,117.8-27.9,117.8Z"/><path class="cls-10" d="M328.2,393.8s10.2-56.7-27.1-98.3c0,0-42.1,19.8-59.5,93.4s27.9,117.8,27.9,117.8Z"/><path class="cls-11" d="M823.5,707c-86.6,121.3-493.3,112.3-546.2,14.2-34.6-64.1-30.8-160.5,2.5-249.2,43.6-116.4,138.1-219.6,263.5-219.6,147.5,0,260.8,146.9,294.9,281.2C855.5,601.5,852.5,666.2,823.5,707Z"/><path class="cls-12" d="M307.6,594.4C327,677,684.5,686,772.3,611.1S733.6,270.2,539.9,281.8C362.8,292.4,275.9,459,307.6,594.4Z"/><path class="cls-13" d="M305.7,584.4C325.1,667,682.6,676,770.4,601.1s-38.6-341-232.3-329.3C360.9,282.4,274,449,305.7,584.4Z"/><path class="cls-14" d="M823.5,707c-86.6,121.3-493.3,112.3-546.2,14.2-34.6-64.1-30.8-160.5,2.5-249.2h0c-1.4,5.2-35.5,129.5-.7,184.2s176.3,48.1,327.4,41.7,201.1-28.4,226.5-71c20-33.6-.1-107.6-9.6-137.5l14.8,44.2C855.5,601.5,852.5,666.2,823.5,707Z"/><path class="cls-15" d="M710.3,771.9c-46.5,14.3-119.3,24.5-166.6,24.4-84.5-.1-145.5-9.6-179.6-23.2h0c-22.4-9-33.2-19.7-31.6-30.7,1-6.7,17.5-12.6,43.7-17.3,76.7-13.9,235.7-18.1,321.3-5.2,7.3,1.1,14.2,2.4,20.4,3.7l3.8,1,.7.2c14.8,3.5,25.2,8,29.9,13.4a11.3,11.3,0,0,1,2.4,4.2C757.8,752.8,739,763.1,710.3,771.9Z"/><path class="cls-16" d="M710.3,771.9c-18.6-8.2-137.4-57.7-233.6-36.2-104.6,23.5-112.6,37.4-112.6,37.4h0c-22.4-9-33.2-19.7-31.6-30.7,1-6.7,17.5-12.6,43.7-17.3,76.7-13.9,235.7-18.1,321.3-5.2,8.9,1.6,17,3.2,24.2,4.7l.7.2c14.8,3.5,25.2,8,29.9,13.4a11.3,11.3,0,0,1,2.4,4.2C757.8,752.8,739,763.1,710.3,771.9Z"/><path class="cls-17" d="M717.9,723.7c-20,19.1-115.9,35.6-170.5,35.5-97.9-.1-157.4-15.5-171.2-34.2C459.5,710,639.9,706.3,717.9,723.7Z"/><path class="cls-18" d="M277.3,721.2s17.1-20.1,50.8-36.2,64.7-28.8,69.5-41.8-92.4-5.3-92.4-5.3l-48.4,21S264.4,697.9,277.3,721.2Z"/><path class="cls-19" d="M619.8,461.8c12.9,22.7,90.9,27.8,107.3,0,9.8-16.5-26.3-97.1-71.5-91.9S613.6,450.8,619.8,461.8Z"/><path class="cls-20" d="M479.6,460.9c-12.9,22.7-103.4,29.2-107,4.9-5.7-39,22.8-101.1,67.9-95.9S485.9,449.8,479.6,460.9Z"/><path class="cls-21" d="M489.1,505.5s16.6,4.5,63.6,4.5,71.2-7.1,71.2-7.1S603.2,531,552.7,531,489.1,505.5,489.1,505.5Z"/><path class="cls-22" d="M237.6,415.2s25.1,16.2,8.6,53.5c0,0-117.1,63.9-110.4,133.4,5.7,58,167.6,29.9,167.6,29.9l5.8,19.4s-137.5,26.9-185-5.4c0,0-16.1-38.4,23.9-107.4S237.6,415.2,237.6,415.2Z"/><path class="cls-23" d="M282.9,626.7c-14.7,16.6,16.6,34.9,42.3,37.7,28.9,3.1,80.2-8.3,77.1-37.4S317.5,587.5,282.9,626.7Z"/><path class="cls-24" d="M364.4,375.4c-4.5,26.8,55.1,25.6,136.2,22.9,97.5-3.2,195.5,80.7,252.5,20.5,9.4-10-83.9-140.3-196.6-137.4S368.3,352.1,364.4,375.4Z"/><path class="cls-25" d="M419.7,608.5c-5.2,19.4,35.4,38.9,135.2,34,120.7-5.9,146.3-31.2,140.4-38.2-3.6-4.2-39.7,18.5-138.8-3.2C491,586.8,425.1,588.1,419.7,608.5Z"/><path class="cls-26" d="M612.3,269.5c-8.6,2,63.3,40,66.2,35.5S636,264,612.3,269.5Z"/><path class="cls-26" d="M750,297.9c-7.1,3.9-6.6,11.6,8.3,9.7s22.9-13.6,21.3-15.8S758.1,293.6,750,297.9Z"/><path class="cls-27" d="M284.9,629.7c-.9,4.8,102.2,5.9,104.6-12.3S291.6,592.9,284.9,629.7Z"/><path class="cls-28" d="M310.2,557.1s-4.2-28.1.8-65.9,15-62.1,21.1-58.7,5.1,40.4,8.7,76.9c2.7,28.3,8.2,54.9,8.2,54.9S322.9,589.3,310.2,557.1Z"/><path class="cls-29" d="M830.9,328.8s-13.7-16.9-32.3-12.4-19.8,63.1-8.7,64.6,15.9-32.4,24.4-37.8,23.5-3.2,23.5-3.2Z"/><path class="cls-30" d="M255.5,349.2s7.2-8.2,23.4-5.5,25.4,35.7,33.7,32.4,2.2-57-19.6-72.8C293,303.3,264.8,327.4,255.5,349.2Z"/><path class="cls-31" d="M233.6,427.3S176.5,491.5,180,496,237,434,233.6,427.3Z"/></g></g></svg>