<svg xmlns="http://www.w3.org/2000/svg" xmlns:xlink="http://www.w3.org/1999/xlink" viewBox="0 0 915 849.6"><defs><style>.cls-1{isolation:isolate;}.cls-2{opacity:0.2;}.cls-3{fill:url(#linear-gradient);}.cls-4{fill:url(#linear-gradient-2);}.cls-10,.cls-13,.cls-14,.cls-15,.cls-16,.cls-19,.cls-20,.cls-25,.cls-26,.cls-27,.cls-5,.cls-6,.cls-7,.cls-8,.cls-9{fill-rule:evenodd;}.cls-5{fill:url(#linear-gradient-3);}.cls-6{fill:url(#linear-gradient-4);}.cls-7{fill:url(#linear-gradient-5);}.cls-8{fill:#8b1756;}.cls-10,.cls-23,.cls-8{opacity:0.5;mix-blend-mode:multiply;}.cls-9{fill:#fbd99a;}.cls-17,.cls-9{mix-blend-mode:soft-light;}.cls-10{fill:#601734;}.cls-11{fill:url(#radial-gradient);}.cls-12{opacity:0.43;}.cls-13{fill:url(#Áåçûìÿííûé_ãðàäèåíò_348);}.cls-14{fill:url(#Áåçûìÿííûé_ãðàäèåíò_348-2);}.cls-15{fill:url(#Áåçûìÿííûé_ãðàäèåíò_348-3);}.cls-16{fill:url(#Áåçûìÿííûé_ãðàäèåíò_132);}.cls-18,.cls-21{fill:#fff;}.cls-19{fill:url(#linear-gradient-6);}.cls-20{fill:url(#Áåçûìÿííûé_ãðàäèåíò_131);}.cls-21{font-size:117.35px;font-family:Anton-Regular, Anton;}.cls-22{fill:url(#linear-gradient-7);}.cls-23{fill:#a989ab;}.cls-24{fill:url(#linear-gradient-8);}.cls-25{fill:url(#linear-gradient-9);}.cls-26{fill:url(#linear-gradient-10);}.cls-27{fill:url(#linear-gradient-11);}</style><linearGradient id="linear-gradient" x1="285.94" y1="-116.75" x2="826.01" y2="1290.09" gradientUnits="userSpaceOnUse"><stop offset="0" stop-color="#e56ba6"/><stop offset="0.99" stop-color="#713592"/></linearGradient><linearGradient id="linear-gradient-2" x1="439.15" y1="-133.69" x2="979.21" y2="1273.14" gradientTransform="matrix(1.24, -0.41, 0.2, 1, -417.17, 278.27)" xlink:href="#linear-gradient"/><linearGradient id="linear-gradient-3" x1="893.8" y1="615.97" x2="869.14" y2="404.32" gradientTransform="matrix(0.97, 0.26, -0.26, 0.97, 160.29, -105.39)" gradientUnits="userSpaceOnUse"><stop offset="0" stop-color="#7d287a"/><stop offset="0.25" stop-color="#612a78"/><stop offset="0.52" stop-color="#4a2b77"/><stop offset="0.78" stop-color="#3c2c76"/><stop offset="1" stop-color="#372c76"/></linearGradient><linearGradient id="linear-gradient-4" x1="869.89" y1="616.77" x2="869.89" y2="399.9" xlink:href="#linear-gradient-3"/><linearGradient id="linear-gradient-5" x1="716.46" y1="528.04" x2="954.27" y2="671.39" gradientUnits="userSpaceOnUse"><stop offset="0" stop-color="#ffd587"/><stop offset="0.41" stop-color="#ea9f74"/><stop offset="0.8" stop-color="#d87164"/><stop offset="1" stop-color="#d15f5e"/></linearGradient><radialGradient id="radial-gradient" cx="714.88" cy="218.8" r="351.29" gradientTransform="translate(-216.3 385.3) rotate(-23.8)" gradientUnits="userSpaceOnUse"><stop offset="0.02" stop-color="#e2dceb"/><stop offset="0.2" stop-color="#cfc4e7"/><stop offset="0.48" stop-color="#b7a4e3"/><stop offset="0.72" stop-color="#a891e0"/><stop offset="0.88" stop-color="#a38adf"/><stop offset="0.98" stop-color="#93d1ff"/></radialGradient><radialGradient id="Áåçûìÿííûé_ãðàäèåíò_348" cx="705.5" cy="218.48" r="307.49" gradientTransform="translate(-216.3 385.3) rotate(-23.8)" gradientUnits="userSpaceOnUse"><stop offset="0" stop-color="#a998ff"/><stop offset="0.99" stop-color="#9845b8"/></radialGradient><radialGradient id="Áåçûìÿííûé_ãðàäèåíò_348-2" cx="744.51" cy="88.89" r="307.49" gradientTransform="translate(10.7 2.2) rotate(2)" xlink:href="#Áåçûìÿííûé_ãðàäèåíò_348"/><radialGradient id="Áåçûìÿííûé_ãðàäèåíò_348-3" cx="705.51" cy="218.47" r="307.51" xlink:href="#Áåçûìÿííûé_ãðàäèåíò_348"/><linearGradient id="Áåçûìÿííûé_ãðàäèåíò_132" x1="705.02" y1="86.71" x2="705.02" y2="84.53" gradientTransform="translate(-216.3 385.3) rotate(-23.8)" gradientUnits="userSpaceOnUse"><stop offset="0" stop-color="#fdcdd3"/><stop offset="1" stop-color="#ffeacd"/></linearGradient><linearGradient id="linear-gradient-6" x1="453.06" y1="480.16" x2="454.54" y2="823.91" gradientUnits="userSpaceOnUse"><stop offset="0" stop-color="#f79420"/><stop offset="0.4" stop-color="#f2684b"/><stop offset="0.72" stop-color="#ef4c66"/><stop offset="0.9" stop-color="#ee4270"/></linearGradient><linearGradient id="Áåçûìÿííûé_ãðàäèåíò_131" x1="222.68" y1="524.97" x2="683.88" y2="524.97" gradientUnits="userSpaceOnUse"><stop offset="0.01" stop-color="#530e68"/><stop offset="1" stop-color="#60309d"/></linearGradient><linearGradient id="linear-gradient-7" x1="514.31" y1="1015.01" x2="483.59" y2="828.78" gradientTransform="translate(-265.9 395.1) rotate(-38.2)" xlink:href="#linear-gradient-3"/><linearGradient id="linear-gradient-8" x1="796.09" y1="878.09" x2="780.21" y2="781.8" gradientTransform="matrix(0.99, 0.12, -0.12, 0.99, -14.18, -151.3)" xlink:href="#linear-gradient-3"/><linearGradient id="linear-gradient-9" x1="978.79" y1="601.38" x2="947.42" y2="332.1" gradientTransform="matrix(0.25, -0.97, -0.97, -0.25, 420.66, 1648.38)" xlink:href="#linear-gradient-3"/><linearGradient id="linear-gradient-10" x1="983.25" y1="599.86" x2="983.25" y2="316.05" gradientTransform="matrix(0.25, -0.97, -0.97, -0.25, 420.66, 1648.38)" xlink:href="#linear-gradient-3"/><linearGradient id="linear-gradient-11" x1="433.24" y1="430.16" x2="65.79" y2="667.23" xlink:href="#linear-gradient-5"/></defs><g class="cls-1"><g id="Layer_1" data-name="Layer 1"><g class="cls-2"><path class="cls-3" d="M256.9,918.6C93.6,807.2,62.5,436.3,239,269.8c186.5-176,758.2-23.4,762.1,279.1S422.5,1031.5,256.9,918.6Z" transform="translate(-86.1 -102.9)"/><path class="cls-4" d="M303.7,102.9c-79.3,1.6-129.3,79.3-115.2,114.6s160-29.4,175.1-54.1S325.6,102.5,303.7,102.9Z" transform="translate(-86.1 -102.9)"/></g><path class="cls-5" d="M893.4,574.2l-14.5,41.4C886.9,592.7,898.4,577.9,893.4,574.2Zm-14.5,41.4L864.4,657C868.1,655.9,870.9,638.5,878.9,615.6Zm14.5-41.4-14.5,41.4C886.9,592.7,898.4,577.9,893.4,574.2Zm-14.5,41.4L864.4,657C868.1,655.9,870.9,638.5,878.9,615.6Zm41.8,35.9,14,7.9L949.9,618l-16.2-2.7c.3-1.5.5-3.1.7-4.6a104.5,104.5,0,0,0,1.4-20.6l17-10.7-7.7-36.5-16.3,15.6a46.5,46.5,0,0,0-8.4-12.1,24.7,24.7,0,0,0-2.8-2.8l10-23L901.1,512h0l-6.4,23.2a43.3,43.3,0,0,0-17.9,4.2l-3-21.9-29.2,22,6.8,19.5a109.7,109.7,0,0,0-14.3,20.7l-14-7.9-15.2,41.4,16.3,2.7a110.7,110.7,0,0,0-2.2,25.2l-17,10.7,7.8,36.5L829,672.7a47.5,47.5,0,0,0,11.2,14.9l-10,23,26.1,10.2,4.1-14.7,2.7-10.1a45.6,45.6,0,0,0,18-4.1l2.9,21.9,29.2-22.1-6.8-19.5a105.1,105.1,0,0,0,11.5-15.8C918.9,654.8,919.8,653.1,920.7,651.5Zm-41.8-35.9c-8,22.9,0,46.5-14.5,41.4s-19.8-27.8-11.8-50.6,26.3-37.2,40.8-32.2S886.9,592.7,878.9,615.6Zm14.5-41.4-14.5,41.4C886.9,592.7,898.4,577.9,893.4,574.2Zm-14.5,41.4L864.4,657C868.1,655.9,870.9,638.5,878.9,615.6Z" transform="translate(-86.1 -102.9)"/><path class="cls-6" d="M934.7,659.4,949.9,618l-15.5-7.3-2.5-1.2,1.7-22.8,17.1-8.3-5.6-35.5-37.4-12.1,6.9,16.4,13-26.6L901.1,512l-10.9-3.6L864,498.2l-4.8,17.9-22.8-10.8-29.2,22.1,8.9,23.9-27.3,75.6-13.5,49.2,25.9,2.8-8.4,19.5,26.1,10.2,37.4,12.2-6-12-3.8-7.2,13.9,4.5,23.6,7.7,29.2-22.1-18.1-21.3,22.8-14Zm-82.1-53c8-22.9,26.3-37.2,40.8-32.2l-14.5,41.4L864.4,657C849.9,651.9,844.6,629.2,852.6,606.4Z" transform="translate(-86.1 -102.9)"/><path class="cls-7" d="M897.3,647.2l15.2-41.4-16.3-2.7a110.7,110.7,0,0,0,2.2-25.2l17-10.7-7.7-36.4-16.3,15.5a47.1,47.1,0,0,0-11.2-14.9l10-23-26.1-10.2L857.3,523a44.1,44.1,0,0,0-18,4.2l-2.9-21.9-29.2,22,6.8,19.5a109.7,109.7,0,0,0-14.3,20.7l-14-7.9L770.5,601l16.3,2.7a110.7,110.7,0,0,0-2.2,25.2l-17,10.7,7.7,36.5,16.3-15.6a46,46,0,0,0,11.2,14.9l-10,23,26.1,10.2,6.8-24.7a45.8,45.8,0,0,0,18-4.2l2.9,21.9,29.2-22.1L869,660.1a110.5,110.5,0,0,0,14.3-20.8ZM827,644.8c-14.5-5.1-19.8-27.7-11.8-50.6S841.5,556.9,856,562s19.8,27.8,11.8,50.6S841.5,649.9,827,644.8Z" transform="translate(-86.1 -102.9)"/><polygon class="cls-8" points="866.7 476.5 829.3 464.3 812.3 475 849.7 487.2 866.7 476.5"/><polygon class="cls-9" points="827.1 588.7 789.7 576.6 783 557.1 820.4 569.3 827.1 588.7"/><polygon class="cls-8" points="794.1 428.5 814.6 434.5 821.6 427.8 835.2 432.3 841.5 417.7 804.1 405.5 794.1 428.5"/><path class="cls-8" d="M825.7,683.9l19.6,8.1-1.6-12.3S833.1,685.2,825.7,683.9Z" transform="translate(-86.1 -102.9)"/><path class="cls-10" d="M828.7,571.7l33,17.4s4.8-6.4,8.5-9C870.2,580.1,861.6,543.8,828.7,571.7Z" transform="translate(-86.1 -102.9)"/><path class="cls-11" d="M784.3,304a236.3,236.3,0,0,1,18,62.3A244.5,244.5,0,0,1,659.1,626.4a222.5,222.5,0,0,1-36.5,12.7c-83.4,22.1-171.3-2.1-231.7-60.3h0a244.6,244.6,0,0,1,71-399.9l1.4-.6,2-.8a243.7,243.7,0,0,1,205.9,7.2,240.7,240.7,0,0,1,46.9,30.9A243.2,243.2,0,0,1,784.3,304Z" transform="translate(-86.1 -102.9)"/><g class="cls-12"><path class="cls-13" d="M784.3,304a236.3,236.3,0,0,1,18,62.3c-8,4.7-17,7.6-25.6,7.6-13.7.1-27.2,1.5-41.3,1-28.2-1.2-34.2-22.6-52.7-40-8-7.6-14-14.9-22.8-21.2s-20.8-10.5-28.6-17.5c-12.2,10.4,12.8,15,17.3,19,9.6,8.6,4.2,20.6,5.3,31.3,2.5,22.5,16.3,44.4,2.1,64.4-5.1,7.1-9.6,15.6-14.9,21.7s-15,8.4-21.6,14.4c-9.7,8.8-19.9,47.7-35.9,37.6-9.5-6.2-4.4-20.2-9.5-27.4s-13.8-8.3-18.8-17.5-8.7-16.4-13.1-24.3a239.2,239.2,0,0,0-14-21.9c-5.2-7.7-7.6-17.5-12.8-25.7-2.7-4.5-6.5-5.8-8.6-10.9s-.1-9.6-2.1-14c-5.3-11.4-15.1-7.8-6.8-21.3,3-4.8,12.1-16,16.1-18.9,5.9-4.3,15.8-7.2,22.9-11.5s15.6-8.6,23.8-10.5c9.9-2.4,21.8-.7,31.2-3.9,7.4-2.6,16-7.3,23.7-10.8-2.1-11.4-26-12.2-36.4-12.5,7.5,27.4-28.8,12.2-38.7,16.3,1.1-19.9,6.5-40,22.9-49.1,13.2-7.2,36.2-21.4,50.9-19.9-3.3,28.4,51,9.8,64,11.6,11.2,1.6,24.2,4.1,36.4,3.4a18.7,18.7,0,0,0,3.4-.3A243.2,243.2,0,0,1,784.3,304Z" transform="translate(-86.1 -102.9)"/><path class="cls-14" d="M710.9,500.5c-7.1-7.4-23.3-10.1-33.1-12.4-15-3.5-21.1,2.4-34.4,5.9-7.6,2-6.5.2-13.3.2s-11.4-1.5-17.5,2.1c-13,7.7-8.8,20.6-11.6,33.9s-5.1,28.8-9.7,39.8c5.5.1,10.6-1.6,15.2-1.9,7.3-.5,13.6,1.6,20.1,2.2,12.2,1,21.9,6,33.7,8.3,27.7,5.6,45.2-21.5,54.8-43.8C718.6,526.8,727.7,499.5,710.9,500.5Z" transform="translate(-86.1 -102.9)"/><path class="cls-15" d="M410.1,254.3c-.5,9.9-8.6,26-13.8,34.3-6.6,10.8-9.8,24.6-19,34-17.3,17.3-49.4,66.2-60.4,58.9A244.7,244.7,0,0,1,386,231.3C397.5,234.3,410.7,244.2,410.1,254.3Z" transform="translate(-86.1 -102.9)"/></g><path class="cls-16" d="M463.3,178.2a17.7,17.7,0,0,0,.1,2.3l-.6-2.1Z" transform="translate(-86.1 -102.9)"/><g class="cls-17"><rect class="cls-18" x="316.3" y="399.4" width="488.5" height="5.8" transform="translate(-11 789.7) rotate(-81)"/><path class="cls-18" d="M532.9,645l-2.7-5.1c1.3-.6,124.3-66.9,148.6-220.1,26.3-165.4-80.7-255.6-81.8-256.5l3.7-4.4c1.1.9,110.6,93.1,83.8,261.8C659.7,576.9,534.2,644.4,532.9,645Z" transform="translate(-86.1 -102.9)"/><path class="cls-18" d="M531.7,645.4l-.3-5.8c2-.1,193.6-11.7,231.4-206.5,36.1-186.2-163-268.5-165-269.3l2.2-5.4c2,.8,205.5,84.8,168.5,275.8C729.8,633.5,533.7,645.3,531.7,645.4Z" transform="translate(-86.1 -102.9)"/><path class="cls-18" d="M511.2,641.6c-1-1-99.5-104.1-74.7-260.3,26.8-168.7,159.5-222.5,160.8-223l2.1,5.4c-1.3.5-130.9,53.2-157.2,218.6-24.3,153.2,72.2,254.2,73.1,255.2Z" transform="translate(-86.1 -102.9)"/><path class="cls-18" d="M512.2,642.3c-1.8-.7-184.6-72.7-159.7-274.2,23.9-193,243.5-209.8,245.7-210l.4,5.8c-2.2.2-217,16.7-240.3,204.9-24.4,197.1,154.2,267.4,156,268.1Z" transform="translate(-86.1 -102.9)"/><path class="cls-18" d="M801.2,442.1C659,386.3,469.9,356.3,319.4,365.6l-.3-5.8c151.2-9.4,341.3,20.8,484.2,76.9Z" transform="translate(-86.1 -102.9)"/><path class="cls-18" d="M672.7,622.1c-144.2-49.7-280.2-40.6-281.6-40.5l-.4-5.8c1.3-.1,138.5-9.3,283.9,40.8Z" transform="translate(-86.1 -102.9)"/><path class="cls-18" d="M724.6,224.9c-169.9-59-290.5-28-291.7-27.6l-1.5-5.6c1.2-.4,123.6-31.9,295.1,27.7Z" transform="translate(-86.1 -102.9)"/></g><polygon class="cls-19" points="230.5 694.3 222.7 531.6 683.9 531.3 674.2 694.5 230.5 694.3"/><polygon class="cls-20" points="222.7 531.6 248.9 522.6 649.5 518.4 683.9 531.3 222.7 531.6"/><text class="cls-21" transform="translate(330.2 660.7)">ENTER</text><polygon class="cls-18" points="609.3 803.5 560.9 635 723.6 713.6 645.8 743.1 609.3 803.5"/><path class="cls-22" d="M694.2,915.3,641.3,731.2l177.5,85.7L734.3,849ZM652.6,744.7l44,152.8,32.8-54.3,71.2-27.1Z" transform="translate(-86.1 -102.9)"/><polygon class="cls-23" points="560.9 635 645.8 743.1 609.3 803.5 560.9 635"/><polygon class="cls-24" points="731.9 714.5 725.6 736 674.9 776.4 628.9 816.8 608.2 811.4 645.8 743.1 731.9 714.5"/><path class="cls-25" d="M208.9,599.9l46.6,31C249.4,635.9,234.7,617,208.9,599.9Zm-46.5-31.1,46.5,31.1C183.2,582.7,162.6,573.7,162.4,568.8Zm46.5,31.1,46.6,31C249.4,635.9,234.7,617,208.9,599.9Zm-46.5-31.1,46.5,31.1C183.2,582.7,162.6,573.7,162.4,568.8Zm-16.2,66.3a133.8,133.8,0,0,1-15.9-19.2l-26.2,2.2L86.1,575l28,3.4a54.9,54.9,0,0,1,.5-23.6l-11.5-6.5-16.9-9.7,20.8-29,25.3,19.6a60.7,60.7,0,0,1,21.9-9.1l-14.1-25,47.6,2,7.8,24.4a141.3,141.3,0,0,1,30.4,10.6l8.6-19.2,46.3,31.9-14.3,14.8a138.6,138.6,0,0,1,21.1,24.2l26.2-2.2,18,43.1-28-3.3a56.1,56.1,0,0,1-.5,23.5l26.6,15.2h0l-19,30-25.3-19.6c-1.4.9-2.8,1.8-4.3,2.6a61.5,61.5,0,0,1-17.6,6.5l14,25-47.5-2-7.8-24.4a132.6,132.6,0,0,1-25-8.2l-5.4-2.4-8.6,19.2-46.3-31.9,14.3-14.8Zm109.3-4.2c10.8-16.4-1.2-43.5-26.9-60.6s-55.3-17.8-66.2-1.5,20.8,13.9,46.5,31.1S244.6,647.2,255.5,630.9Zm-46.6-31,46.6,31C249.4,635.9,234.7,617,208.9,599.9Zm-46.5-31.1,46.5,31.1C183.2,582.7,162.6,573.7,162.4,568.8Z" transform="translate(-86.1 -102.9)"/><path class="cls-26" d="M146.2,635.1l-10.1-32.6-32,15.6L86.1,575l17-26.7,9.9-15.7L102.9,535l-16.7,3.6,26.9-42.3L134,467.2l21.4,16.6,11.7-31.1,56.4,32.2,84.9,57.7,32.3-3.3,18,43.1L338.2,607l20.4,11.7-20.8,29.1-7.9,12.3-19,30-28.7-24.5,22.5-3.3-27,42.3-45.5-4.2-4.9-23.9-27.7-9.2-2.2,2.7-14,16.8-46.3-31.9Zm16.2-66.3,46.5,31.1,46.6,31c10.8-16.4-1.2-43.5-26.9-60.6S173.3,552.5,162.4,568.8Z" transform="translate(-86.1 -102.9)"/><path class="cls-27" d="M178.3,597.7a138.6,138.6,0,0,1-21.1-24.2L131,575.7l-18-43.1,28,3.4a57.7,57.7,0,0,1,.5-23.5l-28.4-16.2L134,467.2l25.3,19.7a57.4,57.4,0,0,1,21.9-9.1l-14.1-25.1,47.5,2,7.8,24.4a145.5,145.5,0,0,1,30.4,10.7l8.6-19.3,46.3,31.9-14.3,14.9a147.1,147.1,0,0,1,21.2,24.1l26.1-2.1,18,43.1L330.8,579a56,56,0,0,1-.6,23.5l28.4,16.2-20.8,29.1-25.3-19.7a57.4,57.4,0,0,1-21.9,9.1l14.1,25.1-47.6-2-7.8-24.4a147.5,147.5,0,0,1-30.4-10.7l-8.5,19.3L164,612.6Zm37.9-10.6c25.7,17.1,55.3,17.7,66.2,1.4s-1.1-43.4-26.8-60.6-55.4-17.8-66.2-1.4S190.5,569.9,216.2,587.1Z" transform="translate(-86.1 -102.9)"/><polygon class="cls-10" points="144.1 599.7 171.1 557.4 163.3 533 136.4 575.3 144.1 599.7"/><polygon class="cls-9" points="18 515.1 45 472.8 71.1 470.6 44.2 513 18 515.1"/><polygon class="cls-10" points="226.4 525.2 212.6 548.7 218.6 559.3 208.8 574.8 224.8 587.2 251.7 544.8 226.4 525.2"/><path class="cls-10" d="M141.5,512.5l-16.3,21.6L141,536S137.5,521.2,141.5,512.5Z" transform="translate(-86.1 -102.9)"/><path class="cls-10" d="M279.1,551.8l-32,35.2s6.4,7.9,8.4,13.3C255.5,600.3,303.2,601.2,279.1,551.8Z" transform="translate(-86.1 -102.9)"/></g></g></svg>