<svg xmlns="http://www.w3.org/2000/svg" xmlns:xlink="http://www.w3.org/1999/xlink" viewBox="0 0 1080 1080"><defs><style>.cls-1{isolation:isolate;}.cls-11,.cls-12,.cls-13,.cls-14,.cls-15,.cls-16,.cls-17,.cls-18,.cls-19,.cls-2,.cls-20,.cls-21,.cls-22,.cls-23,.cls-24,.cls-25,.cls-26,.cls-27,.cls-28,.cls-29,.cls-3,.cls-30,.cls-31,.cls-32,.cls-33,.cls-34,.cls-35,.cls-36,.cls-37,.cls-38,.cls-39,.cls-4,.cls-40,.cls-5,.cls-50,.cls-51,.cls-52,.cls-53,.cls-6{fill-rule:evenodd;}.cls-2{fill:url(#linear-gradient);}.cls-3{fill:url(#linear-gradient-2);}.cls-4{fill:url(#linear-gradient-3);}.cls-5{fill:#601734;}.cls-46,.cls-47,.cls-5,.cls-53{opacity:0.5;}.cls-43,.cls-46,.cls-5,.cls-53{mix-blend-mode:multiply;}.cls-6{fill:#fbd99a;}.cls-49,.cls-6{mix-blend-mode:soft-light;}.cls-7{opacity:0.2;}.cls-8{fill:url(#linear-gradient-4);}.cls-9{fill:url(#linear-gradient-5);}.cls-10{fill:url(#linear-gradient-6);}.cls-11{fill:url(#linear-gradient-7);}.cls-12{fill:url(#linear-gradient-8);}.cls-13{fill:url(#linear-gradient-9);}.cls-14{fill:url(#linear-gradient-10);}.cls-15{fill:url(#linear-gradient-11);}.cls-16{fill:url(#linear-gradient-12);}.cls-17{fill:url(#linear-gradient-13);}.cls-18{fill:url(#linear-gradient-14);}.cls-19{fill:url(#linear-gradient-15);}.cls-20{fill:url(#linear-gradient-16);}.cls-21{fill:url(#linear-gradient-17);}.cls-22{fill:url(#linear-gradient-18);}.cls-23{fill:url(#linear-gradient-19);}.cls-24{fill:url(#linear-gradient-20);}.cls-25{fill:url(#linear-gradient-21);}.cls-26{fill:url(#linear-gradient-22);}.cls-27{fill:url(#linear-gradient-23);}.cls-28{fill:url(#linear-gradient-24);}.cls-29{fill:url(#linear-gradient-25);}.cls-30{fill:url(#linear-gradient-26);}.cls-31{fill:url(#linear-gradient-27);}.cls-32{fill:url(#linear-gradient-28);}.cls-33{fill:url(#linear-gradient-29);}.cls-34{fill:url(#linear-gradient-30);}.cls-35{fill:url(#linear-gradient-31);}.cls-36{fill:url(#linear-gradient-32);}.cls-37{fill:url(#linear-gradient-33);}.cls-38{fill:url(#linear-gradient-34);}.cls-39{fill:url(#linear-gradient-35);}.cls-40{fill:url(#linear-gradient-36);}.cls-41{fill:url(#linear-gradient-37);}.cls-42{fill:url(#linear-gradient-38);}.cls-43{opacity:0.4;fill:url(#Áåçûìÿííûé_ãðàäèåíò_55);}.cls-44{fill:url(#linear-gradient-39);}.cls-45{fill:url(#linear-gradient-40);}.cls-46,.cls-53{fill:#8b1756;}.cls-47{mix-blend-mode:screen;fill:url(#linear-gradient-41);}.cls-48{font-size:103.9px;font-family:Countach-Regular, Countach;letter-spacing:0.2em;}.cls-48,.cls-49{fill:#fff;}.cls-49{opacity:0.46;}.cls-50{fill:url(#linear-gradient-42);}.cls-51{fill:url(#linear-gradient-43);}.cls-52{fill:url(#linear-gradient-44);}</style><linearGradient id="linear-gradient" x1="985.41" y1="627.87" x2="956.33" y2="378.31" gradientTransform="matrix(0.58, -0.81, -0.81, -0.58, 26.22, 1547.99)" gradientUnits="userSpaceOnUse"><stop offset="0" stop-color="#7d287a"/><stop offset="0.25" stop-color="#612a78"/><stop offset="0.52" stop-color="#4a2b77"/><stop offset="0.78" stop-color="#3c2c76"/><stop offset="1" stop-color="#372c76"/></linearGradient><linearGradient id="linear-gradient-2" x1="989.54" y1="626.47" x2="989.54" y2="363.44" xlink:href="#linear-gradient"/><linearGradient id="linear-gradient-3" x1="383.46" y1="426" x2="42.92" y2="645.71" gradientTransform="translate(230.8 -140.9) rotate(21.2)" gradientUnits="userSpaceOnUse"><stop offset="0" stop-color="#f79420"/><stop offset="0.4" stop-color="#f2684b"/><stop offset="0.72" stop-color="#ef4c66"/><stop offset="0.9" stop-color="#ee4270"/></linearGradient><linearGradient id="linear-gradient-4" x1="167.89" y1="39.37" x2="1052.85" y2="1205.74" gradientUnits="userSpaceOnUse"><stop offset="0" stop-color="#e56ba6"/><stop offset="0.99" stop-color="#713592"/></linearGradient><linearGradient id="linear-gradient-5" x1="-186.09" y1="307.93" x2="698.88" y2="1474.31" xlink:href="#linear-gradient-4"/><linearGradient id="linear-gradient-6" x1="534.79" y1="-239.02" x2="1419.76" y2="927.35" xlink:href="#linear-gradient-4"/><linearGradient id="linear-gradient-7" x1="583.88" y1="218.95" x2="839.28" y2="630.9" gradientTransform="matrix(1, 0, 0, 1, 0, 0)" xlink:href="#linear-gradient"/><linearGradient id="linear-gradient-8" x1="649.15" y1="178.48" x2="904.55" y2="590.43" gradientTransform="matrix(1, 0, 0, 1, 0, 0)" xlink:href="#linear-gradient"/><linearGradient id="linear-gradient-9" x1="625.06" y1="193.42" x2="880.47" y2="605.36" gradientTransform="matrix(1, 0, 0, 1, 0, 0)" xlink:href="#linear-gradient"/><linearGradient id="linear-gradient-10" x1="642.36" y1="182.69" x2="897.77" y2="594.63" gradientTransform="matrix(1, 0, 0, 1, 0, 0)" xlink:href="#linear-gradient"/><linearGradient id="linear-gradient-11" x1="521.93" y1="252.45" x2="784.2" y2="561.4" gradientUnits="userSpaceOnUse"><stop offset="0" stop-color="#ffd587"/><stop offset="0.41" stop-color="#ea9f74"/><stop offset="0.8" stop-color="#d87164"/><stop offset="1" stop-color="#d15f5e"/></linearGradient><linearGradient id="linear-gradient-12" x1="595.4" y1="190.07" x2="857.67" y2="499.03" xlink:href="#linear-gradient-11"/><linearGradient id="linear-gradient-13" x1="529.4" y1="252.73" x2="784.8" y2="664.67" gradientTransform="matrix(1, 0, 0, 1, 0, 0)" xlink:href="#linear-gradient"/><linearGradient id="linear-gradient-14" x1="594.67" y1="212.26" x2="850.08" y2="624.2" gradientTransform="matrix(1, 0, 0, 1, 0, 0)" xlink:href="#linear-gradient"/><linearGradient id="linear-gradient-15" x1="570.59" y1="227.19" x2="825.99" y2="639.14" gradientTransform="matrix(1, 0, 0, 1, 0, 0)" xlink:href="#linear-gradient"/><linearGradient id="linear-gradient-16" x1="587.89" y1="216.47" x2="843.29" y2="628.41" gradientTransform="matrix(1, 0, 0, 1, 0, 0)" xlink:href="#linear-gradient"/><linearGradient id="linear-gradient-17" x1="478.09" y1="289.66" x2="740.37" y2="598.61" xlink:href="#linear-gradient-11"/><linearGradient id="linear-gradient-18" x1="551.57" y1="227.28" x2="813.84" y2="536.24" xlink:href="#linear-gradient-11"/><linearGradient id="linear-gradient-19" x1="439.62" y1="308.39" x2="695.02" y2="720.34" gradientTransform="matrix(1, 0, 0, 1, 0, 0)" xlink:href="#linear-gradient"/><linearGradient id="linear-gradient-20" x1="508.67" y1="265.58" x2="764.07" y2="677.53" gradientTransform="matrix(1, 0, 0, 1, 0, 0)" xlink:href="#linear-gradient"/><linearGradient id="linear-gradient-21" x1="483.19" y1="281.38" x2="738.59" y2="693.32" gradientTransform="matrix(1, 0, 0, 1, 0, 0)" xlink:href="#linear-gradient"/><linearGradient id="linear-gradient-22" x1="501.49" y1="270.03" x2="756.9" y2="681.98" gradientTransform="matrix(1, 0, 0, 1, 0, 0)" xlink:href="#linear-gradient"/><linearGradient id="linear-gradient-23" x1="405.97" y1="350.88" x2="668.24" y2="659.84" xlink:href="#linear-gradient-11"/><linearGradient id="linear-gradient-24" x1="483.7" y1="284.9" x2="745.97" y2="593.86" xlink:href="#linear-gradient-11"/><linearGradient id="linear-gradient-25" x1="272.66" y1="411.91" x2="528.07" y2="823.85" gradientTransform="matrix(1, 0, 0, 1, 0, 0)" xlink:href="#linear-gradient"/><linearGradient id="linear-gradient-26" x1="332.15" y1="375.02" x2="587.56" y2="786.97" gradientTransform="matrix(1, 0, 0, 1, 0, 0)" xlink:href="#linear-gradient"/><linearGradient id="linear-gradient-27" x1="265.13" y1="416.58" x2="520.53" y2="828.52" gradientTransform="matrix(1, 0, 0, 1, 0, 0)" xlink:href="#linear-gradient"/><linearGradient id="linear-gradient-28" x1="340.21" y1="370.02" x2="595.62" y2="781.97" gradientTransform="matrix(1, 0, 0, 1, 0, 0)" xlink:href="#linear-gradient"/><linearGradient id="linear-gradient-29" x1="294.93" y1="445.14" x2="557.2" y2="754.1" xlink:href="#linear-gradient-11"/><linearGradient id="linear-gradient-30" x1="363.01" y1="387.35" x2="625.28" y2="696.31" xlink:href="#linear-gradient-11"/><linearGradient id="linear-gradient-31" x1="325.58" y1="379.1" x2="580.98" y2="791.04" gradientTransform="matrix(1, 0, 0, 1, 0, 0)" xlink:href="#linear-gradient"/><linearGradient id="linear-gradient-32" x1="385.07" y1="342.21" x2="640.47" y2="754.16" gradientTransform="matrix(1, 0, 0, 1, 0, 0)" xlink:href="#linear-gradient"/><linearGradient id="linear-gradient-33" x1="318.04" y1="383.77" x2="573.45" y2="795.71" gradientTransform="matrix(1, 0, 0, 1, 0, 0)" xlink:href="#linear-gradient"/><linearGradient id="linear-gradient-34" x1="393.13" y1="337.22" x2="648.53" y2="749.16" gradientTransform="matrix(1, 0, 0, 1, 0, 0)" xlink:href="#linear-gradient"/><linearGradient id="linear-gradient-35" x1="337.51" y1="409" x2="599.78" y2="717.96" xlink:href="#linear-gradient-11"/><linearGradient id="linear-gradient-36" x1="405.58" y1="351.21" x2="667.85" y2="660.17" xlink:href="#linear-gradient-11"/><linearGradient id="linear-gradient-37" x1="547.73" y1="595.42" x2="547.73" y2="807.62" gradientTransform="matrix(1, 0, 0, 1, 0, 0)" xlink:href="#linear-gradient"/><linearGradient id="linear-gradient-38" x1="548.61" y1="748.55" x2="548.61" y2="634.8" xlink:href="#linear-gradient-11"/><linearGradient id="Áåçûìÿííûé_ãðàäèåíò_55" x1="548.61" y1="687.34" x2="548.61" y2="635.22" gradientUnits="userSpaceOnUse"><stop offset="0" stop-color="#fff"/><stop offset="1" stop-color="#7460e0"/></linearGradient><linearGradient id="linear-gradient-39" x1="548.61" y1="748.55" x2="548.61" y2="634.96" gradientUnits="userSpaceOnUse"><stop offset="0" stop-color="#e03347"/><stop offset="1" stop-color="#ff6e27"/></linearGradient><linearGradient id="linear-gradient-40" x1="544.33" y1="693.26" x2="544.33" y2="759.55" gradientTransform="matrix(1, 0, 0, 1, 0, 0)" xlink:href="#linear-gradient"/><linearGradient id="linear-gradient-41" x1="548.61" y1="610.87" x2="548.61" y2="688.11" gradientUnits="userSpaceOnUse"><stop offset="0" stop-color="#c0a9b1"/><stop offset="0.11" stop-color="#b6a0a7"/><stop offset="0.29" stop-color="#99878d"/><stop offset="0.53" stop-color="#6c5f63"/><stop offset="0.81" stop-color="#2d282a"/><stop offset="1"/></linearGradient><linearGradient id="linear-gradient-42" x1="930.51" y1="538.46" x2="907.66" y2="342.31" gradientTransform="matrix(0.97, 0.26, -0.26, 0.97, 160.29, -105.39)" xlink:href="#linear-gradient"/><linearGradient id="linear-gradient-43" x1="908.36" y1="539.21" x2="908.36" y2="338.21" gradientTransform="matrix(0.97, 0.26, -0.26, 0.97, 160.29, -105.39)" xlink:href="#linear-gradient"/><linearGradient id="linear-gradient-44" x1="782.81" y1="476.93" x2="1003.2" y2="609.78" xlink:href="#linear-gradient-11"/></defs><g class="cls-1"><g id="Layer_1" data-name="Layer 1"><path class="cls-2" d="M183.3,466.4l29.9,42.4C206.2,511.1,199.8,489.8,183.3,466.4ZM153.6,424l29.7,42.4C166.9,443,152.1,428.3,153.6,424Zm29.7,42.4,29.9,42.4C206.2,511.1,199.8,489.8,183.3,466.4ZM153.6,424l29.7,42.4C166.9,443,152.1,428.3,153.6,424Zm-36.2,51.8a120.3,120.3,0,0,1-7.4-21.9L86.7,447l-1.1-43.3,23,12.3a51.1,51.1,0,0,1,8.4-20.1l-7.8-9.6-11.3-14,27.7-18.1,15.3,25.5a53.5,53.5,0,0,1,21.9-.5l-3.7-26.4,40.4,17.7L198,394.2a127.1,127.1,0,0,1,22.8,19.4l13.8-13.8,29.3,43.1L246.6,451a128.9,128.9,0,0,1,10.1,27.9l23.3,6.9,1.2,43.3-23.1-12.3a52.5,52.5,0,0,1-8.3,20.1L267.7,559h0l-26.6,19.6-15.2-25.5a34,34,0,0,1-4.6.9,53.8,53.8,0,0,1-17.4-.4l3.7,26.4-40.3-17.7,1.4-23.6a134.7,134.7,0,0,1-18.9-15.6c-1.3-1.2-2.6-2.6-3.8-3.9L132.2,533l-29.4-43.1,17.3-8C119.2,479.8,118.2,477.9,117.4,475.8Zm95.8,33c14.8-10.4,13.6-37.9-2.9-61.3s-41.8-33.9-56.7-23.5,13.3,19,29.7,42.4S198.3,519.3,213.2,508.8Zm-29.9-42.4,29.9,42.4C206.2,511.1,199.8,489.8,183.3,466.4ZM153.6,424l29.7,42.4C166.9,443,152.1,428.3,153.6,424Z"/><path class="cls-3" d="M117.4,475.8l2.2-31.5L86.7,447l-1.1-43.3,23.6-17.4,13.9-10.2-9.6-1.3-15.6-2.5,37.4-27.5,27.8-18.1L176,348.2l20.6-23L234.5,372l53.9,78.3,29.1,8,1.1,43.2-26,14.4,13.8,17L278.6,551l-10.9,8-26.6,19.6-16.5-30.9,20.5,4.7L207.6,580l-37.9-18.9,3.8-22.3-20.8-17.3-2.9,1.6L132.2,533l-29.4-43.1ZM153.6,424l29.7,42.4,29.9,42.4c14.8-10.4,13.6-37.9-2.9-61.3S168.5,413.6,153.6,424Z"/><path class="cls-4" d="M157.6,454.3a129.7,129.7,0,0,1-10.1-28l-23.3-6.9-1.1-43.3,23,12.3a52.5,52.5,0,0,1,8.3-20.1l-19.1-23.5,27.8-18.1,15.2,25.4a54,54,0,0,1,22-.5l-3.7-26.3L237,342.9l-1.5,23.7A135.2,135.2,0,0,1,258.2,386L272,372.3l29.4,43-17.3,8.1a129.7,129.7,0,0,1,10.1,28l23.3,6.9,1.1,43.2-23-12.2a52.5,52.5,0,0,1-8.3,20.1l19.1,23.5L278.6,551l-15.3-25.4a53.5,53.5,0,0,1-21.9.5l3.7,26.3-40.4-17.6,1.5-23.7a131.4,131.4,0,0,1-22.7-19.4l-13.9,13.7-29.3-43.1Zm36.3,3.5c16.4,23.4,41.8,33.9,56.7,23.5s13.6-38-2.8-61.4-41.9-33.9-56.7-23.5S177.4,434.3,193.9,457.8Z"/><polygon class="cls-5" points="167.3 562.3 204.7 534.8 206.2 511.1 168.7 538.7 167.3 562.3"/><polygon class="cls-6" points="86.7 447 124.2 419.4 147.5 426.3 110 453.9 86.7 447"/><polygon class="cls-5" points="263.3 525.6 243.5 541.2 245.1 552.4 231.5 562.5 241.1 578.6 278.6 551 263.3 525.6"/><path class="cls-5" d="M154.4,368.3l-21.3,13.2,13,6.9S148,374.5,154.4,368.3Z"/><path class="cls-5" d="M260.1,448.4l-39.5,19.7s2.9,9,2.8,14.3C223.4,482.4,264.3,499.2,260.1,448.4Z"/><g class="cls-7"><path class="cls-8" d="M780.9,820.8c-126.1,142.3-233,151.1-315.1,44.5-113.2-147-321-74.4-335.8-259s331.2-470,560.7-429.1S1014.1,557.3,780.9,820.8Z"/><path class="cls-9" d="M257.3,780c-57.9-38.2-123.5,11.1-126.7,51.9s126.8,52.1,147,36S273.2,790.6,257.3,780Z"/><path class="cls-10" d="M923.4,225.5c-4.5-47.9-59.7-62-83.2-45.9s27.1,91.3,44.6,95.2S924.7,238.8,923.4,225.5Z"/></g><path class="cls-11" d="M824.3,428.1,822.8,534,801,535.1l1.3-87.2-5,.4-2.8,180.5H760.8l1.5-87.6L759,541l-3.4.5-1.5,87.3H720.4l3.4-173.7-5,.5-1.6,83.5-21.9,1,2.1-99.2c.4-16.9,12.5-32,27.1-33.7l73.8-8.7C812.9,396.8,824.6,410,824.3,428.1Z"/><path class="cls-12" d="M790.2,357c-.3,18.9-13.1,35.7-28.6,37.6s-27.8-11.4-27.5-29.7,13.2-35.2,28.7-37.6S790.5,338.2,790.2,357Z"/><path class="cls-13" d="M779.1,535.1H801l21.8-1.1L824,422.3l-12.1-20.7s-5.5-8.4-41.9-2.3l23.9,48.1Z"/><path class="cls-14" d="M732.8,394.6a163.6,163.6,0,0,0,28.8,0l19-45.1-7.1-21.3s-11.9-5.3-34.7-.5Z"/><path class="cls-15" d="M802.4,428.1,800.9,534l-21.8,1.1,1.3-87.2-5,.4-2.8,180.5H738.9l1.6-87.6-3.4-.2-3.3.5-1.6,87.3H698.6L702,455.1l-5.1.5-1.6,83.5-21.8,1,2.1-99.2c.3-16.9,12.5-32,27.1-33.7l73.8-8.7C791.1,396.8,802.7,410,802.4,428.1Z"/><path class="cls-16" d="M768.3,357c-.3,18.9-13.1,35.7-28.6,37.6s-27.8-11.4-27.5-29.7,13.2-35.2,28.7-37.6S768.7,338.2,768.3,357Z"/><path class="cls-17" d="M748.9,428.1,747.4,534l-21.8,1.1,1.3-87.2-5,.4L719,628.8H685.4l1.5-87.6-3.3-.2-3.4.5-1.5,87.3H645l3.4-173.7-5,.5-1.7,83.5-21.8,1,2.1-99.2c.4-16.9,12.5-32,27.1-33.7l73.8-8.7C737.5,396.8,749.1,410,748.9,428.1Z"/><path class="cls-18" d="M714.8,357c-.3,18.9-13.1,35.7-28.6,37.6s-27.9-11.4-27.5-29.7,13.2-35.2,28.6-37.6S715.1,338.2,714.8,357Z"/><path class="cls-19" d="M703.7,535.1h21.9l21.8-1.1,1.1-111.7-12-20.7s-5.6-8.4-41.9-2.3l23.9,48.1Z"/><path class="cls-20" d="M657.4,394.6a163.6,163.6,0,0,0,28.8,0l19-45.1-7.1-21.3s-11.9-5.3-34.7-.5Z"/><path class="cls-21" d="M727,428.1,725.5,534l-21.8,1.1,1.3-87.2-5,.4-2.8,180.5H663.5l1.6-87.6-3.4-.2-3.4.5-1.5,87.3H623.1l3.5-173.7-5.1.5-1.6,83.5-21.9,1,2.1-99.2c.4-16.9,12.5-32,27.1-33.7l73.8-8.7C715.6,396.8,727.3,410,727,428.1Z"/><path class="cls-22" d="M692.9,357c-.3,18.9-13.1,35.7-28.6,37.6s-27.8-11.4-27.5-29.7,13.2-35.2,28.7-37.6S693.2,338.2,692.9,357Z"/><path class="cls-23" d="M623.8,416.4l-1.6,112.1-23.1,1.1,1.4-92.2-5.3.5-3,190.9H556.6l1.7-92.7-3.6-.2-3.5.5-1.7,92.4H513.9L517.5,445l-5.3.5-1.7,88.4L487.4,535l2.2-105c.4-17.8,13.2-33.8,28.7-35.6l78-9.2C611.8,383.3,624.1,397.4,623.8,416.4Z"/><path class="cls-24" d="M587.8,341.3c-.4,19.9-13.9,37.7-30.4,39.7s-29.4-12-29-31.4,13.9-37.2,30.3-39.7S588.1,321.3,587.8,341.3Z"/><path class="cls-25" d="M576,529.6h23.1l23.1-1.1,1.2-118.1-12.7-21.9s-5.9-8.9-44.3-2.5l25.3,50.9Z"/><path class="cls-26" d="M527,381a170.5,170.5,0,0,0,30.4,0l20.2-47.6L570,310.8s-12.5-5.6-36.6-.5Z"/><path class="cls-27" d="M600.7,416.4l-1.6,112.1L576,529.6l1.4-92.2-5.3.5-3,190.9H533.5l1.6-92.7-3.5-.2-3.6.5-1.6,92.4H490.8L494.4,445l-5.3.5-1.8,88.4L464.2,535l2.3-105c.3-17.8,13.2-33.8,28.6-35.6l78.1-9.2C588.6,383.3,600.9,397.4,600.7,416.4Z"/><path class="cls-28" d="M564.6,341.3c-.3,19.9-13.9,37.7-30.3,39.7s-29.4-12-29.1-31.4,14-37.2,30.4-39.7S564.9,321.3,564.6,341.3Z"/><path class="cls-29" d="M274.3,437.3l1.4,98.7,20.3,1-1.3-81.3,4.7.5,2.7,168.1h31.3L332,542.6h3.1l3.1.4,1.5,81.4H371l-3.2-161.8,4.7.4,1.6,77.8,20.3.9-2-92.3c-.3-15.8-11.6-29.8-25.2-31.4l-68.8-8.2C284.9,408.1,274,420.5,274.3,437.3Z"/><path class="cls-30" d="M306,371.1c.3,17.6,12.2,33.2,26.7,35s25.9-10.6,25.6-27.7-12.3-32.7-26.7-35S305.7,353.6,306,371.1Z"/><path class="cls-31" d="M316.4,537H296l-20.3-1-1.1-104,11.2-19.3s5.2-7.9,39-2.2l-22.3,44.8Z"/><path class="cls-32" d="M359.5,406.1a152.9,152.9,0,0,1-26.8,0l-17.7-42,6.6-19.8s11-4.9,32.3-.5Z"/><path class="cls-33" d="M294.6,437.3,296,536l20.4,1-1.3-81.3,4.7.5,2.6,168.1h31.4l-1.5-81.7h3.2l3.1.4,1.4,81.4h31.4l-3.2-161.8,4.7.4,1.5,77.8,20.3.9-1.9-92.3c-.3-15.8-11.6-29.8-25.2-31.4l-68.8-8.2C305.2,408.1,294.4,420.5,294.6,437.3Z"/><path class="cls-34" d="M326.4,371.1c.3,17.6,12.2,33.2,26.7,35s25.9-10.6,25.5-27.7-12.2-32.7-26.6-35S326.1,353.6,326.4,371.1Z"/><path class="cls-35" d="M347.5,437.3l1.4,98.7,20.3,1L368,455.7l4.7.5,2.6,168.1h31.3l-1.4-81.7h3.1l3.2.4,1.4,81.4h31.4l-3.2-161.8,4.7.4,1.5,77.8,20.3.9-1.9-92.3c-.4-15.8-11.7-29.8-25.3-31.4l-68.7-8.2C358.1,408.1,347.3,420.5,347.5,437.3Z"/><path class="cls-36" d="M379.3,371.1c.2,17.6,12.2,33.2,26.6,35s25.9-10.6,25.6-27.7-12.3-32.7-26.7-35S379,353.6,379.3,371.1Z"/><path class="cls-37" d="M389.6,537H369.2l-20.3-1-1.1-104L359,412.7s5.2-7.9,39.1-2.2l-22.3,44.8Z"/><path class="cls-38" d="M432.7,406.1a152.5,152.5,0,0,1-26.8,0l-17.7-42,6.7-19.8s11-4.9,32.2-.5Z"/><path class="cls-39" d="M367.9,437.3l1.4,98.7,20.3,1-1.2-81.3,4.6.5,2.7,168.1H427l-1.4-81.7h3.1l3.1.4,1.5,81.4h31.3l-3.1-161.8,4.6.4,1.6,77.8,20.3.9-2-92.3c-.3-15.8-11.6-29.8-25.2-31.4l-68.7-8.2C378.5,408.1,367.6,420.5,367.9,437.3Z"/><path class="cls-40" d="M399.6,371.1c.3,17.6,12.3,33.2,26.7,35s25.9-10.6,25.6-27.7-12.3-32.7-26.7-35S399.3,353.6,399.6,371.1Z"/><path class="cls-41" d="M288.5,754.5l-8.4-130.4s264.6-12.7,535.2-1.3L800.1,760.7Z"/><path class="cls-42" d="M305.9,743.4l-4.5-107.2s242-5.2,494.4,4.2l-8.6,108.2Z"/><path class="cls-43" d="M795.8,640.4a96,96,0,0,0-22.6,46.9l-451.3-6-20.5-45.1S684.2,632.1,795.8,640.4Z"/><path class="cls-44" d="M301.4,636.2l3.9,104.2,481.9,8.2,8.6-108.2S454.2,631.8,301.4,636.2Z"/><polygon class="cls-45" points="288.5 754.5 304.1 771.9 783.7 776.6 800.1 760.7 288.5 754.5"/><polygon class="cls-46" points="288.5 754.5 304.1 771.9 783.7 776.6 800.1 760.7 288.5 754.5"/><path class="cls-47" d="M301.4,636.2l1.5,39,489.8,4.7,3.1-39.5S466.3,628.9,301.4,636.2Z"/><text class="cls-48" transform="translate(424.6 729.6) rotate(0.4)">100%</text><path class="cls-49" d="M321.9,740.4s140.6-21.7,202.8,5.1Z"/><path class="cls-49" d="M678.2,746.8s36.5-20.5,62.7,1.3Z"/><path class="cls-50" d="M946.8,519.7l-13.4,38.4C940.8,536.9,951.4,523.1,946.8,519.7Zm-13.4,38.4-13.5,38.3C923.3,595.4,925.9,579.3,933.4,558.1Zm13.4-38.4-13.4,38.4C940.8,536.9,951.4,523.1,946.8,519.7Zm-13.4,38.4-13.5,38.3C923.3,595.4,925.9,579.3,933.4,558.1Zm38.7,33.2,13,7.4,14.1-38.4-15.1-2.5c.3-1.4.5-2.8.7-4.2a97.9,97.9,0,0,0,1.3-19.2l15.8-9.9-7.2-33.8-15.1,14.5a44.1,44.1,0,0,0-7.7-11.3l-2.7-2.5,9.3-21.3-24.6-8h0L948,483.5a41.9,41.9,0,0,0-16.6,3.9l-2.7-20.3-27.1,20.5,6.3,18a100.1,100.1,0,0,0-13.2,19.2l-13.1-7.3-14,38.3,15,2.6a105.4,105.4,0,0,0-2,23.3l-15.7,9.9,7.2,33.8L887.2,611a41.3,41.3,0,0,0,10.3,13.8l-9.2,21.3,24.1,9.4,3.8-13.6,2.5-9.3a41.1,41.1,0,0,0,16.7-3.9l2.7,20.4,27-20.5-6.2-18a102.3,102.3,0,0,0,10.6-14.7Zm-38.7-33.2c-7.5,21.2,0,43-13.5,38.3s-18.3-25.7-10.9-46.8,24.3-34.6,37.8-29.9S940.8,536.9,933.4,558.1Zm13.4-38.4-13.4,38.4C940.8,536.9,951.4,523.1,946.8,519.7Zm-13.4,38.4-13.5,38.3C923.3,595.4,925.9,579.3,933.4,558.1Z"/><path class="cls-51" d="M985.1,598.7l14.1-38.4-14.4-6.7-2.3-1.1,1.5-21.2,15.9-7.7-5.2-32.9L960,479.4l6.4,15.3,12.1-24.6-24.6-8-10.1-3.3-24.2-9.5-4.5,16.5-21.1-10-27.1,20.5,8.2,22.1-25.3,70.2-12.5,45.5,24.1,2.7-7.8,18,24.2,9.5,34.6,11.2-5.5-11.1-3.5-6.7,12.8,4.2,21.9,7.2,27-20.5-16.7-19.7,21.1-13ZM909,549.6c7.4-21.2,24.3-34.6,37.8-29.9l-13.4,38.4-13.5,38.3C906.5,591.7,901.6,570.7,909,549.6Z"/><path class="cls-52" d="M950.4,587.4,964.5,549l-15.1-2.5a105.8,105.8,0,0,0,2-23.4l15.8-9.8L960,479.4l-15.1,14.5a42.7,42.7,0,0,0-10.3-13.8l9.2-21.3-24.2-9.5-6.3,22.9a41.9,41.9,0,0,0-16.6,3.9L894,455.8l-27.1,20.5,6.3,18A100.1,100.1,0,0,0,860,513.5l-13.1-7.3-14,38.4,15.1,2.5a105.2,105.2,0,0,0-2.1,23.3l-15.7,9.9,7.2,33.8,15.1-14.4a42.7,42.7,0,0,0,10.3,13.8l-9.2,21.3,24.2,9.4,6.3-22.9a42.1,42.1,0,0,0,16.6-3.8l2.7,20.2,27-20.4-6.2-18A105.7,105.7,0,0,0,937.4,580Zm-65.1-2.3c-13.5-4.7-18.4-25.7-11-46.9s24.4-34.5,37.8-29.8,18.4,25.7,11,46.9S898.7,589.8,885.3,585.1Z"/><polygon class="cls-53" points="1001.9 524.5 967.2 513.3 951.4 523.1 986.1 534.4 1001.9 524.5"/><polygon class="cls-6" points="965.1 628.6 930.4 617.3 924.2 599.3 958.9 610.6 965.1 628.6"/><polygon class="cls-53" points="934.6 480.1 953.6 485.6 960 479.4 972.6 483.6 978.5 470.1 943.8 458.8 934.6 480.1"/><path class="cls-53" d="M884.1,621.3l18.1,7.6-1.5-11.4S890.9,622.6,884.1,621.3Z"/><path class="cls-5" d="M886.9,517.4l30.5,16.1s4.5-5.9,7.9-8.3C925.3,525.2,917.3,491.5,886.9,517.4Z"/></g></g></svg>