<svg xmlns="http://www.w3.org/2000/svg" xmlns:xlink="http://www.w3.org/1999/xlink" viewBox="0 0 1080 1080"><defs><style>.cls-1{isolation:isolate;}.cls-2{opacity:0.2;}.cls-3{fill:url(#linear-gradient);}.cls-4{fill:url(#linear-gradient-2);}.cls-5{fill:url(#linear-gradient-3);}.cls-6{fill:url(#linear-gradient-4);}.cls-15,.cls-7,.cls-9{fill:#1d0c43;}.cls-15,.cls-18,.cls-21,.cls-22,.cls-37,.cls-38,.cls-7{opacity:0.3;}.cls-15,.cls-18,.cls-30,.cls-31,.cls-32,.cls-33,.cls-45,.cls-46,.cls-47,.cls-48,.cls-7{mix-blend-mode:multiply;}.cls-10,.cls-17,.cls-8{opacity:0.5;}.cls-10,.cls-14,.cls-17,.cls-21,.cls-22,.cls-37,.cls-38,.cls-8{mix-blend-mode:soft-light;}.cls-8{fill:url(#Áåçûìÿííûé_ãðàäèåíò_21);}.cls-10{fill:url(#Áåçûìÿííûé_ãðàäèåíò_21-2);}.cls-11,.cls-12,.cls-13,.cls-14,.cls-15,.cls-16{fill-rule:evenodd;}.cls-11{fill:url(#linear-gradient-5);}.cls-12{fill:url(#linear-gradient-6);}.cls-13{mix-blend-mode:screen;fill:url(#Áåçûìÿííûé_ãðàäèåíò_329);}.cls-14{opacity:0.6;fill:url(#Áåçûìÿííûé_ãðàäèåíò_21-3);}.cls-16{fill:url(#linear-gradient-7);}.cls-17{fill:url(#Áåçûìÿííûé_ãðàäèåíò_21-4);}.cls-19{fill:url(#linear-gradient-8);}.cls-20{fill:url(#Áåçûìÿííûé_ãðàäèåíò_7);}.cls-21{fill:url(#Áåçûìÿííûé_ãðàäèåíò_21-5);}.cls-22{fill:url(#Áåçûìÿííûé_ãðàäèåíò_21-6);}.cls-23{fill:url(#linear-gradient-9);}.cls-24{fill:#262262;}.cls-25{fill:url(#linear-gradient-10);}.cls-26{fill:url(#linear-gradient-11);}.cls-27{fill:url(#linear-gradient-12);}.cls-28{fill:url(#Áåçûìÿííûé_ãðàäèåíò_78);}.cls-29{fill:url(#Áåçûìÿííûé_ãðàäèåíò_78-2);}.cls-30,.cls-31,.cls-32,.cls-33,.cls-45,.cls-46,.cls-47,.cls-48{opacity:0.62;}.cls-30{fill:url(#Áåçûìÿííûé_ãðàäèåíò_75);}.cls-31{fill:url(#Áåçûìÿííûé_ãðàäèåíò_75-2);}.cls-32{fill:url(#Áåçûìÿííûé_ãðàäèåíò_75-3);}.cls-33{fill:url(#Áåçûìÿííûé_ãðàäèåíò_75-4);}.cls-34{fill:url(#linear-gradient-13);}.cls-35{fill:url(#linear-gradient-14);}.cls-36{fill:url(#linear-gradient-15);}.cls-37{fill:url(#Áåçûìÿííûé_ãðàäèåíò_21-7);}.cls-38{fill:url(#Áåçûìÿííûé_ãðàäèåíò_21-8);}.cls-39{fill:url(#linear-gradient-16);}.cls-40{fill:url(#linear-gradient-17);}.cls-41{fill:url(#linear-gradient-18);}.cls-42{fill:url(#linear-gradient-19);}.cls-43{fill:url(#Áåçûìÿííûé_ãðàäèåíò_78-3);}.cls-44{fill:url(#Áåçûìÿííûé_ãðàäèåíò_78-4);}.cls-45{fill:url(#Áåçûìÿííûé_ãðàäèåíò_75-5);}.cls-46{fill:url(#Áåçûìÿííûé_ãðàäèåíò_75-6);}.cls-47{fill:url(#Áåçûìÿííûé_ãðàäèåíò_75-7);}.cls-48{fill:url(#Áåçûìÿííûé_ãðàäèåíò_75-8);}.cls-49{fill:url(#linear-gradient-20);}</style><linearGradient id="linear-gradient" x1="279.13" y1="-15.94" x2="736.87" y2="1176.43" gradientUnits="userSpaceOnUse"><stop offset="0" stop-color="#e56ba6"/><stop offset="0.99" stop-color="#713592"/></linearGradient><linearGradient id="linear-gradient-2" x1="441.65" y1="-44.08" x2="899.39" y2="1148.29" gradientTransform="matrix(1.24, -0.41, 0.2, 1, -417.17, 278.27)" xlink:href="#linear-gradient"/><linearGradient id="linear-gradient-3" x1="210.62" y1="267.13" x2="738.96" y2="789.18" gradientUnits="userSpaceOnUse"><stop offset="0" stop-color="#7d287a"/><stop offset="0.25" stop-color="#612a78"/><stop offset="0.52" stop-color="#4a2b77"/><stop offset="0.78" stop-color="#3c2c76"/><stop offset="1" stop-color="#372c76"/></linearGradient><linearGradient id="linear-gradient-4" x1="292.77" y1="280.84" x2="836.84" y2="971.15" gradientUnits="userSpaceOnUse"><stop offset="0" stop-color="#ffd587"/><stop offset="0.41" stop-color="#ea9f74"/><stop offset="0.8" stop-color="#d87164"/><stop offset="1" stop-color="#d15f5e"/></linearGradient><linearGradient id="Áåçûìÿííûé_ãðàäèåíò_21" x1="365.98" y1="608.28" x2="365.98" y2="297.21" gradientUnits="userSpaceOnUse"><stop offset="0" stop-color="#f3e6ee"/><stop offset="0.98" stop-color="#e5dfed"/></linearGradient><linearGradient id="Áåçûìÿííûé_ãðàäèåíò_21-2" x1="485.08" y1="793.13" x2="485.08" y2="755.35" xlink:href="#Áåçûìÿííûé_ãðàäèåíò_21"/><linearGradient id="linear-gradient-5" x1="709.21" y1="690.39" x2="951.98" y2="690.39" xlink:href="#linear-gradient-3"/><linearGradient id="linear-gradient-6" x1="826.6" y1="575.31" x2="839.57" y2="722.73" gradientUnits="userSpaceOnUse"><stop offset="0.02" stop-color="#e2dceb"/><stop offset="1" stop-color="#d1d3d4"/></linearGradient><linearGradient id="Áåçûìÿííûé_ãðàäèåíò_329" x1="361.8" y1="867.89" x2="361.8" y2="833.44" gradientTransform="matrix(-0.67, 0.75, 0.75, 0.67, 341.37, -166.31)" gradientUnits="userSpaceOnUse"><stop offset="0" stop-color="#683b55"/><stop offset="0.19" stop-color="#4f2d40"/><stop offset="0.55" stop-color="#24151e"/><stop offset="0.83" stop-color="#0a0608"/><stop offset="1"/></linearGradient><linearGradient id="Áåçûìÿííûé_ãðàäèåíò_21-3" x1="729.93" y1="659.34" x2="836.58" y2="659.34" xlink:href="#Áåçûìÿííûé_ãðàäèåíò_21"/><linearGradient id="linear-gradient-7" x1="-14.97" y1="720.67" x2="109.5" y2="720.67" gradientTransform="matrix(-1, 0, 0, 1, 924.03, 0)" xlink:href="#linear-gradient-3"/><linearGradient id="Áåçûìÿííûé_ãðàäèåíò_21-4" x1="363.82" y1="588.89" x2="363.82" y2="212.3" xlink:href="#Áåçûìÿííûé_ãðàäèåíò_21"/><linearGradient id="linear-gradient-8" x1="445.19" y1="512.7" x2="714.63" y2="512.7" xlink:href="#linear-gradient-3"/><linearGradient id="Áåçûìÿííûé_ãðàäèåíò_7" x1="579.01" y1="620.02" x2="579.01" y2="352.48" gradientUnits="userSpaceOnUse"><stop offset="0.01" stop-color="#713592"/><stop offset="1" stop-color="#5178fe"/></linearGradient><linearGradient id="Áåçûìÿííûé_ãðàäèåíò_21-5" x1="445.23" y1="496.26" x2="554.72" y2="496.26" xlink:href="#Áåçûìÿííûé_ãðàäèåíò_21"/><linearGradient id="Áåçûìÿííûé_ãðàäèåíò_21-6" x1="584.2" y1="448.98" x2="711.41" y2="448.98" xlink:href="#Áåçûìÿííûé_ãðàäèåíò_21"/><linearGradient id="linear-gradient-9" x1="671.57" y1="426.75" x2="688.31" y2="426.75" xlink:href="#linear-gradient-3"/><linearGradient id="linear-gradient-10" x1="469.63" y1="591.57" x2="504.16" y2="591.57" xlink:href="#linear-gradient-3"/><linearGradient id="linear-gradient-11" x1="441.64" y1="499.5" x2="448.77" y2="499.5" xlink:href="#linear-gradient-3"/><linearGradient id="linear-gradient-12" x1="469.63" y1="426.75" x2="486.47" y2="426.75" xlink:href="#linear-gradient-3"/><linearGradient id="Áåçûìÿííûé_ãðàäèåíò_78" x1="556.26" y1="373.8" x2="556.26" y2="356.05" gradientUnits="userSpaceOnUse"><stop offset="0" stop-color="#3d2cb0"/><stop offset="1" stop-color="#0355c7"/></linearGradient><linearGradient id="Áåçûìÿííûé_ãðàäèåíò_78-2" x1="601.71" y1="374.33" x2="601.71" y2="356.05" xlink:href="#Áåçûìÿííûé_ãðàäèåíò_78"/><linearGradient id="Áåçûìÿííûé_ãðàäèåíò_75" x1="646.06" y1="622.04" x2="646.06" y2="572.96" gradientUnits="userSpaceOnUse"><stop offset="0" stop-color="#8b8be0"/><stop offset="1" stop-color="#a177b7"/></linearGradient><linearGradient id="Áåçûìÿííûé_ãðàäèåíò_75-2" x1="697.28" y1="537.11" x2="697.28" y2="506.19" xlink:href="#Áåçûìÿííûé_ãðàäèåíò_75"/><linearGradient id="Áåçûìÿííûé_ãðàäèåíò_75-3" x1="511.91" y1="622.04" x2="511.91" y2="572.9" xlink:href="#Áåçûìÿííûé_ãðàäèåíò_75"/><linearGradient id="Áåçûìÿííûé_ãðàäèåíò_75-4" x1="460.66" y1="537.11" x2="460.66" y2="506.19" xlink:href="#Áåçûìÿííûé_ãðàäèåíò_75"/><linearGradient id="linear-gradient-13" x1="554.56" y1="631.6" x2="603.38" y2="631.6" xlink:href="#linear-gradient-3"/><linearGradient id="linear-gradient-14" x1="283" y1="585.11" x2="450.07" y2="585.11" xlink:href="#linear-gradient-3"/><linearGradient id="linear-gradient-15" x1="365.97" y1="651.65" x2="365.97" y2="485.76" gradientUnits="userSpaceOnUse"><stop offset="0" stop-color="#f79420"/><stop offset="0.4" stop-color="#f2684b"/><stop offset="0.72" stop-color="#ef4c66"/><stop offset="0.9" stop-color="#ee4270"/></linearGradient><linearGradient id="Áåçûìÿííûé_ãðàäèåíò_21-7" x1="283.03" y1="574.91" x2="350.91" y2="574.91" xlink:href="#Áåçûìÿííûé_ãðàäèåíò_21"/><linearGradient id="Áåçûìÿííûé_ãðàäèåíò_21-8" x1="369.2" y1="545.59" x2="448.07" y2="545.59" xlink:href="#Áåçûìÿííûé_ãðàäèåíò_21"/><linearGradient id="linear-gradient-16" x1="423.37" y1="531.81" x2="433.75" y2="531.81" xlink:href="#linear-gradient-3"/><linearGradient id="linear-gradient-17" x1="298.16" y1="634.01" x2="319.56" y2="634.01" xlink:href="#linear-gradient-3"/><linearGradient id="linear-gradient-18" x1="280.8" y1="576.92" x2="285.22" y2="576.92" xlink:href="#linear-gradient-3"/><linearGradient id="linear-gradient-19" x1="298.16" y1="531.81" x2="308.6" y2="531.81" xlink:href="#linear-gradient-3"/><linearGradient id="Áåçûìÿííûé_ãðàäèåíò_78-3" x1="351.87" y1="498.98" x2="351.87" y2="487.98" xlink:href="#Áåçûìÿííûé_ãðàäèåíò_78"/><linearGradient id="Áåçûìÿííûé_ãðàäèåíò_78-4" x1="380.05" y1="499.31" x2="380.05" y2="487.98" xlink:href="#Áåçûìÿííûé_ãðàäèåíò_78"/><linearGradient id="Áåçûìÿííûé_ãðàäèåíò_75-5" x1="407.55" y1="652.9" x2="407.55" y2="622.47" xlink:href="#Áåçûìÿííûé_ãðàäèåíò_75"/><linearGradient id="Áåçûìÿííûé_ãðàäèåíò_75-6" x1="439.31" y1="600.24" x2="439.31" y2="581.07" xlink:href="#Áåçûìÿííûé_ãðàäèåíò_75"/><linearGradient id="Áåçûìÿííûé_ãðàäèåíò_75-7" x1="324.37" y1="652.9" x2="324.37" y2="622.43" xlink:href="#Áåçûìÿííûé_ãðàäèåíò_75"/><linearGradient id="Áåçûìÿííûé_ãðàäèåíò_75-8" x1="292.59" y1="600.24" x2="292.59" y2="581.07" xlink:href="#Áåçûìÿííûé_ãðàäèåíò_75"/><linearGradient id="linear-gradient-20" x1="350.82" y1="658.83" x2="381.09" y2="658.83" xlink:href="#linear-gradient-3"/></defs><g class="cls-1"><g id="Layer_1" data-name="Layer 1"><g class="cls-2"><path class="cls-3" d="M254.5,861.6C116.1,767.2,89.8,452.8,239.4,311.7c158-149.2,642.6-19.8,645.9,236.5S394.9,957.3,254.5,861.6Z"/><path class="cls-4" d="M294.2,170.2c-67.2,1.3-109.6,67.2-97.6,97.1s135.6-24.8,148.3-45.8S312.7,169.9,294.2,170.2Z"/></g><path class="cls-5" d="M822.2,752.1s0,49.1-46.7,49.1h-558c-18.4-1.8-31.3-24.5-31.3-39.9,0-5.9,3.1-73.3,7-153.5,6.1-126.9,14-286.2,14-286.2s2.9-21.9,37.9-24.4l271.3,2.9,259.1,2.7s25.2,1.2,35,27Z"/><path class="cls-6" d="M209.5,744.7s393.7,22.1,580.9,2.5c0,0,17.4-213.6-6.3-412.5,0,0-293.8-20.5-550-6.6C234.1,328.1,208.7,512.3,209.5,744.7Z"/><path class="cls-7" d="M720.5,755.5,741,801.2h33.5s40.8,2.3,46.6-49.1V666.9l-26.4,3.4-4.3,76.9Z"/><path class="cls-8" d="M539.8,300.3l-20.2,18.2s-233.7-1.9-289.8,4.8c0,0-24.3,170.1-24.3,276.3l-13.3,8.7v-.5c6.1-126.9,14-286.2,14-286.2s2.9-21.9,37.9-24.4l271.3,2.9Z"/><path class="cls-9" d="M209.5,744.7l-5.4,5.5s375.7,20.8,592.5-.1l-6.2-2.9S521,762.6,209.5,744.7Z"/><path class="cls-10" d="M344.9,755.4l50.7,37.7H625.3l-34.9-32.9S385,758.2,344.9,755.4Z"/><path class="cls-7" d="M813.9,624.8s-26.8-20.5-57.7-22.6l-.8,1-14.1,15.5L779,641.9l-6.1,19.8-15.1,8.6-30.7-31.9-1.1,1.3h0l-13.8,15.2a97.6,97.6,0,0,0,12.2,25.8h0c8,14.4,22.1,25.7,22.1,25.7,16.4,4.7,43.9-2.3,43.9-2.3L821.6,732l-2.4-87.8C818.1,636.7,816.4,629.6,813.9,624.8Z"/><path class="cls-11" d="M709.2,634,723,618.8l25.7,36.1,20.4-11.5L776,621l-37.7-23.1,14-15.5c31,2,52.5,27,52.5,27,8.1,15,7.1,43.4,7.1,43.4L951.8,753.9c1.3,12.1-6.8,20.7-6.8,20.7s-16.9,22.4-29,23.8L787.4,683.2s-27.5,7-43.9,2.4C743.5,685.6,717.8,663.8,709.2,634Z"/><path class="cls-12" d="M715.2,628.4l8.9-10.9,30.7,31.9,20.3-11.6,6.9-22.3-37.7-23.2,8.9-11c30.9,2.1,57.7,22.6,57.7,22.6,8,15,7.2,52.5,7.2,52.5l139.8,91.9c1.2,12.2-23.8,43.2-35.9,44.6L793.4,677.6s-27.5,7.1-43.9,2.4C749.5,680,723.8,658.2,715.2,628.4Z"/><path class="cls-13" d="M749.5,680l-6,5.6s-14.1-11.4-22.1-25.8l5.6-6.2A208.8,208.8,0,0,0,749.5,680Z"/><path class="cls-14" d="M729.9,657.6l87.8-20.8.4,19.6,18.5,12.9-38.7,12.4-4.5-4.1s-26.5,7.8-43.9,2.4C749.5,680,736.6,667.8,729.9,657.6Z"/><path class="cls-15" d="M939,750.6l-115.5-81-9,11.1,105.3,91.1S931.2,768.5,939,750.6Z"/><path class="cls-16" d="M919.8,771.8s10.6-7.1,13.9-17.2L823.5,674.9l-9,5.8,9-11.1,115.5,81S934.8,766.1,919.8,771.8Z"/><path class="cls-17" d="M234.1,328.1s-14.8,107-21.4,260.8L515,324C427.2,322.5,328.1,323,234.1,328.1Z"/><g class="cls-18"><path class="cls-9" d="M710.9,552.5c5.3-15.4,9.1-52.1.2-75-.1,0-.1-.1-.1-.2h0l-22,4.1a106.2,106.2,0,0,0-5.9-23.3l6.9-4.8-1.7-15.4c-2.1-4.4-3.5-20.1-7.4-24.7-7.1-8.6-16.6-16.8-25.3-20.9L644.9,408a108.6,108.6,0,0,0-43.1-18.8h0l2.6.5.7-4.1v-14h0c-13.1-4.6-34.8-5-48.8,0h0v14.1l.6,3.6h2.7a106.3,106.3,0,0,0-43,18.9l-10.8-15.8c-12.3,6-28.1,21.1-34.5,34.6l-1.8,11,1.8,15.4,6.1,4.2h0l.9.6a106.2,106.2,0,0,0-5.9,23.3l-22-4.1h0s-16,36.3,0,75.2l23.8-4.4a113.1,113.1,0,0,0,7.5,21.4l-10.3,7h0l-1.9,11c2.4,4.9-.6,8.9,12.7,31,10.1,16.7,23.6,18.9,23.6,18.9l15.5-22.7a107.7,107.7,0,0,0,35.4,14.8l-2.2,13.3,1.7,15.5a70.8,70.8,0,0,0,16.1,3.1c21.1,2.5,32.7-3.1,32.7-3.1V631.9h0l-.4-2.3a108.1,108.1,0,0,0,35.3-14.8l15.5,22.7,1.3-.7,2.9-1.7h.1l.7-.5c8.1-4.9,23.8-16,29.4-31.6l-1.7-15.4-8.6-18.1a106.2,106.2,0,0,0,7.4-21.4Zm-82.5-41.9a50.1,50.1,0,0,1-1.8,5,53.6,53.6,0,0,1-7.4,12.4,50.5,50.5,0,0,1-12.8,11.1,49.5,49.5,0,0,1-17.5,6.3,42.8,42.8,0,0,1-8.1.8,44.7,44.7,0,0,1-8.2-.8,48.7,48.7,0,0,1-16.1-5.5l-1.3-.8A50.6,50.6,0,0,1,542.3,528a52.9,52.9,0,0,1-9.2-17.4c-.1-.2-.1-.5-.2-.8a48.9,48.9,0,0,1,17.4-26.1,50.9,50.9,0,0,1,20.4-9.4,54.9,54.9,0,0,1,10.1-1,55.6,55.6,0,0,1,10,1A50.4,50.4,0,0,1,624,498.5a49.5,49.5,0,0,1,4.6,11.4A1.9,1.9,0,0,0,628.4,510.6Z"/></g><path class="cls-19" d="M709.2,537.1c5.2-15.4,9-52.3,0-75.2l-22,30.5a108.6,108.6,0,0,0-15.7-43l16.8-11.5c-6-12.4-21.1-28.2-34.5-34.6L643.1,419A107,107,0,0,0,600,400.3l3.3-17.8c-12.9-4.5-34.7-5-48.7,0l3.3,17.8a105.8,105.8,0,0,0-43.1,18.8l-10.7-15.8c-12.3,6.1-28.1,21.2-34.5,34.6l16.8,11.5a107.1,107.1,0,0,0-15.7,43l-22-4.1c-4.4,13-4.9,34.8,0,48.8l23.8-4.5a108.3,108.3,0,0,0,18.7,40.2l-21.6,14.8c6,12.3,21.1,28.1,34.5,34.4l15.6-22.6a105.7,105.7,0,0,0,40,15.7l-5.1,27.8c12.9,4.5,34.8,5,48.7,0l-5.1-27.7a108.7,108.7,0,0,0,40.1-15.8L653.8,622c12.4-6,28.2-21,34.5-34.4l-21.6-14.8a105.1,105.1,0,0,0,18.6-40.2ZM617.4,539a50.5,50.5,0,0,1-12.8,11.1,48.5,48.5,0,0,1-17.5,6.4,53.1,53.1,0,0,1-8.1.7,54.4,54.4,0,0,1-8.2-.7,48.3,48.3,0,0,1-17.4-6.3A51.3,51.3,0,0,1,540.5,539a49.4,49.4,0,0,1-11.2-31.4c0-1.4.1-2.8.2-4.1a50.1,50.1,0,0,1,6.2-20.4,52.1,52.1,0,0,1,12.8-14.8,49.6,49.6,0,0,1,20.4-9.4,51,51,0,0,1,20.1,0,50.2,50.2,0,0,1,20.4,9.4,52.1,52.1,0,0,1,12.8,14.8,50.1,50.1,0,0,1,6.2,20.4c.1,1.3.2,2.7.2,4.1A49.4,49.4,0,0,1,617.4,539Z"/><path class="cls-20" d="M709.2,510.6c3.7-10.6,4.7-27.1,2.2-40.3a46.7,46.7,0,0,0-2.2-8.4L687.3,466a110.1,110.1,0,0,0-15.7-43.1l16.7-11.4a65.7,65.7,0,0,0-9.2-13.7c-7.1-8.6-16.6-16.8-25.3-20.9l-10.7,15.7a108.1,108.1,0,0,0-43-18.8l3.3-17.7c-13-4.6-34.8-5.1-48.8,0l3.3,17.7a108.1,108.1,0,0,0-43,18.8l-10.7-15.7c-12.4,6-28.1,21.1-34.5,34.6l16.8,11.4A108.7,108.7,0,0,0,470.7,466l-21.9-4.1a68.7,68.7,0,0,0-3.4,19.4c-.6,10.3.5,21.2,3.4,29.3l23.8-4.4a109.1,109.1,0,0,0,18.7,40.2l-21.6,14.7a76.8,76.8,0,0,0,12.5,17.4c6.6,7.2,14.6,13.6,22,17.1l15.5-22.7a108.7,108.7,0,0,0,40.1,15.8l-5.2,27.8c13,4.5,34.9,4.9,48.8,0l-5.2-27.8a103.6,103.6,0,0,0,27-8.5,93.1,93.1,0,0,0,13.1-7.3l15.5,22.7c12.4-6,28.2-21.1,34.5-34.5l-21.6-14.7a107.5,107.5,0,0,0,18.7-40.2Zm-91.8,2a52.5,52.5,0,0,1-12.8,11.1,49,49,0,0,1-17.4,6.3,48.4,48.4,0,0,1-16.4,0,48.9,48.9,0,0,1-16.1-5.6l-1.3-.7a48.6,48.6,0,0,1-12.8-11.1,51.3,51.3,0,0,1-9.3-17.4,3.5,3.5,0,0,0-.3-1.1,55.8,55.8,0,0,1-1.7-13c0-1.3.1-2.8.2-4.1a50.6,50.6,0,0,1,6.2-20.4,47.7,47.7,0,0,1,8.1-10.4,39.7,39.7,0,0,1,4.8-4.4,49,49,0,0,1,20.3-9.3,48.1,48.1,0,0,1,10.1-1.1,42.4,42.4,0,0,1,5.1.3h.1l4.9.8a49,49,0,0,1,20.3,9.3,52.2,52.2,0,0,1,12.9,14.8,50.6,50.6,0,0,1,6.2,20.4c.1,1.3.1,2.8.1,4.1a50.6,50.6,0,0,1-2,14.1,50.1,50.1,0,0,1-1.8,5A49.1,49.1,0,0,1,617.4,512.6Z"/><path class="cls-21" d="M554.7,524.4l-63.4,22a109.1,109.1,0,0,1-18.7-40.2l-23.8,4.4c-2.9-8.1-4-19-3.4-29.3l98.4-35.1a47.7,47.7,0,0,0-8.1,10.4,50.6,50.6,0,0,0-6.2,20.4c-.1,1.3-.2,2.8-.2,4.1a55.8,55.8,0,0,0,1.7,13,3.5,3.5,0,0,1,.3,1.1,51.3,51.3,0,0,0,9.3,17.4,48.6,48.6,0,0,0,12.8,11.1Z"/><path class="cls-22" d="M626.6,495.2a50.6,50.6,0,0,0,2-14.1c0-1.3,0-2.8-.1-4.1a50.6,50.6,0,0,0-6.2-20.4,52.2,52.2,0,0,0-12.9-14.8,49,49,0,0,0-20.3-9.3l-4.9-.8,94.9-33.9a65.7,65.7,0,0,1,9.2,13.7l-16.7,11.4A110.1,110.1,0,0,1,687.3,466l21.9-4.1a46.7,46.7,0,0,1,2.2,8.4l-86.6,29.9A50.1,50.1,0,0,0,626.6,495.2Z"/><polygon class="cls-23" points="688.3 411.4 688.3 437.9 682.2 442.1 671.6 422.9 688.3 411.4"/><path class="cls-24" d="M688.3,587.6V561.1s-15.7,25-34.5,34.5V622S680.5,609,688.3,587.6Z"/><path class="cls-25" d="M469.6,587.6V561.1s10.2,21.3,34.5,34.5V622S485.8,615.6,469.6,587.6Z"/><path class="cls-26" d="M448.7,537.1V510.7s-7.1-24.5,0-48.8C448.8,461.9,432.8,498.1,448.7,537.1Z"/><polygon class="cls-27" points="469.6 437.9 469.7 411.4 486.5 422.9 475.7 442.1 469.6 437.9"/><polygon class="cls-28" points="554.6 370.2 554.6 356.1 557.9 373.8 555.3 373.8 554.6 370.2"/><polygon class="cls-29" points="603.4 356.1 603.4 370.2 602.6 374.3 600 373.8 603.4 356.1"/><polygon class="cls-30" points="653.8 622 653.8 595.6 638.3 573 638.3 599.4 653.8 622"/><polygon class="cls-31" points="685.3 532.6 685.4 506.2 709.2 510.7 709.2 537.1 685.3 532.6"/><polygon class="cls-32" points="519.7 599.4 519.7 572.9 504.2 595.6 504.1 622 519.7 599.4"/><polygon class="cls-33" points="472.5 532.6 472.6 506.2 448.8 510.7 448.7 537.1 472.5 532.6"/><path class="cls-34" d="M603.4,616.5v26.4s-17.6,8.5-48.7,0V616.5S573.1,622.1,603.4,616.5Z"/><g class="cls-18"><path class="cls-9" d="M447.8,609.8c3.2-9.6,5.6-32.3.1-46.5h-.1l-13.6,2.5a70.1,70.1,0,0,0-3.7-14.5l4.3-2.9-1.1-9.6c-1.3-2.7-2.1-12.4-4.5-15.3-4.5-5.3-10.3-10.4-15.7-12.9l-6.7,9.7a68.4,68.4,0,0,0-26.7-11.7h0l1.6.4.5-2.6v-8.7h0c-8.1-2.8-21.6-3.1-30.3,0h0v8.7l.5,2.2H354a68.4,68.4,0,0,0-26.7,11.7l-6.6-9.7c-7.7,3.7-17.4,13.1-21.4,21.4l-1.1,6.8,1.1,9.6,3.7,2.6h0l.6.4a69.2,69.2,0,0,0-3.7,14.4l-13.6-2.5h0s-9.9,22.4,0,46.6l14.8-2.8a59.8,59.8,0,0,0,4.6,13.3l-6.4,4.4h0l-1.1,6.8c1.5,3.1-.4,5.5,7.8,19.3,6.3,10.3,14.6,11.7,14.6,11.7l9.7-14.1a67.5,67.5,0,0,0,21.9,9.2l-1.4,8.3,1.1,9.5a45.3,45.3,0,0,0,10,2c13,1.5,20.3-2,20.3-2V659h0l-.3-1.4a66.6,66.6,0,0,0,21.9-9.2l9.6,14.1.9-.5,1.8-1h0l.5-.3c5-3,14.7-9.9,18.2-19.6l-1.1-9.6-5.3-11.2A65.3,65.3,0,0,0,433,607Zm-51.2-26a28.3,28.3,0,0,1-1.1,3.1,30.6,30.6,0,0,1-12.6,14.6,30.4,30.4,0,0,1-10.8,3.9,27.4,27.4,0,0,1-5,.4,28.5,28.5,0,0,1-5.1-.4,31.3,31.3,0,0,1-10-3.5l-.8-.4a30.7,30.7,0,0,1-13.7-17.7,4.3,4.3,0,0,1-.1-.5,33,33,0,0,1,2.8-7,32,32,0,0,1,8-9.2,31,31,0,0,1,12.6-5.8,32.9,32.9,0,0,1,12.5,0,31,31,0,0,1,12.6,5.8,29.3,29.3,0,0,1,10.8,16.3C396.7,583.5,396.6,583.7,396.6,583.8Z"/></g><path class="cls-35" d="M446.7,600.2c3.2-9.5,5.6-32.4,0-46.6l-13.6,18.9a68.7,68.7,0,0,0-9.8-26.7l10.4-7.1c-3.7-7.7-13.1-17.4-21.4-21.4l-6.6,9.7A66.8,66.8,0,0,0,379,515.4l2.1-11c-8.1-2.8-21.6-3.1-30.3,0l2.1,11a65.6,65.6,0,0,0-26.7,11.7l-6.7-9.8c-7.6,3.7-17.4,13.1-21.3,21.4l10.4,7.1a67.2,67.2,0,0,0-9.8,26.7L285.2,570c-2.8,8-3.1,21.6,0,30.2l14.8-2.7a66.2,66.2,0,0,0,11.6,24.9l-13.4,9.1c3.7,7.7,13,17.4,21.3,21.4l9.7-14.1a65.5,65.5,0,0,0,24.8,9.8l-3.2,17.3c8.1,2.7,21.6,3,30.3,0l-3.3-17.2a67,67,0,0,0,24.9-9.8l9.6,14c7.7-3.7,17.5-13.1,21.4-21.4l-13.3-9.1a67.6,67.6,0,0,0,11.5-24.9Zm-56.9,1.2a33.2,33.2,0,0,1-8,6.9,30.4,30.4,0,0,1-10.8,3.9,25.8,25.8,0,0,1-10.1,0,29.7,29.7,0,0,1-10.8-3.9,29.3,29.3,0,0,1-8-6.9,32,32,0,0,1-5.7-10.8,30.5,30.5,0,0,1-1.2-8.7,20.9,20.9,0,0,1,.1-2.5,30.3,30.3,0,0,1,3.8-12.7,31.6,31.6,0,0,1,8-9.1,28.6,28.6,0,0,1,12.6-5.8,25.9,25.9,0,0,1,6.3-.7,25.6,25.6,0,0,1,6.2.7,29.1,29.1,0,0,1,12.6,5.8,33.2,33.2,0,0,1,8,9.1,31.9,31.9,0,0,1,3.8,12.7,20.9,20.9,0,0,1,.1,2.5,30.5,30.5,0,0,1-1.2,8.7A32,32,0,0,1,389.8,601.4Z"/><path class="cls-36" d="M446.7,583.8c2.3-6.5,2.9-16.8,1.4-25a35.7,35.7,0,0,0-1.4-5.2l-13.6,2.6a68.5,68.5,0,0,0-9.7-26.8l10.3-7.1a36.1,36.1,0,0,0-5.6-8.4c-4.5-5.4-10.3-10.4-15.7-13l-6.7,9.7A66.8,66.8,0,0,0,379,499l2.1-11c-8.1-2.8-21.6-3.1-30.3,0l2.1,11a65.6,65.6,0,0,0-26.7,11.7l-6.6-9.8c-7.7,3.7-17.5,13.1-21.4,21.4l10.4,7.1a68.6,68.6,0,0,0-9.8,26.8l-13.6-2.6a46.1,46.1,0,0,0-2.1,12.1c-.3,6.3.3,13.1,2.1,18.1l14.8-2.7A66.2,66.2,0,0,0,311.6,606l-13.4,9.1a44.9,44.9,0,0,0,7.8,10.8c4.1,4.4,9,8.4,13.6,10.6l9.6-14.1a66,66,0,0,0,24.9,9.8l-3.3,17.2c8.1,2.8,21.7,3.1,30.3,0l-3.2-17.1a70.8,70.8,0,0,0,16.7-5.3c2.8-1.4,5.6-2.9,8.2-4.5l9.6,14c7.7-3.7,17.4-13.1,21.3-21.4L420.4,606a67.6,67.6,0,0,0,11.5-24.9ZM389.8,585a29.5,29.5,0,0,1-8,6.9,28.6,28.6,0,0,1-10.8,3.9,27.3,27.3,0,0,1-5,.5,28.4,28.4,0,0,1-5.1-.5,31.2,31.2,0,0,1-10-3.4l-.8-.5a30.9,30.9,0,0,1-8-6.9,32.4,32.4,0,0,1-5.7-10.7c-.1-.3-.1-.5-.2-.8a34.4,34.4,0,0,1-1-8,20.9,20.9,0,0,1,.1-2.5,31.9,31.9,0,0,1,3.8-12.7,38.8,38.8,0,0,1,5-6.5l3-2.7a29.6,29.6,0,0,1,12.6-5.7,32,32,0,0,1,6.3-.7l3.2.2h0l3,.5a29.6,29.6,0,0,1,12.6,5.7,35.1,35.1,0,0,1,8,9.2,30.3,30.3,0,0,1,3.8,12.7,21.1,21.1,0,0,1,.2,2.5,32.3,32.3,0,0,1-1.3,8.8c-.3,1-.7,2-1.1,3A31.4,31.4,0,0,1,389.8,585Z"/><path class="cls-37" d="M350.9,592.4,311.6,606A66.2,66.2,0,0,1,300,581.1l-14.8,2.7c-1.8-5-2.4-11.8-2.1-18.1l61-21.9a38.8,38.8,0,0,0-5,6.5,31.9,31.9,0,0,0-3.8,12.7,20.9,20.9,0,0,0-.1,2.5,34.4,34.4,0,0,0,1,8c.1.3.1.5.2.8a32.4,32.4,0,0,0,5.7,10.7,30.9,30.9,0,0,0,8,6.9Z"/><path class="cls-38" d="M395.5,574.3a32.3,32.3,0,0,0,1.3-8.8,21.1,21.1,0,0,0-.2-2.5,30.3,30.3,0,0,0-3.8-12.7,35.1,35.1,0,0,0-8-9.2,29.6,29.6,0,0,0-12.6-5.7l-3-.5,58.9-21a36.1,36.1,0,0,1,5.6,8.4l-10.3,7.1a68.5,68.5,0,0,1,9.7,26.8l13.6-2.6a35.7,35.7,0,0,1,1.4,5.2l-53.7,18.5C394.8,576.3,395.2,575.3,395.5,574.3Z"/><polygon class="cls-39" points="433.7 522.3 433.7 538.7 430 541.3 423.4 529.4 433.7 522.3"/><path class="cls-24" d="M433.7,631.5V615.1s-9.7,15.5-21.3,21.4v16.4S428.9,644.8,433.7,631.5Z"/><path class="cls-40" d="M298.2,631.5V615.1a53.4,53.4,0,0,0,21.4,21.4v16.4S308.2,648.9,298.2,631.5Z"/><path class="cls-41" d="M285.2,600.2V583.8s-4.4-15.1,0-30.2C285.2,553.6,275.3,576.1,285.2,600.2Z"/><polygon class="cls-42" points="298.2 538.7 298.2 522.3 308.6 529.4 301.9 541.3 298.2 538.7"/><polygon class="cls-43" points="350.8 496.7 350.8 488 352.9 499 351.3 499 350.8 496.7"/><polygon class="cls-44" points="381.1 488 381.1 496.7 380.6 499.3 379 499 381.1 488"/><polygon class="cls-45" points="412.3 652.9 412.4 636.5 402.8 622.5 402.7 638.9 412.3 652.9"/><polygon class="cls-46" points="431.9 597.5 431.9 581.1 446.7 583.8 446.7 600.2 431.9 597.5"/><polygon class="cls-47" points="329.2 638.8 329.2 622.4 319.6 636.5 319.5 652.9 329.2 638.8"/><polygon class="cls-48" points="300 597.5 300 581.1 285.2 583.8 285.2 600.2 300 597.5"/><path class="cls-49" d="M381.1,649.5v16.4s-11,5.2-30.3,0V649.5S362.3,652.9,381.1,649.5Z"/></g></g></svg>